M48
; DRILL file KiCad 10.0.3 date 2026-08-08T20:31:59
; FORMAT={-:-/ absolute / metric / decimal}
; #@! TF.CreationDate,2026-08-08T20:31:59-07:00
; #@! TF.GenerationSoftware,Kicad,Pcbnew,10.0.3
; #@! TF.FileFunction,Plated,1,4,PTH
FMAT,2
METRIC
; #@! TA.AperFunction,Plated,PTH,ComponentDrill
T1C0.200
; #@! TA.AperFunction,Plated,PTH,ViaDrill
T2C0.300
; #@! TA.AperFunction,Plated,PTH,ViaDrill
T3C0.305
; #@! TA.AperFunction,Plated,PTH,ViaDrill
T4C0.400
; #@! TA.AperFunction,Plated,PTH,ViaDrill
T5C0.600
; #@! TA.AperFunction,Plated,PTH,ComponentDrill
T6C0.890
; #@! TA.AperFunction,Plated,PTH,ComponentDrill
T7C1.000
; #@! TA.AperFunction,Plated,PTH,ComponentDrill
T8C1.020
; #@! TA.AperFunction,Plated,PTH,ComponentDrill
T9C1.100
; #@! TA.AperFunction,Plated,PTH,ComponentDrill
T10C1.300
; #@! TA.AperFunction,Plated,PTH,ComponentDrill
T11C1.600
; #@! TA.AperFunction,Plated,PTH,ComponentDrill
T12C1.630
; #@! TA.AperFunction,Plated,PTH,ComponentDrill
T13C2.700
%
G90
G05
T1
X76.35Y-87.37
X76.35Y-88.77
X77.05Y-86.67
X77.05Y-88.07
X77.05Y-89.47
X77.75Y-87.37
X77.75Y-88.77
X78.45Y-86.67
X78.45Y-88.07
X78.45Y-89.47
X79.15Y-87.37
X79.15Y-88.77
T2
X41.9Y-98.775
X42.5Y-45.0
X42.5Y-50.0
X42.55Y-67.55
X42.859Y-97.3
X43.027Y-71.65
X43.442Y-75.823
X44.069Y-75.137
X44.696Y-74.487
X45.0Y-102.5
X45.0Y-105.0
X45.0Y-108.25
X45.0Y-110.0
X45.0Y-112.5
X45.0Y-115.0
X45.323Y-73.735
X46.0Y-73.2
X46.25Y-109.5
X47.0Y-74.05
X47.45Y-90.0
X47.5Y-45.0
X47.5Y-50.0
X47.6Y-67.25
X48.35Y-90.15
X48.407Y-94.7
X48.422Y-93.55
X48.6Y-97.3
X48.641Y-117.983
X48.674Y-79.318
X48.792Y-95.585
X49.15Y-104.95
X49.25Y-97.8
X49.65Y-96.5
X50.0Y-35.0
X50.0Y-45.0
X50.0Y-50.0
X50.0Y-110.0
X50.0Y-112.5
X50.35Y-93.6
X50.35Y-94.75
X50.357Y-97.457
X50.5Y-85.2
X51.0Y-65.5
X51.0Y-90.1
X51.0Y-99.0
X51.25Y-63.25
X51.461Y-81.9
X51.75Y-85.2
X51.88Y-93.496
X52.15Y-89.0
X52.162Y-85.787
X52.175Y-86.875
X52.2Y-88.15
X52.2Y-98.75
X52.35Y-80.95
X52.35Y-90.5
X52.5Y-67.25
X53.0Y-100.0
X53.15Y-80.95
X53.35Y-98.8
X53.439Y-93.266
X53.6Y-83.35
X53.7Y-62.6
X53.7Y-62.6
X53.85Y-82.0
X53.911Y-79.5
X54.0Y-98.0
X54.161Y-75.6
X54.7Y-54.05
X55.0Y-103.35
X55.0Y-105.975
X55.002Y-104.29
X55.002Y-105.11
X55.279Y-85.818
X55.281Y-89.54
X55.413Y-88.5
X55.6Y-60.6
X55.85Y-94.55
X56.5Y-52.65
X56.6Y-98.0
X57.35Y-43.25
X57.5Y-110.0
X57.5Y-112.5
X57.5Y-115.0
X57.5Y-117.5
X57.55Y-98.95
X58.1Y-45.364
X58.12Y-43.25
X58.35Y-54.05
X58.85Y-43.25
X60.0Y-37.5
X60.0Y-42.5
X60.5Y-90.8
X60.9Y-59.139
X61.3Y-61.2
X61.3Y-62.4
X62.9Y-63.8
X63.05Y-78.74
X63.15Y-59.139
X63.9Y-81.25
X64.05Y-45.0
X64.1Y-63.8
X65.0Y-97.5
X65.0Y-115.0
X65.1Y-79.05
X65.12Y-59.089
X65.4Y-89.55
X65.4Y-92.16
X65.45Y-93.43
X65.45Y-94.7
X65.532Y-43.815
X65.85Y-86.25
X65.97Y-54.399
X66.02Y-52.349
X66.25Y-75.2
X66.25Y-77.3
X66.72Y-52.349
X66.85Y-79.0
X68.25Y-87.9
X68.28Y-39.109
X68.3Y-54.099
X68.5Y-79.0
X68.75Y-64.2
X68.885Y-68.783
X68.885Y-69.85
X69.33Y-38.279
X69.444Y-54.096
X69.7Y-107.9
X70.485Y-78.74
X70.77Y-52.599
X70.8Y-66.2
X70.81Y-38.249
X71.15Y-69.45
X71.75Y-39.159
X71.87Y-58.099
X72.45Y-80.8
X72.8Y-67.1
X73.55Y-96.2
X74.0Y-59.9
X74.0Y-61.6
X74.0Y-63.2
X74.0Y-64.9
X74.0Y-66.5
X74.7Y-109.75
X75.0Y-37.5
X75.0Y-42.5
X75.0Y-82.5
X75.0Y-85.0
X75.0Y-92.5
X75.0Y-95.0
X75.25Y-101.85
X76.05Y-48.839
X76.1Y-51.189
X76.1Y-53.389
X77.9Y-109.55
X78.359Y-58.928
X79.2Y-109.55
X79.24Y-60.198
X79.994Y-61.468
X80.0Y-82.5
X80.0Y-85.0
X80.0Y-92.5
X80.0Y-95.0
X80.416Y-101.85
X80.5Y-109.55
X80.764Y-62.738
X81.518Y-64.008
X81.75Y-109.55
X82.4Y-70.0
X85.0Y-82.5
X85.0Y-85.0
X85.0Y-87.5
X85.0Y-90.0
X85.0Y-92.5
X85.0Y-95.0
X86.05Y-80.7
X87.5Y-60.0
X87.5Y-67.5
X87.5Y-102.5
X87.5Y-107.5
X89.535Y-94.7
X89.6Y-95.97
X90.0Y-60.0
X90.0Y-67.5
X90.289Y-93.43
X91.043Y-90.89
X91.797Y-89.62
X92.5Y-95.0
X92.5Y-102.5
X92.5Y-107.5
X92.551Y-82.0
X101.45Y-97.15
X101.688Y-62.992
X101.7Y-79.85
X101.7Y-114.4
X101.95Y-46.3
X112.5Y-42.5
X112.5Y-47.5
X112.5Y-52.5
X112.5Y-57.5
X112.5Y-62.5
X112.5Y-67.5
X112.5Y-75.0
X112.5Y-80.0
X112.5Y-85.0
X112.5Y-92.5
X112.5Y-97.5
X112.5Y-102.5
X112.5Y-110.0
X112.5Y-115.0
X112.5Y-120.0
X130.191Y-83.705
X130.242Y-100.936
T3
X43.85Y-97.25
X45.7Y-68.4
X47.9Y-96.4
X55.95Y-86.3
T4
X68.695Y-57.149
X130.344Y-66.545
T5
X74.168Y-56.007
X96.647Y-69.1
T6
X58.86Y-103.625
X58.86Y-106.165
X58.86Y-108.705
X58.86Y-111.245
X61.4Y-104.885
X61.4Y-107.425
X61.4Y-109.965
X61.4Y-112.505
T7
X73.5Y-69.44
X73.5Y-71.98
X73.5Y-74.52
X73.5Y-77.06
T8
X47.6Y-101.44
X47.6Y-103.98
X47.6Y-112.15
X47.6Y-114.69
T9
X76.75Y-112.0
X76.75Y-116.5
X83.25Y-112.0
X83.25Y-116.5
X87.0Y-112.0
X87.0Y-116.5
X93.5Y-112.0
X93.5Y-116.5
T10
X105.191Y-76.205
X105.191Y-83.705
X105.242Y-93.436
X105.242Y-100.936
X105.344Y-59.045
X105.344Y-66.545
X105.344Y-110.505
X105.344Y-118.005
X105.598Y-42.789
X105.598Y-50.289
X120.191Y-76.205
X120.191Y-83.705
X120.242Y-93.436
X120.242Y-100.936
X120.344Y-59.045
X120.344Y-66.545
X120.344Y-110.505
X120.344Y-118.005
X120.598Y-42.789
X120.598Y-50.289
X125.191Y-76.205
X125.191Y-83.705
X125.242Y-93.436
X125.242Y-100.936
X125.344Y-59.045
X125.344Y-66.545
X125.344Y-110.505
X125.344Y-118.005
X125.598Y-42.789
X125.598Y-50.289
X130.191Y-76.205
X130.191Y-83.705
X130.242Y-93.436
X130.242Y-100.936
X130.344Y-59.045
X130.344Y-66.545
X130.344Y-110.505
X130.344Y-118.005
X130.598Y-42.789
X130.598Y-50.289
X143.5Y-41.5
X143.5Y-46.5
X143.5Y-51.5
X143.713Y-109.5
X143.713Y-114.5
X143.713Y-119.5
X143.75Y-75.0
X143.75Y-80.0
X143.75Y-85.0
X143.75Y-92.0
X143.75Y-97.0
X143.75Y-102.0
X143.771Y-58.5
X143.771Y-63.5
X143.771Y-68.5
T11
X48.25Y-47.339
X51.25Y-52.039
X54.25Y-47.339
T12
X55.55Y-100.32
X55.55Y-115.81
T13
X44.45Y-38.1
X44.45Y-120.65
X152.4Y-38.1
X152.4Y-120.65
M30
