%TF.GenerationSoftware,KiCad,Pcbnew,10.0.3*%
%TF.CreationDate,2026-07-18T23:13:23-07:00*%
%TF.ProjectId,48VERelay,34385645-5265-46c6-9179-2e6b69636164,rev?*%
%TF.SameCoordinates,Original*%
%TF.FileFunction,Legend,Bot*%
%TF.FilePolarity,Positive*%
%FSLAX46Y46*%
G04 Gerber Fmt 4.6, Leading zero omitted, Abs format (unit mm)*
G04 Created by KiCad (PCBNEW 10.0.3) date 2026-07-18 23:13:23*
%MOMM*%
%LPD*%
G01*
G04 APERTURE LIST*
%ADD10C,0.050000*%
%ADD11C,0.037500*%
%ADD12C,0.025000*%
%ADD13C,0.120000*%
G04 APERTURE END LIST*
D10*
X54420876Y-72741428D02*
X54430400Y-72731904D01*
X54430400Y-72731904D02*
X54439923Y-72703333D01*
X54439923Y-72703333D02*
X54439923Y-72684285D01*
X54439923Y-72684285D02*
X54430400Y-72655714D01*
X54430400Y-72655714D02*
X54411352Y-72636666D01*
X54411352Y-72636666D02*
X54392304Y-72627143D01*
X54392304Y-72627143D02*
X54354209Y-72617619D01*
X54354209Y-72617619D02*
X54325638Y-72617619D01*
X54325638Y-72617619D02*
X54287542Y-72627143D01*
X54287542Y-72627143D02*
X54268495Y-72636666D01*
X54268495Y-72636666D02*
X54249447Y-72655714D01*
X54249447Y-72655714D02*
X54239923Y-72684285D01*
X54239923Y-72684285D02*
X54239923Y-72703333D01*
X54239923Y-72703333D02*
X54249447Y-72731904D01*
X54249447Y-72731904D02*
X54258971Y-72741428D01*
X54439923Y-72931904D02*
X54439923Y-72817619D01*
X54439923Y-72874762D02*
X54239923Y-72874762D01*
X54239923Y-72874762D02*
X54268495Y-72855714D01*
X54268495Y-72855714D02*
X54287542Y-72836666D01*
X54287542Y-72836666D02*
X54297066Y-72817619D01*
X54239923Y-73112857D02*
X54239923Y-73017619D01*
X54239923Y-73017619D02*
X54335161Y-73008095D01*
X54335161Y-73008095D02*
X54325638Y-73017619D01*
X54325638Y-73017619D02*
X54316114Y-73036666D01*
X54316114Y-73036666D02*
X54316114Y-73084285D01*
X54316114Y-73084285D02*
X54325638Y-73103333D01*
X54325638Y-73103333D02*
X54335161Y-73112857D01*
X54335161Y-73112857D02*
X54354209Y-73122380D01*
X54354209Y-73122380D02*
X54401828Y-73122380D01*
X54401828Y-73122380D02*
X54420876Y-73112857D01*
X54420876Y-73112857D02*
X54430400Y-73103333D01*
X54430400Y-73103333D02*
X54439923Y-73084285D01*
X54439923Y-73084285D02*
X54439923Y-73036666D01*
X54439923Y-73036666D02*
X54430400Y-73017619D01*
X54430400Y-73017619D02*
X54420876Y-73008095D01*
X51578571Y-79420876D02*
X51588095Y-79430400D01*
X51588095Y-79430400D02*
X51616666Y-79439923D01*
X51616666Y-79439923D02*
X51635714Y-79439923D01*
X51635714Y-79439923D02*
X51664285Y-79430400D01*
X51664285Y-79430400D02*
X51683333Y-79411352D01*
X51683333Y-79411352D02*
X51692856Y-79392304D01*
X51692856Y-79392304D02*
X51702380Y-79354209D01*
X51702380Y-79354209D02*
X51702380Y-79325638D01*
X51702380Y-79325638D02*
X51692856Y-79287542D01*
X51692856Y-79287542D02*
X51683333Y-79268495D01*
X51683333Y-79268495D02*
X51664285Y-79249447D01*
X51664285Y-79249447D02*
X51635714Y-79239923D01*
X51635714Y-79239923D02*
X51616666Y-79239923D01*
X51616666Y-79239923D02*
X51588095Y-79249447D01*
X51588095Y-79249447D02*
X51578571Y-79258971D01*
X51502380Y-79258971D02*
X51492856Y-79249447D01*
X51492856Y-79249447D02*
X51473809Y-79239923D01*
X51473809Y-79239923D02*
X51426190Y-79239923D01*
X51426190Y-79239923D02*
X51407142Y-79249447D01*
X51407142Y-79249447D02*
X51397618Y-79258971D01*
X51397618Y-79258971D02*
X51388095Y-79278019D01*
X51388095Y-79278019D02*
X51388095Y-79297066D01*
X51388095Y-79297066D02*
X51397618Y-79325638D01*
X51397618Y-79325638D02*
X51511904Y-79439923D01*
X51511904Y-79439923D02*
X51388095Y-79439923D01*
X51321428Y-79239923D02*
X51197619Y-79239923D01*
X51197619Y-79239923D02*
X51264285Y-79316114D01*
X51264285Y-79316114D02*
X51235714Y-79316114D01*
X51235714Y-79316114D02*
X51216666Y-79325638D01*
X51216666Y-79325638D02*
X51207142Y-79335161D01*
X51207142Y-79335161D02*
X51197619Y-79354209D01*
X51197619Y-79354209D02*
X51197619Y-79401828D01*
X51197619Y-79401828D02*
X51207142Y-79420876D01*
X51207142Y-79420876D02*
X51216666Y-79430400D01*
X51216666Y-79430400D02*
X51235714Y-79439923D01*
X51235714Y-79439923D02*
X51292857Y-79439923D01*
X51292857Y-79439923D02*
X51311904Y-79430400D01*
X51311904Y-79430400D02*
X51321428Y-79420876D01*
D11*
X51496428Y-76503157D02*
X51503571Y-76510300D01*
X51503571Y-76510300D02*
X51524999Y-76517442D01*
X51524999Y-76517442D02*
X51539285Y-76517442D01*
X51539285Y-76517442D02*
X51560714Y-76510300D01*
X51560714Y-76510300D02*
X51574999Y-76496014D01*
X51574999Y-76496014D02*
X51582142Y-76481728D01*
X51582142Y-76481728D02*
X51589285Y-76453157D01*
X51589285Y-76453157D02*
X51589285Y-76431728D01*
X51589285Y-76431728D02*
X51582142Y-76403157D01*
X51582142Y-76403157D02*
X51574999Y-76388871D01*
X51574999Y-76388871D02*
X51560714Y-76374585D01*
X51560714Y-76374585D02*
X51539285Y-76367442D01*
X51539285Y-76367442D02*
X51524999Y-76367442D01*
X51524999Y-76367442D02*
X51503571Y-76374585D01*
X51503571Y-76374585D02*
X51496428Y-76381728D01*
X51353571Y-76517442D02*
X51439285Y-76517442D01*
X51396428Y-76517442D02*
X51396428Y-76367442D01*
X51396428Y-76367442D02*
X51410714Y-76388871D01*
X51410714Y-76388871D02*
X51424999Y-76403157D01*
X51424999Y-76403157D02*
X51439285Y-76410300D01*
X51225000Y-76417442D02*
X51225000Y-76517442D01*
X51260714Y-76360300D02*
X51296428Y-76467442D01*
X51296428Y-76467442D02*
X51203571Y-76467442D01*
X51446428Y-78403157D02*
X51453571Y-78410300D01*
X51453571Y-78410300D02*
X51474999Y-78417442D01*
X51474999Y-78417442D02*
X51489285Y-78417442D01*
X51489285Y-78417442D02*
X51510714Y-78410300D01*
X51510714Y-78410300D02*
X51524999Y-78396014D01*
X51524999Y-78396014D02*
X51532142Y-78381728D01*
X51532142Y-78381728D02*
X51539285Y-78353157D01*
X51539285Y-78353157D02*
X51539285Y-78331728D01*
X51539285Y-78331728D02*
X51532142Y-78303157D01*
X51532142Y-78303157D02*
X51524999Y-78288871D01*
X51524999Y-78288871D02*
X51510714Y-78274585D01*
X51510714Y-78274585D02*
X51489285Y-78267442D01*
X51489285Y-78267442D02*
X51474999Y-78267442D01*
X51474999Y-78267442D02*
X51453571Y-78274585D01*
X51453571Y-78274585D02*
X51446428Y-78281728D01*
X51303571Y-78417442D02*
X51389285Y-78417442D01*
X51346428Y-78417442D02*
X51346428Y-78267442D01*
X51346428Y-78267442D02*
X51360714Y-78288871D01*
X51360714Y-78288871D02*
X51374999Y-78303157D01*
X51374999Y-78303157D02*
X51389285Y-78310300D01*
X51160714Y-78417442D02*
X51246428Y-78417442D01*
X51203571Y-78417442D02*
X51203571Y-78267442D01*
X51203571Y-78267442D02*
X51217857Y-78288871D01*
X51217857Y-78288871D02*
X51232142Y-78303157D01*
X51232142Y-78303157D02*
X51246428Y-78310300D01*
D12*
X55138638Y-72785714D02*
X55143400Y-72780952D01*
X55143400Y-72780952D02*
X55148161Y-72766666D01*
X55148161Y-72766666D02*
X55148161Y-72757142D01*
X55148161Y-72757142D02*
X55143400Y-72742857D01*
X55143400Y-72742857D02*
X55133876Y-72733333D01*
X55133876Y-72733333D02*
X55124352Y-72728571D01*
X55124352Y-72728571D02*
X55105304Y-72723809D01*
X55105304Y-72723809D02*
X55091019Y-72723809D01*
X55091019Y-72723809D02*
X55071971Y-72728571D01*
X55071971Y-72728571D02*
X55062447Y-72733333D01*
X55062447Y-72733333D02*
X55052923Y-72742857D01*
X55052923Y-72742857D02*
X55048161Y-72757142D01*
X55048161Y-72757142D02*
X55048161Y-72766666D01*
X55048161Y-72766666D02*
X55052923Y-72780952D01*
X55052923Y-72780952D02*
X55057685Y-72785714D01*
X55148161Y-72880952D02*
X55148161Y-72823809D01*
X55148161Y-72852381D02*
X55048161Y-72852381D01*
X55048161Y-72852381D02*
X55062447Y-72842857D01*
X55062447Y-72842857D02*
X55071971Y-72833333D01*
X55071971Y-72833333D02*
X55076733Y-72823809D01*
X55057685Y-72919047D02*
X55052923Y-72923809D01*
X55052923Y-72923809D02*
X55048161Y-72933333D01*
X55048161Y-72933333D02*
X55048161Y-72957142D01*
X55048161Y-72957142D02*
X55052923Y-72966666D01*
X55052923Y-72966666D02*
X55057685Y-72971428D01*
X55057685Y-72971428D02*
X55067209Y-72976190D01*
X55067209Y-72976190D02*
X55076733Y-72976190D01*
X55076733Y-72976190D02*
X55091019Y-72971428D01*
X55091019Y-72971428D02*
X55148161Y-72914285D01*
X55148161Y-72914285D02*
X55148161Y-72976190D01*
X50317807Y-72706371D02*
X50324950Y-72699228D01*
X50324950Y-72699228D02*
X50332092Y-72677800D01*
X50332092Y-72677800D02*
X50332092Y-72663514D01*
X50332092Y-72663514D02*
X50324950Y-72642085D01*
X50324950Y-72642085D02*
X50310664Y-72627800D01*
X50310664Y-72627800D02*
X50296378Y-72620657D01*
X50296378Y-72620657D02*
X50267807Y-72613514D01*
X50267807Y-72613514D02*
X50246378Y-72613514D01*
X50246378Y-72613514D02*
X50217807Y-72620657D01*
X50217807Y-72620657D02*
X50203521Y-72627800D01*
X50203521Y-72627800D02*
X50189235Y-72642085D01*
X50189235Y-72642085D02*
X50182092Y-72663514D01*
X50182092Y-72663514D02*
X50182092Y-72677800D01*
X50182092Y-72677800D02*
X50189235Y-72699228D01*
X50189235Y-72699228D02*
X50196378Y-72706371D01*
X50332092Y-72849228D02*
X50332092Y-72763514D01*
X50332092Y-72806371D02*
X50182092Y-72806371D01*
X50182092Y-72806371D02*
X50203521Y-72792085D01*
X50203521Y-72792085D02*
X50217807Y-72777800D01*
X50217807Y-72777800D02*
X50224950Y-72763514D01*
X50182092Y-72899228D02*
X50182092Y-72992085D01*
X50182092Y-72992085D02*
X50239235Y-72942085D01*
X50239235Y-72942085D02*
X50239235Y-72963514D01*
X50239235Y-72963514D02*
X50246378Y-72977800D01*
X50246378Y-72977800D02*
X50253521Y-72984942D01*
X50253521Y-72984942D02*
X50267807Y-72992085D01*
X50267807Y-72992085D02*
X50303521Y-72992085D01*
X50303521Y-72992085D02*
X50317807Y-72984942D01*
X50317807Y-72984942D02*
X50324950Y-72977800D01*
X50324950Y-72977800D02*
X50332092Y-72963514D01*
X50332092Y-72963514D02*
X50332092Y-72920657D01*
X50332092Y-72920657D02*
X50324950Y-72906371D01*
X50324950Y-72906371D02*
X50317807Y-72899228D01*
X51966666Y-81715438D02*
X51971428Y-81720200D01*
X51971428Y-81720200D02*
X51985714Y-81724961D01*
X51985714Y-81724961D02*
X51995238Y-81724961D01*
X51995238Y-81724961D02*
X52009523Y-81720200D01*
X52009523Y-81720200D02*
X52019047Y-81710676D01*
X52019047Y-81710676D02*
X52023809Y-81701152D01*
X52023809Y-81701152D02*
X52028571Y-81682104D01*
X52028571Y-81682104D02*
X52028571Y-81667819D01*
X52028571Y-81667819D02*
X52023809Y-81648771D01*
X52023809Y-81648771D02*
X52019047Y-81639247D01*
X52019047Y-81639247D02*
X52009523Y-81629723D01*
X52009523Y-81629723D02*
X51995238Y-81624961D01*
X51995238Y-81624961D02*
X51985714Y-81624961D01*
X51985714Y-81624961D02*
X51971428Y-81629723D01*
X51971428Y-81629723D02*
X51966666Y-81634485D01*
X51933333Y-81624961D02*
X51866666Y-81624961D01*
X51866666Y-81624961D02*
X51909523Y-81724961D01*
D10*
X51618571Y-75470876D02*
X51628095Y-75480400D01*
X51628095Y-75480400D02*
X51656666Y-75489923D01*
X51656666Y-75489923D02*
X51675714Y-75489923D01*
X51675714Y-75489923D02*
X51704285Y-75480400D01*
X51704285Y-75480400D02*
X51723333Y-75461352D01*
X51723333Y-75461352D02*
X51732856Y-75442304D01*
X51732856Y-75442304D02*
X51742380Y-75404209D01*
X51742380Y-75404209D02*
X51742380Y-75375638D01*
X51742380Y-75375638D02*
X51732856Y-75337542D01*
X51732856Y-75337542D02*
X51723333Y-75318495D01*
X51723333Y-75318495D02*
X51704285Y-75299447D01*
X51704285Y-75299447D02*
X51675714Y-75289923D01*
X51675714Y-75289923D02*
X51656666Y-75289923D01*
X51656666Y-75289923D02*
X51628095Y-75299447D01*
X51628095Y-75299447D02*
X51618571Y-75308971D01*
X51428095Y-75489923D02*
X51542380Y-75489923D01*
X51485237Y-75489923D02*
X51485237Y-75289923D01*
X51485237Y-75289923D02*
X51504285Y-75318495D01*
X51504285Y-75318495D02*
X51523333Y-75337542D01*
X51523333Y-75337542D02*
X51542380Y-75347066D01*
X51256666Y-75289923D02*
X51294761Y-75289923D01*
X51294761Y-75289923D02*
X51313809Y-75299447D01*
X51313809Y-75299447D02*
X51323333Y-75308971D01*
X51323333Y-75308971D02*
X51342380Y-75337542D01*
X51342380Y-75337542D02*
X51351904Y-75375638D01*
X51351904Y-75375638D02*
X51351904Y-75451828D01*
X51351904Y-75451828D02*
X51342380Y-75470876D01*
X51342380Y-75470876D02*
X51332857Y-75480400D01*
X51332857Y-75480400D02*
X51313809Y-75489923D01*
X51313809Y-75489923D02*
X51275714Y-75489923D01*
X51275714Y-75489923D02*
X51256666Y-75480400D01*
X51256666Y-75480400D02*
X51247142Y-75470876D01*
X51247142Y-75470876D02*
X51237619Y-75451828D01*
X51237619Y-75451828D02*
X51237619Y-75404209D01*
X51237619Y-75404209D02*
X51247142Y-75385161D01*
X51247142Y-75385161D02*
X51256666Y-75375638D01*
X51256666Y-75375638D02*
X51275714Y-75366114D01*
X51275714Y-75366114D02*
X51313809Y-75366114D01*
X51313809Y-75366114D02*
X51332857Y-75375638D01*
X51332857Y-75375638D02*
X51342380Y-75385161D01*
X51342380Y-75385161D02*
X51351904Y-75404209D01*
X52616723Y-70349266D02*
X52521485Y-70282600D01*
X52616723Y-70234981D02*
X52416723Y-70234981D01*
X52416723Y-70234981D02*
X52416723Y-70311171D01*
X52416723Y-70311171D02*
X52426247Y-70330219D01*
X52426247Y-70330219D02*
X52435771Y-70339742D01*
X52435771Y-70339742D02*
X52454819Y-70349266D01*
X52454819Y-70349266D02*
X52483390Y-70349266D01*
X52483390Y-70349266D02*
X52502438Y-70339742D01*
X52502438Y-70339742D02*
X52511961Y-70330219D01*
X52511961Y-70330219D02*
X52521485Y-70311171D01*
X52521485Y-70311171D02*
X52521485Y-70234981D01*
X52416723Y-70520695D02*
X52416723Y-70482600D01*
X52416723Y-70482600D02*
X52426247Y-70463552D01*
X52426247Y-70463552D02*
X52435771Y-70454028D01*
X52435771Y-70454028D02*
X52464342Y-70434981D01*
X52464342Y-70434981D02*
X52502438Y-70425457D01*
X52502438Y-70425457D02*
X52578628Y-70425457D01*
X52578628Y-70425457D02*
X52597676Y-70434981D01*
X52597676Y-70434981D02*
X52607200Y-70444504D01*
X52607200Y-70444504D02*
X52616723Y-70463552D01*
X52616723Y-70463552D02*
X52616723Y-70501647D01*
X52616723Y-70501647D02*
X52607200Y-70520695D01*
X52607200Y-70520695D02*
X52597676Y-70530219D01*
X52597676Y-70530219D02*
X52578628Y-70539742D01*
X52578628Y-70539742D02*
X52531009Y-70539742D01*
X52531009Y-70539742D02*
X52511961Y-70530219D01*
X52511961Y-70530219D02*
X52502438Y-70520695D01*
X52502438Y-70520695D02*
X52492914Y-70501647D01*
X52492914Y-70501647D02*
X52492914Y-70463552D01*
X52492914Y-70463552D02*
X52502438Y-70444504D01*
X52502438Y-70444504D02*
X52511961Y-70434981D01*
X52511961Y-70434981D02*
X52531009Y-70425457D01*
X64163571Y-96839923D02*
X64230237Y-96744685D01*
X64277856Y-96839923D02*
X64277856Y-96639923D01*
X64277856Y-96639923D02*
X64201666Y-96639923D01*
X64201666Y-96639923D02*
X64182618Y-96649447D01*
X64182618Y-96649447D02*
X64173095Y-96658971D01*
X64173095Y-96658971D02*
X64163571Y-96678019D01*
X64163571Y-96678019D02*
X64163571Y-96706590D01*
X64163571Y-96706590D02*
X64173095Y-96725638D01*
X64173095Y-96725638D02*
X64182618Y-96735161D01*
X64182618Y-96735161D02*
X64201666Y-96744685D01*
X64201666Y-96744685D02*
X64277856Y-96744685D01*
X64087380Y-96658971D02*
X64077856Y-96649447D01*
X64077856Y-96649447D02*
X64058809Y-96639923D01*
X64058809Y-96639923D02*
X64011190Y-96639923D01*
X64011190Y-96639923D02*
X63992142Y-96649447D01*
X63992142Y-96649447D02*
X63982618Y-96658971D01*
X63982618Y-96658971D02*
X63973095Y-96678019D01*
X63973095Y-96678019D02*
X63973095Y-96697066D01*
X63973095Y-96697066D02*
X63982618Y-96725638D01*
X63982618Y-96725638D02*
X64096904Y-96839923D01*
X64096904Y-96839923D02*
X63973095Y-96839923D01*
X63849285Y-96639923D02*
X63830238Y-96639923D01*
X63830238Y-96639923D02*
X63811190Y-96649447D01*
X63811190Y-96649447D02*
X63801666Y-96658971D01*
X63801666Y-96658971D02*
X63792142Y-96678019D01*
X63792142Y-96678019D02*
X63782619Y-96716114D01*
X63782619Y-96716114D02*
X63782619Y-96763733D01*
X63782619Y-96763733D02*
X63792142Y-96801828D01*
X63792142Y-96801828D02*
X63801666Y-96820876D01*
X63801666Y-96820876D02*
X63811190Y-96830400D01*
X63811190Y-96830400D02*
X63830238Y-96839923D01*
X63830238Y-96839923D02*
X63849285Y-96839923D01*
X63849285Y-96839923D02*
X63868333Y-96830400D01*
X63868333Y-96830400D02*
X63877857Y-96820876D01*
X63877857Y-96820876D02*
X63887380Y-96801828D01*
X63887380Y-96801828D02*
X63896904Y-96763733D01*
X63896904Y-96763733D02*
X63896904Y-96716114D01*
X63896904Y-96716114D02*
X63887380Y-96678019D01*
X63887380Y-96678019D02*
X63877857Y-96658971D01*
X63877857Y-96658971D02*
X63868333Y-96649447D01*
X63868333Y-96649447D02*
X63849285Y-96639923D01*
X65520876Y-109066666D02*
X65530400Y-109057142D01*
X65530400Y-109057142D02*
X65539923Y-109028571D01*
X65539923Y-109028571D02*
X65539923Y-109009523D01*
X65539923Y-109009523D02*
X65530400Y-108980952D01*
X65530400Y-108980952D02*
X65511352Y-108961904D01*
X65511352Y-108961904D02*
X65492304Y-108952381D01*
X65492304Y-108952381D02*
X65454209Y-108942857D01*
X65454209Y-108942857D02*
X65425638Y-108942857D01*
X65425638Y-108942857D02*
X65387542Y-108952381D01*
X65387542Y-108952381D02*
X65368495Y-108961904D01*
X65368495Y-108961904D02*
X65349447Y-108980952D01*
X65349447Y-108980952D02*
X65339923Y-109009523D01*
X65339923Y-109009523D02*
X65339923Y-109028571D01*
X65339923Y-109028571D02*
X65349447Y-109057142D01*
X65349447Y-109057142D02*
X65358971Y-109066666D01*
X65339923Y-109238095D02*
X65339923Y-109200000D01*
X65339923Y-109200000D02*
X65349447Y-109180952D01*
X65349447Y-109180952D02*
X65358971Y-109171428D01*
X65358971Y-109171428D02*
X65387542Y-109152381D01*
X65387542Y-109152381D02*
X65425638Y-109142857D01*
X65425638Y-109142857D02*
X65501828Y-109142857D01*
X65501828Y-109142857D02*
X65520876Y-109152381D01*
X65520876Y-109152381D02*
X65530400Y-109161904D01*
X65530400Y-109161904D02*
X65539923Y-109180952D01*
X65539923Y-109180952D02*
X65539923Y-109219047D01*
X65539923Y-109219047D02*
X65530400Y-109238095D01*
X65530400Y-109238095D02*
X65520876Y-109247619D01*
X65520876Y-109247619D02*
X65501828Y-109257142D01*
X65501828Y-109257142D02*
X65454209Y-109257142D01*
X65454209Y-109257142D02*
X65435161Y-109247619D01*
X65435161Y-109247619D02*
X65425638Y-109238095D01*
X65425638Y-109238095D02*
X65416114Y-109219047D01*
X65416114Y-109219047D02*
X65416114Y-109180952D01*
X65416114Y-109180952D02*
X65425638Y-109161904D01*
X65425638Y-109161904D02*
X65435161Y-109152381D01*
X65435161Y-109152381D02*
X65454209Y-109142857D01*
%TO.C,C15*%
D13*
X54060000Y-72762164D02*
X54060000Y-72977836D01*
X53340000Y-72762164D02*
X53340000Y-72977836D01*
%TO.C,C14*%
X50112164Y-76710000D02*
X50327836Y-76710000D01*
X50112164Y-75990000D02*
X50327836Y-75990000D01*
%TO.C,C11*%
X50092164Y-78710000D02*
X50307836Y-78710000D01*
X50092164Y-77990000D02*
X50307836Y-77990000D01*
%TO.C,C12*%
X56060000Y-72742164D02*
X56060000Y-72957836D01*
X55340000Y-72742164D02*
X55340000Y-72957836D01*
%TO.C,C13*%
X51324000Y-72694964D02*
X51324000Y-72910636D01*
X50604000Y-72694964D02*
X50604000Y-72910636D01*
%TO.C,C16*%
X50112164Y-75710000D02*
X50327836Y-75710000D01*
X50112164Y-74990000D02*
X50327836Y-74990000D01*
%TO.C,R6*%
X52156800Y-70211241D02*
X52156800Y-69903959D01*
X51396800Y-70211241D02*
X51396800Y-69903959D01*
%TD*%
M02*
