M48
; DRILL file KiCad 10.0.3 date 2026-07-31T00:22:57
; FORMAT={-:-/ absolute / metric / decimal}
; #@! TF.CreationDate,2026-07-31T00:22:57-07:00
; #@! TF.GenerationSoftware,Kicad,Pcbnew,10.0.3
; #@! TF.FileFunction,Plated,1,4,PTH
FMAT,2
METRIC
; #@! TA.AperFunction,Plated,PTH,ComponentDrill
T1C0.200
; #@! TA.AperFunction,Plated,PTH,ViaDrill
T2C0.300
; #@! TA.AperFunction,Plated,PTH,ViaDrill
T3C0.305
; #@! TA.AperFunction,Plated,PTH,ViaDrill
T4C0.400
; #@! TA.AperFunction,Plated,PTH,ViaDrill
T5C0.600
; #@! TA.AperFunction,Plated,PTH,ComponentDrill
T6C0.890
; #@! TA.AperFunction,Plated,PTH,ComponentDrill
T7C1.000
; #@! TA.AperFunction,Plated,PTH,ComponentDrill
T8C1.020
; #@! TA.AperFunction,Plated,PTH,ComponentDrill
T9C1.100
; #@! TA.AperFunction,Plated,PTH,ComponentDrill
T10C1.300
; #@! TA.AperFunction,Plated,PTH,ComponentDrill
T11C1.600
; #@! TA.AperFunction,Plated,PTH,ComponentDrill
T12C1.630
; #@! TA.AperFunction,Plated,PTH,ComponentDrill
T13C2.700
%
G90
G05
T1
X76.35Y-87.37
X76.35Y-88.77
X77.05Y-86.67
X77.05Y-88.07
X77.05Y-89.47
X77.75Y-87.37
X77.75Y-88.77
X78.45Y-86.67
X78.45Y-88.07
X78.45Y-89.47
X79.15Y-87.37
X79.15Y-88.77
T2
X42.55Y-67.55
X42.825Y-97.95
X46.1Y-81.15
X46.1Y-96.6
X47.6Y-67.25
X47.95Y-77.55
X48.175Y-78.575
X48.25Y-94.7
X48.641Y-117.983
X48.787Y-76.35
X48.919Y-75.31
X48.921Y-79.032
X49.7Y-81.65
X50.039Y-89.25
X50.289Y-85.35
X50.761Y-71.584
X51.0Y-65.5
X51.05Y-83.9
X51.25Y-63.25
X51.85Y-83.9
X52.05Y-75.85
X52.1Y-74.85
X52.32Y-71.354
X52.5Y-67.25
X52.739Y-82.95
X53.2Y-74.75
X53.25Y-67.75
X53.7Y-62.6
X53.7Y-62.6
X53.7Y-79.65
X53.85Y-71.25
X54.7Y-54.05
X55.526Y-85.532
X55.6Y-60.6
X55.778Y-71.3
X56.2Y-74.65
X56.5Y-52.65
X57.2Y-90.8
X57.35Y-43.25
X58.1Y-45.364
X58.12Y-43.25
X58.35Y-54.05
X58.85Y-43.25
X60.1Y-74.35
X60.9Y-59.139
X61.163Y-79.85
X61.3Y-61.2
X61.3Y-62.4
X62.9Y-63.8
X63.05Y-78.74
X63.15Y-59.139
X63.254Y-90.796
X64.05Y-45.0
X64.1Y-63.8
X64.201Y-105.351
X64.3Y-106.95
X65.1Y-79.05
X65.12Y-59.089
X65.532Y-43.815
X65.85Y-86.25
X65.97Y-54.399
X66.02Y-52.349
X66.05Y-107.2
X66.25Y-75.2
X66.25Y-77.3
X66.72Y-52.349
X66.85Y-79.0
X67.4Y-90.8
X68.25Y-87.9
X68.28Y-39.109
X68.3Y-54.1
X68.5Y-79.0
X68.6Y-104.9
X68.75Y-64.2
X69.33Y-38.279
X69.5Y-54.1
X70.485Y-78.74
X70.77Y-52.599
X70.8Y-66.2
X70.81Y-38.249
X71.75Y-39.159
X71.87Y-58.099
X72.3Y-105.7
X72.45Y-80.8
X72.9Y-100.65
X73.55Y-96.2
X73.75Y-105.7
X74.0Y-59.9
X74.0Y-61.6
X74.0Y-63.2
X74.0Y-64.9
X74.0Y-66.5
X75.1Y-100.7
X76.05Y-48.839
X76.1Y-51.189
X76.1Y-53.389
X78.359Y-58.928
X79.24Y-60.198
X79.994Y-61.468
X80.764Y-62.738
X81.518Y-64.008
X82.4Y-70.0
X86.05Y-80.7
X88.5Y-78.867
X89.535Y-94.7
X89.6Y-95.97
X90.289Y-93.43
X91.043Y-90.89
X91.797Y-89.62
X92.551Y-82.0
X101.45Y-97.15
X101.688Y-62.992
X101.7Y-79.85
X101.7Y-114.4
X101.95Y-46.3
X130.191Y-83.705
X130.242Y-100.936
T3
X45.7Y-68.4
T4
X68.695Y-57.149
X130.344Y-66.545
T5
X74.168Y-56.007
X96.647Y-69.1
T6
X58.86Y-103.625
X58.86Y-106.165
X58.86Y-108.705
X58.86Y-111.245
X61.4Y-104.885
X61.4Y-107.425
X61.4Y-109.965
X61.4Y-112.505
T7
X73.5Y-69.44
X73.5Y-71.98
X73.5Y-74.52
X73.5Y-77.06
T8
X47.6Y-101.44
X47.6Y-103.98
X47.6Y-112.15
X47.6Y-114.69
T9
X76.25Y-107.5
X76.25Y-112.0
X82.75Y-107.5
X82.75Y-112.0
X86.5Y-107.5
X86.5Y-112.0
X93.0Y-107.5
X93.0Y-112.0
T10
X105.191Y-76.205
X105.191Y-83.705
X105.242Y-93.436
X105.242Y-100.936
X105.344Y-59.045
X105.344Y-66.545
X105.344Y-110.505
X105.344Y-118.005
X105.598Y-42.789
X105.598Y-50.289
X120.191Y-76.205
X120.191Y-83.705
X120.242Y-93.436
X120.242Y-100.936
X120.344Y-59.045
X120.344Y-66.545
X120.344Y-110.505
X120.344Y-118.005
X120.598Y-42.789
X120.598Y-50.289
X125.191Y-76.205
X125.191Y-83.705
X125.242Y-93.436
X125.242Y-100.936
X125.344Y-59.045
X125.344Y-66.545
X125.344Y-110.505
X125.344Y-118.005
X125.598Y-42.789
X125.598Y-50.289
X130.191Y-76.205
X130.191Y-83.705
X130.242Y-93.436
X130.242Y-100.936
X130.344Y-59.045
X130.344Y-66.545
X130.344Y-110.505
X130.344Y-118.005
X130.598Y-42.789
X130.598Y-50.289
X143.5Y-41.5
X143.5Y-46.5
X143.5Y-51.5
X143.713Y-109.5
X143.713Y-114.5
X143.713Y-119.5
X143.75Y-75.0
X143.75Y-80.0
X143.75Y-85.0
X143.75Y-92.0
X143.75Y-97.0
X143.75Y-102.0
X143.771Y-58.5
X143.771Y-63.5
X143.771Y-68.5
T11
X48.25Y-47.339
X51.25Y-52.039
X54.25Y-47.339
T12
X55.55Y-100.32
X55.55Y-115.81
T13
X44.45Y-38.1
X44.45Y-120.65
X152.4Y-38.1
X152.4Y-120.65
M30
