%TF.GenerationSoftware,KiCad,Pcbnew,10.0.3*%
%TF.CreationDate,2026-07-31T00:23:01-07:00*%
%TF.ProjectId,48VERelay,34385645-5265-46c6-9179-2e6b69636164,rev?*%
%TF.SameCoordinates,Original*%
%TF.FileFunction,AssemblyDrawing,Bot*%
%FSLAX46Y46*%
G04 Gerber Fmt 4.6, Leading zero omitted, Abs format (unit mm)*
G04 Created by KiCad (PCBNEW 10.0.3) date 2026-07-31 00:23:01*
%MOMM*%
%LPD*%
G01*
G04 APERTURE LIST*
%ADD10C,0.050000*%
%ADD11C,0.040000*%
%ADD12C,0.075000*%
%ADD13C,0.037500*%
%ADD14C,0.025000*%
%ADD15C,0.100000*%
G04 APERTURE END LIST*
D10*
X52839923Y-72551936D02*
X52839923Y-72570983D01*
X52839923Y-72570983D02*
X52849447Y-72590031D01*
X52849447Y-72590031D02*
X52858971Y-72599555D01*
X52858971Y-72599555D02*
X52878019Y-72609079D01*
X52878019Y-72609079D02*
X52916114Y-72618602D01*
X52916114Y-72618602D02*
X52963733Y-72618602D01*
X52963733Y-72618602D02*
X53001828Y-72609079D01*
X53001828Y-72609079D02*
X53020876Y-72599555D01*
X53020876Y-72599555D02*
X53030400Y-72590031D01*
X53030400Y-72590031D02*
X53039923Y-72570983D01*
X53039923Y-72570983D02*
X53039923Y-72551936D01*
X53039923Y-72551936D02*
X53030400Y-72532888D01*
X53030400Y-72532888D02*
X53020876Y-72523364D01*
X53020876Y-72523364D02*
X53001828Y-72513841D01*
X53001828Y-72513841D02*
X52963733Y-72504317D01*
X52963733Y-72504317D02*
X52916114Y-72504317D01*
X52916114Y-72504317D02*
X52878019Y-72513841D01*
X52878019Y-72513841D02*
X52858971Y-72523364D01*
X52858971Y-72523364D02*
X52849447Y-72532888D01*
X52849447Y-72532888D02*
X52839923Y-72551936D01*
X53020876Y-72704317D02*
X53030400Y-72713840D01*
X53030400Y-72713840D02*
X53039923Y-72704317D01*
X53039923Y-72704317D02*
X53030400Y-72694793D01*
X53030400Y-72694793D02*
X53020876Y-72704317D01*
X53020876Y-72704317D02*
X53039923Y-72704317D01*
X53039923Y-72904316D02*
X53039923Y-72790031D01*
X53039923Y-72847174D02*
X52839923Y-72847174D01*
X52839923Y-72847174D02*
X52868495Y-72828126D01*
X52868495Y-72828126D02*
X52887542Y-72809078D01*
X52887542Y-72809078D02*
X52897066Y-72790031D01*
X52906590Y-73075745D02*
X53039923Y-73075745D01*
X52906590Y-72990031D02*
X53011352Y-72990031D01*
X53011352Y-72990031D02*
X53030400Y-72999554D01*
X53030400Y-72999554D02*
X53039923Y-73018602D01*
X53039923Y-73018602D02*
X53039923Y-73047173D01*
X53039923Y-73047173D02*
X53030400Y-73066221D01*
X53030400Y-73066221D02*
X53020876Y-73075745D01*
X52935161Y-73237649D02*
X52935161Y-73170983D01*
X53039923Y-73170983D02*
X52839923Y-73170983D01*
X52839923Y-73170983D02*
X52839923Y-73266221D01*
D11*
X53789765Y-72709285D02*
X53801670Y-72697381D01*
X53801670Y-72697381D02*
X53813574Y-72661666D01*
X53813574Y-72661666D02*
X53813574Y-72637857D01*
X53813574Y-72637857D02*
X53801670Y-72602143D01*
X53801670Y-72602143D02*
X53777860Y-72578333D01*
X53777860Y-72578333D02*
X53754050Y-72566428D01*
X53754050Y-72566428D02*
X53706431Y-72554524D01*
X53706431Y-72554524D02*
X53670717Y-72554524D01*
X53670717Y-72554524D02*
X53623098Y-72566428D01*
X53623098Y-72566428D02*
X53599289Y-72578333D01*
X53599289Y-72578333D02*
X53575479Y-72602143D01*
X53575479Y-72602143D02*
X53563574Y-72637857D01*
X53563574Y-72637857D02*
X53563574Y-72661666D01*
X53563574Y-72661666D02*
X53575479Y-72697381D01*
X53575479Y-72697381D02*
X53587384Y-72709285D01*
X53813574Y-72947381D02*
X53813574Y-72804524D01*
X53813574Y-72875952D02*
X53563574Y-72875952D01*
X53563574Y-72875952D02*
X53599289Y-72852143D01*
X53599289Y-72852143D02*
X53623098Y-72828333D01*
X53623098Y-72828333D02*
X53635003Y-72804524D01*
X53563574Y-73173571D02*
X53563574Y-73054523D01*
X53563574Y-73054523D02*
X53682622Y-73042619D01*
X53682622Y-73042619D02*
X53670717Y-73054523D01*
X53670717Y-73054523D02*
X53658812Y-73078333D01*
X53658812Y-73078333D02*
X53658812Y-73137857D01*
X53658812Y-73137857D02*
X53670717Y-73161666D01*
X53670717Y-73161666D02*
X53682622Y-73173571D01*
X53682622Y-73173571D02*
X53706431Y-73185476D01*
X53706431Y-73185476D02*
X53765955Y-73185476D01*
X53765955Y-73185476D02*
X53789765Y-73173571D01*
X53789765Y-73173571D02*
X53801670Y-73161666D01*
X53801670Y-73161666D02*
X53813574Y-73137857D01*
X53813574Y-73137857D02*
X53813574Y-73078333D01*
X53813574Y-73078333D02*
X53801670Y-73054523D01*
X53801670Y-73054523D02*
X53789765Y-73042619D01*
D10*
X50658778Y-79271923D02*
X50773063Y-79271923D01*
X50715920Y-79271923D02*
X50715920Y-79071923D01*
X50715920Y-79071923D02*
X50734968Y-79100495D01*
X50734968Y-79100495D02*
X50754016Y-79119542D01*
X50754016Y-79119542D02*
X50773063Y-79129066D01*
X50534968Y-79071923D02*
X50515921Y-79071923D01*
X50515921Y-79071923D02*
X50496873Y-79081447D01*
X50496873Y-79081447D02*
X50487349Y-79090971D01*
X50487349Y-79090971D02*
X50477825Y-79110019D01*
X50477825Y-79110019D02*
X50468302Y-79148114D01*
X50468302Y-79148114D02*
X50468302Y-79195733D01*
X50468302Y-79195733D02*
X50477825Y-79233828D01*
X50477825Y-79233828D02*
X50487349Y-79252876D01*
X50487349Y-79252876D02*
X50496873Y-79262400D01*
X50496873Y-79262400D02*
X50515921Y-79271923D01*
X50515921Y-79271923D02*
X50534968Y-79271923D01*
X50534968Y-79271923D02*
X50554016Y-79262400D01*
X50554016Y-79262400D02*
X50563540Y-79252876D01*
X50563540Y-79252876D02*
X50573063Y-79233828D01*
X50573063Y-79233828D02*
X50582587Y-79195733D01*
X50582587Y-79195733D02*
X50582587Y-79148114D01*
X50582587Y-79148114D02*
X50573063Y-79110019D01*
X50573063Y-79110019D02*
X50563540Y-79090971D01*
X50563540Y-79090971D02*
X50554016Y-79081447D01*
X50554016Y-79081447D02*
X50534968Y-79071923D01*
X50382587Y-79138590D02*
X50382587Y-79271923D01*
X50382587Y-79157638D02*
X50373064Y-79148114D01*
X50373064Y-79148114D02*
X50354016Y-79138590D01*
X50354016Y-79138590D02*
X50325445Y-79138590D01*
X50325445Y-79138590D02*
X50306397Y-79148114D01*
X50306397Y-79148114D02*
X50296873Y-79167161D01*
X50296873Y-79167161D02*
X50296873Y-79271923D01*
X50134969Y-79167161D02*
X50201635Y-79167161D01*
X50201635Y-79271923D02*
X50201635Y-79071923D01*
X50201635Y-79071923D02*
X50106397Y-79071923D01*
X50573064Y-80014876D02*
X50582588Y-80024400D01*
X50582588Y-80024400D02*
X50611159Y-80033923D01*
X50611159Y-80033923D02*
X50630207Y-80033923D01*
X50630207Y-80033923D02*
X50658778Y-80024400D01*
X50658778Y-80024400D02*
X50677826Y-80005352D01*
X50677826Y-80005352D02*
X50687349Y-79986304D01*
X50687349Y-79986304D02*
X50696873Y-79948209D01*
X50696873Y-79948209D02*
X50696873Y-79919638D01*
X50696873Y-79919638D02*
X50687349Y-79881542D01*
X50687349Y-79881542D02*
X50677826Y-79862495D01*
X50677826Y-79862495D02*
X50658778Y-79843447D01*
X50658778Y-79843447D02*
X50630207Y-79833923D01*
X50630207Y-79833923D02*
X50611159Y-79833923D01*
X50611159Y-79833923D02*
X50582588Y-79843447D01*
X50582588Y-79843447D02*
X50573064Y-79852971D01*
X50496873Y-79852971D02*
X50487349Y-79843447D01*
X50487349Y-79843447D02*
X50468302Y-79833923D01*
X50468302Y-79833923D02*
X50420683Y-79833923D01*
X50420683Y-79833923D02*
X50401635Y-79843447D01*
X50401635Y-79843447D02*
X50392111Y-79852971D01*
X50392111Y-79852971D02*
X50382588Y-79872019D01*
X50382588Y-79872019D02*
X50382588Y-79891066D01*
X50382588Y-79891066D02*
X50392111Y-79919638D01*
X50392111Y-79919638D02*
X50506397Y-80033923D01*
X50506397Y-80033923D02*
X50382588Y-80033923D01*
X50315921Y-79833923D02*
X50192112Y-79833923D01*
X50192112Y-79833923D02*
X50258778Y-79910114D01*
X50258778Y-79910114D02*
X50230207Y-79910114D01*
X50230207Y-79910114D02*
X50211159Y-79919638D01*
X50211159Y-79919638D02*
X50201635Y-79929161D01*
X50201635Y-79929161D02*
X50192112Y-79948209D01*
X50192112Y-79948209D02*
X50192112Y-79995828D01*
X50192112Y-79995828D02*
X50201635Y-80014876D01*
X50201635Y-80014876D02*
X50211159Y-80024400D01*
X50211159Y-80024400D02*
X50230207Y-80033923D01*
X50230207Y-80033923D02*
X50287350Y-80033923D01*
X50287350Y-80033923D02*
X50306397Y-80024400D01*
X50306397Y-80024400D02*
X50315921Y-80014876D01*
X64358809Y-95689923D02*
X64473094Y-95689923D01*
X64415951Y-95689923D02*
X64415951Y-95489923D01*
X64415951Y-95489923D02*
X64434999Y-95518495D01*
X64434999Y-95518495D02*
X64454047Y-95537542D01*
X64454047Y-95537542D02*
X64473094Y-95547066D01*
X64234999Y-95489923D02*
X64215952Y-95489923D01*
X64215952Y-95489923D02*
X64196904Y-95499447D01*
X64196904Y-95499447D02*
X64187380Y-95508971D01*
X64187380Y-95508971D02*
X64177856Y-95528019D01*
X64177856Y-95528019D02*
X64168333Y-95566114D01*
X64168333Y-95566114D02*
X64168333Y-95613733D01*
X64168333Y-95613733D02*
X64177856Y-95651828D01*
X64177856Y-95651828D02*
X64187380Y-95670876D01*
X64187380Y-95670876D02*
X64196904Y-95680400D01*
X64196904Y-95680400D02*
X64215952Y-95689923D01*
X64215952Y-95689923D02*
X64234999Y-95689923D01*
X64234999Y-95689923D02*
X64254047Y-95680400D01*
X64254047Y-95680400D02*
X64263571Y-95670876D01*
X64263571Y-95670876D02*
X64273094Y-95651828D01*
X64273094Y-95651828D02*
X64282618Y-95613733D01*
X64282618Y-95613733D02*
X64282618Y-95566114D01*
X64282618Y-95566114D02*
X64273094Y-95528019D01*
X64273094Y-95528019D02*
X64263571Y-95508971D01*
X64263571Y-95508971D02*
X64254047Y-95499447D01*
X64254047Y-95499447D02*
X64234999Y-95489923D01*
X63825476Y-95689923D02*
X63939761Y-95689923D01*
X63882618Y-95689923D02*
X63882618Y-95489923D01*
X63882618Y-95489923D02*
X63901666Y-95518495D01*
X63901666Y-95518495D02*
X63920714Y-95537542D01*
X63920714Y-95537542D02*
X63939761Y-95547066D01*
X63749285Y-95689923D02*
X63596904Y-95489923D01*
X63720714Y-95489923D02*
X63701666Y-95499447D01*
X63701666Y-95499447D02*
X63692142Y-95518495D01*
X63692142Y-95518495D02*
X63701666Y-95537542D01*
X63701666Y-95537542D02*
X63720714Y-95547066D01*
X63720714Y-95547066D02*
X63739761Y-95537542D01*
X63739761Y-95537542D02*
X63749285Y-95518495D01*
X63749285Y-95518495D02*
X63739761Y-95499447D01*
X63739761Y-95499447D02*
X63720714Y-95489923D01*
X63606428Y-95680400D02*
X63596904Y-95661352D01*
X63596904Y-95661352D02*
X63606428Y-95642304D01*
X63606428Y-95642304D02*
X63625476Y-95632780D01*
X63625476Y-95632780D02*
X63644523Y-95642304D01*
X63644523Y-95642304D02*
X63654047Y-95661352D01*
X63654047Y-95661352D02*
X63644523Y-95680400D01*
X63644523Y-95680400D02*
X63625476Y-95689923D01*
X63625476Y-95689923D02*
X63606428Y-95680400D01*
D11*
X64215714Y-96943574D02*
X64299047Y-96824527D01*
X64358571Y-96943574D02*
X64358571Y-96693574D01*
X64358571Y-96693574D02*
X64263333Y-96693574D01*
X64263333Y-96693574D02*
X64239523Y-96705479D01*
X64239523Y-96705479D02*
X64227618Y-96717384D01*
X64227618Y-96717384D02*
X64215714Y-96741193D01*
X64215714Y-96741193D02*
X64215714Y-96776908D01*
X64215714Y-96776908D02*
X64227618Y-96800717D01*
X64227618Y-96800717D02*
X64239523Y-96812622D01*
X64239523Y-96812622D02*
X64263333Y-96824527D01*
X64263333Y-96824527D02*
X64358571Y-96824527D01*
X64120475Y-96717384D02*
X64108571Y-96705479D01*
X64108571Y-96705479D02*
X64084761Y-96693574D01*
X64084761Y-96693574D02*
X64025237Y-96693574D01*
X64025237Y-96693574D02*
X64001428Y-96705479D01*
X64001428Y-96705479D02*
X63989523Y-96717384D01*
X63989523Y-96717384D02*
X63977618Y-96741193D01*
X63977618Y-96741193D02*
X63977618Y-96765003D01*
X63977618Y-96765003D02*
X63989523Y-96800717D01*
X63989523Y-96800717D02*
X64132380Y-96943574D01*
X64132380Y-96943574D02*
X63977618Y-96943574D01*
X63822857Y-96693574D02*
X63799047Y-96693574D01*
X63799047Y-96693574D02*
X63775238Y-96705479D01*
X63775238Y-96705479D02*
X63763333Y-96717384D01*
X63763333Y-96717384D02*
X63751428Y-96741193D01*
X63751428Y-96741193D02*
X63739523Y-96788812D01*
X63739523Y-96788812D02*
X63739523Y-96848336D01*
X63739523Y-96848336D02*
X63751428Y-96895955D01*
X63751428Y-96895955D02*
X63763333Y-96919765D01*
X63763333Y-96919765D02*
X63775238Y-96931670D01*
X63775238Y-96931670D02*
X63799047Y-96943574D01*
X63799047Y-96943574D02*
X63822857Y-96943574D01*
X63822857Y-96943574D02*
X63846666Y-96931670D01*
X63846666Y-96931670D02*
X63858571Y-96919765D01*
X63858571Y-96919765D02*
X63870476Y-96895955D01*
X63870476Y-96895955D02*
X63882380Y-96848336D01*
X63882380Y-96848336D02*
X63882380Y-96788812D01*
X63882380Y-96788812D02*
X63870476Y-96741193D01*
X63870476Y-96741193D02*
X63858571Y-96717384D01*
X63858571Y-96717384D02*
X63846666Y-96705479D01*
X63846666Y-96705479D02*
X63822857Y-96693574D01*
D10*
X50568570Y-75539923D02*
X50549523Y-75539923D01*
X50549523Y-75539923D02*
X50530475Y-75549447D01*
X50530475Y-75549447D02*
X50520951Y-75558971D01*
X50520951Y-75558971D02*
X50511427Y-75578019D01*
X50511427Y-75578019D02*
X50501904Y-75616114D01*
X50501904Y-75616114D02*
X50501904Y-75663733D01*
X50501904Y-75663733D02*
X50511427Y-75701828D01*
X50511427Y-75701828D02*
X50520951Y-75720876D01*
X50520951Y-75720876D02*
X50530475Y-75730400D01*
X50530475Y-75730400D02*
X50549523Y-75739923D01*
X50549523Y-75739923D02*
X50568570Y-75739923D01*
X50568570Y-75739923D02*
X50587618Y-75730400D01*
X50587618Y-75730400D02*
X50597142Y-75720876D01*
X50597142Y-75720876D02*
X50606665Y-75701828D01*
X50606665Y-75701828D02*
X50616189Y-75663733D01*
X50616189Y-75663733D02*
X50616189Y-75616114D01*
X50616189Y-75616114D02*
X50606665Y-75578019D01*
X50606665Y-75578019D02*
X50597142Y-75558971D01*
X50597142Y-75558971D02*
X50587618Y-75549447D01*
X50587618Y-75549447D02*
X50568570Y-75539923D01*
X50416189Y-75720876D02*
X50406666Y-75730400D01*
X50406666Y-75730400D02*
X50416189Y-75739923D01*
X50416189Y-75739923D02*
X50425713Y-75730400D01*
X50425713Y-75730400D02*
X50416189Y-75720876D01*
X50416189Y-75720876D02*
X50416189Y-75739923D01*
X50216190Y-75739923D02*
X50330475Y-75739923D01*
X50273332Y-75739923D02*
X50273332Y-75539923D01*
X50273332Y-75539923D02*
X50292380Y-75568495D01*
X50292380Y-75568495D02*
X50311428Y-75587542D01*
X50311428Y-75587542D02*
X50330475Y-75597066D01*
X50044761Y-75606590D02*
X50044761Y-75739923D01*
X50130475Y-75606590D02*
X50130475Y-75711352D01*
X50130475Y-75711352D02*
X50120952Y-75730400D01*
X50120952Y-75730400D02*
X50101904Y-75739923D01*
X50101904Y-75739923D02*
X50073333Y-75739923D01*
X50073333Y-75739923D02*
X50054285Y-75730400D01*
X50054285Y-75730400D02*
X50044761Y-75720876D01*
X49882857Y-75635161D02*
X49949523Y-75635161D01*
X49949523Y-75739923D02*
X49949523Y-75539923D01*
X49949523Y-75539923D02*
X49854285Y-75539923D01*
D11*
X50380714Y-76439765D02*
X50392618Y-76451670D01*
X50392618Y-76451670D02*
X50428333Y-76463574D01*
X50428333Y-76463574D02*
X50452142Y-76463574D01*
X50452142Y-76463574D02*
X50487856Y-76451670D01*
X50487856Y-76451670D02*
X50511666Y-76427860D01*
X50511666Y-76427860D02*
X50523571Y-76404050D01*
X50523571Y-76404050D02*
X50535475Y-76356431D01*
X50535475Y-76356431D02*
X50535475Y-76320717D01*
X50535475Y-76320717D02*
X50523571Y-76273098D01*
X50523571Y-76273098D02*
X50511666Y-76249289D01*
X50511666Y-76249289D02*
X50487856Y-76225479D01*
X50487856Y-76225479D02*
X50452142Y-76213574D01*
X50452142Y-76213574D02*
X50428333Y-76213574D01*
X50428333Y-76213574D02*
X50392618Y-76225479D01*
X50392618Y-76225479D02*
X50380714Y-76237384D01*
X50142618Y-76463574D02*
X50285475Y-76463574D01*
X50214047Y-76463574D02*
X50214047Y-76213574D01*
X50214047Y-76213574D02*
X50237856Y-76249289D01*
X50237856Y-76249289D02*
X50261666Y-76273098D01*
X50261666Y-76273098D02*
X50285475Y-76285003D01*
X49928333Y-76296908D02*
X49928333Y-76463574D01*
X49987857Y-76201670D02*
X50047380Y-76380241D01*
X50047380Y-76380241D02*
X49892619Y-76380241D01*
D12*
X45342856Y-76784885D02*
X45157142Y-76784885D01*
X45157142Y-76784885D02*
X45257142Y-76899171D01*
X45257142Y-76899171D02*
X45214285Y-76899171D01*
X45214285Y-76899171D02*
X45185714Y-76913457D01*
X45185714Y-76913457D02*
X45171428Y-76927742D01*
X45171428Y-76927742D02*
X45157142Y-76956314D01*
X45157142Y-76956314D02*
X45157142Y-77027742D01*
X45157142Y-77027742D02*
X45171428Y-77056314D01*
X45171428Y-77056314D02*
X45185714Y-77070600D01*
X45185714Y-77070600D02*
X45214285Y-77084885D01*
X45214285Y-77084885D02*
X45299999Y-77084885D01*
X45299999Y-77084885D02*
X45328571Y-77070600D01*
X45328571Y-77070600D02*
X45342856Y-77056314D01*
X45071428Y-76784885D02*
X44971428Y-77084885D01*
X44971428Y-77084885D02*
X44871428Y-76784885D01*
X44799999Y-76784885D02*
X44614285Y-76784885D01*
X44614285Y-76784885D02*
X44714285Y-76899171D01*
X44714285Y-76899171D02*
X44671428Y-76899171D01*
X44671428Y-76899171D02*
X44642857Y-76913457D01*
X44642857Y-76913457D02*
X44628571Y-76927742D01*
X44628571Y-76927742D02*
X44614285Y-76956314D01*
X44614285Y-76956314D02*
X44614285Y-77027742D01*
X44614285Y-77027742D02*
X44628571Y-77056314D01*
X44628571Y-77056314D02*
X44642857Y-77070600D01*
X44642857Y-77070600D02*
X44671428Y-77084885D01*
X44671428Y-77084885D02*
X44757142Y-77084885D01*
X44757142Y-77084885D02*
X44785714Y-77070600D01*
X44785714Y-77070600D02*
X44799999Y-77056314D01*
X44257143Y-76927742D02*
X44157143Y-76927742D01*
X44114286Y-77084885D02*
X44257143Y-77084885D01*
X44257143Y-77084885D02*
X44257143Y-76784885D01*
X44257143Y-76784885D02*
X44114286Y-76784885D01*
X44028571Y-76884885D02*
X43914285Y-76884885D01*
X43985714Y-76784885D02*
X43985714Y-77042028D01*
X43985714Y-77042028D02*
X43971428Y-77070600D01*
X43971428Y-77070600D02*
X43942857Y-77084885D01*
X43942857Y-77084885D02*
X43914285Y-77084885D01*
X43814285Y-77084885D02*
X43814285Y-76784885D01*
X43685714Y-77084885D02*
X43685714Y-76927742D01*
X43685714Y-76927742D02*
X43699999Y-76899171D01*
X43699999Y-76899171D02*
X43728571Y-76884885D01*
X43728571Y-76884885D02*
X43771428Y-76884885D01*
X43771428Y-76884885D02*
X43799999Y-76899171D01*
X43799999Y-76899171D02*
X43814285Y-76913457D01*
D13*
X50446428Y-77107442D02*
X50432142Y-77107442D01*
X50432142Y-77107442D02*
X50417856Y-77114585D01*
X50417856Y-77114585D02*
X50410714Y-77121728D01*
X50410714Y-77121728D02*
X50403571Y-77136014D01*
X50403571Y-77136014D02*
X50396428Y-77164585D01*
X50396428Y-77164585D02*
X50396428Y-77200300D01*
X50396428Y-77200300D02*
X50403571Y-77228871D01*
X50403571Y-77228871D02*
X50410714Y-77243157D01*
X50410714Y-77243157D02*
X50417856Y-77250300D01*
X50417856Y-77250300D02*
X50432142Y-77257442D01*
X50432142Y-77257442D02*
X50446428Y-77257442D01*
X50446428Y-77257442D02*
X50460714Y-77250300D01*
X50460714Y-77250300D02*
X50467856Y-77243157D01*
X50467856Y-77243157D02*
X50474999Y-77228871D01*
X50474999Y-77228871D02*
X50482142Y-77200300D01*
X50482142Y-77200300D02*
X50482142Y-77164585D01*
X50482142Y-77164585D02*
X50474999Y-77136014D01*
X50474999Y-77136014D02*
X50467856Y-77121728D01*
X50467856Y-77121728D02*
X50460714Y-77114585D01*
X50460714Y-77114585D02*
X50446428Y-77107442D01*
X50332142Y-77243157D02*
X50324999Y-77250300D01*
X50324999Y-77250300D02*
X50332142Y-77257442D01*
X50332142Y-77257442D02*
X50339285Y-77250300D01*
X50339285Y-77250300D02*
X50332142Y-77243157D01*
X50332142Y-77243157D02*
X50332142Y-77257442D01*
X50182142Y-77257442D02*
X50267856Y-77257442D01*
X50224999Y-77257442D02*
X50224999Y-77107442D01*
X50224999Y-77107442D02*
X50239285Y-77128871D01*
X50239285Y-77128871D02*
X50253570Y-77143157D01*
X50253570Y-77143157D02*
X50267856Y-77150300D01*
X50053571Y-77157442D02*
X50053571Y-77257442D01*
X50117856Y-77157442D02*
X50117856Y-77236014D01*
X50117856Y-77236014D02*
X50110713Y-77250300D01*
X50110713Y-77250300D02*
X50096428Y-77257442D01*
X50096428Y-77257442D02*
X50074999Y-77257442D01*
X50074999Y-77257442D02*
X50060713Y-77250300D01*
X50060713Y-77250300D02*
X50053571Y-77243157D01*
X49932142Y-77178871D02*
X49982142Y-77178871D01*
X49982142Y-77257442D02*
X49982142Y-77107442D01*
X49982142Y-77107442D02*
X49910714Y-77107442D01*
D11*
X50360714Y-78439765D02*
X50372618Y-78451670D01*
X50372618Y-78451670D02*
X50408333Y-78463574D01*
X50408333Y-78463574D02*
X50432142Y-78463574D01*
X50432142Y-78463574D02*
X50467856Y-78451670D01*
X50467856Y-78451670D02*
X50491666Y-78427860D01*
X50491666Y-78427860D02*
X50503571Y-78404050D01*
X50503571Y-78404050D02*
X50515475Y-78356431D01*
X50515475Y-78356431D02*
X50515475Y-78320717D01*
X50515475Y-78320717D02*
X50503571Y-78273098D01*
X50503571Y-78273098D02*
X50491666Y-78249289D01*
X50491666Y-78249289D02*
X50467856Y-78225479D01*
X50467856Y-78225479D02*
X50432142Y-78213574D01*
X50432142Y-78213574D02*
X50408333Y-78213574D01*
X50408333Y-78213574D02*
X50372618Y-78225479D01*
X50372618Y-78225479D02*
X50360714Y-78237384D01*
X50122618Y-78463574D02*
X50265475Y-78463574D01*
X50194047Y-78463574D02*
X50194047Y-78213574D01*
X50194047Y-78213574D02*
X50217856Y-78249289D01*
X50217856Y-78249289D02*
X50241666Y-78273098D01*
X50241666Y-78273098D02*
X50265475Y-78285003D01*
X49884523Y-78463574D02*
X50027380Y-78463574D01*
X49955952Y-78463574D02*
X49955952Y-78213574D01*
X49955952Y-78213574D02*
X49979761Y-78249289D01*
X49979761Y-78249289D02*
X50003571Y-78273098D01*
X50003571Y-78273098D02*
X50027380Y-78285003D01*
D12*
X50249999Y-68784885D02*
X50064285Y-68784885D01*
X50064285Y-68784885D02*
X50164285Y-68899171D01*
X50164285Y-68899171D02*
X50121428Y-68899171D01*
X50121428Y-68899171D02*
X50092857Y-68913457D01*
X50092857Y-68913457D02*
X50078571Y-68927742D01*
X50078571Y-68927742D02*
X50064285Y-68956314D01*
X50064285Y-68956314D02*
X50064285Y-69027742D01*
X50064285Y-69027742D02*
X50078571Y-69056314D01*
X50078571Y-69056314D02*
X50092857Y-69070600D01*
X50092857Y-69070600D02*
X50121428Y-69084885D01*
X50121428Y-69084885D02*
X50207142Y-69084885D01*
X50207142Y-69084885D02*
X50235714Y-69070600D01*
X50235714Y-69070600D02*
X50249999Y-69056314D01*
X49978571Y-68784885D02*
X49878571Y-69084885D01*
X49878571Y-69084885D02*
X49778571Y-68784885D01*
X49707142Y-68784885D02*
X49521428Y-68784885D01*
X49521428Y-68784885D02*
X49621428Y-68899171D01*
X49621428Y-68899171D02*
X49578571Y-68899171D01*
X49578571Y-68899171D02*
X49550000Y-68913457D01*
X49550000Y-68913457D02*
X49535714Y-68927742D01*
X49535714Y-68927742D02*
X49521428Y-68956314D01*
X49521428Y-68956314D02*
X49521428Y-69027742D01*
X49521428Y-69027742D02*
X49535714Y-69056314D01*
X49535714Y-69056314D02*
X49550000Y-69070600D01*
X49550000Y-69070600D02*
X49578571Y-69084885D01*
X49578571Y-69084885D02*
X49664285Y-69084885D01*
X49664285Y-69084885D02*
X49692857Y-69070600D01*
X49692857Y-69070600D02*
X49707142Y-69056314D01*
X49407143Y-68999171D02*
X49264286Y-68999171D01*
X49435714Y-69084885D02*
X49335714Y-68784885D01*
X49335714Y-68784885D02*
X49235714Y-69084885D01*
D14*
X56064161Y-72705315D02*
X56064161Y-72714838D01*
X56064161Y-72714838D02*
X56068923Y-72724362D01*
X56068923Y-72724362D02*
X56073685Y-72729124D01*
X56073685Y-72729124D02*
X56083209Y-72733886D01*
X56083209Y-72733886D02*
X56102257Y-72738648D01*
X56102257Y-72738648D02*
X56126066Y-72738648D01*
X56126066Y-72738648D02*
X56145114Y-72733886D01*
X56145114Y-72733886D02*
X56154638Y-72729124D01*
X56154638Y-72729124D02*
X56159400Y-72724362D01*
X56159400Y-72724362D02*
X56164161Y-72714838D01*
X56164161Y-72714838D02*
X56164161Y-72705315D01*
X56164161Y-72705315D02*
X56159400Y-72695791D01*
X56159400Y-72695791D02*
X56154638Y-72691029D01*
X56154638Y-72691029D02*
X56145114Y-72686267D01*
X56145114Y-72686267D02*
X56126066Y-72681505D01*
X56126066Y-72681505D02*
X56102257Y-72681505D01*
X56102257Y-72681505D02*
X56083209Y-72686267D01*
X56083209Y-72686267D02*
X56073685Y-72691029D01*
X56073685Y-72691029D02*
X56068923Y-72695791D01*
X56068923Y-72695791D02*
X56064161Y-72705315D01*
X56154638Y-72781505D02*
X56159400Y-72786267D01*
X56159400Y-72786267D02*
X56164161Y-72781505D01*
X56164161Y-72781505D02*
X56159400Y-72776743D01*
X56159400Y-72776743D02*
X56154638Y-72781505D01*
X56154638Y-72781505D02*
X56164161Y-72781505D01*
X56164161Y-72881505D02*
X56164161Y-72824362D01*
X56164161Y-72852934D02*
X56064161Y-72852934D01*
X56064161Y-72852934D02*
X56078447Y-72843410D01*
X56078447Y-72843410D02*
X56087971Y-72833886D01*
X56087971Y-72833886D02*
X56092733Y-72824362D01*
X56097495Y-72967219D02*
X56164161Y-72967219D01*
X56097495Y-72924362D02*
X56149876Y-72924362D01*
X56149876Y-72924362D02*
X56159400Y-72929124D01*
X56159400Y-72929124D02*
X56164161Y-72938648D01*
X56164161Y-72938648D02*
X56164161Y-72952933D01*
X56164161Y-72952933D02*
X56159400Y-72962457D01*
X56159400Y-72962457D02*
X56154638Y-72967219D01*
X56111780Y-73048171D02*
X56111780Y-73014838D01*
X56164161Y-73014838D02*
X56064161Y-73014838D01*
X56064161Y-73014838D02*
X56064161Y-73062457D01*
D11*
X55789765Y-72689285D02*
X55801670Y-72677381D01*
X55801670Y-72677381D02*
X55813574Y-72641666D01*
X55813574Y-72641666D02*
X55813574Y-72617857D01*
X55813574Y-72617857D02*
X55801670Y-72582143D01*
X55801670Y-72582143D02*
X55777860Y-72558333D01*
X55777860Y-72558333D02*
X55754050Y-72546428D01*
X55754050Y-72546428D02*
X55706431Y-72534524D01*
X55706431Y-72534524D02*
X55670717Y-72534524D01*
X55670717Y-72534524D02*
X55623098Y-72546428D01*
X55623098Y-72546428D02*
X55599289Y-72558333D01*
X55599289Y-72558333D02*
X55575479Y-72582143D01*
X55575479Y-72582143D02*
X55563574Y-72617857D01*
X55563574Y-72617857D02*
X55563574Y-72641666D01*
X55563574Y-72641666D02*
X55575479Y-72677381D01*
X55575479Y-72677381D02*
X55587384Y-72689285D01*
X55813574Y-72927381D02*
X55813574Y-72784524D01*
X55813574Y-72855952D02*
X55563574Y-72855952D01*
X55563574Y-72855952D02*
X55599289Y-72832143D01*
X55599289Y-72832143D02*
X55623098Y-72808333D01*
X55623098Y-72808333D02*
X55635003Y-72784524D01*
X55587384Y-73022619D02*
X55575479Y-73034523D01*
X55575479Y-73034523D02*
X55563574Y-73058333D01*
X55563574Y-73058333D02*
X55563574Y-73117857D01*
X55563574Y-73117857D02*
X55575479Y-73141666D01*
X55575479Y-73141666D02*
X55587384Y-73153571D01*
X55587384Y-73153571D02*
X55611193Y-73165476D01*
X55611193Y-73165476D02*
X55635003Y-73165476D01*
X55635003Y-73165476D02*
X55670717Y-73153571D01*
X55670717Y-73153571D02*
X55813574Y-73010714D01*
X55813574Y-73010714D02*
X55813574Y-73165476D01*
D13*
X51581442Y-72556371D02*
X51581442Y-72570657D01*
X51581442Y-72570657D02*
X51588585Y-72584943D01*
X51588585Y-72584943D02*
X51595728Y-72592086D01*
X51595728Y-72592086D02*
X51610014Y-72599228D01*
X51610014Y-72599228D02*
X51638585Y-72606371D01*
X51638585Y-72606371D02*
X51674300Y-72606371D01*
X51674300Y-72606371D02*
X51702871Y-72599228D01*
X51702871Y-72599228D02*
X51717157Y-72592086D01*
X51717157Y-72592086D02*
X51724300Y-72584943D01*
X51724300Y-72584943D02*
X51731442Y-72570657D01*
X51731442Y-72570657D02*
X51731442Y-72556371D01*
X51731442Y-72556371D02*
X51724300Y-72542086D01*
X51724300Y-72542086D02*
X51717157Y-72534943D01*
X51717157Y-72534943D02*
X51702871Y-72527800D01*
X51702871Y-72527800D02*
X51674300Y-72520657D01*
X51674300Y-72520657D02*
X51638585Y-72520657D01*
X51638585Y-72520657D02*
X51610014Y-72527800D01*
X51610014Y-72527800D02*
X51595728Y-72534943D01*
X51595728Y-72534943D02*
X51588585Y-72542086D01*
X51588585Y-72542086D02*
X51581442Y-72556371D01*
X51717157Y-72670657D02*
X51724300Y-72677800D01*
X51724300Y-72677800D02*
X51731442Y-72670657D01*
X51731442Y-72670657D02*
X51724300Y-72663514D01*
X51724300Y-72663514D02*
X51717157Y-72670657D01*
X51717157Y-72670657D02*
X51731442Y-72670657D01*
X51731442Y-72820657D02*
X51731442Y-72734943D01*
X51731442Y-72777800D02*
X51581442Y-72777800D01*
X51581442Y-72777800D02*
X51602871Y-72763514D01*
X51602871Y-72763514D02*
X51617157Y-72749229D01*
X51617157Y-72749229D02*
X51624300Y-72734943D01*
X51631442Y-72949229D02*
X51731442Y-72949229D01*
X51631442Y-72884943D02*
X51710014Y-72884943D01*
X51710014Y-72884943D02*
X51724300Y-72892086D01*
X51724300Y-72892086D02*
X51731442Y-72906371D01*
X51731442Y-72906371D02*
X51731442Y-72927800D01*
X51731442Y-72927800D02*
X51724300Y-72942086D01*
X51724300Y-72942086D02*
X51717157Y-72949229D01*
X51652871Y-73070657D02*
X51652871Y-73020657D01*
X51731442Y-73020657D02*
X51581442Y-73020657D01*
X51581442Y-73020657D02*
X51581442Y-73092085D01*
D11*
X51053765Y-72642085D02*
X51065670Y-72630181D01*
X51065670Y-72630181D02*
X51077574Y-72594466D01*
X51077574Y-72594466D02*
X51077574Y-72570657D01*
X51077574Y-72570657D02*
X51065670Y-72534943D01*
X51065670Y-72534943D02*
X51041860Y-72511133D01*
X51041860Y-72511133D02*
X51018050Y-72499228D01*
X51018050Y-72499228D02*
X50970431Y-72487324D01*
X50970431Y-72487324D02*
X50934717Y-72487324D01*
X50934717Y-72487324D02*
X50887098Y-72499228D01*
X50887098Y-72499228D02*
X50863289Y-72511133D01*
X50863289Y-72511133D02*
X50839479Y-72534943D01*
X50839479Y-72534943D02*
X50827574Y-72570657D01*
X50827574Y-72570657D02*
X50827574Y-72594466D01*
X50827574Y-72594466D02*
X50839479Y-72630181D01*
X50839479Y-72630181D02*
X50851384Y-72642085D01*
X51077574Y-72880181D02*
X51077574Y-72737324D01*
X51077574Y-72808752D02*
X50827574Y-72808752D01*
X50827574Y-72808752D02*
X50863289Y-72784943D01*
X50863289Y-72784943D02*
X50887098Y-72761133D01*
X50887098Y-72761133D02*
X50899003Y-72737324D01*
X50827574Y-72963514D02*
X50827574Y-73118276D01*
X50827574Y-73118276D02*
X50922812Y-73034942D01*
X50922812Y-73034942D02*
X50922812Y-73070657D01*
X50922812Y-73070657D02*
X50934717Y-73094466D01*
X50934717Y-73094466D02*
X50946622Y-73106371D01*
X50946622Y-73106371D02*
X50970431Y-73118276D01*
X50970431Y-73118276D02*
X51029955Y-73118276D01*
X51029955Y-73118276D02*
X51053765Y-73106371D01*
X51053765Y-73106371D02*
X51065670Y-73094466D01*
X51065670Y-73094466D02*
X51077574Y-73070657D01*
X51077574Y-73070657D02*
X51077574Y-72999228D01*
X51077574Y-72999228D02*
X51065670Y-72975419D01*
X51065670Y-72975419D02*
X51053765Y-72963514D01*
D14*
X51398961Y-82365715D02*
X51398961Y-82375238D01*
X51398961Y-82375238D02*
X51403723Y-82384762D01*
X51403723Y-82384762D02*
X51408485Y-82389524D01*
X51408485Y-82389524D02*
X51418009Y-82394286D01*
X51418009Y-82394286D02*
X51437057Y-82399048D01*
X51437057Y-82399048D02*
X51460866Y-82399048D01*
X51460866Y-82399048D02*
X51479914Y-82394286D01*
X51479914Y-82394286D02*
X51489438Y-82389524D01*
X51489438Y-82389524D02*
X51494200Y-82384762D01*
X51494200Y-82384762D02*
X51498961Y-82375238D01*
X51498961Y-82375238D02*
X51498961Y-82365715D01*
X51498961Y-82365715D02*
X51494200Y-82356191D01*
X51494200Y-82356191D02*
X51489438Y-82351429D01*
X51489438Y-82351429D02*
X51479914Y-82346667D01*
X51479914Y-82346667D02*
X51460866Y-82341905D01*
X51460866Y-82341905D02*
X51437057Y-82341905D01*
X51437057Y-82341905D02*
X51418009Y-82346667D01*
X51418009Y-82346667D02*
X51408485Y-82351429D01*
X51408485Y-82351429D02*
X51403723Y-82356191D01*
X51403723Y-82356191D02*
X51398961Y-82365715D01*
X51489438Y-82441905D02*
X51494200Y-82446667D01*
X51494200Y-82446667D02*
X51498961Y-82441905D01*
X51498961Y-82441905D02*
X51494200Y-82437143D01*
X51494200Y-82437143D02*
X51489438Y-82441905D01*
X51489438Y-82441905D02*
X51498961Y-82441905D01*
X51498961Y-82541905D02*
X51498961Y-82484762D01*
X51498961Y-82513334D02*
X51398961Y-82513334D01*
X51398961Y-82513334D02*
X51413247Y-82503810D01*
X51413247Y-82503810D02*
X51422771Y-82494286D01*
X51422771Y-82494286D02*
X51427533Y-82484762D01*
X51432295Y-82627619D02*
X51498961Y-82627619D01*
X51432295Y-82584762D02*
X51484676Y-82584762D01*
X51484676Y-82584762D02*
X51494200Y-82589524D01*
X51494200Y-82589524D02*
X51498961Y-82599048D01*
X51498961Y-82599048D02*
X51498961Y-82613333D01*
X51498961Y-82613333D02*
X51494200Y-82622857D01*
X51494200Y-82622857D02*
X51489438Y-82627619D01*
X51446580Y-82708571D02*
X51446580Y-82675238D01*
X51498961Y-82675238D02*
X51398961Y-82675238D01*
X51398961Y-82675238D02*
X51398961Y-82722857D01*
X51489438Y-82097333D02*
X51494200Y-82092571D01*
X51494200Y-82092571D02*
X51498961Y-82078285D01*
X51498961Y-82078285D02*
X51498961Y-82068761D01*
X51498961Y-82068761D02*
X51494200Y-82054476D01*
X51494200Y-82054476D02*
X51484676Y-82044952D01*
X51484676Y-82044952D02*
X51475152Y-82040190D01*
X51475152Y-82040190D02*
X51456104Y-82035428D01*
X51456104Y-82035428D02*
X51441819Y-82035428D01*
X51441819Y-82035428D02*
X51422771Y-82040190D01*
X51422771Y-82040190D02*
X51413247Y-82044952D01*
X51413247Y-82044952D02*
X51403723Y-82054476D01*
X51403723Y-82054476D02*
X51398961Y-82068761D01*
X51398961Y-82068761D02*
X51398961Y-82078285D01*
X51398961Y-82078285D02*
X51403723Y-82092571D01*
X51403723Y-82092571D02*
X51408485Y-82097333D01*
X51398961Y-82130666D02*
X51398961Y-82197333D01*
X51398961Y-82197333D02*
X51498961Y-82154476D01*
D10*
X50609077Y-75889923D02*
X50590030Y-75889923D01*
X50590030Y-75889923D02*
X50570982Y-75899447D01*
X50570982Y-75899447D02*
X50561458Y-75908971D01*
X50561458Y-75908971D02*
X50551934Y-75928019D01*
X50551934Y-75928019D02*
X50542411Y-75966114D01*
X50542411Y-75966114D02*
X50542411Y-76013733D01*
X50542411Y-76013733D02*
X50551934Y-76051828D01*
X50551934Y-76051828D02*
X50561458Y-76070876D01*
X50561458Y-76070876D02*
X50570982Y-76080400D01*
X50570982Y-76080400D02*
X50590030Y-76089923D01*
X50590030Y-76089923D02*
X50609077Y-76089923D01*
X50609077Y-76089923D02*
X50628125Y-76080400D01*
X50628125Y-76080400D02*
X50637649Y-76070876D01*
X50637649Y-76070876D02*
X50647172Y-76051828D01*
X50647172Y-76051828D02*
X50656696Y-76013733D01*
X50656696Y-76013733D02*
X50656696Y-75966114D01*
X50656696Y-75966114D02*
X50647172Y-75928019D01*
X50647172Y-75928019D02*
X50637649Y-75908971D01*
X50637649Y-75908971D02*
X50628125Y-75899447D01*
X50628125Y-75899447D02*
X50609077Y-75889923D01*
X50456696Y-76070876D02*
X50447173Y-76080400D01*
X50447173Y-76080400D02*
X50456696Y-76089923D01*
X50456696Y-76089923D02*
X50466220Y-76080400D01*
X50466220Y-76080400D02*
X50456696Y-76070876D01*
X50456696Y-76070876D02*
X50456696Y-76089923D01*
X50256697Y-76089923D02*
X50370982Y-76089923D01*
X50313839Y-76089923D02*
X50313839Y-75889923D01*
X50313839Y-75889923D02*
X50332887Y-75918495D01*
X50332887Y-75918495D02*
X50351935Y-75937542D01*
X50351935Y-75937542D02*
X50370982Y-75947066D01*
X50085268Y-75956590D02*
X50085268Y-76089923D01*
X50170982Y-75956590D02*
X50170982Y-76061352D01*
X50170982Y-76061352D02*
X50161459Y-76080400D01*
X50161459Y-76080400D02*
X50142411Y-76089923D01*
X50142411Y-76089923D02*
X50113840Y-76089923D01*
X50113840Y-76089923D02*
X50094792Y-76080400D01*
X50094792Y-76080400D02*
X50085268Y-76070876D01*
X49923364Y-75985161D02*
X49990030Y-75985161D01*
X49990030Y-76089923D02*
X49990030Y-75889923D01*
X49990030Y-75889923D02*
X49894792Y-75889923D01*
D11*
X51610714Y-75489765D02*
X51622618Y-75501670D01*
X51622618Y-75501670D02*
X51658333Y-75513574D01*
X51658333Y-75513574D02*
X51682142Y-75513574D01*
X51682142Y-75513574D02*
X51717856Y-75501670D01*
X51717856Y-75501670D02*
X51741666Y-75477860D01*
X51741666Y-75477860D02*
X51753571Y-75454050D01*
X51753571Y-75454050D02*
X51765475Y-75406431D01*
X51765475Y-75406431D02*
X51765475Y-75370717D01*
X51765475Y-75370717D02*
X51753571Y-75323098D01*
X51753571Y-75323098D02*
X51741666Y-75299289D01*
X51741666Y-75299289D02*
X51717856Y-75275479D01*
X51717856Y-75275479D02*
X51682142Y-75263574D01*
X51682142Y-75263574D02*
X51658333Y-75263574D01*
X51658333Y-75263574D02*
X51622618Y-75275479D01*
X51622618Y-75275479D02*
X51610714Y-75287384D01*
X51372618Y-75513574D02*
X51515475Y-75513574D01*
X51444047Y-75513574D02*
X51444047Y-75263574D01*
X51444047Y-75263574D02*
X51467856Y-75299289D01*
X51467856Y-75299289D02*
X51491666Y-75323098D01*
X51491666Y-75323098D02*
X51515475Y-75335003D01*
X51158333Y-75263574D02*
X51205952Y-75263574D01*
X51205952Y-75263574D02*
X51229761Y-75275479D01*
X51229761Y-75275479D02*
X51241666Y-75287384D01*
X51241666Y-75287384D02*
X51265476Y-75323098D01*
X51265476Y-75323098D02*
X51277380Y-75370717D01*
X51277380Y-75370717D02*
X51277380Y-75465955D01*
X51277380Y-75465955D02*
X51265476Y-75489765D01*
X51265476Y-75489765D02*
X51253571Y-75501670D01*
X51253571Y-75501670D02*
X51229761Y-75513574D01*
X51229761Y-75513574D02*
X51182142Y-75513574D01*
X51182142Y-75513574D02*
X51158333Y-75501670D01*
X51158333Y-75501670D02*
X51146428Y-75489765D01*
X51146428Y-75489765D02*
X51134523Y-75465955D01*
X51134523Y-75465955D02*
X51134523Y-75406431D01*
X51134523Y-75406431D02*
X51146428Y-75382622D01*
X51146428Y-75382622D02*
X51158333Y-75370717D01*
X51158333Y-75370717D02*
X51182142Y-75358812D01*
X51182142Y-75358812D02*
X51229761Y-75358812D01*
X51229761Y-75358812D02*
X51253571Y-75370717D01*
X51253571Y-75370717D02*
X51265476Y-75382622D01*
X51265476Y-75382622D02*
X51277380Y-75406431D01*
X51868200Y-69956667D02*
X51744391Y-69870000D01*
X51868200Y-69808095D02*
X51608200Y-69808095D01*
X51608200Y-69808095D02*
X51608200Y-69907143D01*
X51608200Y-69907143D02*
X51620581Y-69931905D01*
X51620581Y-69931905D02*
X51632962Y-69944286D01*
X51632962Y-69944286D02*
X51657724Y-69956667D01*
X51657724Y-69956667D02*
X51694867Y-69956667D01*
X51694867Y-69956667D02*
X51719629Y-69944286D01*
X51719629Y-69944286D02*
X51732010Y-69931905D01*
X51732010Y-69931905D02*
X51744391Y-69907143D01*
X51744391Y-69907143D02*
X51744391Y-69808095D01*
X51608200Y-70179524D02*
X51608200Y-70130000D01*
X51608200Y-70130000D02*
X51620581Y-70105238D01*
X51620581Y-70105238D02*
X51632962Y-70092857D01*
X51632962Y-70092857D02*
X51670105Y-70068095D01*
X51670105Y-70068095D02*
X51719629Y-70055714D01*
X51719629Y-70055714D02*
X51818677Y-70055714D01*
X51818677Y-70055714D02*
X51843439Y-70068095D01*
X51843439Y-70068095D02*
X51855820Y-70080476D01*
X51855820Y-70080476D02*
X51868200Y-70105238D01*
X51868200Y-70105238D02*
X51868200Y-70154762D01*
X51868200Y-70154762D02*
X51855820Y-70179524D01*
X51855820Y-70179524D02*
X51843439Y-70191905D01*
X51843439Y-70191905D02*
X51818677Y-70204286D01*
X51818677Y-70204286D02*
X51756772Y-70204286D01*
X51756772Y-70204286D02*
X51732010Y-70191905D01*
X51732010Y-70191905D02*
X51719629Y-70179524D01*
X51719629Y-70179524D02*
X51707248Y-70154762D01*
X51707248Y-70154762D02*
X51707248Y-70105238D01*
X51707248Y-70105238D02*
X51719629Y-70080476D01*
X51719629Y-70080476D02*
X51732010Y-70068095D01*
X51732010Y-70068095D02*
X51756772Y-70055714D01*
D10*
X66458971Y-108771429D02*
X66449447Y-108780953D01*
X66449447Y-108780953D02*
X66439923Y-108800000D01*
X66439923Y-108800000D02*
X66439923Y-108847619D01*
X66439923Y-108847619D02*
X66449447Y-108866667D01*
X66449447Y-108866667D02*
X66458971Y-108876191D01*
X66458971Y-108876191D02*
X66478019Y-108885714D01*
X66478019Y-108885714D02*
X66497066Y-108885714D01*
X66497066Y-108885714D02*
X66525638Y-108876191D01*
X66525638Y-108876191D02*
X66639923Y-108761905D01*
X66639923Y-108761905D02*
X66639923Y-108885714D01*
X66458971Y-108961905D02*
X66449447Y-108971429D01*
X66449447Y-108971429D02*
X66439923Y-108990476D01*
X66439923Y-108990476D02*
X66439923Y-109038095D01*
X66439923Y-109038095D02*
X66449447Y-109057143D01*
X66449447Y-109057143D02*
X66458971Y-109066667D01*
X66458971Y-109066667D02*
X66478019Y-109076190D01*
X66478019Y-109076190D02*
X66497066Y-109076190D01*
X66497066Y-109076190D02*
X66525638Y-109066667D01*
X66525638Y-109066667D02*
X66639923Y-108952381D01*
X66639923Y-108952381D02*
X66639923Y-109076190D01*
X66506590Y-109161905D02*
X66639923Y-109161905D01*
X66525638Y-109161905D02*
X66516114Y-109171428D01*
X66516114Y-109171428D02*
X66506590Y-109190476D01*
X66506590Y-109190476D02*
X66506590Y-109219047D01*
X66506590Y-109219047D02*
X66516114Y-109238095D01*
X66516114Y-109238095D02*
X66535161Y-109247619D01*
X66535161Y-109247619D02*
X66639923Y-109247619D01*
X66535161Y-109409523D02*
X66535161Y-109342857D01*
X66639923Y-109342857D02*
X66439923Y-109342857D01*
X66439923Y-109342857D02*
X66439923Y-109438095D01*
X65390876Y-109066666D02*
X65400400Y-109057142D01*
X65400400Y-109057142D02*
X65409923Y-109028571D01*
X65409923Y-109028571D02*
X65409923Y-109009523D01*
X65409923Y-109009523D02*
X65400400Y-108980952D01*
X65400400Y-108980952D02*
X65381352Y-108961904D01*
X65381352Y-108961904D02*
X65362304Y-108952381D01*
X65362304Y-108952381D02*
X65324209Y-108942857D01*
X65324209Y-108942857D02*
X65295638Y-108942857D01*
X65295638Y-108942857D02*
X65257542Y-108952381D01*
X65257542Y-108952381D02*
X65238495Y-108961904D01*
X65238495Y-108961904D02*
X65219447Y-108980952D01*
X65219447Y-108980952D02*
X65209923Y-109009523D01*
X65209923Y-109009523D02*
X65209923Y-109028571D01*
X65209923Y-109028571D02*
X65219447Y-109057142D01*
X65219447Y-109057142D02*
X65228971Y-109066666D01*
X65209923Y-109238095D02*
X65209923Y-109200000D01*
X65209923Y-109200000D02*
X65219447Y-109180952D01*
X65219447Y-109180952D02*
X65228971Y-109171428D01*
X65228971Y-109171428D02*
X65257542Y-109152381D01*
X65257542Y-109152381D02*
X65295638Y-109142857D01*
X65295638Y-109142857D02*
X65371828Y-109142857D01*
X65371828Y-109142857D02*
X65390876Y-109152381D01*
X65390876Y-109152381D02*
X65400400Y-109161904D01*
X65400400Y-109161904D02*
X65409923Y-109180952D01*
X65409923Y-109180952D02*
X65409923Y-109219047D01*
X65409923Y-109219047D02*
X65400400Y-109238095D01*
X65400400Y-109238095D02*
X65390876Y-109247619D01*
X65390876Y-109247619D02*
X65371828Y-109257142D01*
X65371828Y-109257142D02*
X65324209Y-109257142D01*
X65324209Y-109257142D02*
X65305161Y-109247619D01*
X65305161Y-109247619D02*
X65295638Y-109238095D01*
X65295638Y-109238095D02*
X65286114Y-109219047D01*
X65286114Y-109219047D02*
X65286114Y-109180952D01*
X65286114Y-109180952D02*
X65295638Y-109161904D01*
X65295638Y-109161904D02*
X65305161Y-109152381D01*
X65305161Y-109152381D02*
X65324209Y-109142857D01*
%TO.C,C15*%
D15*
X53450000Y-72370000D02*
X53950000Y-72370000D01*
X53950000Y-73370000D01*
X53450000Y-73370000D01*
X53450000Y-72370000D01*
%TO.C,C23*%
X50144493Y-79200000D02*
X50744493Y-79200000D01*
X50744493Y-79500000D01*
X50144493Y-79500000D01*
X50144493Y-79200000D01*
%TO.C,R20*%
X63755000Y-96000000D02*
X64355000Y-96000000D01*
X64355000Y-96300000D01*
X63755000Y-96300000D01*
X63755000Y-96000000D01*
%TO.C,C14*%
X49720000Y-76100000D02*
X50720000Y-76100000D01*
X50720000Y-76600000D01*
X49720000Y-76600000D01*
X49720000Y-76100000D01*
%TO.C,C11*%
X49700000Y-78100000D02*
X50700000Y-78100000D01*
X50700000Y-78600000D01*
X49700000Y-78600000D01*
X49700000Y-78100000D01*
%TO.C,C12*%
X55450000Y-72350000D02*
X55950000Y-72350000D01*
X55950000Y-73350000D01*
X55450000Y-73350000D01*
X55450000Y-72350000D01*
%TO.C,C13*%
X50714000Y-72302800D02*
X51214000Y-72302800D01*
X51214000Y-73302800D01*
X50714000Y-73302800D01*
X50714000Y-72302800D01*
%TO.C,C7*%
X51800000Y-82230000D02*
X52100000Y-82230000D01*
X52100000Y-82830000D01*
X51800000Y-82830000D01*
X51800000Y-82230000D01*
%TO.C,C16*%
X49720000Y-75100000D02*
X50720000Y-75100000D01*
X50720000Y-75600000D01*
X49720000Y-75600000D01*
X49720000Y-75100000D01*
%TO.C,R6*%
X51480000Y-69475000D02*
X52020000Y-69475000D01*
X52020000Y-70525000D01*
X51480000Y-70525000D01*
X51480000Y-69475000D01*
%TO.C,C6*%
X65850000Y-108800000D02*
X66150000Y-108800000D01*
X66150000Y-109400000D01*
X65850000Y-109400000D01*
X65850000Y-108800000D01*
%TD*%
M02*
