%TF.GenerationSoftware,KiCad,Pcbnew,10.0.3*%
%TF.CreationDate,2026-08-08T20:31:57-07:00*%
%TF.ProjectId,48VERelay,34385645-5265-46c6-9179-2e6b69636164,rev?*%
%TF.SameCoordinates,Original*%
%TF.FileFunction,Other,User*%
%FSLAX46Y46*%
G04 Gerber Fmt 4.6, Leading zero omitted, Abs format (unit mm)*
G04 Created by KiCad (PCBNEW 10.0.3) date 2026-08-08 20:31:57*
%MOMM*%
%LPD*%
G01*
G04 APERTURE LIST*
%ADD10C,0.100000*%
%ADD11C,0.050000*%
G04 APERTURE END LIST*
%TO.C,J2*%
D10*
X41100000Y-99545000D02*
X41100000Y-116585000D01*
X53830000Y-99545000D02*
X41100000Y-99545000D01*
X53830000Y-116585000D02*
X41100000Y-116585000D01*
X54810000Y-98565000D02*
X53830000Y-99545000D01*
X54810000Y-117565000D02*
X53830000Y-116585000D01*
X54810000Y-117565000D02*
X56290000Y-117565000D01*
X56290000Y-98565000D02*
X54810000Y-98565000D01*
X56290000Y-98565000D02*
X57270000Y-99545000D01*
X56290000Y-117565000D02*
X57270000Y-116585000D01*
X63400000Y-99545000D02*
X57270000Y-99545000D01*
X63400000Y-99545000D02*
X63400000Y-116585000D01*
X63400000Y-116585000D02*
X57270000Y-116585000D01*
%TO.C,J1*%
X40050000Y-42339493D02*
X55450000Y-42339493D01*
X40050000Y-52339493D02*
X40050000Y-42339493D01*
X49450000Y-52339493D02*
X40050000Y-52339493D01*
X49450000Y-53839493D02*
X49450000Y-52339493D01*
X53050000Y-52339493D02*
X53050000Y-53839493D01*
X53050000Y-53839493D02*
X49450000Y-53839493D01*
X55450000Y-42339493D02*
X55450000Y-45539493D01*
X55450000Y-45539493D02*
X56050000Y-45539493D01*
X55450000Y-49139493D02*
X55450000Y-52339493D01*
X55450000Y-52339493D02*
X53050000Y-52339493D01*
X56050000Y-45539493D02*
X56050000Y-49139493D01*
X56050000Y-49139493D02*
X55450000Y-49139493D01*
%TO.C,K11*%
X102793800Y-56294600D02*
X102793800Y-69294600D01*
X102793800Y-69294600D02*
X132093800Y-69294600D01*
X132093800Y-56294600D02*
X102793800Y-56294600D01*
X132093800Y-69294600D02*
X132093800Y-56294600D01*
%TO.C,C8*%
D11*
X43050000Y-66020000D02*
X46450000Y-66020000D01*
X46450000Y-67980000D01*
X43050000Y-67980000D01*
X43050000Y-66020000D01*
%TO.C,C3*%
X66120000Y-79690000D02*
X67580000Y-79690000D01*
X67580000Y-82650000D01*
X66120000Y-82650000D01*
X66120000Y-79690000D01*
%TO.C,C17*%
D10*
X55550000Y-96400000D02*
X56950000Y-96400000D01*
X56950000Y-97100000D01*
X55550000Y-97100000D01*
X55550000Y-96400000D01*
%TO.C,REF\u002A\u002A*%
D11*
X155000000Y-120650000D02*
G75*
G02*
X149800000Y-120650000I-2600000J0D01*
G01*
X149800000Y-120650000D02*
G75*
G02*
X155000000Y-120650000I2600000J0D01*
G01*
%TO.C,12V*%
X67000000Y-49089493D02*
G75*
G02*
X64500000Y-49089493I-1250000J0D01*
G01*
X64500000Y-49089493D02*
G75*
G02*
X67000000Y-49089493I1250000J0D01*
G01*
%TO.C,R16*%
D10*
X51270000Y-96020000D02*
X54230000Y-96020000D01*
X54230000Y-97480000D01*
X51270000Y-97480000D01*
X51270000Y-96020000D01*
%TO.C,L1*%
X46764100Y-64500700D02*
X49735900Y-64500700D01*
X46764100Y-65999300D02*
X46764100Y-64500700D01*
X49735900Y-64500700D02*
X49735900Y-65999300D01*
X49735900Y-65999300D02*
X46764100Y-65999300D01*
%TO.C,C37*%
D11*
X66590000Y-85790000D02*
X68410000Y-85790000D01*
X68410000Y-86710000D01*
X66590000Y-86710000D01*
X66590000Y-85790000D01*
%TO.C,R17*%
D10*
X51270000Y-94520000D02*
X54230000Y-94520000D01*
X54230000Y-95980000D01*
X51270000Y-95980000D01*
X51270000Y-94520000D01*
%TO.C,J4*%
D11*
X73860000Y-104964000D02*
X76000000Y-103434000D01*
X73860000Y-106504000D02*
X73860000Y-104964000D01*
X76000000Y-103434000D02*
X83820000Y-103434000D01*
X76000000Y-108034000D02*
X73860000Y-106504000D01*
X83820000Y-103434000D02*
X84520000Y-104134000D01*
X83820000Y-108034000D02*
X76000000Y-108034000D01*
X83820000Y-108034000D02*
X84520000Y-107334000D01*
X84520000Y-104134000D02*
X84520000Y-107334000D01*
%TO.C,D6*%
X63270000Y-84270000D02*
X66230000Y-84270000D01*
X66230000Y-85730000D01*
X63270000Y-85730000D01*
X63270000Y-84270000D01*
%TO.C,K14*%
D10*
X102793800Y-107755000D02*
X102793800Y-120755000D01*
X102793800Y-120755000D02*
X132093800Y-120755000D01*
X132093800Y-107755000D02*
X102793800Y-107755000D01*
X132093800Y-120755000D02*
X132093800Y-107755000D01*
%TO.C,J12*%
D11*
X139250000Y-72000000D02*
X148060000Y-72000000D01*
X148060000Y-88500000D01*
X139250000Y-88500000D01*
X139250000Y-72000000D01*
%TO.C,R7*%
D10*
X44520000Y-93770000D02*
X45980000Y-93770000D01*
X45980000Y-96730000D01*
X44520000Y-96730000D01*
X44520000Y-93770000D01*
%TO.C,R21*%
D11*
X54650000Y-96455000D02*
X55350000Y-96455000D01*
X55350000Y-97855000D01*
X54650000Y-97855000D01*
X54650000Y-96455000D01*
%TO.C,C10*%
X64770000Y-44609493D02*
X66230000Y-44609493D01*
X66230000Y-47569493D01*
X64770000Y-47569493D01*
X64770000Y-44609493D01*
%TO.C,+5V*%
X59000000Y-58750000D02*
G75*
G02*
X57000000Y-58750000I-1000000J0D01*
G01*
X57000000Y-58750000D02*
G75*
G02*
X59000000Y-58750000I1000000J0D01*
G01*
%TO.C,U3*%
D10*
X44600000Y-84600000D02*
X46000000Y-84600000D01*
X44600000Y-90900000D02*
X44600000Y-84600000D01*
X46000000Y-84000000D02*
X46600000Y-84000000D01*
X46000000Y-84600000D02*
X46000000Y-84000000D01*
X46000000Y-90900000D02*
X44600000Y-90900000D01*
X46000000Y-91500000D02*
X46000000Y-90900000D01*
X46600000Y-82600000D02*
X52900000Y-82600000D01*
X46600000Y-84000000D02*
X46600000Y-82600000D01*
X46600000Y-91500000D02*
X46000000Y-91500000D01*
X46600000Y-92900000D02*
X46600000Y-91500000D01*
X52900000Y-82600000D02*
X52900000Y-84000000D01*
X52900000Y-84000000D02*
X53500000Y-84000000D01*
X52900000Y-91500000D02*
X52900000Y-92900000D01*
X52900000Y-92900000D02*
X46600000Y-92900000D01*
X53500000Y-84000000D02*
X53500000Y-84600000D01*
X53500000Y-84600000D02*
X54900000Y-84600000D01*
X53500000Y-90900000D02*
X53500000Y-91500000D01*
X53500000Y-91500000D02*
X52900000Y-91500000D01*
X54900000Y-84600000D02*
X54900000Y-90900000D01*
X54900000Y-90900000D02*
X53500000Y-90900000D01*
%TO.C,R25*%
X68490000Y-49669493D02*
X71450000Y-49669493D01*
X71450000Y-51129493D01*
X68490000Y-51129493D01*
X68490000Y-49669493D01*
%TO.C,R22*%
D11*
X54650000Y-94300000D02*
X55350000Y-94300000D01*
X55350000Y-95700000D01*
X54650000Y-95700000D01*
X54650000Y-94300000D01*
%TO.C,R12*%
D10*
X74720000Y-62516000D02*
X77680000Y-62516000D01*
X77680000Y-63976000D01*
X74720000Y-63976000D01*
X74720000Y-62516000D01*
%TO.C,C35*%
X62300000Y-76320000D02*
X65700000Y-76320000D01*
X65700000Y-78280000D01*
X62300000Y-78280000D01*
X62300000Y-76320000D01*
%TO.C,K12*%
X102641400Y-73455000D02*
X102641400Y-86455000D01*
X102641400Y-86455000D02*
X131941400Y-86455000D01*
X131941400Y-73455000D02*
X102641400Y-73455000D01*
X131941400Y-86455000D02*
X131941400Y-73455000D01*
%TO.C,REF\u002A\u002A*%
D11*
X155000000Y-38100000D02*
G75*
G02*
X149800000Y-38100000I-2600000J0D01*
G01*
X149800000Y-38100000D02*
G75*
G02*
X155000000Y-38100000I2600000J0D01*
G01*
%TO.C,C18*%
D10*
X48300000Y-66270000D02*
X51700000Y-66270000D01*
X51700000Y-68230000D01*
X48300000Y-68230000D01*
X48300000Y-66270000D01*
%TO.C,R5*%
X98967200Y-92676200D02*
X101927200Y-92676200D01*
X101927200Y-94136200D01*
X98967200Y-94136200D01*
X98967200Y-92676200D01*
%TO.C,R9*%
X42695000Y-98020000D02*
X45655000Y-98020000D01*
X45655000Y-99480000D01*
X42695000Y-99480000D01*
X42695000Y-98020000D01*
%TO.C,3V3 Eth*%
D11*
X48000000Y-69750000D02*
G75*
G02*
X46000000Y-69750000I-1000000J0D01*
G01*
X46000000Y-69750000D02*
G75*
G02*
X48000000Y-69750000I1000000J0D01*
G01*
%TO.C,R11*%
D10*
X74720000Y-64167000D02*
X77680000Y-64167000D01*
X77680000Y-65627000D01*
X74720000Y-65627000D01*
X74720000Y-64167000D01*
%TO.C,C34*%
X46550000Y-62270000D02*
X49950000Y-62270000D01*
X49950000Y-64230000D01*
X46550000Y-64230000D01*
X46550000Y-62270000D01*
%TO.C,U10*%
D11*
X45874999Y-54450000D02*
X45874999Y-62150000D01*
D10*
X50575000Y-57800001D02*
X50575000Y-58800002D01*
X51074999Y-58300000D02*
X50075001Y-58300000D01*
D11*
X55275001Y-54450000D02*
X45874999Y-54450000D01*
X55275001Y-54450000D02*
X55275001Y-62150000D01*
X55275001Y-62150000D02*
X45874999Y-62150000D01*
%TO.C,R28*%
D10*
X63640000Y-51869493D02*
X65100000Y-51869493D01*
X65100000Y-54829493D01*
X63640000Y-54829493D01*
X63640000Y-51869493D01*
%TO.C,C22*%
X52145000Y-79150000D02*
X53545000Y-79150000D01*
X53545000Y-79850000D01*
X52145000Y-79850000D01*
X52145000Y-79150000D01*
%TO.C,Y2*%
X47640100Y-74622100D02*
X47640100Y-74622100D01*
X47640100Y-74622100D02*
X47640100Y-74641800D01*
X47640100Y-74641800D02*
X50822100Y-74641800D01*
X47640100Y-78858200D02*
X47640100Y-78877900D01*
X47640100Y-78877900D02*
X47640100Y-74622100D01*
X47640100Y-78877900D02*
X47640100Y-78877900D01*
X50477900Y-74641800D02*
X50477900Y-74641800D01*
X50477900Y-74641800D02*
X53659900Y-74641800D01*
X50477900Y-78858200D02*
X50477900Y-78858200D01*
X50477900Y-78858200D02*
X50822100Y-78858200D01*
X50822100Y-74641800D02*
X50477900Y-74641800D01*
X50822100Y-74641800D02*
X50822100Y-74641800D01*
X50822100Y-78858200D02*
X47640100Y-78858200D01*
X50822100Y-78858200D02*
X50822100Y-78858200D01*
X53659900Y-74622100D02*
X53659900Y-74622100D01*
X53659900Y-74622100D02*
X53659900Y-78877900D01*
X53659900Y-74641800D02*
X53659900Y-74622100D01*
X53659900Y-78858200D02*
X50477900Y-78858200D01*
X53659900Y-78877900D02*
X53659900Y-78858200D01*
X53659900Y-78877900D02*
X53659900Y-78877900D01*
%TO.C,C21*%
X46650000Y-74550000D02*
X47350000Y-74550000D01*
X47350000Y-75950000D01*
X46650000Y-75950000D01*
X46650000Y-74550000D01*
%TO.C,C26*%
X72070000Y-50169493D02*
X75470000Y-50169493D01*
X75470000Y-52129493D01*
X72070000Y-52129493D01*
X72070000Y-50169493D01*
%TO.C,C36*%
D11*
X66610000Y-84503000D02*
X68430000Y-84503000D01*
X68430000Y-85423000D01*
X66610000Y-85423000D01*
X66610000Y-84503000D01*
%TO.C,R24*%
X48987525Y-80168569D02*
X50847525Y-80168569D01*
X50847525Y-81108569D01*
X48987525Y-81108569D01*
X48987525Y-80168569D01*
%TO.C,U2*%
D10*
X82716000Y-58378000D02*
X84646000Y-58378000D01*
X82716000Y-69638000D02*
X82716000Y-58378000D01*
X84646000Y-57978000D02*
X92646000Y-57978000D01*
X84646000Y-58378000D02*
X84646000Y-57978000D01*
X84646000Y-69638000D02*
X82716000Y-69638000D01*
X84646000Y-70038000D02*
X84646000Y-69638000D01*
X92646000Y-57978000D02*
X92646000Y-58378000D01*
X92646000Y-58378000D02*
X94576000Y-58378000D01*
X92646000Y-69638000D02*
X92646000Y-70038000D01*
X92646000Y-70038000D02*
X84646000Y-70038000D01*
X94576000Y-58378000D02*
X94576000Y-69638000D01*
X94576000Y-69638000D02*
X92646000Y-69638000D01*
%TO.C,R15*%
X49320000Y-117220000D02*
X52280000Y-117220000D01*
X52280000Y-118680000D01*
X49320000Y-118680000D01*
X49320000Y-117220000D01*
%TO.C,U4*%
X59970000Y-45709493D02*
X64530000Y-45709493D01*
X64530000Y-47969493D01*
X59970000Y-47969493D01*
X59970000Y-45709493D01*
%TO.C,R19*%
D11*
X46370000Y-96900000D02*
X47770000Y-96900000D01*
X47770000Y-97600000D01*
X46370000Y-97600000D01*
X46370000Y-96900000D01*
%TO.C,R29*%
D10*
X61020000Y-82020000D02*
X62480000Y-82020000D01*
X62480000Y-84980000D01*
X61020000Y-84980000D01*
X61020000Y-82020000D01*
%TO.C,3V3A*%
D11*
X50750000Y-69500000D02*
G75*
G02*
X48750000Y-69500000I-1000000J0D01*
G01*
X48750000Y-69500000D02*
G75*
G02*
X50750000Y-69500000I1000000J0D01*
G01*
%TO.C,J10*%
X139000000Y-38500000D02*
X147810000Y-38500000D01*
X147810000Y-55000000D01*
X139000000Y-55000000D01*
X139000000Y-38500000D01*
%TO.C,C30*%
D10*
X62140000Y-55099493D02*
X64100000Y-55099493D01*
X64100000Y-58499493D01*
X62140000Y-58499493D01*
X62140000Y-55099493D01*
%TO.C,D1*%
D11*
X99320000Y-43800000D02*
X102680000Y-43800000D01*
X102680000Y-45700000D01*
X99320000Y-45700000D01*
X99320000Y-43800000D01*
%TO.C,+3v3_ETH*%
X44500000Y-63750000D02*
G75*
G02*
X42500000Y-63750000I-1000000J0D01*
G01*
X42500000Y-63750000D02*
G75*
G02*
X44500000Y-63750000I1000000J0D01*
G01*
%TO.C,C31*%
D10*
X59890000Y-55099493D02*
X61850000Y-55099493D01*
X61850000Y-58499493D01*
X59890000Y-58499493D01*
X59890000Y-55099493D01*
%TO.C,L3*%
X65965700Y-58095193D02*
X71274300Y-58095193D01*
X65965700Y-58590493D02*
X65965700Y-58095193D01*
X65965700Y-58590493D02*
X65965700Y-58590493D01*
X65965700Y-62908493D02*
X65965700Y-58590493D01*
X65965700Y-62908493D02*
X65965700Y-62908493D01*
X65965700Y-63403793D02*
X65965700Y-62908493D01*
X71274300Y-58095193D02*
X71274300Y-58590493D01*
X71274300Y-58590493D02*
X71274300Y-58590493D01*
X71274300Y-58590493D02*
X71274300Y-62908493D01*
X71274300Y-62908493D02*
X71274300Y-62908493D01*
X71274300Y-62908493D02*
X71274300Y-63403793D01*
X71274300Y-63403793D02*
X65965700Y-63403793D01*
%TO.C,J13*%
D11*
X139250000Y-89000000D02*
X148060000Y-89000000D01*
X148060000Y-105500000D01*
X139250000Y-105500000D01*
X139250000Y-89000000D01*
%TO.C,C20*%
D10*
X57900000Y-97550000D02*
X58600000Y-97550000D01*
X58600000Y-98950000D01*
X57900000Y-98950000D01*
X57900000Y-97550000D01*
%TO.C,SW5*%
D11*
X75250000Y-110500000D02*
X75250000Y-110750000D01*
X75250000Y-117750000D02*
X75250000Y-110750000D01*
X75250000Y-118000000D02*
X75250000Y-117750000D01*
X75500000Y-110500000D02*
X75250000Y-110500000D01*
X75500000Y-110500000D02*
X84500000Y-110500000D01*
X75500000Y-118000000D02*
X75250000Y-118000000D01*
X84500000Y-118000000D02*
X75500000Y-118000000D01*
X84750000Y-110500000D02*
X84500000Y-110500000D01*
X84750000Y-110750000D02*
X84750000Y-110500000D01*
X84750000Y-110750000D02*
X84750000Y-117750000D01*
X84750000Y-117750000D02*
X84750000Y-118000000D01*
X84750000Y-118000000D02*
X84500000Y-118000000D01*
%TO.C,R10*%
D10*
X74720000Y-65818000D02*
X77680000Y-65818000D01*
X77680000Y-67278000D01*
X74720000Y-67278000D01*
X74720000Y-65818000D01*
%TO.C,C2*%
D11*
X64370000Y-79690000D02*
X65830000Y-79690000D01*
X65830000Y-82650000D01*
X64370000Y-82650000D01*
X64370000Y-79690000D01*
%TO.C,C33*%
X60270000Y-63093661D02*
X62230000Y-63093661D01*
X62230000Y-66493661D01*
X60270000Y-66493661D01*
X60270000Y-63093661D01*
%TO.C,C4*%
X67770000Y-79690000D02*
X69230000Y-79690000D01*
X69230000Y-82650000D01*
X67770000Y-82650000D01*
X67770000Y-79690000D01*
%TO.C,R8*%
D10*
X46020000Y-93770000D02*
X47480000Y-93770000D01*
X47480000Y-96730000D01*
X46020000Y-96730000D01*
X46020000Y-93770000D01*
%TO.C,K13*%
X102692200Y-90686200D02*
X102692200Y-103686200D01*
X102692200Y-103686200D02*
X131992200Y-103686200D01*
X131992200Y-90686200D02*
X102692200Y-90686200D01*
X131992200Y-103686200D02*
X131992200Y-90686200D01*
%TO.C,D3*%
D11*
X99050000Y-77300000D02*
X102410000Y-77300000D01*
X102410000Y-79200000D01*
X99050000Y-79200000D01*
X99050000Y-77300000D01*
%TO.C,U1*%
D10*
X69500000Y-79290000D02*
X69500000Y-99490000D01*
X69500000Y-79290000D02*
X89000000Y-79290000D01*
X69500000Y-99490000D02*
X89000000Y-99490000D01*
X89000000Y-79290000D02*
X89000000Y-99490000D01*
%TO.C,J14*%
D11*
X139213200Y-106500000D02*
X148023200Y-106500000D01*
X148023200Y-123000000D01*
X139213200Y-123000000D01*
X139213200Y-106500000D01*
%TO.C,R1*%
D10*
X99641800Y-42089600D02*
X102601800Y-42089600D01*
X102601800Y-43549600D01*
X99641800Y-43549600D01*
X99641800Y-42089600D01*
%TO.C,R3*%
X98981400Y-75490800D02*
X101941400Y-75490800D01*
X101941400Y-76950800D01*
X98981400Y-76950800D01*
X98981400Y-75490800D01*
%TO.C,3V3 MCU*%
D11*
X64042800Y-80162400D02*
G75*
G02*
X62042800Y-80162400I-1000000J0D01*
G01*
X62042800Y-80162400D02*
G75*
G02*
X64042800Y-80162400I1000000J0D01*
G01*
%TO.C,R18*%
X44230000Y-96900000D02*
X45630000Y-96900000D01*
X45630000Y-97600000D01*
X44230000Y-97600000D01*
X44230000Y-96900000D01*
%TO.C,K10*%
D10*
X103047800Y-40038600D02*
X103047800Y-53038600D01*
X103047800Y-53038600D02*
X132347800Y-53038600D01*
X132347800Y-40038600D02*
X103047800Y-40038600D01*
X132347800Y-53038600D02*
X132347800Y-40038600D01*
%TO.C,U9*%
D11*
X62571200Y-64687999D02*
X62571200Y-74088001D01*
X62571200Y-64687999D02*
X70271200Y-64687999D01*
X62571200Y-74088001D02*
X70271200Y-74088001D01*
D10*
X65921201Y-69388000D02*
X66921202Y-69388000D01*
X66421200Y-68888001D02*
X66421200Y-69887999D01*
D11*
X70271200Y-64687999D02*
X70271200Y-74088001D01*
%TO.C,C19*%
D10*
X55480000Y-95020000D02*
X56880000Y-95020000D01*
X56880000Y-95720000D01*
X55480000Y-95720000D01*
X55480000Y-95020000D01*
%TO.C,C25*%
X67420000Y-51999493D02*
X68820000Y-51999493D01*
X68820000Y-52699493D01*
X67420000Y-52699493D01*
X67420000Y-51999493D01*
%TO.C,R23*%
D11*
X46530000Y-76570000D02*
X47470000Y-76570000D01*
X47470000Y-78430000D01*
X46530000Y-78430000D01*
X46530000Y-76570000D01*
%TO.C,D5*%
X99070000Y-111800000D02*
X102430000Y-111800000D01*
X102430000Y-113700000D01*
X99070000Y-113700000D01*
X99070000Y-111800000D01*
%TO.C,C29*%
D10*
X64390000Y-55269493D02*
X65850000Y-55269493D01*
X65850000Y-58229493D01*
X64390000Y-58229493D01*
X64390000Y-55269493D01*
%TO.C,C1*%
X62300000Y-74220000D02*
X65700000Y-74220000D01*
X65700000Y-76180000D01*
X62300000Y-76180000D01*
X62300000Y-74220000D01*
%TO.C,C24*%
X72050000Y-47859493D02*
X75450000Y-47859493D01*
X75450000Y-49819493D01*
X72050000Y-49819493D01*
X72050000Y-47859493D01*
%TO.C,D2*%
D11*
X99070000Y-60550000D02*
X102430000Y-60550000D01*
X102430000Y-62450000D01*
X99070000Y-62450000D01*
X99070000Y-60550000D01*
%TO.C,R14*%
D10*
X74720000Y-59214000D02*
X77680000Y-59214000D01*
X77680000Y-60674000D01*
X74720000Y-60674000D01*
X74720000Y-59214000D01*
%TO.C,R13*%
X74720000Y-60865000D02*
X77680000Y-60865000D01*
X77680000Y-62325000D01*
X74720000Y-62325000D01*
X74720000Y-60865000D01*
%TO.C,D4*%
D11*
X98820000Y-94550000D02*
X102180000Y-94550000D01*
X102180000Y-96450000D01*
X98820000Y-96450000D01*
X98820000Y-94550000D01*
%TO.C,C28*%
D10*
X71140002Y-54619493D02*
X72600002Y-54619493D01*
X72600002Y-57579493D01*
X71140002Y-57579493D01*
X71140002Y-54619493D01*
%TO.C,C9*%
D11*
X66450000Y-39789493D02*
X68950000Y-39789493D01*
X66450000Y-45739493D02*
X66450000Y-39789493D01*
X67600000Y-46889493D02*
X66450000Y-45739493D01*
X67600000Y-46889493D02*
X68950000Y-46889493D01*
X68950000Y-38889493D02*
X71050000Y-38889493D01*
X68950000Y-39789493D02*
X68950000Y-38889493D01*
X68950000Y-46889493D02*
X68950000Y-47789493D01*
X68950000Y-47789493D02*
X71050000Y-47789493D01*
X71050000Y-38889493D02*
X71050000Y-39789493D01*
X71050000Y-39789493D02*
X73550000Y-39789493D01*
X71050000Y-46889493D02*
X72400000Y-46889493D01*
X71050000Y-47789493D02*
X71050000Y-46889493D01*
X72400000Y-46889493D02*
X73550000Y-45739493D01*
X73550000Y-45739493D02*
X73550000Y-39789493D01*
%TO.C,J11*%
X139271100Y-55500000D02*
X148081100Y-55500000D01*
X148081100Y-72000000D01*
X139271100Y-72000000D01*
X139271100Y-55500000D01*
%TO.C,R4*%
D10*
X99393800Y-109795000D02*
X102353800Y-109795000D01*
X102353800Y-111255000D01*
X99393800Y-111255000D01*
X99393800Y-109795000D01*
%TO.C,REF\u002A\u002A*%
D11*
X47050000Y-120650000D02*
G75*
G02*
X41850000Y-120650000I-2600000J0D01*
G01*
X41850000Y-120650000D02*
G75*
G02*
X47050000Y-120650000I2600000J0D01*
G01*
%TO.C,SW6*%
X85500000Y-110500000D02*
X85750000Y-110500000D01*
X85500000Y-110750000D02*
X85500000Y-110500000D01*
X85500000Y-117750000D02*
X85500000Y-110750000D01*
X85500000Y-117750000D02*
X85500000Y-118000000D01*
X85500000Y-118000000D02*
X85750000Y-118000000D01*
X85750000Y-110500000D02*
X94750000Y-110500000D01*
X94750000Y-110500000D02*
X95000000Y-110500000D01*
X94750000Y-118000000D02*
X85750000Y-118000000D01*
X94750000Y-118000000D02*
X95000000Y-118000000D01*
X95000000Y-110500000D02*
X95000000Y-110750000D01*
X95000000Y-110750000D02*
X95000000Y-117750000D01*
X95000000Y-118000000D02*
X95000000Y-117750000D01*
%TO.C,REF\u002A\u002A*%
X47050000Y-38100000D02*
G75*
G02*
X41850000Y-38100000I-2600000J0D01*
G01*
X41850000Y-38100000D02*
G75*
G02*
X47050000Y-38100000I2600000J0D01*
G01*
%TO.C,R26*%
X66495000Y-82830000D02*
X68355000Y-82830000D01*
X68355000Y-83770000D01*
X66495000Y-83770000D01*
X66495000Y-82830000D01*
%TO.C,C5*%
X55150000Y-86705000D02*
X55850000Y-86705000D01*
X55850000Y-88105000D01*
X55150000Y-88105000D01*
X55150000Y-86705000D01*
%TO.C,J3*%
X71730000Y-67670000D02*
X75270000Y-67670000D01*
X75270000Y-78830000D01*
X71730000Y-78830000D01*
X71730000Y-67670000D01*
%TO.C,R2*%
D10*
X99133800Y-58434600D02*
X102093800Y-58434600D01*
X102093800Y-59894600D01*
X99133800Y-59894600D01*
X99133800Y-58434600D01*
%TO.C,C32*%
D11*
X55520000Y-53300000D02*
X57480000Y-53300000D01*
X57480000Y-56700000D01*
X55520000Y-56700000D01*
X55520000Y-53300000D01*
%TO.C,C27*%
D10*
X72020000Y-52419493D02*
X75420000Y-52419493D01*
X75420000Y-54379493D01*
X72020000Y-54379493D01*
X72020000Y-52419493D01*
%TD*%
M02*
