%TF.GenerationSoftware,KiCad,Pcbnew,10.0.3*%
%TF.CreationDate,2026-08-08T20:31:57-07:00*%
%TF.ProjectId,48VERelay,34385645-5265-46c6-9179-2e6b69636164,rev?*%
%TF.SameCoordinates,Original*%
%TF.FileFunction,Legend,Top*%
%TF.FilePolarity,Positive*%
%FSLAX46Y46*%
G04 Gerber Fmt 4.6, Leading zero omitted, Abs format (unit mm)*
G04 Created by KiCad (PCBNEW 10.0.3) date 2026-08-08 20:31:57*
%MOMM*%
%LPD*%
G01*
G04 APERTURE LIST*
%ADD10C,0.050000*%
%ADD11C,0.125000*%
%ADD12C,0.100000*%
%ADD13C,0.062500*%
%ADD14C,0.150000*%
%ADD15C,0.075000*%
%ADD16C,0.025000*%
%ADD17C,0.037500*%
%ADD18C,0.120000*%
%ADD19C,0.000000*%
%ADD20C,0.200000*%
%ADD21C,0.250000*%
G04 APERTURE END LIST*
D10*
X57783333Y-99189923D02*
X57783333Y-99332780D01*
X57783333Y-99332780D02*
X57773810Y-99361352D01*
X57773810Y-99361352D02*
X57754762Y-99380400D01*
X57754762Y-99380400D02*
X57726191Y-99389923D01*
X57726191Y-99389923D02*
X57707143Y-99389923D01*
X57869048Y-99208971D02*
X57878572Y-99199447D01*
X57878572Y-99199447D02*
X57897619Y-99189923D01*
X57897619Y-99189923D02*
X57945238Y-99189923D01*
X57945238Y-99189923D02*
X57964286Y-99199447D01*
X57964286Y-99199447D02*
X57973810Y-99208971D01*
X57973810Y-99208971D02*
X57983333Y-99228019D01*
X57983333Y-99228019D02*
X57983333Y-99247066D01*
X57983333Y-99247066D02*
X57973810Y-99275638D01*
X57973810Y-99275638D02*
X57859524Y-99389923D01*
X57859524Y-99389923D02*
X57983333Y-99389923D01*
X54383000Y-41746185D02*
X54383000Y-41960471D01*
X54383000Y-41960471D02*
X54368715Y-42003328D01*
X54368715Y-42003328D02*
X54340143Y-42031900D01*
X54340143Y-42031900D02*
X54297286Y-42046185D01*
X54297286Y-42046185D02*
X54268715Y-42046185D01*
X54683000Y-42046185D02*
X54511571Y-42046185D01*
X54597286Y-42046185D02*
X54597286Y-41746185D01*
X54597286Y-41746185D02*
X54568714Y-41789042D01*
X54568714Y-41789042D02*
X54540143Y-41817614D01*
X54540143Y-41817614D02*
X54511571Y-41831900D01*
D11*
X116792857Y-56124809D02*
X116792857Y-55624809D01*
X117078571Y-56124809D02*
X116864286Y-55839095D01*
X117078571Y-55624809D02*
X116792857Y-55910523D01*
X117554762Y-56124809D02*
X117269048Y-56124809D01*
X117411905Y-56124809D02*
X117411905Y-55624809D01*
X117411905Y-55624809D02*
X117364286Y-55696238D01*
X117364286Y-55696238D02*
X117316667Y-55743857D01*
X117316667Y-55743857D02*
X117269048Y-55767666D01*
X118030952Y-56124809D02*
X117745238Y-56124809D01*
X117888095Y-56124809D02*
X117888095Y-55624809D01*
X117888095Y-55624809D02*
X117840476Y-55696238D01*
X117840476Y-55696238D02*
X117792857Y-55743857D01*
X117792857Y-55743857D02*
X117745238Y-55767666D01*
D10*
X44716666Y-68370876D02*
X44707142Y-68380400D01*
X44707142Y-68380400D02*
X44678571Y-68389923D01*
X44678571Y-68389923D02*
X44659523Y-68389923D01*
X44659523Y-68389923D02*
X44630952Y-68380400D01*
X44630952Y-68380400D02*
X44611904Y-68361352D01*
X44611904Y-68361352D02*
X44602381Y-68342304D01*
X44602381Y-68342304D02*
X44592857Y-68304209D01*
X44592857Y-68304209D02*
X44592857Y-68275638D01*
X44592857Y-68275638D02*
X44602381Y-68237542D01*
X44602381Y-68237542D02*
X44611904Y-68218495D01*
X44611904Y-68218495D02*
X44630952Y-68199447D01*
X44630952Y-68199447D02*
X44659523Y-68189923D01*
X44659523Y-68189923D02*
X44678571Y-68189923D01*
X44678571Y-68189923D02*
X44707142Y-68199447D01*
X44707142Y-68199447D02*
X44716666Y-68208971D01*
X44830952Y-68275638D02*
X44811904Y-68266114D01*
X44811904Y-68266114D02*
X44802381Y-68256590D01*
X44802381Y-68256590D02*
X44792857Y-68237542D01*
X44792857Y-68237542D02*
X44792857Y-68228019D01*
X44792857Y-68228019D02*
X44802381Y-68208971D01*
X44802381Y-68208971D02*
X44811904Y-68199447D01*
X44811904Y-68199447D02*
X44830952Y-68189923D01*
X44830952Y-68189923D02*
X44869047Y-68189923D01*
X44869047Y-68189923D02*
X44888095Y-68199447D01*
X44888095Y-68199447D02*
X44897619Y-68208971D01*
X44897619Y-68208971D02*
X44907142Y-68228019D01*
X44907142Y-68228019D02*
X44907142Y-68237542D01*
X44907142Y-68237542D02*
X44897619Y-68256590D01*
X44897619Y-68256590D02*
X44888095Y-68266114D01*
X44888095Y-68266114D02*
X44869047Y-68275638D01*
X44869047Y-68275638D02*
X44830952Y-68275638D01*
X44830952Y-68275638D02*
X44811904Y-68285161D01*
X44811904Y-68285161D02*
X44802381Y-68294685D01*
X44802381Y-68294685D02*
X44792857Y-68313733D01*
X44792857Y-68313733D02*
X44792857Y-68351828D01*
X44792857Y-68351828D02*
X44802381Y-68370876D01*
X44802381Y-68370876D02*
X44811904Y-68380400D01*
X44811904Y-68380400D02*
X44830952Y-68389923D01*
X44830952Y-68389923D02*
X44869047Y-68389923D01*
X44869047Y-68389923D02*
X44888095Y-68380400D01*
X44888095Y-68380400D02*
X44897619Y-68370876D01*
X44897619Y-68370876D02*
X44907142Y-68351828D01*
X44907142Y-68351828D02*
X44907142Y-68313733D01*
X44907142Y-68313733D02*
X44897619Y-68294685D01*
X44897619Y-68294685D02*
X44888095Y-68285161D01*
X44888095Y-68285161D02*
X44869047Y-68275638D01*
X66816666Y-79590876D02*
X66807142Y-79600400D01*
X66807142Y-79600400D02*
X66778571Y-79609923D01*
X66778571Y-79609923D02*
X66759523Y-79609923D01*
X66759523Y-79609923D02*
X66730952Y-79600400D01*
X66730952Y-79600400D02*
X66711904Y-79581352D01*
X66711904Y-79581352D02*
X66702381Y-79562304D01*
X66702381Y-79562304D02*
X66692857Y-79524209D01*
X66692857Y-79524209D02*
X66692857Y-79495638D01*
X66692857Y-79495638D02*
X66702381Y-79457542D01*
X66702381Y-79457542D02*
X66711904Y-79438495D01*
X66711904Y-79438495D02*
X66730952Y-79419447D01*
X66730952Y-79419447D02*
X66759523Y-79409923D01*
X66759523Y-79409923D02*
X66778571Y-79409923D01*
X66778571Y-79409923D02*
X66807142Y-79419447D01*
X66807142Y-79419447D02*
X66816666Y-79428971D01*
X66883333Y-79409923D02*
X67007142Y-79409923D01*
X67007142Y-79409923D02*
X66940476Y-79486114D01*
X66940476Y-79486114D02*
X66969047Y-79486114D01*
X66969047Y-79486114D02*
X66988095Y-79495638D01*
X66988095Y-79495638D02*
X66997619Y-79505161D01*
X66997619Y-79505161D02*
X67007142Y-79524209D01*
X67007142Y-79524209D02*
X67007142Y-79571828D01*
X67007142Y-79571828D02*
X66997619Y-79590876D01*
X66997619Y-79590876D02*
X66988095Y-79600400D01*
X66988095Y-79600400D02*
X66969047Y-79609923D01*
X66969047Y-79609923D02*
X66911904Y-79609923D01*
X66911904Y-79609923D02*
X66892857Y-79600400D01*
X66892857Y-79600400D02*
X66883333Y-79590876D01*
X56116428Y-97395876D02*
X56106904Y-97405400D01*
X56106904Y-97405400D02*
X56078333Y-97414923D01*
X56078333Y-97414923D02*
X56059285Y-97414923D01*
X56059285Y-97414923D02*
X56030714Y-97405400D01*
X56030714Y-97405400D02*
X56011666Y-97386352D01*
X56011666Y-97386352D02*
X56002143Y-97367304D01*
X56002143Y-97367304D02*
X55992619Y-97329209D01*
X55992619Y-97329209D02*
X55992619Y-97300638D01*
X55992619Y-97300638D02*
X56002143Y-97262542D01*
X56002143Y-97262542D02*
X56011666Y-97243495D01*
X56011666Y-97243495D02*
X56030714Y-97224447D01*
X56030714Y-97224447D02*
X56059285Y-97214923D01*
X56059285Y-97214923D02*
X56078333Y-97214923D01*
X56078333Y-97214923D02*
X56106904Y-97224447D01*
X56106904Y-97224447D02*
X56116428Y-97233971D01*
X56306904Y-97414923D02*
X56192619Y-97414923D01*
X56249762Y-97414923D02*
X56249762Y-97214923D01*
X56249762Y-97214923D02*
X56230714Y-97243495D01*
X56230714Y-97243495D02*
X56211666Y-97262542D01*
X56211666Y-97262542D02*
X56192619Y-97272066D01*
X56373571Y-97214923D02*
X56506904Y-97214923D01*
X56506904Y-97214923D02*
X56421190Y-97414923D01*
D12*
X67635477Y-48994109D02*
X67349763Y-48994109D01*
X67492620Y-48994109D02*
X67492620Y-48494109D01*
X67492620Y-48494109D02*
X67445001Y-48565538D01*
X67445001Y-48565538D02*
X67397382Y-48613157D01*
X67397382Y-48613157D02*
X67349763Y-48636966D01*
X67825953Y-48541728D02*
X67849762Y-48517919D01*
X67849762Y-48517919D02*
X67897381Y-48494109D01*
X67897381Y-48494109D02*
X68016429Y-48494109D01*
X68016429Y-48494109D02*
X68064048Y-48517919D01*
X68064048Y-48517919D02*
X68087857Y-48541728D01*
X68087857Y-48541728D02*
X68111667Y-48589347D01*
X68111667Y-48589347D02*
X68111667Y-48636966D01*
X68111667Y-48636966D02*
X68087857Y-48708395D01*
X68087857Y-48708395D02*
X67802143Y-48994109D01*
X67802143Y-48994109D02*
X68111667Y-48994109D01*
X68254524Y-48494109D02*
X68421190Y-48994109D01*
X68421190Y-48994109D02*
X68587857Y-48494109D01*
D10*
X52621428Y-97789923D02*
X52554762Y-97694685D01*
X52507143Y-97789923D02*
X52507143Y-97589923D01*
X52507143Y-97589923D02*
X52583333Y-97589923D01*
X52583333Y-97589923D02*
X52602381Y-97599447D01*
X52602381Y-97599447D02*
X52611904Y-97608971D01*
X52611904Y-97608971D02*
X52621428Y-97628019D01*
X52621428Y-97628019D02*
X52621428Y-97656590D01*
X52621428Y-97656590D02*
X52611904Y-97675638D01*
X52611904Y-97675638D02*
X52602381Y-97685161D01*
X52602381Y-97685161D02*
X52583333Y-97694685D01*
X52583333Y-97694685D02*
X52507143Y-97694685D01*
X52811904Y-97789923D02*
X52697619Y-97789923D01*
X52754762Y-97789923D02*
X52754762Y-97589923D01*
X52754762Y-97589923D02*
X52735714Y-97618495D01*
X52735714Y-97618495D02*
X52716666Y-97637542D01*
X52716666Y-97637542D02*
X52697619Y-97647066D01*
X52983333Y-97589923D02*
X52945238Y-97589923D01*
X52945238Y-97589923D02*
X52926190Y-97599447D01*
X52926190Y-97599447D02*
X52916666Y-97608971D01*
X52916666Y-97608971D02*
X52897619Y-97637542D01*
X52897619Y-97637542D02*
X52888095Y-97675638D01*
X52888095Y-97675638D02*
X52888095Y-97751828D01*
X52888095Y-97751828D02*
X52897619Y-97770876D01*
X52897619Y-97770876D02*
X52907142Y-97780400D01*
X52907142Y-97780400D02*
X52926190Y-97789923D01*
X52926190Y-97789923D02*
X52964285Y-97789923D01*
X52964285Y-97789923D02*
X52983333Y-97780400D01*
X52983333Y-97780400D02*
X52992857Y-97770876D01*
X52992857Y-97770876D02*
X53002380Y-97751828D01*
X53002380Y-97751828D02*
X53002380Y-97704209D01*
X53002380Y-97704209D02*
X52992857Y-97685161D01*
X52992857Y-97685161D02*
X52983333Y-97675638D01*
X52983333Y-97675638D02*
X52964285Y-97666114D01*
X52964285Y-97666114D02*
X52926190Y-97666114D01*
X52926190Y-97666114D02*
X52907142Y-97675638D01*
X52907142Y-97675638D02*
X52897619Y-97685161D01*
X52897619Y-97685161D02*
X52888095Y-97704209D01*
X46366667Y-65289923D02*
X46271429Y-65289923D01*
X46271429Y-65289923D02*
X46271429Y-65089923D01*
X46538095Y-65289923D02*
X46423810Y-65289923D01*
X46480953Y-65289923D02*
X46480953Y-65089923D01*
X46480953Y-65089923D02*
X46461905Y-65118495D01*
X46461905Y-65118495D02*
X46442857Y-65137542D01*
X46442857Y-65137542D02*
X46423810Y-65147066D01*
D13*
X67339285Y-87058995D02*
X67327381Y-87070900D01*
X67327381Y-87070900D02*
X67291666Y-87082804D01*
X67291666Y-87082804D02*
X67267857Y-87082804D01*
X67267857Y-87082804D02*
X67232143Y-87070900D01*
X67232143Y-87070900D02*
X67208333Y-87047090D01*
X67208333Y-87047090D02*
X67196428Y-87023280D01*
X67196428Y-87023280D02*
X67184524Y-86975661D01*
X67184524Y-86975661D02*
X67184524Y-86939947D01*
X67184524Y-86939947D02*
X67196428Y-86892328D01*
X67196428Y-86892328D02*
X67208333Y-86868519D01*
X67208333Y-86868519D02*
X67232143Y-86844709D01*
X67232143Y-86844709D02*
X67267857Y-86832804D01*
X67267857Y-86832804D02*
X67291666Y-86832804D01*
X67291666Y-86832804D02*
X67327381Y-86844709D01*
X67327381Y-86844709D02*
X67339285Y-86856614D01*
X67422619Y-86832804D02*
X67577381Y-86832804D01*
X67577381Y-86832804D02*
X67494047Y-86928042D01*
X67494047Y-86928042D02*
X67529762Y-86928042D01*
X67529762Y-86928042D02*
X67553571Y-86939947D01*
X67553571Y-86939947D02*
X67565476Y-86951852D01*
X67565476Y-86951852D02*
X67577381Y-86975661D01*
X67577381Y-86975661D02*
X67577381Y-87035185D01*
X67577381Y-87035185D02*
X67565476Y-87058995D01*
X67565476Y-87058995D02*
X67553571Y-87070900D01*
X67553571Y-87070900D02*
X67529762Y-87082804D01*
X67529762Y-87082804D02*
X67458333Y-87082804D01*
X67458333Y-87082804D02*
X67434524Y-87070900D01*
X67434524Y-87070900D02*
X67422619Y-87058995D01*
X67660714Y-86832804D02*
X67827380Y-86832804D01*
X67827380Y-86832804D02*
X67720238Y-87082804D01*
D10*
X52696428Y-94414923D02*
X52629762Y-94319685D01*
X52582143Y-94414923D02*
X52582143Y-94214923D01*
X52582143Y-94214923D02*
X52658333Y-94214923D01*
X52658333Y-94214923D02*
X52677381Y-94224447D01*
X52677381Y-94224447D02*
X52686904Y-94233971D01*
X52686904Y-94233971D02*
X52696428Y-94253019D01*
X52696428Y-94253019D02*
X52696428Y-94281590D01*
X52696428Y-94281590D02*
X52686904Y-94300638D01*
X52686904Y-94300638D02*
X52677381Y-94310161D01*
X52677381Y-94310161D02*
X52658333Y-94319685D01*
X52658333Y-94319685D02*
X52582143Y-94319685D01*
X52886904Y-94414923D02*
X52772619Y-94414923D01*
X52829762Y-94414923D02*
X52829762Y-94214923D01*
X52829762Y-94214923D02*
X52810714Y-94243495D01*
X52810714Y-94243495D02*
X52791666Y-94262542D01*
X52791666Y-94262542D02*
X52772619Y-94272066D01*
X52953571Y-94214923D02*
X53086904Y-94214923D01*
X53086904Y-94214923D02*
X53001190Y-94414923D01*
D14*
X83609866Y-101017419D02*
X83609866Y-101731704D01*
X83609866Y-101731704D02*
X83562247Y-101874561D01*
X83562247Y-101874561D02*
X83467009Y-101969800D01*
X83467009Y-101969800D02*
X83324152Y-102017419D01*
X83324152Y-102017419D02*
X83228914Y-102017419D01*
X84514628Y-101350752D02*
X84514628Y-102017419D01*
X84276533Y-100969800D02*
X84038438Y-101684085D01*
X84038438Y-101684085D02*
X84657485Y-101684085D01*
D15*
X64528571Y-86190085D02*
X64528571Y-85890085D01*
X64528571Y-85890085D02*
X64600000Y-85890085D01*
X64600000Y-85890085D02*
X64642857Y-85904371D01*
X64642857Y-85904371D02*
X64671428Y-85932942D01*
X64671428Y-85932942D02*
X64685714Y-85961514D01*
X64685714Y-85961514D02*
X64700000Y-86018657D01*
X64700000Y-86018657D02*
X64700000Y-86061514D01*
X64700000Y-86061514D02*
X64685714Y-86118657D01*
X64685714Y-86118657D02*
X64671428Y-86147228D01*
X64671428Y-86147228D02*
X64642857Y-86175800D01*
X64642857Y-86175800D02*
X64600000Y-86190085D01*
X64600000Y-86190085D02*
X64528571Y-86190085D01*
X64957143Y-85890085D02*
X64900000Y-85890085D01*
X64900000Y-85890085D02*
X64871428Y-85904371D01*
X64871428Y-85904371D02*
X64857143Y-85918657D01*
X64857143Y-85918657D02*
X64828571Y-85961514D01*
X64828571Y-85961514D02*
X64814285Y-86018657D01*
X64814285Y-86018657D02*
X64814285Y-86132942D01*
X64814285Y-86132942D02*
X64828571Y-86161514D01*
X64828571Y-86161514D02*
X64842857Y-86175800D01*
X64842857Y-86175800D02*
X64871428Y-86190085D01*
X64871428Y-86190085D02*
X64928571Y-86190085D01*
X64928571Y-86190085D02*
X64957143Y-86175800D01*
X64957143Y-86175800D02*
X64971428Y-86161514D01*
X64971428Y-86161514D02*
X64985714Y-86132942D01*
X64985714Y-86132942D02*
X64985714Y-86061514D01*
X64985714Y-86061514D02*
X64971428Y-86032942D01*
X64971428Y-86032942D02*
X64957143Y-86018657D01*
X64957143Y-86018657D02*
X64928571Y-86004371D01*
X64928571Y-86004371D02*
X64871428Y-86004371D01*
X64871428Y-86004371D02*
X64842857Y-86018657D01*
X64842857Y-86018657D02*
X64828571Y-86032942D01*
X64828571Y-86032942D02*
X64814285Y-86061514D01*
D11*
X116836657Y-106729809D02*
X116836657Y-106229809D01*
X117122371Y-106729809D02*
X116908086Y-106444095D01*
X117122371Y-106229809D02*
X116836657Y-106515523D01*
X117598562Y-106729809D02*
X117312848Y-106729809D01*
X117455705Y-106729809D02*
X117455705Y-106229809D01*
X117455705Y-106229809D02*
X117408086Y-106301238D01*
X117408086Y-106301238D02*
X117360467Y-106348857D01*
X117360467Y-106348857D02*
X117312848Y-106372666D01*
X118027133Y-106396476D02*
X118027133Y-106729809D01*
X117908085Y-106206000D02*
X117789038Y-106563142D01*
X117789038Y-106563142D02*
X118098561Y-106563142D01*
D14*
X138084819Y-81059523D02*
X138799104Y-81059523D01*
X138799104Y-81059523D02*
X138941961Y-81107142D01*
X138941961Y-81107142D02*
X139037200Y-81202380D01*
X139037200Y-81202380D02*
X139084819Y-81345237D01*
X139084819Y-81345237D02*
X139084819Y-81440475D01*
X139084819Y-80059523D02*
X139084819Y-80630951D01*
X139084819Y-80345237D02*
X138084819Y-80345237D01*
X138084819Y-80345237D02*
X138227676Y-80440475D01*
X138227676Y-80440475D02*
X138322914Y-80535713D01*
X138322914Y-80535713D02*
X138370533Y-80630951D01*
X138180057Y-79678570D02*
X138132438Y-79630951D01*
X138132438Y-79630951D02*
X138084819Y-79535713D01*
X138084819Y-79535713D02*
X138084819Y-79297618D01*
X138084819Y-79297618D02*
X138132438Y-79202380D01*
X138132438Y-79202380D02*
X138180057Y-79154761D01*
X138180057Y-79154761D02*
X138275295Y-79107142D01*
X138275295Y-79107142D02*
X138370533Y-79107142D01*
X138370533Y-79107142D02*
X138513390Y-79154761D01*
X138513390Y-79154761D02*
X139084819Y-79726189D01*
X139084819Y-79726189D02*
X139084819Y-79107142D01*
D12*
X59109047Y-49914919D02*
X59061428Y-49891109D01*
X59061428Y-49891109D02*
X58989999Y-49891109D01*
X58989999Y-49891109D02*
X58918571Y-49914919D01*
X58918571Y-49914919D02*
X58870952Y-49962538D01*
X58870952Y-49962538D02*
X58847142Y-50010157D01*
X58847142Y-50010157D02*
X58823333Y-50105395D01*
X58823333Y-50105395D02*
X58823333Y-50176823D01*
X58823333Y-50176823D02*
X58847142Y-50272061D01*
X58847142Y-50272061D02*
X58870952Y-50319680D01*
X58870952Y-50319680D02*
X58918571Y-50367300D01*
X58918571Y-50367300D02*
X58989999Y-50391109D01*
X58989999Y-50391109D02*
X59037618Y-50391109D01*
X59037618Y-50391109D02*
X59109047Y-50367300D01*
X59109047Y-50367300D02*
X59132856Y-50343490D01*
X59132856Y-50343490D02*
X59132856Y-50176823D01*
X59132856Y-50176823D02*
X59037618Y-50176823D01*
X59347142Y-50391109D02*
X59347142Y-49891109D01*
X59347142Y-49891109D02*
X59632856Y-50391109D01*
X59632856Y-50391109D02*
X59632856Y-49891109D01*
X59870952Y-50391109D02*
X59870952Y-49891109D01*
X59870952Y-49891109D02*
X59990000Y-49891109D01*
X59990000Y-49891109D02*
X60061428Y-49914919D01*
X60061428Y-49914919D02*
X60109047Y-49962538D01*
X60109047Y-49962538D02*
X60132857Y-50010157D01*
X60132857Y-50010157D02*
X60156666Y-50105395D01*
X60156666Y-50105395D02*
X60156666Y-50176823D01*
X60156666Y-50176823D02*
X60132857Y-50272061D01*
X60132857Y-50272061D02*
X60109047Y-50319680D01*
X60109047Y-50319680D02*
X60061428Y-50367300D01*
X60061428Y-50367300D02*
X59990000Y-50391109D01*
X59990000Y-50391109D02*
X59870952Y-50391109D01*
D10*
X44716666Y-97089923D02*
X44650000Y-96994685D01*
X44602381Y-97089923D02*
X44602381Y-96889923D01*
X44602381Y-96889923D02*
X44678571Y-96889923D01*
X44678571Y-96889923D02*
X44697619Y-96899447D01*
X44697619Y-96899447D02*
X44707142Y-96908971D01*
X44707142Y-96908971D02*
X44716666Y-96928019D01*
X44716666Y-96928019D02*
X44716666Y-96956590D01*
X44716666Y-96956590D02*
X44707142Y-96975638D01*
X44707142Y-96975638D02*
X44697619Y-96985161D01*
X44697619Y-96985161D02*
X44678571Y-96994685D01*
X44678571Y-96994685D02*
X44602381Y-96994685D01*
X44783333Y-96889923D02*
X44916666Y-96889923D01*
X44916666Y-96889923D02*
X44830952Y-97089923D01*
D13*
X54864285Y-96387404D02*
X54780952Y-96268357D01*
X54721428Y-96387404D02*
X54721428Y-96137404D01*
X54721428Y-96137404D02*
X54816666Y-96137404D01*
X54816666Y-96137404D02*
X54840476Y-96149309D01*
X54840476Y-96149309D02*
X54852381Y-96161214D01*
X54852381Y-96161214D02*
X54864285Y-96185023D01*
X54864285Y-96185023D02*
X54864285Y-96220738D01*
X54864285Y-96220738D02*
X54852381Y-96244547D01*
X54852381Y-96244547D02*
X54840476Y-96256452D01*
X54840476Y-96256452D02*
X54816666Y-96268357D01*
X54816666Y-96268357D02*
X54721428Y-96268357D01*
X54959524Y-96161214D02*
X54971428Y-96149309D01*
X54971428Y-96149309D02*
X54995238Y-96137404D01*
X54995238Y-96137404D02*
X55054762Y-96137404D01*
X55054762Y-96137404D02*
X55078571Y-96149309D01*
X55078571Y-96149309D02*
X55090476Y-96161214D01*
X55090476Y-96161214D02*
X55102381Y-96185023D01*
X55102381Y-96185023D02*
X55102381Y-96208833D01*
X55102381Y-96208833D02*
X55090476Y-96244547D01*
X55090476Y-96244547D02*
X54947619Y-96387404D01*
X54947619Y-96387404D02*
X55102381Y-96387404D01*
X55340476Y-96387404D02*
X55197619Y-96387404D01*
X55269047Y-96387404D02*
X55269047Y-96137404D01*
X55269047Y-96137404D02*
X55245238Y-96173119D01*
X55245238Y-96173119D02*
X55221428Y-96196928D01*
X55221428Y-96196928D02*
X55197619Y-96208833D01*
D10*
X65399428Y-44289369D02*
X65389904Y-44298893D01*
X65389904Y-44298893D02*
X65361333Y-44308416D01*
X65361333Y-44308416D02*
X65342285Y-44308416D01*
X65342285Y-44308416D02*
X65313714Y-44298893D01*
X65313714Y-44298893D02*
X65294666Y-44279845D01*
X65294666Y-44279845D02*
X65285143Y-44260797D01*
X65285143Y-44260797D02*
X65275619Y-44222702D01*
X65275619Y-44222702D02*
X65275619Y-44194131D01*
X65275619Y-44194131D02*
X65285143Y-44156035D01*
X65285143Y-44156035D02*
X65294666Y-44136988D01*
X65294666Y-44136988D02*
X65313714Y-44117940D01*
X65313714Y-44117940D02*
X65342285Y-44108416D01*
X65342285Y-44108416D02*
X65361333Y-44108416D01*
X65361333Y-44108416D02*
X65389904Y-44117940D01*
X65389904Y-44117940D02*
X65399428Y-44127464D01*
X65589904Y-44308416D02*
X65475619Y-44308416D01*
X65532762Y-44308416D02*
X65532762Y-44108416D01*
X65532762Y-44108416D02*
X65513714Y-44136988D01*
X65513714Y-44136988D02*
X65494666Y-44156035D01*
X65494666Y-44156035D02*
X65475619Y-44165559D01*
X65713714Y-44108416D02*
X65732761Y-44108416D01*
X65732761Y-44108416D02*
X65751809Y-44117940D01*
X65751809Y-44117940D02*
X65761333Y-44127464D01*
X65761333Y-44127464D02*
X65770857Y-44146512D01*
X65770857Y-44146512D02*
X65780380Y-44184607D01*
X65780380Y-44184607D02*
X65780380Y-44232226D01*
X65780380Y-44232226D02*
X65770857Y-44270321D01*
X65770857Y-44270321D02*
X65761333Y-44289369D01*
X65761333Y-44289369D02*
X65751809Y-44298893D01*
X65751809Y-44298893D02*
X65732761Y-44308416D01*
X65732761Y-44308416D02*
X65713714Y-44308416D01*
X65713714Y-44308416D02*
X65694666Y-44298893D01*
X65694666Y-44298893D02*
X65685142Y-44289369D01*
X65685142Y-44289369D02*
X65675619Y-44270321D01*
X65675619Y-44270321D02*
X65666095Y-44232226D01*
X65666095Y-44232226D02*
X65666095Y-44184607D01*
X65666095Y-44184607D02*
X65675619Y-44146512D01*
X65675619Y-44146512D02*
X65685142Y-44127464D01*
X65685142Y-44127464D02*
X65694666Y-44117940D01*
X65694666Y-44117940D02*
X65713714Y-44108416D01*
D13*
X57627771Y-57497166D02*
X57818248Y-57497166D01*
X57723009Y-57592404D02*
X57723009Y-57401928D01*
X58056343Y-57342404D02*
X57937295Y-57342404D01*
X57937295Y-57342404D02*
X57925391Y-57461452D01*
X57925391Y-57461452D02*
X57937295Y-57449547D01*
X57937295Y-57449547D02*
X57961105Y-57437642D01*
X57961105Y-57437642D02*
X58020629Y-57437642D01*
X58020629Y-57437642D02*
X58044438Y-57449547D01*
X58044438Y-57449547D02*
X58056343Y-57461452D01*
X58056343Y-57461452D02*
X58068248Y-57485261D01*
X58068248Y-57485261D02*
X58068248Y-57544785D01*
X58068248Y-57544785D02*
X58056343Y-57568595D01*
X58056343Y-57568595D02*
X58044438Y-57580500D01*
X58044438Y-57580500D02*
X58020629Y-57592404D01*
X58020629Y-57592404D02*
X57961105Y-57592404D01*
X57961105Y-57592404D02*
X57937295Y-57580500D01*
X57937295Y-57580500D02*
X57925391Y-57568595D01*
X58139676Y-57342404D02*
X58223009Y-57592404D01*
X58223009Y-57592404D02*
X58306343Y-57342404D01*
D10*
X45548619Y-83604645D02*
X45548619Y-83766550D01*
X45548619Y-83766550D02*
X45558142Y-83785598D01*
X45558142Y-83785598D02*
X45567666Y-83795122D01*
X45567666Y-83795122D02*
X45586714Y-83804645D01*
X45586714Y-83804645D02*
X45624809Y-83804645D01*
X45624809Y-83804645D02*
X45643857Y-83795122D01*
X45643857Y-83795122D02*
X45653380Y-83785598D01*
X45653380Y-83785598D02*
X45662904Y-83766550D01*
X45662904Y-83766550D02*
X45662904Y-83604645D01*
X45739095Y-83604645D02*
X45862904Y-83604645D01*
X45862904Y-83604645D02*
X45796238Y-83680836D01*
X45796238Y-83680836D02*
X45824809Y-83680836D01*
X45824809Y-83680836D02*
X45843857Y-83690360D01*
X45843857Y-83690360D02*
X45853381Y-83699883D01*
X45853381Y-83699883D02*
X45862904Y-83718931D01*
X45862904Y-83718931D02*
X45862904Y-83766550D01*
X45862904Y-83766550D02*
X45853381Y-83785598D01*
X45853381Y-83785598D02*
X45843857Y-83795122D01*
X45843857Y-83795122D02*
X45824809Y-83804645D01*
X45824809Y-83804645D02*
X45767666Y-83804645D01*
X45767666Y-83804645D02*
X45748619Y-83795122D01*
X45748619Y-83795122D02*
X45739095Y-83785598D01*
X70491428Y-49489418D02*
X70424762Y-49394180D01*
X70377143Y-49489418D02*
X70377143Y-49289418D01*
X70377143Y-49289418D02*
X70453333Y-49289418D01*
X70453333Y-49289418D02*
X70472381Y-49298942D01*
X70472381Y-49298942D02*
X70481904Y-49308466D01*
X70481904Y-49308466D02*
X70491428Y-49327514D01*
X70491428Y-49327514D02*
X70491428Y-49356085D01*
X70491428Y-49356085D02*
X70481904Y-49375133D01*
X70481904Y-49375133D02*
X70472381Y-49384656D01*
X70472381Y-49384656D02*
X70453333Y-49394180D01*
X70453333Y-49394180D02*
X70377143Y-49394180D01*
X70567619Y-49308466D02*
X70577143Y-49298942D01*
X70577143Y-49298942D02*
X70596190Y-49289418D01*
X70596190Y-49289418D02*
X70643809Y-49289418D01*
X70643809Y-49289418D02*
X70662857Y-49298942D01*
X70662857Y-49298942D02*
X70672381Y-49308466D01*
X70672381Y-49308466D02*
X70681904Y-49327514D01*
X70681904Y-49327514D02*
X70681904Y-49346561D01*
X70681904Y-49346561D02*
X70672381Y-49375133D01*
X70672381Y-49375133D02*
X70558095Y-49489418D01*
X70558095Y-49489418D02*
X70681904Y-49489418D01*
X70862857Y-49289418D02*
X70767619Y-49289418D01*
X70767619Y-49289418D02*
X70758095Y-49384656D01*
X70758095Y-49384656D02*
X70767619Y-49375133D01*
X70767619Y-49375133D02*
X70786666Y-49365609D01*
X70786666Y-49365609D02*
X70834285Y-49365609D01*
X70834285Y-49365609D02*
X70853333Y-49375133D01*
X70853333Y-49375133D02*
X70862857Y-49384656D01*
X70862857Y-49384656D02*
X70872380Y-49403704D01*
X70872380Y-49403704D02*
X70872380Y-49451323D01*
X70872380Y-49451323D02*
X70862857Y-49470371D01*
X70862857Y-49470371D02*
X70853333Y-49479895D01*
X70853333Y-49479895D02*
X70834285Y-49489418D01*
X70834285Y-49489418D02*
X70786666Y-49489418D01*
X70786666Y-49489418D02*
X70767619Y-49479895D01*
X70767619Y-49479895D02*
X70758095Y-49470371D01*
D13*
X54864285Y-94212404D02*
X54780952Y-94093357D01*
X54721428Y-94212404D02*
X54721428Y-93962404D01*
X54721428Y-93962404D02*
X54816666Y-93962404D01*
X54816666Y-93962404D02*
X54840476Y-93974309D01*
X54840476Y-93974309D02*
X54852381Y-93986214D01*
X54852381Y-93986214D02*
X54864285Y-94010023D01*
X54864285Y-94010023D02*
X54864285Y-94045738D01*
X54864285Y-94045738D02*
X54852381Y-94069547D01*
X54852381Y-94069547D02*
X54840476Y-94081452D01*
X54840476Y-94081452D02*
X54816666Y-94093357D01*
X54816666Y-94093357D02*
X54721428Y-94093357D01*
X54959524Y-93986214D02*
X54971428Y-93974309D01*
X54971428Y-93974309D02*
X54995238Y-93962404D01*
X54995238Y-93962404D02*
X55054762Y-93962404D01*
X55054762Y-93962404D02*
X55078571Y-93974309D01*
X55078571Y-93974309D02*
X55090476Y-93986214D01*
X55090476Y-93986214D02*
X55102381Y-94010023D01*
X55102381Y-94010023D02*
X55102381Y-94033833D01*
X55102381Y-94033833D02*
X55090476Y-94069547D01*
X55090476Y-94069547D02*
X54947619Y-94212404D01*
X54947619Y-94212404D02*
X55102381Y-94212404D01*
X55197619Y-93986214D02*
X55209523Y-93974309D01*
X55209523Y-93974309D02*
X55233333Y-93962404D01*
X55233333Y-93962404D02*
X55292857Y-93962404D01*
X55292857Y-93962404D02*
X55316666Y-93974309D01*
X55316666Y-93974309D02*
X55328571Y-93986214D01*
X55328571Y-93986214D02*
X55340476Y-94010023D01*
X55340476Y-94010023D02*
X55340476Y-94033833D01*
X55340476Y-94033833D02*
X55328571Y-94069547D01*
X55328571Y-94069547D02*
X55185714Y-94212404D01*
X55185714Y-94212404D02*
X55340476Y-94212404D01*
D10*
X77976428Y-62700923D02*
X77909762Y-62605685D01*
X77862143Y-62700923D02*
X77862143Y-62500923D01*
X77862143Y-62500923D02*
X77938333Y-62500923D01*
X77938333Y-62500923D02*
X77957381Y-62510447D01*
X77957381Y-62510447D02*
X77966904Y-62519971D01*
X77966904Y-62519971D02*
X77976428Y-62539019D01*
X77976428Y-62539019D02*
X77976428Y-62567590D01*
X77976428Y-62567590D02*
X77966904Y-62586638D01*
X77966904Y-62586638D02*
X77957381Y-62596161D01*
X77957381Y-62596161D02*
X77938333Y-62605685D01*
X77938333Y-62605685D02*
X77862143Y-62605685D01*
X78166904Y-62700923D02*
X78052619Y-62700923D01*
X78109762Y-62700923D02*
X78109762Y-62500923D01*
X78109762Y-62500923D02*
X78090714Y-62529495D01*
X78090714Y-62529495D02*
X78071666Y-62548542D01*
X78071666Y-62548542D02*
X78052619Y-62558066D01*
X78243095Y-62519971D02*
X78252619Y-62510447D01*
X78252619Y-62510447D02*
X78271666Y-62500923D01*
X78271666Y-62500923D02*
X78319285Y-62500923D01*
X78319285Y-62500923D02*
X78338333Y-62510447D01*
X78338333Y-62510447D02*
X78347857Y-62519971D01*
X78347857Y-62519971D02*
X78357380Y-62539019D01*
X78357380Y-62539019D02*
X78357380Y-62558066D01*
X78357380Y-62558066D02*
X78347857Y-62586638D01*
X78347857Y-62586638D02*
X78233571Y-62700923D01*
X78233571Y-62700923D02*
X78357380Y-62700923D01*
X62120876Y-77378571D02*
X62130400Y-77388095D01*
X62130400Y-77388095D02*
X62139923Y-77416666D01*
X62139923Y-77416666D02*
X62139923Y-77435714D01*
X62139923Y-77435714D02*
X62130400Y-77464285D01*
X62130400Y-77464285D02*
X62111352Y-77483333D01*
X62111352Y-77483333D02*
X62092304Y-77492856D01*
X62092304Y-77492856D02*
X62054209Y-77502380D01*
X62054209Y-77502380D02*
X62025638Y-77502380D01*
X62025638Y-77502380D02*
X61987542Y-77492856D01*
X61987542Y-77492856D02*
X61968495Y-77483333D01*
X61968495Y-77483333D02*
X61949447Y-77464285D01*
X61949447Y-77464285D02*
X61939923Y-77435714D01*
X61939923Y-77435714D02*
X61939923Y-77416666D01*
X61939923Y-77416666D02*
X61949447Y-77388095D01*
X61949447Y-77388095D02*
X61958971Y-77378571D01*
X61939923Y-77311904D02*
X61939923Y-77188095D01*
X61939923Y-77188095D02*
X62016114Y-77254761D01*
X62016114Y-77254761D02*
X62016114Y-77226190D01*
X62016114Y-77226190D02*
X62025638Y-77207142D01*
X62025638Y-77207142D02*
X62035161Y-77197618D01*
X62035161Y-77197618D02*
X62054209Y-77188095D01*
X62054209Y-77188095D02*
X62101828Y-77188095D01*
X62101828Y-77188095D02*
X62120876Y-77197618D01*
X62120876Y-77197618D02*
X62130400Y-77207142D01*
X62130400Y-77207142D02*
X62139923Y-77226190D01*
X62139923Y-77226190D02*
X62139923Y-77283333D01*
X62139923Y-77283333D02*
X62130400Y-77302380D01*
X62130400Y-77302380D02*
X62120876Y-77311904D01*
X61939923Y-77007142D02*
X61939923Y-77102380D01*
X61939923Y-77102380D02*
X62035161Y-77111904D01*
X62035161Y-77111904D02*
X62025638Y-77102380D01*
X62025638Y-77102380D02*
X62016114Y-77083333D01*
X62016114Y-77083333D02*
X62016114Y-77035714D01*
X62016114Y-77035714D02*
X62025638Y-77016666D01*
X62025638Y-77016666D02*
X62035161Y-77007142D01*
X62035161Y-77007142D02*
X62054209Y-76997619D01*
X62054209Y-76997619D02*
X62101828Y-76997619D01*
X62101828Y-76997619D02*
X62120876Y-77007142D01*
X62120876Y-77007142D02*
X62130400Y-77016666D01*
X62130400Y-77016666D02*
X62139923Y-77035714D01*
X62139923Y-77035714D02*
X62139923Y-77083333D01*
X62139923Y-77083333D02*
X62130400Y-77102380D01*
X62130400Y-77102380D02*
X62120876Y-77111904D01*
D11*
X116684257Y-72429809D02*
X116684257Y-71929809D01*
X116969971Y-72429809D02*
X116755686Y-72144095D01*
X116969971Y-71929809D02*
X116684257Y-72215523D01*
X117446162Y-72429809D02*
X117160448Y-72429809D01*
X117303305Y-72429809D02*
X117303305Y-71929809D01*
X117303305Y-71929809D02*
X117255686Y-72001238D01*
X117255686Y-72001238D02*
X117208067Y-72048857D01*
X117208067Y-72048857D02*
X117160448Y-72072666D01*
X117636638Y-71977428D02*
X117660447Y-71953619D01*
X117660447Y-71953619D02*
X117708066Y-71929809D01*
X117708066Y-71929809D02*
X117827114Y-71929809D01*
X117827114Y-71929809D02*
X117874733Y-71953619D01*
X117874733Y-71953619D02*
X117898542Y-71977428D01*
X117898542Y-71977428D02*
X117922352Y-72025047D01*
X117922352Y-72025047D02*
X117922352Y-72072666D01*
X117922352Y-72072666D02*
X117898542Y-72144095D01*
X117898542Y-72144095D02*
X117612828Y-72429809D01*
X117612828Y-72429809D02*
X117922352Y-72429809D01*
D10*
X50417428Y-66059876D02*
X50407904Y-66069400D01*
X50407904Y-66069400D02*
X50379333Y-66078923D01*
X50379333Y-66078923D02*
X50360285Y-66078923D01*
X50360285Y-66078923D02*
X50331714Y-66069400D01*
X50331714Y-66069400D02*
X50312666Y-66050352D01*
X50312666Y-66050352D02*
X50303143Y-66031304D01*
X50303143Y-66031304D02*
X50293619Y-65993209D01*
X50293619Y-65993209D02*
X50293619Y-65964638D01*
X50293619Y-65964638D02*
X50303143Y-65926542D01*
X50303143Y-65926542D02*
X50312666Y-65907495D01*
X50312666Y-65907495D02*
X50331714Y-65888447D01*
X50331714Y-65888447D02*
X50360285Y-65878923D01*
X50360285Y-65878923D02*
X50379333Y-65878923D01*
X50379333Y-65878923D02*
X50407904Y-65888447D01*
X50407904Y-65888447D02*
X50417428Y-65897971D01*
X50607904Y-66078923D02*
X50493619Y-66078923D01*
X50550762Y-66078923D02*
X50550762Y-65878923D01*
X50550762Y-65878923D02*
X50531714Y-65907495D01*
X50531714Y-65907495D02*
X50512666Y-65926542D01*
X50512666Y-65926542D02*
X50493619Y-65936066D01*
X50722190Y-65964638D02*
X50703142Y-65955114D01*
X50703142Y-65955114D02*
X50693619Y-65945590D01*
X50693619Y-65945590D02*
X50684095Y-65926542D01*
X50684095Y-65926542D02*
X50684095Y-65917019D01*
X50684095Y-65917019D02*
X50693619Y-65897971D01*
X50693619Y-65897971D02*
X50703142Y-65888447D01*
X50703142Y-65888447D02*
X50722190Y-65878923D01*
X50722190Y-65878923D02*
X50760285Y-65878923D01*
X50760285Y-65878923D02*
X50779333Y-65888447D01*
X50779333Y-65888447D02*
X50788857Y-65897971D01*
X50788857Y-65897971D02*
X50798380Y-65917019D01*
X50798380Y-65917019D02*
X50798380Y-65926542D01*
X50798380Y-65926542D02*
X50788857Y-65945590D01*
X50788857Y-65945590D02*
X50779333Y-65955114D01*
X50779333Y-65955114D02*
X50760285Y-65964638D01*
X50760285Y-65964638D02*
X50722190Y-65964638D01*
X50722190Y-65964638D02*
X50703142Y-65974161D01*
X50703142Y-65974161D02*
X50693619Y-65983685D01*
X50693619Y-65983685D02*
X50684095Y-66002733D01*
X50684095Y-66002733D02*
X50684095Y-66040828D01*
X50684095Y-66040828D02*
X50693619Y-66059876D01*
X50693619Y-66059876D02*
X50703142Y-66069400D01*
X50703142Y-66069400D02*
X50722190Y-66078923D01*
X50722190Y-66078923D02*
X50760285Y-66078923D01*
X50760285Y-66078923D02*
X50779333Y-66069400D01*
X50779333Y-66069400D02*
X50788857Y-66059876D01*
X50788857Y-66059876D02*
X50798380Y-66040828D01*
X50798380Y-66040828D02*
X50798380Y-66002733D01*
X50798380Y-66002733D02*
X50788857Y-65983685D01*
X50788857Y-65983685D02*
X50779333Y-65974161D01*
X50779333Y-65974161D02*
X50760285Y-65964638D01*
X100351866Y-92427123D02*
X100285200Y-92331885D01*
X100237581Y-92427123D02*
X100237581Y-92227123D01*
X100237581Y-92227123D02*
X100313771Y-92227123D01*
X100313771Y-92227123D02*
X100332819Y-92236647D01*
X100332819Y-92236647D02*
X100342342Y-92246171D01*
X100342342Y-92246171D02*
X100351866Y-92265219D01*
X100351866Y-92265219D02*
X100351866Y-92293790D01*
X100351866Y-92293790D02*
X100342342Y-92312838D01*
X100342342Y-92312838D02*
X100332819Y-92322361D01*
X100332819Y-92322361D02*
X100313771Y-92331885D01*
X100313771Y-92331885D02*
X100237581Y-92331885D01*
X100532819Y-92227123D02*
X100437581Y-92227123D01*
X100437581Y-92227123D02*
X100428057Y-92322361D01*
X100428057Y-92322361D02*
X100437581Y-92312838D01*
X100437581Y-92312838D02*
X100456628Y-92303314D01*
X100456628Y-92303314D02*
X100504247Y-92303314D01*
X100504247Y-92303314D02*
X100523295Y-92312838D01*
X100523295Y-92312838D02*
X100532819Y-92322361D01*
X100532819Y-92322361D02*
X100542342Y-92341409D01*
X100542342Y-92341409D02*
X100542342Y-92389028D01*
X100542342Y-92389028D02*
X100532819Y-92408076D01*
X100532819Y-92408076D02*
X100523295Y-92417600D01*
X100523295Y-92417600D02*
X100504247Y-92427123D01*
X100504247Y-92427123D02*
X100456628Y-92427123D01*
X100456628Y-92427123D02*
X100437581Y-92417600D01*
X100437581Y-92417600D02*
X100428057Y-92408076D01*
X44141666Y-99898923D02*
X44075000Y-99803685D01*
X44027381Y-99898923D02*
X44027381Y-99698923D01*
X44027381Y-99698923D02*
X44103571Y-99698923D01*
X44103571Y-99698923D02*
X44122619Y-99708447D01*
X44122619Y-99708447D02*
X44132142Y-99717971D01*
X44132142Y-99717971D02*
X44141666Y-99737019D01*
X44141666Y-99737019D02*
X44141666Y-99765590D01*
X44141666Y-99765590D02*
X44132142Y-99784638D01*
X44132142Y-99784638D02*
X44122619Y-99794161D01*
X44122619Y-99794161D02*
X44103571Y-99803685D01*
X44103571Y-99803685D02*
X44027381Y-99803685D01*
X44236904Y-99898923D02*
X44275000Y-99898923D01*
X44275000Y-99898923D02*
X44294047Y-99889400D01*
X44294047Y-99889400D02*
X44303571Y-99879876D01*
X44303571Y-99879876D02*
X44322619Y-99851304D01*
X44322619Y-99851304D02*
X44332142Y-99813209D01*
X44332142Y-99813209D02*
X44332142Y-99737019D01*
X44332142Y-99737019D02*
X44322619Y-99717971D01*
X44322619Y-99717971D02*
X44313095Y-99708447D01*
X44313095Y-99708447D02*
X44294047Y-99698923D01*
X44294047Y-99698923D02*
X44255952Y-99698923D01*
X44255952Y-99698923D02*
X44236904Y-99708447D01*
X44236904Y-99708447D02*
X44227381Y-99717971D01*
X44227381Y-99717971D02*
X44217857Y-99737019D01*
X44217857Y-99737019D02*
X44217857Y-99784638D01*
X44217857Y-99784638D02*
X44227381Y-99803685D01*
X44227381Y-99803685D02*
X44236904Y-99813209D01*
X44236904Y-99813209D02*
X44255952Y-99822733D01*
X44255952Y-99822733D02*
X44294047Y-99822733D01*
X44294047Y-99822733D02*
X44313095Y-99813209D01*
X44313095Y-99813209D02*
X44322619Y-99803685D01*
X44322619Y-99803685D02*
X44332142Y-99784638D01*
D15*
X46157143Y-68136885D02*
X46342857Y-68136885D01*
X46342857Y-68136885D02*
X46242857Y-68251171D01*
X46242857Y-68251171D02*
X46285714Y-68251171D01*
X46285714Y-68251171D02*
X46314286Y-68265457D01*
X46314286Y-68265457D02*
X46328571Y-68279742D01*
X46328571Y-68279742D02*
X46342857Y-68308314D01*
X46342857Y-68308314D02*
X46342857Y-68379742D01*
X46342857Y-68379742D02*
X46328571Y-68408314D01*
X46328571Y-68408314D02*
X46314286Y-68422600D01*
X46314286Y-68422600D02*
X46285714Y-68436885D01*
X46285714Y-68436885D02*
X46200000Y-68436885D01*
X46200000Y-68436885D02*
X46171428Y-68422600D01*
X46171428Y-68422600D02*
X46157143Y-68408314D01*
X46428571Y-68136885D02*
X46528571Y-68436885D01*
X46528571Y-68436885D02*
X46628571Y-68136885D01*
X46700000Y-68136885D02*
X46885714Y-68136885D01*
X46885714Y-68136885D02*
X46785714Y-68251171D01*
X46785714Y-68251171D02*
X46828571Y-68251171D01*
X46828571Y-68251171D02*
X46857143Y-68265457D01*
X46857143Y-68265457D02*
X46871428Y-68279742D01*
X46871428Y-68279742D02*
X46885714Y-68308314D01*
X46885714Y-68308314D02*
X46885714Y-68379742D01*
X46885714Y-68379742D02*
X46871428Y-68408314D01*
X46871428Y-68408314D02*
X46857143Y-68422600D01*
X46857143Y-68422600D02*
X46828571Y-68436885D01*
X46828571Y-68436885D02*
X46742857Y-68436885D01*
X46742857Y-68436885D02*
X46714285Y-68422600D01*
X46714285Y-68422600D02*
X46700000Y-68408314D01*
X47242856Y-68279742D02*
X47342856Y-68279742D01*
X47385713Y-68436885D02*
X47242856Y-68436885D01*
X47242856Y-68436885D02*
X47242856Y-68136885D01*
X47242856Y-68136885D02*
X47385713Y-68136885D01*
X47471428Y-68236885D02*
X47585714Y-68236885D01*
X47514285Y-68136885D02*
X47514285Y-68394028D01*
X47514285Y-68394028D02*
X47528571Y-68422600D01*
X47528571Y-68422600D02*
X47557142Y-68436885D01*
X47557142Y-68436885D02*
X47585714Y-68436885D01*
X47685714Y-68436885D02*
X47685714Y-68136885D01*
X47814286Y-68436885D02*
X47814286Y-68279742D01*
X47814286Y-68279742D02*
X47800000Y-68251171D01*
X47800000Y-68251171D02*
X47771428Y-68236885D01*
X47771428Y-68236885D02*
X47728571Y-68236885D01*
X47728571Y-68236885D02*
X47700000Y-68251171D01*
X47700000Y-68251171D02*
X47685714Y-68265457D01*
D10*
X77976428Y-64351923D02*
X77909762Y-64256685D01*
X77862143Y-64351923D02*
X77862143Y-64151923D01*
X77862143Y-64151923D02*
X77938333Y-64151923D01*
X77938333Y-64151923D02*
X77957381Y-64161447D01*
X77957381Y-64161447D02*
X77966904Y-64170971D01*
X77966904Y-64170971D02*
X77976428Y-64190019D01*
X77976428Y-64190019D02*
X77976428Y-64218590D01*
X77976428Y-64218590D02*
X77966904Y-64237638D01*
X77966904Y-64237638D02*
X77957381Y-64247161D01*
X77957381Y-64247161D02*
X77938333Y-64256685D01*
X77938333Y-64256685D02*
X77862143Y-64256685D01*
X78166904Y-64351923D02*
X78052619Y-64351923D01*
X78109762Y-64351923D02*
X78109762Y-64151923D01*
X78109762Y-64151923D02*
X78090714Y-64180495D01*
X78090714Y-64180495D02*
X78071666Y-64199542D01*
X78071666Y-64199542D02*
X78052619Y-64209066D01*
X78357380Y-64351923D02*
X78243095Y-64351923D01*
X78300238Y-64351923D02*
X78300238Y-64151923D01*
X78300238Y-64151923D02*
X78281190Y-64180495D01*
X78281190Y-64180495D02*
X78262142Y-64199542D01*
X78262142Y-64199542D02*
X78243095Y-64209066D01*
X46021428Y-63270876D02*
X46011904Y-63280400D01*
X46011904Y-63280400D02*
X45983333Y-63289923D01*
X45983333Y-63289923D02*
X45964285Y-63289923D01*
X45964285Y-63289923D02*
X45935714Y-63280400D01*
X45935714Y-63280400D02*
X45916666Y-63261352D01*
X45916666Y-63261352D02*
X45907143Y-63242304D01*
X45907143Y-63242304D02*
X45897619Y-63204209D01*
X45897619Y-63204209D02*
X45897619Y-63175638D01*
X45897619Y-63175638D02*
X45907143Y-63137542D01*
X45907143Y-63137542D02*
X45916666Y-63118495D01*
X45916666Y-63118495D02*
X45935714Y-63099447D01*
X45935714Y-63099447D02*
X45964285Y-63089923D01*
X45964285Y-63089923D02*
X45983333Y-63089923D01*
X45983333Y-63089923D02*
X46011904Y-63099447D01*
X46011904Y-63099447D02*
X46021428Y-63108971D01*
X46088095Y-63089923D02*
X46211904Y-63089923D01*
X46211904Y-63089923D02*
X46145238Y-63166114D01*
X46145238Y-63166114D02*
X46173809Y-63166114D01*
X46173809Y-63166114D02*
X46192857Y-63175638D01*
X46192857Y-63175638D02*
X46202381Y-63185161D01*
X46202381Y-63185161D02*
X46211904Y-63204209D01*
X46211904Y-63204209D02*
X46211904Y-63251828D01*
X46211904Y-63251828D02*
X46202381Y-63270876D01*
X46202381Y-63270876D02*
X46192857Y-63280400D01*
X46192857Y-63280400D02*
X46173809Y-63289923D01*
X46173809Y-63289923D02*
X46116666Y-63289923D01*
X46116666Y-63289923D02*
X46097619Y-63280400D01*
X46097619Y-63280400D02*
X46088095Y-63270876D01*
X46383333Y-63156590D02*
X46383333Y-63289923D01*
X46335714Y-63080400D02*
X46288095Y-63223257D01*
X46288095Y-63223257D02*
X46411904Y-63223257D01*
X50314581Y-54070030D02*
X50314581Y-54231935D01*
X50314581Y-54231935D02*
X50324104Y-54250983D01*
X50324104Y-54250983D02*
X50333628Y-54260507D01*
X50333628Y-54260507D02*
X50352676Y-54270030D01*
X50352676Y-54270030D02*
X50390771Y-54270030D01*
X50390771Y-54270030D02*
X50409819Y-54260507D01*
X50409819Y-54260507D02*
X50419342Y-54250983D01*
X50419342Y-54250983D02*
X50428866Y-54231935D01*
X50428866Y-54231935D02*
X50428866Y-54070030D01*
X50628866Y-54270030D02*
X50514581Y-54270030D01*
X50571724Y-54270030D02*
X50571724Y-54070030D01*
X50571724Y-54070030D02*
X50552676Y-54098602D01*
X50552676Y-54098602D02*
X50533628Y-54117649D01*
X50533628Y-54117649D02*
X50514581Y-54127173D01*
X50752676Y-54070030D02*
X50771723Y-54070030D01*
X50771723Y-54070030D02*
X50790771Y-54079554D01*
X50790771Y-54079554D02*
X50800295Y-54089078D01*
X50800295Y-54089078D02*
X50809819Y-54108126D01*
X50809819Y-54108126D02*
X50819342Y-54146221D01*
X50819342Y-54146221D02*
X50819342Y-54193840D01*
X50819342Y-54193840D02*
X50809819Y-54231935D01*
X50809819Y-54231935D02*
X50800295Y-54250983D01*
X50800295Y-54250983D02*
X50790771Y-54260507D01*
X50790771Y-54260507D02*
X50771723Y-54270030D01*
X50771723Y-54270030D02*
X50752676Y-54270030D01*
X50752676Y-54270030D02*
X50733628Y-54260507D01*
X50733628Y-54260507D02*
X50724104Y-54250983D01*
X50724104Y-54250983D02*
X50714581Y-54231935D01*
X50714581Y-54231935D02*
X50705057Y-54193840D01*
X50705057Y-54193840D02*
X50705057Y-54146221D01*
X50705057Y-54146221D02*
X50714581Y-54108126D01*
X50714581Y-54108126D02*
X50724104Y-54089078D01*
X50724104Y-54089078D02*
X50733628Y-54079554D01*
X50733628Y-54079554D02*
X50752676Y-54070030D01*
D16*
X53789438Y-79636285D02*
X53794200Y-79641047D01*
X53794200Y-79641047D02*
X53798961Y-79655333D01*
X53798961Y-79655333D02*
X53798961Y-79664857D01*
X53798961Y-79664857D02*
X53794200Y-79679142D01*
X53794200Y-79679142D02*
X53784676Y-79688666D01*
X53784676Y-79688666D02*
X53775152Y-79693428D01*
X53775152Y-79693428D02*
X53756104Y-79698190D01*
X53756104Y-79698190D02*
X53741819Y-79698190D01*
X53741819Y-79698190D02*
X53722771Y-79693428D01*
X53722771Y-79693428D02*
X53713247Y-79688666D01*
X53713247Y-79688666D02*
X53703723Y-79679142D01*
X53703723Y-79679142D02*
X53698961Y-79664857D01*
X53698961Y-79664857D02*
X53698961Y-79655333D01*
X53698961Y-79655333D02*
X53703723Y-79641047D01*
X53703723Y-79641047D02*
X53708485Y-79636285D01*
X53708485Y-79598190D02*
X53703723Y-79593428D01*
X53703723Y-79593428D02*
X53698961Y-79583904D01*
X53698961Y-79583904D02*
X53698961Y-79560095D01*
X53698961Y-79560095D02*
X53703723Y-79550571D01*
X53703723Y-79550571D02*
X53708485Y-79545809D01*
X53708485Y-79545809D02*
X53718009Y-79541047D01*
X53718009Y-79541047D02*
X53727533Y-79541047D01*
X53727533Y-79541047D02*
X53741819Y-79545809D01*
X53741819Y-79545809D02*
X53798961Y-79602952D01*
X53798961Y-79602952D02*
X53798961Y-79541047D01*
X53708485Y-79502952D02*
X53703723Y-79498190D01*
X53703723Y-79498190D02*
X53698961Y-79488666D01*
X53698961Y-79488666D02*
X53698961Y-79464857D01*
X53698961Y-79464857D02*
X53703723Y-79455333D01*
X53703723Y-79455333D02*
X53708485Y-79450571D01*
X53708485Y-79450571D02*
X53718009Y-79445809D01*
X53718009Y-79445809D02*
X53727533Y-79445809D01*
X53727533Y-79445809D02*
X53741819Y-79450571D01*
X53741819Y-79450571D02*
X53798961Y-79507714D01*
X53798961Y-79507714D02*
X53798961Y-79445809D01*
D10*
X47779685Y-74460237D02*
X47874923Y-74460237D01*
X47674923Y-74526904D02*
X47779685Y-74460237D01*
X47779685Y-74460237D02*
X47674923Y-74393571D01*
X47693971Y-74336427D02*
X47684447Y-74326903D01*
X47684447Y-74326903D02*
X47674923Y-74307856D01*
X47674923Y-74307856D02*
X47674923Y-74260237D01*
X47674923Y-74260237D02*
X47684447Y-74241189D01*
X47684447Y-74241189D02*
X47693971Y-74231665D01*
X47693971Y-74231665D02*
X47713019Y-74222142D01*
X47713019Y-74222142D02*
X47732066Y-74222142D01*
X47732066Y-74222142D02*
X47760638Y-74231665D01*
X47760638Y-74231665D02*
X47874923Y-74345951D01*
X47874923Y-74345951D02*
X47874923Y-74222142D01*
X47538500Y-74339923D02*
X47538500Y-74387542D01*
X47490881Y-74368495D02*
X47538500Y-74387542D01*
X47538500Y-74387542D02*
X47586119Y-74368495D01*
X47509929Y-74425638D02*
X47538500Y-74387542D01*
X47538500Y-74387542D02*
X47567071Y-74425638D01*
X47538500Y-74339923D02*
X47538500Y-74387542D01*
X47490881Y-74368495D02*
X47538500Y-74387542D01*
X47538500Y-74387542D02*
X47586119Y-74368495D01*
X47509929Y-74425638D02*
X47538500Y-74387542D01*
X47538500Y-74387542D02*
X47567071Y-74425638D01*
X46438876Y-75378571D02*
X46448400Y-75388095D01*
X46448400Y-75388095D02*
X46457923Y-75416666D01*
X46457923Y-75416666D02*
X46457923Y-75435714D01*
X46457923Y-75435714D02*
X46448400Y-75464285D01*
X46448400Y-75464285D02*
X46429352Y-75483333D01*
X46429352Y-75483333D02*
X46410304Y-75492856D01*
X46410304Y-75492856D02*
X46372209Y-75502380D01*
X46372209Y-75502380D02*
X46343638Y-75502380D01*
X46343638Y-75502380D02*
X46305542Y-75492856D01*
X46305542Y-75492856D02*
X46286495Y-75483333D01*
X46286495Y-75483333D02*
X46267447Y-75464285D01*
X46267447Y-75464285D02*
X46257923Y-75435714D01*
X46257923Y-75435714D02*
X46257923Y-75416666D01*
X46257923Y-75416666D02*
X46267447Y-75388095D01*
X46267447Y-75388095D02*
X46276971Y-75378571D01*
X46276971Y-75302380D02*
X46267447Y-75292856D01*
X46267447Y-75292856D02*
X46257923Y-75273809D01*
X46257923Y-75273809D02*
X46257923Y-75226190D01*
X46257923Y-75226190D02*
X46267447Y-75207142D01*
X46267447Y-75207142D02*
X46276971Y-75197618D01*
X46276971Y-75197618D02*
X46296019Y-75188095D01*
X46296019Y-75188095D02*
X46315066Y-75188095D01*
X46315066Y-75188095D02*
X46343638Y-75197618D01*
X46343638Y-75197618D02*
X46457923Y-75311904D01*
X46457923Y-75311904D02*
X46457923Y-75188095D01*
X46457923Y-74997619D02*
X46457923Y-75111904D01*
X46457923Y-75054761D02*
X46257923Y-75054761D01*
X46257923Y-75054761D02*
X46286495Y-75073809D01*
X46286495Y-75073809D02*
X46305542Y-75092857D01*
X46305542Y-75092857D02*
X46315066Y-75111904D01*
X75813428Y-50512369D02*
X75803904Y-50521893D01*
X75803904Y-50521893D02*
X75775333Y-50531416D01*
X75775333Y-50531416D02*
X75756285Y-50531416D01*
X75756285Y-50531416D02*
X75727714Y-50521893D01*
X75727714Y-50521893D02*
X75708666Y-50502845D01*
X75708666Y-50502845D02*
X75699143Y-50483797D01*
X75699143Y-50483797D02*
X75689619Y-50445702D01*
X75689619Y-50445702D02*
X75689619Y-50417131D01*
X75689619Y-50417131D02*
X75699143Y-50379035D01*
X75699143Y-50379035D02*
X75708666Y-50359988D01*
X75708666Y-50359988D02*
X75727714Y-50340940D01*
X75727714Y-50340940D02*
X75756285Y-50331416D01*
X75756285Y-50331416D02*
X75775333Y-50331416D01*
X75775333Y-50331416D02*
X75803904Y-50340940D01*
X75803904Y-50340940D02*
X75813428Y-50350464D01*
X75889619Y-50350464D02*
X75899143Y-50340940D01*
X75899143Y-50340940D02*
X75918190Y-50331416D01*
X75918190Y-50331416D02*
X75965809Y-50331416D01*
X75965809Y-50331416D02*
X75984857Y-50340940D01*
X75984857Y-50340940D02*
X75994381Y-50350464D01*
X75994381Y-50350464D02*
X76003904Y-50369512D01*
X76003904Y-50369512D02*
X76003904Y-50388559D01*
X76003904Y-50388559D02*
X75994381Y-50417131D01*
X75994381Y-50417131D02*
X75880095Y-50531416D01*
X75880095Y-50531416D02*
X76003904Y-50531416D01*
X76175333Y-50331416D02*
X76137238Y-50331416D01*
X76137238Y-50331416D02*
X76118190Y-50340940D01*
X76118190Y-50340940D02*
X76108666Y-50350464D01*
X76108666Y-50350464D02*
X76089619Y-50379035D01*
X76089619Y-50379035D02*
X76080095Y-50417131D01*
X76080095Y-50417131D02*
X76080095Y-50493321D01*
X76080095Y-50493321D02*
X76089619Y-50512369D01*
X76089619Y-50512369D02*
X76099142Y-50521893D01*
X76099142Y-50521893D02*
X76118190Y-50531416D01*
X76118190Y-50531416D02*
X76156285Y-50531416D01*
X76156285Y-50531416D02*
X76175333Y-50521893D01*
X76175333Y-50521893D02*
X76184857Y-50512369D01*
X76184857Y-50512369D02*
X76194380Y-50493321D01*
X76194380Y-50493321D02*
X76194380Y-50445702D01*
X76194380Y-50445702D02*
X76184857Y-50426654D01*
X76184857Y-50426654D02*
X76175333Y-50417131D01*
X76175333Y-50417131D02*
X76156285Y-50407607D01*
X76156285Y-50407607D02*
X76118190Y-50407607D01*
X76118190Y-50407607D02*
X76099142Y-50417131D01*
X76099142Y-50417131D02*
X76089619Y-50426654D01*
X76089619Y-50426654D02*
X76080095Y-50445702D01*
X67391428Y-85668876D02*
X67381904Y-85678400D01*
X67381904Y-85678400D02*
X67353333Y-85687923D01*
X67353333Y-85687923D02*
X67334285Y-85687923D01*
X67334285Y-85687923D02*
X67305714Y-85678400D01*
X67305714Y-85678400D02*
X67286666Y-85659352D01*
X67286666Y-85659352D02*
X67277143Y-85640304D01*
X67277143Y-85640304D02*
X67267619Y-85602209D01*
X67267619Y-85602209D02*
X67267619Y-85573638D01*
X67267619Y-85573638D02*
X67277143Y-85535542D01*
X67277143Y-85535542D02*
X67286666Y-85516495D01*
X67286666Y-85516495D02*
X67305714Y-85497447D01*
X67305714Y-85497447D02*
X67334285Y-85487923D01*
X67334285Y-85487923D02*
X67353333Y-85487923D01*
X67353333Y-85487923D02*
X67381904Y-85497447D01*
X67381904Y-85497447D02*
X67391428Y-85506971D01*
X67458095Y-85487923D02*
X67581904Y-85487923D01*
X67581904Y-85487923D02*
X67515238Y-85564114D01*
X67515238Y-85564114D02*
X67543809Y-85564114D01*
X67543809Y-85564114D02*
X67562857Y-85573638D01*
X67562857Y-85573638D02*
X67572381Y-85583161D01*
X67572381Y-85583161D02*
X67581904Y-85602209D01*
X67581904Y-85602209D02*
X67581904Y-85649828D01*
X67581904Y-85649828D02*
X67572381Y-85668876D01*
X67572381Y-85668876D02*
X67562857Y-85678400D01*
X67562857Y-85678400D02*
X67543809Y-85687923D01*
X67543809Y-85687923D02*
X67486666Y-85687923D01*
X67486666Y-85687923D02*
X67467619Y-85678400D01*
X67467619Y-85678400D02*
X67458095Y-85668876D01*
X67753333Y-85487923D02*
X67715238Y-85487923D01*
X67715238Y-85487923D02*
X67696190Y-85497447D01*
X67696190Y-85497447D02*
X67686666Y-85506971D01*
X67686666Y-85506971D02*
X67667619Y-85535542D01*
X67667619Y-85535542D02*
X67658095Y-85573638D01*
X67658095Y-85573638D02*
X67658095Y-85649828D01*
X67658095Y-85649828D02*
X67667619Y-85668876D01*
X67667619Y-85668876D02*
X67677142Y-85678400D01*
X67677142Y-85678400D02*
X67696190Y-85687923D01*
X67696190Y-85687923D02*
X67734285Y-85687923D01*
X67734285Y-85687923D02*
X67753333Y-85678400D01*
X67753333Y-85678400D02*
X67762857Y-85668876D01*
X67762857Y-85668876D02*
X67772380Y-85649828D01*
X67772380Y-85649828D02*
X67772380Y-85602209D01*
X67772380Y-85602209D02*
X67762857Y-85583161D01*
X67762857Y-85583161D02*
X67753333Y-85573638D01*
X67753333Y-85573638D02*
X67734285Y-85564114D01*
X67734285Y-85564114D02*
X67696190Y-85564114D01*
X67696190Y-85564114D02*
X67677142Y-85573638D01*
X67677142Y-85573638D02*
X67667619Y-85583161D01*
X67667619Y-85583161D02*
X67658095Y-85602209D01*
D16*
X48496228Y-81019623D02*
X48429562Y-80924385D01*
X48381943Y-81019623D02*
X48381943Y-80819623D01*
X48381943Y-80819623D02*
X48458133Y-80819623D01*
X48458133Y-80819623D02*
X48477181Y-80829147D01*
X48477181Y-80829147D02*
X48486704Y-80838671D01*
X48486704Y-80838671D02*
X48496228Y-80857719D01*
X48496228Y-80857719D02*
X48496228Y-80886290D01*
X48496228Y-80886290D02*
X48486704Y-80905338D01*
X48486704Y-80905338D02*
X48477181Y-80914861D01*
X48477181Y-80914861D02*
X48458133Y-80924385D01*
X48458133Y-80924385D02*
X48381943Y-80924385D01*
X48572419Y-80838671D02*
X48581943Y-80829147D01*
X48581943Y-80829147D02*
X48600990Y-80819623D01*
X48600990Y-80819623D02*
X48648609Y-80819623D01*
X48648609Y-80819623D02*
X48667657Y-80829147D01*
X48667657Y-80829147D02*
X48677181Y-80838671D01*
X48677181Y-80838671D02*
X48686704Y-80857719D01*
X48686704Y-80857719D02*
X48686704Y-80876766D01*
X48686704Y-80876766D02*
X48677181Y-80905338D01*
X48677181Y-80905338D02*
X48562895Y-81019623D01*
X48562895Y-81019623D02*
X48686704Y-81019623D01*
X48858133Y-80886290D02*
X48858133Y-81019623D01*
X48810514Y-80810100D02*
X48762895Y-80952957D01*
X48762895Y-80952957D02*
X48886704Y-80952957D01*
D10*
X88493619Y-57167923D02*
X88493619Y-57329828D01*
X88493619Y-57329828D02*
X88503142Y-57348876D01*
X88503142Y-57348876D02*
X88512666Y-57358400D01*
X88512666Y-57358400D02*
X88531714Y-57367923D01*
X88531714Y-57367923D02*
X88569809Y-57367923D01*
X88569809Y-57367923D02*
X88588857Y-57358400D01*
X88588857Y-57358400D02*
X88598380Y-57348876D01*
X88598380Y-57348876D02*
X88607904Y-57329828D01*
X88607904Y-57329828D02*
X88607904Y-57167923D01*
X88693619Y-57186971D02*
X88703143Y-57177447D01*
X88703143Y-57177447D02*
X88722190Y-57167923D01*
X88722190Y-57167923D02*
X88769809Y-57167923D01*
X88769809Y-57167923D02*
X88788857Y-57177447D01*
X88788857Y-57177447D02*
X88798381Y-57186971D01*
X88798381Y-57186971D02*
X88807904Y-57206019D01*
X88807904Y-57206019D02*
X88807904Y-57225066D01*
X88807904Y-57225066D02*
X88798381Y-57253638D01*
X88798381Y-57253638D02*
X88684095Y-57367923D01*
X88684095Y-57367923D02*
X88807904Y-57367923D01*
X50671428Y-119469923D02*
X50604762Y-119374685D01*
X50557143Y-119469923D02*
X50557143Y-119269923D01*
X50557143Y-119269923D02*
X50633333Y-119269923D01*
X50633333Y-119269923D02*
X50652381Y-119279447D01*
X50652381Y-119279447D02*
X50661904Y-119288971D01*
X50661904Y-119288971D02*
X50671428Y-119308019D01*
X50671428Y-119308019D02*
X50671428Y-119336590D01*
X50671428Y-119336590D02*
X50661904Y-119355638D01*
X50661904Y-119355638D02*
X50652381Y-119365161D01*
X50652381Y-119365161D02*
X50633333Y-119374685D01*
X50633333Y-119374685D02*
X50557143Y-119374685D01*
X50861904Y-119469923D02*
X50747619Y-119469923D01*
X50804762Y-119469923D02*
X50804762Y-119269923D01*
X50804762Y-119269923D02*
X50785714Y-119298495D01*
X50785714Y-119298495D02*
X50766666Y-119317542D01*
X50766666Y-119317542D02*
X50747619Y-119327066D01*
X51042857Y-119269923D02*
X50947619Y-119269923D01*
X50947619Y-119269923D02*
X50938095Y-119365161D01*
X50938095Y-119365161D02*
X50947619Y-119355638D01*
X50947619Y-119355638D02*
X50966666Y-119346114D01*
X50966666Y-119346114D02*
X51014285Y-119346114D01*
X51014285Y-119346114D02*
X51033333Y-119355638D01*
X51033333Y-119355638D02*
X51042857Y-119365161D01*
X51042857Y-119365161D02*
X51052380Y-119384209D01*
X51052380Y-119384209D02*
X51052380Y-119431828D01*
X51052380Y-119431828D02*
X51042857Y-119450876D01*
X51042857Y-119450876D02*
X51033333Y-119460400D01*
X51033333Y-119460400D02*
X51014285Y-119469923D01*
X51014285Y-119469923D02*
X50966666Y-119469923D01*
X50966666Y-119469923D02*
X50947619Y-119460400D01*
X50947619Y-119460400D02*
X50938095Y-119450876D01*
X62127619Y-45159416D02*
X62127619Y-45321321D01*
X62127619Y-45321321D02*
X62137142Y-45340369D01*
X62137142Y-45340369D02*
X62146666Y-45349893D01*
X62146666Y-45349893D02*
X62165714Y-45359416D01*
X62165714Y-45359416D02*
X62203809Y-45359416D01*
X62203809Y-45359416D02*
X62222857Y-45349893D01*
X62222857Y-45349893D02*
X62232380Y-45340369D01*
X62232380Y-45340369D02*
X62241904Y-45321321D01*
X62241904Y-45321321D02*
X62241904Y-45159416D01*
X62422857Y-45226083D02*
X62422857Y-45359416D01*
X62375238Y-45149893D02*
X62327619Y-45292750D01*
X62327619Y-45292750D02*
X62451428Y-45292750D01*
D13*
X46909285Y-98012404D02*
X46825952Y-97893357D01*
X46766428Y-98012404D02*
X46766428Y-97762404D01*
X46766428Y-97762404D02*
X46861666Y-97762404D01*
X46861666Y-97762404D02*
X46885476Y-97774309D01*
X46885476Y-97774309D02*
X46897381Y-97786214D01*
X46897381Y-97786214D02*
X46909285Y-97810023D01*
X46909285Y-97810023D02*
X46909285Y-97845738D01*
X46909285Y-97845738D02*
X46897381Y-97869547D01*
X46897381Y-97869547D02*
X46885476Y-97881452D01*
X46885476Y-97881452D02*
X46861666Y-97893357D01*
X46861666Y-97893357D02*
X46766428Y-97893357D01*
X47147381Y-98012404D02*
X47004524Y-98012404D01*
X47075952Y-98012404D02*
X47075952Y-97762404D01*
X47075952Y-97762404D02*
X47052143Y-97798119D01*
X47052143Y-97798119D02*
X47028333Y-97821928D01*
X47028333Y-97821928D02*
X47004524Y-97833833D01*
X47266428Y-98012404D02*
X47314047Y-98012404D01*
X47314047Y-98012404D02*
X47337857Y-98000500D01*
X47337857Y-98000500D02*
X47349761Y-97988595D01*
X47349761Y-97988595D02*
X47373571Y-97952880D01*
X47373571Y-97952880D02*
X47385476Y-97905261D01*
X47385476Y-97905261D02*
X47385476Y-97810023D01*
X47385476Y-97810023D02*
X47373571Y-97786214D01*
X47373571Y-97786214D02*
X47361666Y-97774309D01*
X47361666Y-97774309D02*
X47337857Y-97762404D01*
X47337857Y-97762404D02*
X47290238Y-97762404D01*
X47290238Y-97762404D02*
X47266428Y-97774309D01*
X47266428Y-97774309D02*
X47254523Y-97786214D01*
X47254523Y-97786214D02*
X47242619Y-97810023D01*
X47242619Y-97810023D02*
X47242619Y-97869547D01*
X47242619Y-97869547D02*
X47254523Y-97893357D01*
X47254523Y-97893357D02*
X47266428Y-97905261D01*
X47266428Y-97905261D02*
X47290238Y-97917166D01*
X47290238Y-97917166D02*
X47337857Y-97917166D01*
X47337857Y-97917166D02*
X47361666Y-97905261D01*
X47361666Y-97905261D02*
X47373571Y-97893357D01*
X47373571Y-97893357D02*
X47385476Y-97869547D01*
D10*
X60628228Y-82944723D02*
X60561562Y-82849485D01*
X60513943Y-82944723D02*
X60513943Y-82744723D01*
X60513943Y-82744723D02*
X60590133Y-82744723D01*
X60590133Y-82744723D02*
X60609181Y-82754247D01*
X60609181Y-82754247D02*
X60618704Y-82763771D01*
X60618704Y-82763771D02*
X60628228Y-82782819D01*
X60628228Y-82782819D02*
X60628228Y-82811390D01*
X60628228Y-82811390D02*
X60618704Y-82830438D01*
X60618704Y-82830438D02*
X60609181Y-82839961D01*
X60609181Y-82839961D02*
X60590133Y-82849485D01*
X60590133Y-82849485D02*
X60513943Y-82849485D01*
X60704419Y-82763771D02*
X60713943Y-82754247D01*
X60713943Y-82754247D02*
X60732990Y-82744723D01*
X60732990Y-82744723D02*
X60780609Y-82744723D01*
X60780609Y-82744723D02*
X60799657Y-82754247D01*
X60799657Y-82754247D02*
X60809181Y-82763771D01*
X60809181Y-82763771D02*
X60818704Y-82782819D01*
X60818704Y-82782819D02*
X60818704Y-82801866D01*
X60818704Y-82801866D02*
X60809181Y-82830438D01*
X60809181Y-82830438D02*
X60694895Y-82944723D01*
X60694895Y-82944723D02*
X60818704Y-82944723D01*
X60913942Y-82944723D02*
X60952038Y-82944723D01*
X60952038Y-82944723D02*
X60971085Y-82935200D01*
X60971085Y-82935200D02*
X60980609Y-82925676D01*
X60980609Y-82925676D02*
X60999657Y-82897104D01*
X60999657Y-82897104D02*
X61009180Y-82859009D01*
X61009180Y-82859009D02*
X61009180Y-82782819D01*
X61009180Y-82782819D02*
X60999657Y-82763771D01*
X60999657Y-82763771D02*
X60990133Y-82754247D01*
X60990133Y-82754247D02*
X60971085Y-82744723D01*
X60971085Y-82744723D02*
X60932990Y-82744723D01*
X60932990Y-82744723D02*
X60913942Y-82754247D01*
X60913942Y-82754247D02*
X60904419Y-82763771D01*
X60904419Y-82763771D02*
X60894895Y-82782819D01*
X60894895Y-82782819D02*
X60894895Y-82830438D01*
X60894895Y-82830438D02*
X60904419Y-82849485D01*
X60904419Y-82849485D02*
X60913942Y-82859009D01*
X60913942Y-82859009D02*
X60932990Y-82868533D01*
X60932990Y-82868533D02*
X60971085Y-82868533D01*
X60971085Y-82868533D02*
X60990133Y-82859009D01*
X60990133Y-82859009D02*
X60999657Y-82849485D01*
X60999657Y-82849485D02*
X61009180Y-82830438D01*
D15*
X49250000Y-67886885D02*
X49435714Y-67886885D01*
X49435714Y-67886885D02*
X49335714Y-68001171D01*
X49335714Y-68001171D02*
X49378571Y-68001171D01*
X49378571Y-68001171D02*
X49407143Y-68015457D01*
X49407143Y-68015457D02*
X49421428Y-68029742D01*
X49421428Y-68029742D02*
X49435714Y-68058314D01*
X49435714Y-68058314D02*
X49435714Y-68129742D01*
X49435714Y-68129742D02*
X49421428Y-68158314D01*
X49421428Y-68158314D02*
X49407143Y-68172600D01*
X49407143Y-68172600D02*
X49378571Y-68186885D01*
X49378571Y-68186885D02*
X49292857Y-68186885D01*
X49292857Y-68186885D02*
X49264285Y-68172600D01*
X49264285Y-68172600D02*
X49250000Y-68158314D01*
X49521428Y-67886885D02*
X49621428Y-68186885D01*
X49621428Y-68186885D02*
X49721428Y-67886885D01*
X49792857Y-67886885D02*
X49978571Y-67886885D01*
X49978571Y-67886885D02*
X49878571Y-68001171D01*
X49878571Y-68001171D02*
X49921428Y-68001171D01*
X49921428Y-68001171D02*
X49950000Y-68015457D01*
X49950000Y-68015457D02*
X49964285Y-68029742D01*
X49964285Y-68029742D02*
X49978571Y-68058314D01*
X49978571Y-68058314D02*
X49978571Y-68129742D01*
X49978571Y-68129742D02*
X49964285Y-68158314D01*
X49964285Y-68158314D02*
X49950000Y-68172600D01*
X49950000Y-68172600D02*
X49921428Y-68186885D01*
X49921428Y-68186885D02*
X49835714Y-68186885D01*
X49835714Y-68186885D02*
X49807142Y-68172600D01*
X49807142Y-68172600D02*
X49792857Y-68158314D01*
X50092856Y-68101171D02*
X50235714Y-68101171D01*
X50064285Y-68186885D02*
X50164285Y-67886885D01*
X50164285Y-67886885D02*
X50264285Y-68186885D01*
D14*
X137834819Y-47559523D02*
X138549104Y-47559523D01*
X138549104Y-47559523D02*
X138691961Y-47607142D01*
X138691961Y-47607142D02*
X138787200Y-47702380D01*
X138787200Y-47702380D02*
X138834819Y-47845237D01*
X138834819Y-47845237D02*
X138834819Y-47940475D01*
X138834819Y-46559523D02*
X138834819Y-47130951D01*
X138834819Y-46845237D02*
X137834819Y-46845237D01*
X137834819Y-46845237D02*
X137977676Y-46940475D01*
X137977676Y-46940475D02*
X138072914Y-47035713D01*
X138072914Y-47035713D02*
X138120533Y-47130951D01*
X137834819Y-45940475D02*
X137834819Y-45845237D01*
X137834819Y-45845237D02*
X137882438Y-45749999D01*
X137882438Y-45749999D02*
X137930057Y-45702380D01*
X137930057Y-45702380D02*
X138025295Y-45654761D01*
X138025295Y-45654761D02*
X138215771Y-45607142D01*
X138215771Y-45607142D02*
X138453866Y-45607142D01*
X138453866Y-45607142D02*
X138644342Y-45654761D01*
X138644342Y-45654761D02*
X138739580Y-45702380D01*
X138739580Y-45702380D02*
X138787200Y-45749999D01*
X138787200Y-45749999D02*
X138834819Y-45845237D01*
X138834819Y-45845237D02*
X138834819Y-45940475D01*
X138834819Y-45940475D02*
X138787200Y-46035713D01*
X138787200Y-46035713D02*
X138739580Y-46083332D01*
X138739580Y-46083332D02*
X138644342Y-46130951D01*
X138644342Y-46130951D02*
X138453866Y-46178570D01*
X138453866Y-46178570D02*
X138215771Y-46178570D01*
X138215771Y-46178570D02*
X138025295Y-46130951D01*
X138025295Y-46130951D02*
X137930057Y-46083332D01*
X137930057Y-46083332D02*
X137882438Y-46035713D01*
X137882438Y-46035713D02*
X137834819Y-45940475D01*
D10*
X59687619Y-44179416D02*
X59687619Y-44341321D01*
X59687619Y-44341321D02*
X59697142Y-44360369D01*
X59697142Y-44360369D02*
X59706666Y-44369893D01*
X59706666Y-44369893D02*
X59725714Y-44379416D01*
X59725714Y-44379416D02*
X59763809Y-44379416D01*
X59763809Y-44379416D02*
X59782857Y-44369893D01*
X59782857Y-44369893D02*
X59792380Y-44360369D01*
X59792380Y-44360369D02*
X59801904Y-44341321D01*
X59801904Y-44341321D02*
X59801904Y-44179416D01*
X59878095Y-44179416D02*
X60011428Y-44179416D01*
X60011428Y-44179416D02*
X59925714Y-44379416D01*
X62605428Y-54957369D02*
X62595904Y-54966893D01*
X62595904Y-54966893D02*
X62567333Y-54976416D01*
X62567333Y-54976416D02*
X62548285Y-54976416D01*
X62548285Y-54976416D02*
X62519714Y-54966893D01*
X62519714Y-54966893D02*
X62500666Y-54947845D01*
X62500666Y-54947845D02*
X62491143Y-54928797D01*
X62491143Y-54928797D02*
X62481619Y-54890702D01*
X62481619Y-54890702D02*
X62481619Y-54862131D01*
X62481619Y-54862131D02*
X62491143Y-54824035D01*
X62491143Y-54824035D02*
X62500666Y-54804988D01*
X62500666Y-54804988D02*
X62519714Y-54785940D01*
X62519714Y-54785940D02*
X62548285Y-54776416D01*
X62548285Y-54776416D02*
X62567333Y-54776416D01*
X62567333Y-54776416D02*
X62595904Y-54785940D01*
X62595904Y-54785940D02*
X62605428Y-54795464D01*
X62672095Y-54776416D02*
X62795904Y-54776416D01*
X62795904Y-54776416D02*
X62729238Y-54852607D01*
X62729238Y-54852607D02*
X62757809Y-54852607D01*
X62757809Y-54852607D02*
X62776857Y-54862131D01*
X62776857Y-54862131D02*
X62786381Y-54871654D01*
X62786381Y-54871654D02*
X62795904Y-54890702D01*
X62795904Y-54890702D02*
X62795904Y-54938321D01*
X62795904Y-54938321D02*
X62786381Y-54957369D01*
X62786381Y-54957369D02*
X62776857Y-54966893D01*
X62776857Y-54966893D02*
X62757809Y-54976416D01*
X62757809Y-54976416D02*
X62700666Y-54976416D01*
X62700666Y-54976416D02*
X62681619Y-54966893D01*
X62681619Y-54966893D02*
X62672095Y-54957369D01*
X62919714Y-54776416D02*
X62938761Y-54776416D01*
X62938761Y-54776416D02*
X62957809Y-54785940D01*
X62957809Y-54785940D02*
X62967333Y-54795464D01*
X62967333Y-54795464D02*
X62976857Y-54814512D01*
X62976857Y-54814512D02*
X62986380Y-54852607D01*
X62986380Y-54852607D02*
X62986380Y-54900226D01*
X62986380Y-54900226D02*
X62976857Y-54938321D01*
X62976857Y-54938321D02*
X62967333Y-54957369D01*
X62967333Y-54957369D02*
X62957809Y-54966893D01*
X62957809Y-54966893D02*
X62938761Y-54976416D01*
X62938761Y-54976416D02*
X62919714Y-54976416D01*
X62919714Y-54976416D02*
X62900666Y-54966893D01*
X62900666Y-54966893D02*
X62891142Y-54957369D01*
X62891142Y-54957369D02*
X62881619Y-54938321D01*
X62881619Y-54938321D02*
X62872095Y-54900226D01*
X62872095Y-54900226D02*
X62872095Y-54852607D01*
X62872095Y-54852607D02*
X62881619Y-54814512D01*
X62881619Y-54814512D02*
X62891142Y-54795464D01*
X62891142Y-54795464D02*
X62900666Y-54785940D01*
X62900666Y-54785940D02*
X62919714Y-54776416D01*
D15*
X100489571Y-46235885D02*
X100489571Y-45935885D01*
X100489571Y-45935885D02*
X100561000Y-45935885D01*
X100561000Y-45935885D02*
X100603857Y-45950171D01*
X100603857Y-45950171D02*
X100632428Y-45978742D01*
X100632428Y-45978742D02*
X100646714Y-46007314D01*
X100646714Y-46007314D02*
X100661000Y-46064457D01*
X100661000Y-46064457D02*
X100661000Y-46107314D01*
X100661000Y-46107314D02*
X100646714Y-46164457D01*
X100646714Y-46164457D02*
X100632428Y-46193028D01*
X100632428Y-46193028D02*
X100603857Y-46221600D01*
X100603857Y-46221600D02*
X100561000Y-46235885D01*
X100561000Y-46235885D02*
X100489571Y-46235885D01*
X100946714Y-46235885D02*
X100775285Y-46235885D01*
X100861000Y-46235885D02*
X100861000Y-45935885D01*
X100861000Y-45935885D02*
X100832428Y-45978742D01*
X100832428Y-45978742D02*
X100803857Y-46007314D01*
X100803857Y-46007314D02*
X100775285Y-46021600D01*
D13*
X42586105Y-62497166D02*
X42776582Y-62497166D01*
X42681343Y-62592404D02*
X42681343Y-62401928D01*
X42871820Y-62342404D02*
X43026582Y-62342404D01*
X43026582Y-62342404D02*
X42943248Y-62437642D01*
X42943248Y-62437642D02*
X42978963Y-62437642D01*
X42978963Y-62437642D02*
X43002772Y-62449547D01*
X43002772Y-62449547D02*
X43014677Y-62461452D01*
X43014677Y-62461452D02*
X43026582Y-62485261D01*
X43026582Y-62485261D02*
X43026582Y-62544785D01*
X43026582Y-62544785D02*
X43014677Y-62568595D01*
X43014677Y-62568595D02*
X43002772Y-62580500D01*
X43002772Y-62580500D02*
X42978963Y-62592404D01*
X42978963Y-62592404D02*
X42907534Y-62592404D01*
X42907534Y-62592404D02*
X42883725Y-62580500D01*
X42883725Y-62580500D02*
X42871820Y-62568595D01*
X43109915Y-62425738D02*
X43169439Y-62592404D01*
X43169439Y-62592404D02*
X43228962Y-62425738D01*
X43300391Y-62342404D02*
X43455153Y-62342404D01*
X43455153Y-62342404D02*
X43371819Y-62437642D01*
X43371819Y-62437642D02*
X43407534Y-62437642D01*
X43407534Y-62437642D02*
X43431343Y-62449547D01*
X43431343Y-62449547D02*
X43443248Y-62461452D01*
X43443248Y-62461452D02*
X43455153Y-62485261D01*
X43455153Y-62485261D02*
X43455153Y-62544785D01*
X43455153Y-62544785D02*
X43443248Y-62568595D01*
X43443248Y-62568595D02*
X43431343Y-62580500D01*
X43431343Y-62580500D02*
X43407534Y-62592404D01*
X43407534Y-62592404D02*
X43336105Y-62592404D01*
X43336105Y-62592404D02*
X43312296Y-62580500D01*
X43312296Y-62580500D02*
X43300391Y-62568595D01*
X43502772Y-62616214D02*
X43693248Y-62616214D01*
X43752771Y-62461452D02*
X43836105Y-62461452D01*
X43871819Y-62592404D02*
X43752771Y-62592404D01*
X43752771Y-62592404D02*
X43752771Y-62342404D01*
X43752771Y-62342404D02*
X43871819Y-62342404D01*
X43943247Y-62342404D02*
X44086104Y-62342404D01*
X44014676Y-62592404D02*
X44014676Y-62342404D01*
X44169437Y-62592404D02*
X44169437Y-62342404D01*
X44169437Y-62461452D02*
X44312294Y-62461452D01*
X44312294Y-62592404D02*
X44312294Y-62342404D01*
D10*
X60741428Y-54957369D02*
X60731904Y-54966893D01*
X60731904Y-54966893D02*
X60703333Y-54976416D01*
X60703333Y-54976416D02*
X60684285Y-54976416D01*
X60684285Y-54976416D02*
X60655714Y-54966893D01*
X60655714Y-54966893D02*
X60636666Y-54947845D01*
X60636666Y-54947845D02*
X60627143Y-54928797D01*
X60627143Y-54928797D02*
X60617619Y-54890702D01*
X60617619Y-54890702D02*
X60617619Y-54862131D01*
X60617619Y-54862131D02*
X60627143Y-54824035D01*
X60627143Y-54824035D02*
X60636666Y-54804988D01*
X60636666Y-54804988D02*
X60655714Y-54785940D01*
X60655714Y-54785940D02*
X60684285Y-54776416D01*
X60684285Y-54776416D02*
X60703333Y-54776416D01*
X60703333Y-54776416D02*
X60731904Y-54785940D01*
X60731904Y-54785940D02*
X60741428Y-54795464D01*
X60808095Y-54776416D02*
X60931904Y-54776416D01*
X60931904Y-54776416D02*
X60865238Y-54852607D01*
X60865238Y-54852607D02*
X60893809Y-54852607D01*
X60893809Y-54852607D02*
X60912857Y-54862131D01*
X60912857Y-54862131D02*
X60922381Y-54871654D01*
X60922381Y-54871654D02*
X60931904Y-54890702D01*
X60931904Y-54890702D02*
X60931904Y-54938321D01*
X60931904Y-54938321D02*
X60922381Y-54957369D01*
X60922381Y-54957369D02*
X60912857Y-54966893D01*
X60912857Y-54966893D02*
X60893809Y-54976416D01*
X60893809Y-54976416D02*
X60836666Y-54976416D01*
X60836666Y-54976416D02*
X60817619Y-54966893D01*
X60817619Y-54966893D02*
X60808095Y-54957369D01*
X61122380Y-54976416D02*
X61008095Y-54976416D01*
X61065238Y-54976416D02*
X61065238Y-54776416D01*
X61065238Y-54776416D02*
X61046190Y-54804988D01*
X61046190Y-54804988D02*
X61027142Y-54824035D01*
X61027142Y-54824035D02*
X61008095Y-54833559D01*
X65656667Y-60849923D02*
X65561429Y-60849923D01*
X65561429Y-60849923D02*
X65561429Y-60649923D01*
X65704286Y-60649923D02*
X65828095Y-60649923D01*
X65828095Y-60649923D02*
X65761429Y-60726114D01*
X65761429Y-60726114D02*
X65790000Y-60726114D01*
X65790000Y-60726114D02*
X65809048Y-60735638D01*
X65809048Y-60735638D02*
X65818572Y-60745161D01*
X65818572Y-60745161D02*
X65828095Y-60764209D01*
X65828095Y-60764209D02*
X65828095Y-60811828D01*
X65828095Y-60811828D02*
X65818572Y-60830876D01*
X65818572Y-60830876D02*
X65809048Y-60840400D01*
X65809048Y-60840400D02*
X65790000Y-60849923D01*
X65790000Y-60849923D02*
X65732857Y-60849923D01*
X65732857Y-60849923D02*
X65713810Y-60840400D01*
X65713810Y-60840400D02*
X65704286Y-60830876D01*
D14*
X138084819Y-98059523D02*
X138799104Y-98059523D01*
X138799104Y-98059523D02*
X138941961Y-98107142D01*
X138941961Y-98107142D02*
X139037200Y-98202380D01*
X139037200Y-98202380D02*
X139084819Y-98345237D01*
X139084819Y-98345237D02*
X139084819Y-98440475D01*
X139084819Y-97059523D02*
X139084819Y-97630951D01*
X139084819Y-97345237D02*
X138084819Y-97345237D01*
X138084819Y-97345237D02*
X138227676Y-97440475D01*
X138227676Y-97440475D02*
X138322914Y-97535713D01*
X138322914Y-97535713D02*
X138370533Y-97630951D01*
X138084819Y-96726189D02*
X138084819Y-96107142D01*
X138084819Y-96107142D02*
X138465771Y-96440475D01*
X138465771Y-96440475D02*
X138465771Y-96297618D01*
X138465771Y-96297618D02*
X138513390Y-96202380D01*
X138513390Y-96202380D02*
X138561009Y-96154761D01*
X138561009Y-96154761D02*
X138656247Y-96107142D01*
X138656247Y-96107142D02*
X138894342Y-96107142D01*
X138894342Y-96107142D02*
X138989580Y-96154761D01*
X138989580Y-96154761D02*
X139037200Y-96202380D01*
X139037200Y-96202380D02*
X139084819Y-96297618D01*
X139084819Y-96297618D02*
X139084819Y-96583332D01*
X139084819Y-96583332D02*
X139037200Y-96678570D01*
X139037200Y-96678570D02*
X138989580Y-96726189D01*
D10*
X57621428Y-97395876D02*
X57611904Y-97405400D01*
X57611904Y-97405400D02*
X57583333Y-97414923D01*
X57583333Y-97414923D02*
X57564285Y-97414923D01*
X57564285Y-97414923D02*
X57535714Y-97405400D01*
X57535714Y-97405400D02*
X57516666Y-97386352D01*
X57516666Y-97386352D02*
X57507143Y-97367304D01*
X57507143Y-97367304D02*
X57497619Y-97329209D01*
X57497619Y-97329209D02*
X57497619Y-97300638D01*
X57497619Y-97300638D02*
X57507143Y-97262542D01*
X57507143Y-97262542D02*
X57516666Y-97243495D01*
X57516666Y-97243495D02*
X57535714Y-97224447D01*
X57535714Y-97224447D02*
X57564285Y-97214923D01*
X57564285Y-97214923D02*
X57583333Y-97214923D01*
X57583333Y-97214923D02*
X57611904Y-97224447D01*
X57611904Y-97224447D02*
X57621428Y-97233971D01*
X57697619Y-97233971D02*
X57707143Y-97224447D01*
X57707143Y-97224447D02*
X57726190Y-97214923D01*
X57726190Y-97214923D02*
X57773809Y-97214923D01*
X57773809Y-97214923D02*
X57792857Y-97224447D01*
X57792857Y-97224447D02*
X57802381Y-97233971D01*
X57802381Y-97233971D02*
X57811904Y-97253019D01*
X57811904Y-97253019D02*
X57811904Y-97272066D01*
X57811904Y-97272066D02*
X57802381Y-97300638D01*
X57802381Y-97300638D02*
X57688095Y-97414923D01*
X57688095Y-97414923D02*
X57811904Y-97414923D01*
X57935714Y-97214923D02*
X57954761Y-97214923D01*
X57954761Y-97214923D02*
X57973809Y-97224447D01*
X57973809Y-97224447D02*
X57983333Y-97233971D01*
X57983333Y-97233971D02*
X57992857Y-97253019D01*
X57992857Y-97253019D02*
X58002380Y-97291114D01*
X58002380Y-97291114D02*
X58002380Y-97338733D01*
X58002380Y-97338733D02*
X57992857Y-97376828D01*
X57992857Y-97376828D02*
X57983333Y-97395876D01*
X57983333Y-97395876D02*
X57973809Y-97405400D01*
X57973809Y-97405400D02*
X57954761Y-97414923D01*
X57954761Y-97414923D02*
X57935714Y-97414923D01*
X57935714Y-97414923D02*
X57916666Y-97405400D01*
X57916666Y-97405400D02*
X57907142Y-97395876D01*
X57907142Y-97395876D02*
X57897619Y-97376828D01*
X57897619Y-97376828D02*
X57888095Y-97338733D01*
X57888095Y-97338733D02*
X57888095Y-97291114D01*
X57888095Y-97291114D02*
X57897619Y-97253019D01*
X57897619Y-97253019D02*
X57907142Y-97233971D01*
X57907142Y-97233971D02*
X57916666Y-97224447D01*
X57916666Y-97224447D02*
X57935714Y-97214923D01*
D14*
X79000000Y-118803450D02*
X79107143Y-118839164D01*
X79107143Y-118839164D02*
X79285714Y-118839164D01*
X79285714Y-118839164D02*
X79357143Y-118803450D01*
X79357143Y-118803450D02*
X79392857Y-118767735D01*
X79392857Y-118767735D02*
X79428571Y-118696307D01*
X79428571Y-118696307D02*
X79428571Y-118624878D01*
X79428571Y-118624878D02*
X79392857Y-118553450D01*
X79392857Y-118553450D02*
X79357143Y-118517735D01*
X79357143Y-118517735D02*
X79285714Y-118482021D01*
X79285714Y-118482021D02*
X79142857Y-118446307D01*
X79142857Y-118446307D02*
X79071428Y-118410592D01*
X79071428Y-118410592D02*
X79035714Y-118374878D01*
X79035714Y-118374878D02*
X79000000Y-118303450D01*
X79000000Y-118303450D02*
X79000000Y-118232021D01*
X79000000Y-118232021D02*
X79035714Y-118160592D01*
X79035714Y-118160592D02*
X79071428Y-118124878D01*
X79071428Y-118124878D02*
X79142857Y-118089164D01*
X79142857Y-118089164D02*
X79321428Y-118089164D01*
X79321428Y-118089164D02*
X79428571Y-118124878D01*
X79678571Y-118089164D02*
X79857143Y-118839164D01*
X79857143Y-118839164D02*
X80000000Y-118303450D01*
X80000000Y-118303450D02*
X80142857Y-118839164D01*
X80142857Y-118839164D02*
X80321429Y-118089164D01*
X80964286Y-118089164D02*
X80607143Y-118089164D01*
X80607143Y-118089164D02*
X80571429Y-118446307D01*
X80571429Y-118446307D02*
X80607143Y-118410592D01*
X80607143Y-118410592D02*
X80678572Y-118374878D01*
X80678572Y-118374878D02*
X80857143Y-118374878D01*
X80857143Y-118374878D02*
X80928572Y-118410592D01*
X80928572Y-118410592D02*
X80964286Y-118446307D01*
X80964286Y-118446307D02*
X81000000Y-118517735D01*
X81000000Y-118517735D02*
X81000000Y-118696307D01*
X81000000Y-118696307D02*
X80964286Y-118767735D01*
X80964286Y-118767735D02*
X80928572Y-118803450D01*
X80928572Y-118803450D02*
X80857143Y-118839164D01*
X80857143Y-118839164D02*
X80678572Y-118839164D01*
X80678572Y-118839164D02*
X80607143Y-118803450D01*
X80607143Y-118803450D02*
X80571429Y-118767735D01*
X77476190Y-119831009D02*
X77809523Y-119831009D01*
X77952380Y-120354819D02*
X77476190Y-120354819D01*
X77476190Y-120354819D02*
X77476190Y-119354819D01*
X77476190Y-119354819D02*
X77952380Y-119354819D01*
X78380952Y-120354819D02*
X78380952Y-119354819D01*
X78380952Y-119354819D02*
X78952380Y-120354819D01*
X78952380Y-120354819D02*
X78952380Y-119354819D01*
X79380952Y-120069104D02*
X79857142Y-120069104D01*
X79285714Y-120354819D02*
X79619047Y-119354819D01*
X79619047Y-119354819D02*
X79952380Y-120354819D01*
X80619047Y-119831009D02*
X80761904Y-119878628D01*
X80761904Y-119878628D02*
X80809523Y-119926247D01*
X80809523Y-119926247D02*
X80857142Y-120021485D01*
X80857142Y-120021485D02*
X80857142Y-120164342D01*
X80857142Y-120164342D02*
X80809523Y-120259580D01*
X80809523Y-120259580D02*
X80761904Y-120307200D01*
X80761904Y-120307200D02*
X80666666Y-120354819D01*
X80666666Y-120354819D02*
X80285714Y-120354819D01*
X80285714Y-120354819D02*
X80285714Y-119354819D01*
X80285714Y-119354819D02*
X80619047Y-119354819D01*
X80619047Y-119354819D02*
X80714285Y-119402438D01*
X80714285Y-119402438D02*
X80761904Y-119450057D01*
X80761904Y-119450057D02*
X80809523Y-119545295D01*
X80809523Y-119545295D02*
X80809523Y-119640533D01*
X80809523Y-119640533D02*
X80761904Y-119735771D01*
X80761904Y-119735771D02*
X80714285Y-119783390D01*
X80714285Y-119783390D02*
X80619047Y-119831009D01*
X80619047Y-119831009D02*
X80285714Y-119831009D01*
X81761904Y-120354819D02*
X81285714Y-120354819D01*
X81285714Y-120354819D02*
X81285714Y-119354819D01*
X82095238Y-119831009D02*
X82428571Y-119831009D01*
X82571428Y-120354819D02*
X82095238Y-120354819D01*
X82095238Y-120354819D02*
X82095238Y-119354819D01*
X82095238Y-119354819D02*
X82571428Y-119354819D01*
D10*
X77976428Y-65875923D02*
X77909762Y-65780685D01*
X77862143Y-65875923D02*
X77862143Y-65675923D01*
X77862143Y-65675923D02*
X77938333Y-65675923D01*
X77938333Y-65675923D02*
X77957381Y-65685447D01*
X77957381Y-65685447D02*
X77966904Y-65694971D01*
X77966904Y-65694971D02*
X77976428Y-65714019D01*
X77976428Y-65714019D02*
X77976428Y-65742590D01*
X77976428Y-65742590D02*
X77966904Y-65761638D01*
X77966904Y-65761638D02*
X77957381Y-65771161D01*
X77957381Y-65771161D02*
X77938333Y-65780685D01*
X77938333Y-65780685D02*
X77862143Y-65780685D01*
X78166904Y-65875923D02*
X78052619Y-65875923D01*
X78109762Y-65875923D02*
X78109762Y-65675923D01*
X78109762Y-65675923D02*
X78090714Y-65704495D01*
X78090714Y-65704495D02*
X78071666Y-65723542D01*
X78071666Y-65723542D02*
X78052619Y-65733066D01*
X78290714Y-65675923D02*
X78309761Y-65675923D01*
X78309761Y-65675923D02*
X78328809Y-65685447D01*
X78328809Y-65685447D02*
X78338333Y-65694971D01*
X78338333Y-65694971D02*
X78347857Y-65714019D01*
X78347857Y-65714019D02*
X78357380Y-65752114D01*
X78357380Y-65752114D02*
X78357380Y-65799733D01*
X78357380Y-65799733D02*
X78347857Y-65837828D01*
X78347857Y-65837828D02*
X78338333Y-65856876D01*
X78338333Y-65856876D02*
X78328809Y-65866400D01*
X78328809Y-65866400D02*
X78309761Y-65875923D01*
X78309761Y-65875923D02*
X78290714Y-65875923D01*
X78290714Y-65875923D02*
X78271666Y-65866400D01*
X78271666Y-65866400D02*
X78262142Y-65856876D01*
X78262142Y-65856876D02*
X78252619Y-65837828D01*
X78252619Y-65837828D02*
X78243095Y-65799733D01*
X78243095Y-65799733D02*
X78243095Y-65752114D01*
X78243095Y-65752114D02*
X78252619Y-65714019D01*
X78252619Y-65714019D02*
X78262142Y-65694971D01*
X78262142Y-65694971D02*
X78271666Y-65685447D01*
X78271666Y-65685447D02*
X78290714Y-65675923D01*
X65016666Y-79590876D02*
X65007142Y-79600400D01*
X65007142Y-79600400D02*
X64978571Y-79609923D01*
X64978571Y-79609923D02*
X64959523Y-79609923D01*
X64959523Y-79609923D02*
X64930952Y-79600400D01*
X64930952Y-79600400D02*
X64911904Y-79581352D01*
X64911904Y-79581352D02*
X64902381Y-79562304D01*
X64902381Y-79562304D02*
X64892857Y-79524209D01*
X64892857Y-79524209D02*
X64892857Y-79495638D01*
X64892857Y-79495638D02*
X64902381Y-79457542D01*
X64902381Y-79457542D02*
X64911904Y-79438495D01*
X64911904Y-79438495D02*
X64930952Y-79419447D01*
X64930952Y-79419447D02*
X64959523Y-79409923D01*
X64959523Y-79409923D02*
X64978571Y-79409923D01*
X64978571Y-79409923D02*
X65007142Y-79419447D01*
X65007142Y-79419447D02*
X65016666Y-79428971D01*
X65092857Y-79428971D02*
X65102381Y-79419447D01*
X65102381Y-79419447D02*
X65121428Y-79409923D01*
X65121428Y-79409923D02*
X65169047Y-79409923D01*
X65169047Y-79409923D02*
X65188095Y-79419447D01*
X65188095Y-79419447D02*
X65197619Y-79428971D01*
X65197619Y-79428971D02*
X65207142Y-79448019D01*
X65207142Y-79448019D02*
X65207142Y-79467066D01*
X65207142Y-79467066D02*
X65197619Y-79495638D01*
X65197619Y-79495638D02*
X65083333Y-79609923D01*
X65083333Y-79609923D02*
X65207142Y-79609923D01*
D17*
X60098757Y-64829289D02*
X60105900Y-64836432D01*
X60105900Y-64836432D02*
X60113042Y-64857860D01*
X60113042Y-64857860D02*
X60113042Y-64872146D01*
X60113042Y-64872146D02*
X60105900Y-64893575D01*
X60105900Y-64893575D02*
X60091614Y-64907860D01*
X60091614Y-64907860D02*
X60077328Y-64915003D01*
X60077328Y-64915003D02*
X60048757Y-64922146D01*
X60048757Y-64922146D02*
X60027328Y-64922146D01*
X60027328Y-64922146D02*
X59998757Y-64915003D01*
X59998757Y-64915003D02*
X59984471Y-64907860D01*
X59984471Y-64907860D02*
X59970185Y-64893575D01*
X59970185Y-64893575D02*
X59963042Y-64872146D01*
X59963042Y-64872146D02*
X59963042Y-64857860D01*
X59963042Y-64857860D02*
X59970185Y-64836432D01*
X59970185Y-64836432D02*
X59977328Y-64829289D01*
X59963042Y-64779289D02*
X59963042Y-64686432D01*
X59963042Y-64686432D02*
X60020185Y-64736432D01*
X60020185Y-64736432D02*
X60020185Y-64715003D01*
X60020185Y-64715003D02*
X60027328Y-64700718D01*
X60027328Y-64700718D02*
X60034471Y-64693575D01*
X60034471Y-64693575D02*
X60048757Y-64686432D01*
X60048757Y-64686432D02*
X60084471Y-64686432D01*
X60084471Y-64686432D02*
X60098757Y-64693575D01*
X60098757Y-64693575D02*
X60105900Y-64700718D01*
X60105900Y-64700718D02*
X60113042Y-64715003D01*
X60113042Y-64715003D02*
X60113042Y-64757860D01*
X60113042Y-64757860D02*
X60105900Y-64772146D01*
X60105900Y-64772146D02*
X60098757Y-64779289D01*
X59963042Y-64636432D02*
X59963042Y-64543575D01*
X59963042Y-64543575D02*
X60020185Y-64593575D01*
X60020185Y-64593575D02*
X60020185Y-64572146D01*
X60020185Y-64572146D02*
X60027328Y-64557861D01*
X60027328Y-64557861D02*
X60034471Y-64550718D01*
X60034471Y-64550718D02*
X60048757Y-64543575D01*
X60048757Y-64543575D02*
X60084471Y-64543575D01*
X60084471Y-64543575D02*
X60098757Y-64550718D01*
X60098757Y-64550718D02*
X60105900Y-64557861D01*
X60105900Y-64557861D02*
X60113042Y-64572146D01*
X60113042Y-64572146D02*
X60113042Y-64615003D01*
X60113042Y-64615003D02*
X60105900Y-64629289D01*
X60105900Y-64629289D02*
X60098757Y-64636432D01*
D10*
X68516666Y-79590876D02*
X68507142Y-79600400D01*
X68507142Y-79600400D02*
X68478571Y-79609923D01*
X68478571Y-79609923D02*
X68459523Y-79609923D01*
X68459523Y-79609923D02*
X68430952Y-79600400D01*
X68430952Y-79600400D02*
X68411904Y-79581352D01*
X68411904Y-79581352D02*
X68402381Y-79562304D01*
X68402381Y-79562304D02*
X68392857Y-79524209D01*
X68392857Y-79524209D02*
X68392857Y-79495638D01*
X68392857Y-79495638D02*
X68402381Y-79457542D01*
X68402381Y-79457542D02*
X68411904Y-79438495D01*
X68411904Y-79438495D02*
X68430952Y-79419447D01*
X68430952Y-79419447D02*
X68459523Y-79409923D01*
X68459523Y-79409923D02*
X68478571Y-79409923D01*
X68478571Y-79409923D02*
X68507142Y-79419447D01*
X68507142Y-79419447D02*
X68516666Y-79428971D01*
X68688095Y-79476590D02*
X68688095Y-79609923D01*
X68640476Y-79400400D02*
X68592857Y-79543257D01*
X68592857Y-79543257D02*
X68716666Y-79543257D01*
X47716666Y-95039923D02*
X47650000Y-94944685D01*
X47602381Y-95039923D02*
X47602381Y-94839923D01*
X47602381Y-94839923D02*
X47678571Y-94839923D01*
X47678571Y-94839923D02*
X47697619Y-94849447D01*
X47697619Y-94849447D02*
X47707142Y-94858971D01*
X47707142Y-94858971D02*
X47716666Y-94878019D01*
X47716666Y-94878019D02*
X47716666Y-94906590D01*
X47716666Y-94906590D02*
X47707142Y-94925638D01*
X47707142Y-94925638D02*
X47697619Y-94935161D01*
X47697619Y-94935161D02*
X47678571Y-94944685D01*
X47678571Y-94944685D02*
X47602381Y-94944685D01*
X47830952Y-94925638D02*
X47811904Y-94916114D01*
X47811904Y-94916114D02*
X47802381Y-94906590D01*
X47802381Y-94906590D02*
X47792857Y-94887542D01*
X47792857Y-94887542D02*
X47792857Y-94878019D01*
X47792857Y-94878019D02*
X47802381Y-94858971D01*
X47802381Y-94858971D02*
X47811904Y-94849447D01*
X47811904Y-94849447D02*
X47830952Y-94839923D01*
X47830952Y-94839923D02*
X47869047Y-94839923D01*
X47869047Y-94839923D02*
X47888095Y-94849447D01*
X47888095Y-94849447D02*
X47897619Y-94858971D01*
X47897619Y-94858971D02*
X47907142Y-94878019D01*
X47907142Y-94878019D02*
X47907142Y-94887542D01*
X47907142Y-94887542D02*
X47897619Y-94906590D01*
X47897619Y-94906590D02*
X47888095Y-94916114D01*
X47888095Y-94916114D02*
X47869047Y-94925638D01*
X47869047Y-94925638D02*
X47830952Y-94925638D01*
X47830952Y-94925638D02*
X47811904Y-94935161D01*
X47811904Y-94935161D02*
X47802381Y-94944685D01*
X47802381Y-94944685D02*
X47792857Y-94963733D01*
X47792857Y-94963733D02*
X47792857Y-95001828D01*
X47792857Y-95001828D02*
X47802381Y-95020876D01*
X47802381Y-95020876D02*
X47811904Y-95030400D01*
X47811904Y-95030400D02*
X47830952Y-95039923D01*
X47830952Y-95039923D02*
X47869047Y-95039923D01*
X47869047Y-95039923D02*
X47888095Y-95030400D01*
X47888095Y-95030400D02*
X47897619Y-95020876D01*
X47897619Y-95020876D02*
X47907142Y-95001828D01*
X47907142Y-95001828D02*
X47907142Y-94963733D01*
X47907142Y-94963733D02*
X47897619Y-94944685D01*
X47897619Y-94944685D02*
X47888095Y-94935161D01*
X47888095Y-94935161D02*
X47869047Y-94925638D01*
D11*
X116735057Y-89661009D02*
X116735057Y-89161009D01*
X117020771Y-89661009D02*
X116806486Y-89375295D01*
X117020771Y-89161009D02*
X116735057Y-89446723D01*
X117496962Y-89661009D02*
X117211248Y-89661009D01*
X117354105Y-89661009D02*
X117354105Y-89161009D01*
X117354105Y-89161009D02*
X117306486Y-89232438D01*
X117306486Y-89232438D02*
X117258867Y-89280057D01*
X117258867Y-89280057D02*
X117211248Y-89303866D01*
X117663628Y-89161009D02*
X117973152Y-89161009D01*
X117973152Y-89161009D02*
X117806485Y-89351485D01*
X117806485Y-89351485D02*
X117877914Y-89351485D01*
X117877914Y-89351485D02*
X117925533Y-89375295D01*
X117925533Y-89375295D02*
X117949342Y-89399104D01*
X117949342Y-89399104D02*
X117973152Y-89446723D01*
X117973152Y-89446723D02*
X117973152Y-89565771D01*
X117973152Y-89565771D02*
X117949342Y-89613390D01*
X117949342Y-89613390D02*
X117925533Y-89637200D01*
X117925533Y-89637200D02*
X117877914Y-89661009D01*
X117877914Y-89661009D02*
X117735057Y-89661009D01*
X117735057Y-89661009D02*
X117687438Y-89637200D01*
X117687438Y-89637200D02*
X117663628Y-89613390D01*
D15*
X100108571Y-79763885D02*
X100108571Y-79463885D01*
X100108571Y-79463885D02*
X100180000Y-79463885D01*
X100180000Y-79463885D02*
X100222857Y-79478171D01*
X100222857Y-79478171D02*
X100251428Y-79506742D01*
X100251428Y-79506742D02*
X100265714Y-79535314D01*
X100265714Y-79535314D02*
X100280000Y-79592457D01*
X100280000Y-79592457D02*
X100280000Y-79635314D01*
X100280000Y-79635314D02*
X100265714Y-79692457D01*
X100265714Y-79692457D02*
X100251428Y-79721028D01*
X100251428Y-79721028D02*
X100222857Y-79749600D01*
X100222857Y-79749600D02*
X100180000Y-79763885D01*
X100180000Y-79763885D02*
X100108571Y-79763885D01*
X100380000Y-79463885D02*
X100565714Y-79463885D01*
X100565714Y-79463885D02*
X100465714Y-79578171D01*
X100465714Y-79578171D02*
X100508571Y-79578171D01*
X100508571Y-79578171D02*
X100537143Y-79592457D01*
X100537143Y-79592457D02*
X100551428Y-79606742D01*
X100551428Y-79606742D02*
X100565714Y-79635314D01*
X100565714Y-79635314D02*
X100565714Y-79706742D01*
X100565714Y-79706742D02*
X100551428Y-79735314D01*
X100551428Y-79735314D02*
X100537143Y-79749600D01*
X100537143Y-79749600D02*
X100508571Y-79763885D01*
X100508571Y-79763885D02*
X100422857Y-79763885D01*
X100422857Y-79763885D02*
X100394285Y-79749600D01*
X100394285Y-79749600D02*
X100380000Y-79735314D01*
D12*
X78869047Y-78366109D02*
X78869047Y-78770871D01*
X78869047Y-78770871D02*
X78892857Y-78818490D01*
X78892857Y-78818490D02*
X78916666Y-78842300D01*
X78916666Y-78842300D02*
X78964285Y-78866109D01*
X78964285Y-78866109D02*
X79059523Y-78866109D01*
X79059523Y-78866109D02*
X79107142Y-78842300D01*
X79107142Y-78842300D02*
X79130952Y-78818490D01*
X79130952Y-78818490D02*
X79154761Y-78770871D01*
X79154761Y-78770871D02*
X79154761Y-78366109D01*
X79654762Y-78866109D02*
X79369048Y-78866109D01*
X79511905Y-78866109D02*
X79511905Y-78366109D01*
X79511905Y-78366109D02*
X79464286Y-78437538D01*
X79464286Y-78437538D02*
X79416667Y-78485157D01*
X79416667Y-78485157D02*
X79369048Y-78508966D01*
D14*
X138048019Y-115559523D02*
X138762304Y-115559523D01*
X138762304Y-115559523D02*
X138905161Y-115607142D01*
X138905161Y-115607142D02*
X139000400Y-115702380D01*
X139000400Y-115702380D02*
X139048019Y-115845237D01*
X139048019Y-115845237D02*
X139048019Y-115940475D01*
X139048019Y-114559523D02*
X139048019Y-115130951D01*
X139048019Y-114845237D02*
X138048019Y-114845237D01*
X138048019Y-114845237D02*
X138190876Y-114940475D01*
X138190876Y-114940475D02*
X138286114Y-115035713D01*
X138286114Y-115035713D02*
X138333733Y-115130951D01*
X138381352Y-113702380D02*
X139048019Y-113702380D01*
X138000400Y-113940475D02*
X138714685Y-114178570D01*
X138714685Y-114178570D02*
X138714685Y-113559523D01*
D10*
X101088466Y-41479523D02*
X101021800Y-41384285D01*
X100974181Y-41479523D02*
X100974181Y-41279523D01*
X100974181Y-41279523D02*
X101050371Y-41279523D01*
X101050371Y-41279523D02*
X101069419Y-41289047D01*
X101069419Y-41289047D02*
X101078942Y-41298571D01*
X101078942Y-41298571D02*
X101088466Y-41317619D01*
X101088466Y-41317619D02*
X101088466Y-41346190D01*
X101088466Y-41346190D02*
X101078942Y-41365238D01*
X101078942Y-41365238D02*
X101069419Y-41374761D01*
X101069419Y-41374761D02*
X101050371Y-41384285D01*
X101050371Y-41384285D02*
X100974181Y-41384285D01*
X101278942Y-41479523D02*
X101164657Y-41479523D01*
X101221800Y-41479523D02*
X101221800Y-41279523D01*
X101221800Y-41279523D02*
X101202752Y-41308095D01*
X101202752Y-41308095D02*
X101183704Y-41327142D01*
X101183704Y-41327142D02*
X101164657Y-41336666D01*
X100428066Y-74880723D02*
X100361400Y-74785485D01*
X100313781Y-74880723D02*
X100313781Y-74680723D01*
X100313781Y-74680723D02*
X100389971Y-74680723D01*
X100389971Y-74680723D02*
X100409019Y-74690247D01*
X100409019Y-74690247D02*
X100418542Y-74699771D01*
X100418542Y-74699771D02*
X100428066Y-74718819D01*
X100428066Y-74718819D02*
X100428066Y-74747390D01*
X100428066Y-74747390D02*
X100418542Y-74766438D01*
X100418542Y-74766438D02*
X100409019Y-74775961D01*
X100409019Y-74775961D02*
X100389971Y-74785485D01*
X100389971Y-74785485D02*
X100313781Y-74785485D01*
X100494733Y-74680723D02*
X100618542Y-74680723D01*
X100618542Y-74680723D02*
X100551876Y-74756914D01*
X100551876Y-74756914D02*
X100580447Y-74756914D01*
X100580447Y-74756914D02*
X100599495Y-74766438D01*
X100599495Y-74766438D02*
X100609019Y-74775961D01*
X100609019Y-74775961D02*
X100618542Y-74795009D01*
X100618542Y-74795009D02*
X100618542Y-74842628D01*
X100618542Y-74842628D02*
X100609019Y-74861676D01*
X100609019Y-74861676D02*
X100599495Y-74871200D01*
X100599495Y-74871200D02*
X100580447Y-74880723D01*
X100580447Y-74880723D02*
X100523304Y-74880723D01*
X100523304Y-74880723D02*
X100504257Y-74871200D01*
X100504257Y-74871200D02*
X100494733Y-74861676D01*
D16*
X61870161Y-80534628D02*
X61870161Y-80472723D01*
X61870161Y-80472723D02*
X61908257Y-80506056D01*
X61908257Y-80506056D02*
X61908257Y-80491771D01*
X61908257Y-80491771D02*
X61913019Y-80482247D01*
X61913019Y-80482247D02*
X61917780Y-80477485D01*
X61917780Y-80477485D02*
X61927304Y-80472723D01*
X61927304Y-80472723D02*
X61951114Y-80472723D01*
X61951114Y-80472723D02*
X61960638Y-80477485D01*
X61960638Y-80477485D02*
X61965400Y-80482247D01*
X61965400Y-80482247D02*
X61970161Y-80491771D01*
X61970161Y-80491771D02*
X61970161Y-80520342D01*
X61970161Y-80520342D02*
X61965400Y-80529866D01*
X61965400Y-80529866D02*
X61960638Y-80534628D01*
X61870161Y-80444152D02*
X61970161Y-80410818D01*
X61970161Y-80410818D02*
X61870161Y-80377485D01*
X61870161Y-80353676D02*
X61870161Y-80291771D01*
X61870161Y-80291771D02*
X61908257Y-80325104D01*
X61908257Y-80325104D02*
X61908257Y-80310819D01*
X61908257Y-80310819D02*
X61913019Y-80301295D01*
X61913019Y-80301295D02*
X61917780Y-80296533D01*
X61917780Y-80296533D02*
X61927304Y-80291771D01*
X61927304Y-80291771D02*
X61951114Y-80291771D01*
X61951114Y-80291771D02*
X61960638Y-80296533D01*
X61960638Y-80296533D02*
X61965400Y-80301295D01*
X61965400Y-80301295D02*
X61970161Y-80310819D01*
X61970161Y-80310819D02*
X61970161Y-80339390D01*
X61970161Y-80339390D02*
X61965400Y-80348914D01*
X61965400Y-80348914D02*
X61960638Y-80353676D01*
X61970161Y-80172724D02*
X61870161Y-80172724D01*
X61870161Y-80172724D02*
X61941590Y-80139391D01*
X61941590Y-80139391D02*
X61870161Y-80106057D01*
X61870161Y-80106057D02*
X61970161Y-80106057D01*
X61960638Y-80001295D02*
X61965400Y-80006057D01*
X61965400Y-80006057D02*
X61970161Y-80020343D01*
X61970161Y-80020343D02*
X61970161Y-80029867D01*
X61970161Y-80029867D02*
X61965400Y-80044152D01*
X61965400Y-80044152D02*
X61955876Y-80053676D01*
X61955876Y-80053676D02*
X61946352Y-80058438D01*
X61946352Y-80058438D02*
X61927304Y-80063200D01*
X61927304Y-80063200D02*
X61913019Y-80063200D01*
X61913019Y-80063200D02*
X61893971Y-80058438D01*
X61893971Y-80058438D02*
X61884447Y-80053676D01*
X61884447Y-80053676D02*
X61874923Y-80044152D01*
X61874923Y-80044152D02*
X61870161Y-80029867D01*
X61870161Y-80029867D02*
X61870161Y-80020343D01*
X61870161Y-80020343D02*
X61874923Y-80006057D01*
X61874923Y-80006057D02*
X61879685Y-80001295D01*
X61870161Y-79958438D02*
X61951114Y-79958438D01*
X61951114Y-79958438D02*
X61960638Y-79953676D01*
X61960638Y-79953676D02*
X61965400Y-79948914D01*
X61965400Y-79948914D02*
X61970161Y-79939390D01*
X61970161Y-79939390D02*
X61970161Y-79920343D01*
X61970161Y-79920343D02*
X61965400Y-79910819D01*
X61965400Y-79910819D02*
X61960638Y-79906057D01*
X61960638Y-79906057D02*
X61951114Y-79901295D01*
X61951114Y-79901295D02*
X61870161Y-79901295D01*
D10*
X44821428Y-97889923D02*
X44754762Y-97794685D01*
X44707143Y-97889923D02*
X44707143Y-97689923D01*
X44707143Y-97689923D02*
X44783333Y-97689923D01*
X44783333Y-97689923D02*
X44802381Y-97699447D01*
X44802381Y-97699447D02*
X44811904Y-97708971D01*
X44811904Y-97708971D02*
X44821428Y-97728019D01*
X44821428Y-97728019D02*
X44821428Y-97756590D01*
X44821428Y-97756590D02*
X44811904Y-97775638D01*
X44811904Y-97775638D02*
X44802381Y-97785161D01*
X44802381Y-97785161D02*
X44783333Y-97794685D01*
X44783333Y-97794685D02*
X44707143Y-97794685D01*
X45011904Y-97889923D02*
X44897619Y-97889923D01*
X44954762Y-97889923D02*
X44954762Y-97689923D01*
X44954762Y-97689923D02*
X44935714Y-97718495D01*
X44935714Y-97718495D02*
X44916666Y-97737542D01*
X44916666Y-97737542D02*
X44897619Y-97747066D01*
X45126190Y-97775638D02*
X45107142Y-97766114D01*
X45107142Y-97766114D02*
X45097619Y-97756590D01*
X45097619Y-97756590D02*
X45088095Y-97737542D01*
X45088095Y-97737542D02*
X45088095Y-97728019D01*
X45088095Y-97728019D02*
X45097619Y-97708971D01*
X45097619Y-97708971D02*
X45107142Y-97699447D01*
X45107142Y-97699447D02*
X45126190Y-97689923D01*
X45126190Y-97689923D02*
X45164285Y-97689923D01*
X45164285Y-97689923D02*
X45183333Y-97699447D01*
X45183333Y-97699447D02*
X45192857Y-97708971D01*
X45192857Y-97708971D02*
X45202380Y-97728019D01*
X45202380Y-97728019D02*
X45202380Y-97737542D01*
X45202380Y-97737542D02*
X45192857Y-97756590D01*
X45192857Y-97756590D02*
X45183333Y-97766114D01*
X45183333Y-97766114D02*
X45164285Y-97775638D01*
X45164285Y-97775638D02*
X45126190Y-97775638D01*
X45126190Y-97775638D02*
X45107142Y-97785161D01*
X45107142Y-97785161D02*
X45097619Y-97794685D01*
X45097619Y-97794685D02*
X45088095Y-97813733D01*
X45088095Y-97813733D02*
X45088095Y-97851828D01*
X45088095Y-97851828D02*
X45097619Y-97870876D01*
X45097619Y-97870876D02*
X45107142Y-97880400D01*
X45107142Y-97880400D02*
X45126190Y-97889923D01*
X45126190Y-97889923D02*
X45164285Y-97889923D01*
X45164285Y-97889923D02*
X45183333Y-97880400D01*
X45183333Y-97880400D02*
X45192857Y-97870876D01*
X45192857Y-97870876D02*
X45202380Y-97851828D01*
X45202380Y-97851828D02*
X45202380Y-97813733D01*
X45202380Y-97813733D02*
X45192857Y-97794685D01*
X45192857Y-97794685D02*
X45183333Y-97785161D01*
X45183333Y-97785161D02*
X45164285Y-97775638D01*
D11*
X117092857Y-39624809D02*
X117092857Y-39124809D01*
X117378571Y-39624809D02*
X117164286Y-39339095D01*
X117378571Y-39124809D02*
X117092857Y-39410523D01*
X117854762Y-39624809D02*
X117569048Y-39624809D01*
X117711905Y-39624809D02*
X117711905Y-39124809D01*
X117711905Y-39124809D02*
X117664286Y-39196238D01*
X117664286Y-39196238D02*
X117616667Y-39243857D01*
X117616667Y-39243857D02*
X117569048Y-39267666D01*
X118164285Y-39124809D02*
X118211904Y-39124809D01*
X118211904Y-39124809D02*
X118259523Y-39148619D01*
X118259523Y-39148619D02*
X118283333Y-39172428D01*
X118283333Y-39172428D02*
X118307142Y-39220047D01*
X118307142Y-39220047D02*
X118330952Y-39315285D01*
X118330952Y-39315285D02*
X118330952Y-39434333D01*
X118330952Y-39434333D02*
X118307142Y-39529571D01*
X118307142Y-39529571D02*
X118283333Y-39577190D01*
X118283333Y-39577190D02*
X118259523Y-39601000D01*
X118259523Y-39601000D02*
X118211904Y-39624809D01*
X118211904Y-39624809D02*
X118164285Y-39624809D01*
X118164285Y-39624809D02*
X118116666Y-39601000D01*
X118116666Y-39601000D02*
X118092857Y-39577190D01*
X118092857Y-39577190D02*
X118069047Y-39529571D01*
X118069047Y-39529571D02*
X118045238Y-39434333D01*
X118045238Y-39434333D02*
X118045238Y-39315285D01*
X118045238Y-39315285D02*
X118069047Y-39220047D01*
X118069047Y-39220047D02*
X118092857Y-39172428D01*
X118092857Y-39172428D02*
X118116666Y-39148619D01*
X118116666Y-39148619D02*
X118164285Y-39124809D01*
D13*
X62062404Y-69590476D02*
X62264785Y-69590476D01*
X62264785Y-69590476D02*
X62288595Y-69578571D01*
X62288595Y-69578571D02*
X62300500Y-69566666D01*
X62300500Y-69566666D02*
X62312404Y-69542857D01*
X62312404Y-69542857D02*
X62312404Y-69495238D01*
X62312404Y-69495238D02*
X62300500Y-69471428D01*
X62300500Y-69471428D02*
X62288595Y-69459523D01*
X62288595Y-69459523D02*
X62264785Y-69447619D01*
X62264785Y-69447619D02*
X62062404Y-69447619D01*
X62312404Y-69316666D02*
X62312404Y-69269047D01*
X62312404Y-69269047D02*
X62300500Y-69245237D01*
X62300500Y-69245237D02*
X62288595Y-69233333D01*
X62288595Y-69233333D02*
X62252880Y-69209523D01*
X62252880Y-69209523D02*
X62205261Y-69197618D01*
X62205261Y-69197618D02*
X62110023Y-69197618D01*
X62110023Y-69197618D02*
X62086214Y-69209523D01*
X62086214Y-69209523D02*
X62074309Y-69221428D01*
X62074309Y-69221428D02*
X62062404Y-69245237D01*
X62062404Y-69245237D02*
X62062404Y-69292856D01*
X62062404Y-69292856D02*
X62074309Y-69316666D01*
X62074309Y-69316666D02*
X62086214Y-69328571D01*
X62086214Y-69328571D02*
X62110023Y-69340475D01*
X62110023Y-69340475D02*
X62169547Y-69340475D01*
X62169547Y-69340475D02*
X62193357Y-69328571D01*
X62193357Y-69328571D02*
X62205261Y-69316666D01*
X62205261Y-69316666D02*
X62217166Y-69292856D01*
X62217166Y-69292856D02*
X62217166Y-69245237D01*
X62217166Y-69245237D02*
X62205261Y-69221428D01*
X62205261Y-69221428D02*
X62193357Y-69209523D01*
X62193357Y-69209523D02*
X62169547Y-69197618D01*
D10*
X56046428Y-95995876D02*
X56036904Y-96005400D01*
X56036904Y-96005400D02*
X56008333Y-96014923D01*
X56008333Y-96014923D02*
X55989285Y-96014923D01*
X55989285Y-96014923D02*
X55960714Y-96005400D01*
X55960714Y-96005400D02*
X55941666Y-95986352D01*
X55941666Y-95986352D02*
X55932143Y-95967304D01*
X55932143Y-95967304D02*
X55922619Y-95929209D01*
X55922619Y-95929209D02*
X55922619Y-95900638D01*
X55922619Y-95900638D02*
X55932143Y-95862542D01*
X55932143Y-95862542D02*
X55941666Y-95843495D01*
X55941666Y-95843495D02*
X55960714Y-95824447D01*
X55960714Y-95824447D02*
X55989285Y-95814923D01*
X55989285Y-95814923D02*
X56008333Y-95814923D01*
X56008333Y-95814923D02*
X56036904Y-95824447D01*
X56036904Y-95824447D02*
X56046428Y-95833971D01*
X56236904Y-96014923D02*
X56122619Y-96014923D01*
X56179762Y-96014923D02*
X56179762Y-95814923D01*
X56179762Y-95814923D02*
X56160714Y-95843495D01*
X56160714Y-95843495D02*
X56141666Y-95862542D01*
X56141666Y-95862542D02*
X56122619Y-95872066D01*
X56332142Y-96014923D02*
X56370238Y-96014923D01*
X56370238Y-96014923D02*
X56389285Y-96005400D01*
X56389285Y-96005400D02*
X56398809Y-95995876D01*
X56398809Y-95995876D02*
X56417857Y-95967304D01*
X56417857Y-95967304D02*
X56427380Y-95929209D01*
X56427380Y-95929209D02*
X56427380Y-95853019D01*
X56427380Y-95853019D02*
X56417857Y-95833971D01*
X56417857Y-95833971D02*
X56408333Y-95824447D01*
X56408333Y-95824447D02*
X56389285Y-95814923D01*
X56389285Y-95814923D02*
X56351190Y-95814923D01*
X56351190Y-95814923D02*
X56332142Y-95824447D01*
X56332142Y-95824447D02*
X56322619Y-95833971D01*
X56322619Y-95833971D02*
X56313095Y-95853019D01*
X56313095Y-95853019D02*
X56313095Y-95900638D01*
X56313095Y-95900638D02*
X56322619Y-95919685D01*
X56322619Y-95919685D02*
X56332142Y-95929209D01*
X56332142Y-95929209D02*
X56351190Y-95938733D01*
X56351190Y-95938733D02*
X56389285Y-95938733D01*
X56389285Y-95938733D02*
X56408333Y-95929209D01*
X56408333Y-95929209D02*
X56417857Y-95919685D01*
X56417857Y-95919685D02*
X56427380Y-95900638D01*
X67621428Y-51820876D02*
X67611904Y-51830400D01*
X67611904Y-51830400D02*
X67583333Y-51839923D01*
X67583333Y-51839923D02*
X67564285Y-51839923D01*
X67564285Y-51839923D02*
X67535714Y-51830400D01*
X67535714Y-51830400D02*
X67516666Y-51811352D01*
X67516666Y-51811352D02*
X67507143Y-51792304D01*
X67507143Y-51792304D02*
X67497619Y-51754209D01*
X67497619Y-51754209D02*
X67497619Y-51725638D01*
X67497619Y-51725638D02*
X67507143Y-51687542D01*
X67507143Y-51687542D02*
X67516666Y-51668495D01*
X67516666Y-51668495D02*
X67535714Y-51649447D01*
X67535714Y-51649447D02*
X67564285Y-51639923D01*
X67564285Y-51639923D02*
X67583333Y-51639923D01*
X67583333Y-51639923D02*
X67611904Y-51649447D01*
X67611904Y-51649447D02*
X67621428Y-51658971D01*
X67697619Y-51658971D02*
X67707143Y-51649447D01*
X67707143Y-51649447D02*
X67726190Y-51639923D01*
X67726190Y-51639923D02*
X67773809Y-51639923D01*
X67773809Y-51639923D02*
X67792857Y-51649447D01*
X67792857Y-51649447D02*
X67802381Y-51658971D01*
X67802381Y-51658971D02*
X67811904Y-51678019D01*
X67811904Y-51678019D02*
X67811904Y-51697066D01*
X67811904Y-51697066D02*
X67802381Y-51725638D01*
X67802381Y-51725638D02*
X67688095Y-51839923D01*
X67688095Y-51839923D02*
X67811904Y-51839923D01*
X67992857Y-51639923D02*
X67897619Y-51639923D01*
X67897619Y-51639923D02*
X67888095Y-51735161D01*
X67888095Y-51735161D02*
X67897619Y-51725638D01*
X67897619Y-51725638D02*
X67916666Y-51716114D01*
X67916666Y-51716114D02*
X67964285Y-51716114D01*
X67964285Y-51716114D02*
X67983333Y-51725638D01*
X67983333Y-51725638D02*
X67992857Y-51735161D01*
X67992857Y-51735161D02*
X68002380Y-51754209D01*
X68002380Y-51754209D02*
X68002380Y-51801828D01*
X68002380Y-51801828D02*
X67992857Y-51820876D01*
X67992857Y-51820876D02*
X67983333Y-51830400D01*
X67983333Y-51830400D02*
X67964285Y-51839923D01*
X67964285Y-51839923D02*
X67916666Y-51839923D01*
X67916666Y-51839923D02*
X67897619Y-51830400D01*
X67897619Y-51830400D02*
X67888095Y-51820876D01*
D16*
X46444961Y-77564285D02*
X46397342Y-77597618D01*
X46444961Y-77621428D02*
X46344961Y-77621428D01*
X46344961Y-77621428D02*
X46344961Y-77583333D01*
X46344961Y-77583333D02*
X46349723Y-77573809D01*
X46349723Y-77573809D02*
X46354485Y-77569047D01*
X46354485Y-77569047D02*
X46364009Y-77564285D01*
X46364009Y-77564285D02*
X46378295Y-77564285D01*
X46378295Y-77564285D02*
X46387819Y-77569047D01*
X46387819Y-77569047D02*
X46392580Y-77573809D01*
X46392580Y-77573809D02*
X46397342Y-77583333D01*
X46397342Y-77583333D02*
X46397342Y-77621428D01*
X46354485Y-77526190D02*
X46349723Y-77521428D01*
X46349723Y-77521428D02*
X46344961Y-77511904D01*
X46344961Y-77511904D02*
X46344961Y-77488095D01*
X46344961Y-77488095D02*
X46349723Y-77478571D01*
X46349723Y-77478571D02*
X46354485Y-77473809D01*
X46354485Y-77473809D02*
X46364009Y-77469047D01*
X46364009Y-77469047D02*
X46373533Y-77469047D01*
X46373533Y-77469047D02*
X46387819Y-77473809D01*
X46387819Y-77473809D02*
X46444961Y-77530952D01*
X46444961Y-77530952D02*
X46444961Y-77469047D01*
X46344961Y-77435714D02*
X46344961Y-77373809D01*
X46344961Y-77373809D02*
X46383057Y-77407142D01*
X46383057Y-77407142D02*
X46383057Y-77392857D01*
X46383057Y-77392857D02*
X46387819Y-77383333D01*
X46387819Y-77383333D02*
X46392580Y-77378571D01*
X46392580Y-77378571D02*
X46402104Y-77373809D01*
X46402104Y-77373809D02*
X46425914Y-77373809D01*
X46425914Y-77373809D02*
X46435438Y-77378571D01*
X46435438Y-77378571D02*
X46440200Y-77383333D01*
X46440200Y-77383333D02*
X46444961Y-77392857D01*
X46444961Y-77392857D02*
X46444961Y-77421428D01*
X46444961Y-77421428D02*
X46440200Y-77430952D01*
X46440200Y-77430952D02*
X46435438Y-77435714D01*
D15*
X100362571Y-114180885D02*
X100362571Y-113880885D01*
X100362571Y-113880885D02*
X100434000Y-113880885D01*
X100434000Y-113880885D02*
X100476857Y-113895171D01*
X100476857Y-113895171D02*
X100505428Y-113923742D01*
X100505428Y-113923742D02*
X100519714Y-113952314D01*
X100519714Y-113952314D02*
X100534000Y-114009457D01*
X100534000Y-114009457D02*
X100534000Y-114052314D01*
X100534000Y-114052314D02*
X100519714Y-114109457D01*
X100519714Y-114109457D02*
X100505428Y-114138028D01*
X100505428Y-114138028D02*
X100476857Y-114166600D01*
X100476857Y-114166600D02*
X100434000Y-114180885D01*
X100434000Y-114180885D02*
X100362571Y-114180885D01*
X100805428Y-113880885D02*
X100662571Y-113880885D01*
X100662571Y-113880885D02*
X100648285Y-114023742D01*
X100648285Y-114023742D02*
X100662571Y-114009457D01*
X100662571Y-114009457D02*
X100691143Y-113995171D01*
X100691143Y-113995171D02*
X100762571Y-113995171D01*
X100762571Y-113995171D02*
X100791143Y-114009457D01*
X100791143Y-114009457D02*
X100805428Y-114023742D01*
X100805428Y-114023742D02*
X100819714Y-114052314D01*
X100819714Y-114052314D02*
X100819714Y-114123742D01*
X100819714Y-114123742D02*
X100805428Y-114152314D01*
X100805428Y-114152314D02*
X100791143Y-114166600D01*
X100791143Y-114166600D02*
X100762571Y-114180885D01*
X100762571Y-114180885D02*
X100691143Y-114180885D01*
X100691143Y-114180885D02*
X100662571Y-114166600D01*
X100662571Y-114166600D02*
X100648285Y-114152314D01*
D10*
X65001428Y-58640876D02*
X64991904Y-58650400D01*
X64991904Y-58650400D02*
X64963333Y-58659923D01*
X64963333Y-58659923D02*
X64944285Y-58659923D01*
X64944285Y-58659923D02*
X64915714Y-58650400D01*
X64915714Y-58650400D02*
X64896666Y-58631352D01*
X64896666Y-58631352D02*
X64887143Y-58612304D01*
X64887143Y-58612304D02*
X64877619Y-58574209D01*
X64877619Y-58574209D02*
X64877619Y-58545638D01*
X64877619Y-58545638D02*
X64887143Y-58507542D01*
X64887143Y-58507542D02*
X64896666Y-58488495D01*
X64896666Y-58488495D02*
X64915714Y-58469447D01*
X64915714Y-58469447D02*
X64944285Y-58459923D01*
X64944285Y-58459923D02*
X64963333Y-58459923D01*
X64963333Y-58459923D02*
X64991904Y-58469447D01*
X64991904Y-58469447D02*
X65001428Y-58478971D01*
X65077619Y-58478971D02*
X65087143Y-58469447D01*
X65087143Y-58469447D02*
X65106190Y-58459923D01*
X65106190Y-58459923D02*
X65153809Y-58459923D01*
X65153809Y-58459923D02*
X65172857Y-58469447D01*
X65172857Y-58469447D02*
X65182381Y-58478971D01*
X65182381Y-58478971D02*
X65191904Y-58498019D01*
X65191904Y-58498019D02*
X65191904Y-58517066D01*
X65191904Y-58517066D02*
X65182381Y-58545638D01*
X65182381Y-58545638D02*
X65068095Y-58659923D01*
X65068095Y-58659923D02*
X65191904Y-58659923D01*
X65287142Y-58659923D02*
X65325238Y-58659923D01*
X65325238Y-58659923D02*
X65344285Y-58650400D01*
X65344285Y-58650400D02*
X65353809Y-58640876D01*
X65353809Y-58640876D02*
X65372857Y-58612304D01*
X65372857Y-58612304D02*
X65382380Y-58574209D01*
X65382380Y-58574209D02*
X65382380Y-58498019D01*
X65382380Y-58498019D02*
X65372857Y-58478971D01*
X65372857Y-58478971D02*
X65363333Y-58469447D01*
X65363333Y-58469447D02*
X65344285Y-58459923D01*
X65344285Y-58459923D02*
X65306190Y-58459923D01*
X65306190Y-58459923D02*
X65287142Y-58469447D01*
X65287142Y-58469447D02*
X65277619Y-58478971D01*
X65277619Y-58478971D02*
X65268095Y-58498019D01*
X65268095Y-58498019D02*
X65268095Y-58545638D01*
X65268095Y-58545638D02*
X65277619Y-58564685D01*
X65277619Y-58564685D02*
X65287142Y-58574209D01*
X65287142Y-58574209D02*
X65306190Y-58583733D01*
X65306190Y-58583733D02*
X65344285Y-58583733D01*
X65344285Y-58583733D02*
X65363333Y-58574209D01*
X65363333Y-58574209D02*
X65372857Y-58564685D01*
X65372857Y-58564685D02*
X65382380Y-58545638D01*
X61870876Y-75333333D02*
X61880400Y-75342857D01*
X61880400Y-75342857D02*
X61889923Y-75371428D01*
X61889923Y-75371428D02*
X61889923Y-75390476D01*
X61889923Y-75390476D02*
X61880400Y-75419047D01*
X61880400Y-75419047D02*
X61861352Y-75438095D01*
X61861352Y-75438095D02*
X61842304Y-75447618D01*
X61842304Y-75447618D02*
X61804209Y-75457142D01*
X61804209Y-75457142D02*
X61775638Y-75457142D01*
X61775638Y-75457142D02*
X61737542Y-75447618D01*
X61737542Y-75447618D02*
X61718495Y-75438095D01*
X61718495Y-75438095D02*
X61699447Y-75419047D01*
X61699447Y-75419047D02*
X61689923Y-75390476D01*
X61689923Y-75390476D02*
X61689923Y-75371428D01*
X61689923Y-75371428D02*
X61699447Y-75342857D01*
X61699447Y-75342857D02*
X61708971Y-75333333D01*
X61889923Y-75142857D02*
X61889923Y-75257142D01*
X61889923Y-75199999D02*
X61689923Y-75199999D01*
X61689923Y-75199999D02*
X61718495Y-75219047D01*
X61718495Y-75219047D02*
X61737542Y-75238095D01*
X61737542Y-75238095D02*
X61747066Y-75257142D01*
X75813428Y-48099369D02*
X75803904Y-48108893D01*
X75803904Y-48108893D02*
X75775333Y-48118416D01*
X75775333Y-48118416D02*
X75756285Y-48118416D01*
X75756285Y-48118416D02*
X75727714Y-48108893D01*
X75727714Y-48108893D02*
X75708666Y-48089845D01*
X75708666Y-48089845D02*
X75699143Y-48070797D01*
X75699143Y-48070797D02*
X75689619Y-48032702D01*
X75689619Y-48032702D02*
X75689619Y-48004131D01*
X75689619Y-48004131D02*
X75699143Y-47966035D01*
X75699143Y-47966035D02*
X75708666Y-47946988D01*
X75708666Y-47946988D02*
X75727714Y-47927940D01*
X75727714Y-47927940D02*
X75756285Y-47918416D01*
X75756285Y-47918416D02*
X75775333Y-47918416D01*
X75775333Y-47918416D02*
X75803904Y-47927940D01*
X75803904Y-47927940D02*
X75813428Y-47937464D01*
X75889619Y-47937464D02*
X75899143Y-47927940D01*
X75899143Y-47927940D02*
X75918190Y-47918416D01*
X75918190Y-47918416D02*
X75965809Y-47918416D01*
X75965809Y-47918416D02*
X75984857Y-47927940D01*
X75984857Y-47927940D02*
X75994381Y-47937464D01*
X75994381Y-47937464D02*
X76003904Y-47956512D01*
X76003904Y-47956512D02*
X76003904Y-47975559D01*
X76003904Y-47975559D02*
X75994381Y-48004131D01*
X75994381Y-48004131D02*
X75880095Y-48118416D01*
X75880095Y-48118416D02*
X76003904Y-48118416D01*
X76175333Y-47985083D02*
X76175333Y-48118416D01*
X76127714Y-47908893D02*
X76080095Y-48051750D01*
X76080095Y-48051750D02*
X76203904Y-48051750D01*
D15*
X100108571Y-62999885D02*
X100108571Y-62699885D01*
X100108571Y-62699885D02*
X100180000Y-62699885D01*
X100180000Y-62699885D02*
X100222857Y-62714171D01*
X100222857Y-62714171D02*
X100251428Y-62742742D01*
X100251428Y-62742742D02*
X100265714Y-62771314D01*
X100265714Y-62771314D02*
X100280000Y-62828457D01*
X100280000Y-62828457D02*
X100280000Y-62871314D01*
X100280000Y-62871314D02*
X100265714Y-62928457D01*
X100265714Y-62928457D02*
X100251428Y-62957028D01*
X100251428Y-62957028D02*
X100222857Y-62985600D01*
X100222857Y-62985600D02*
X100180000Y-62999885D01*
X100180000Y-62999885D02*
X100108571Y-62999885D01*
X100394285Y-62728457D02*
X100408571Y-62714171D01*
X100408571Y-62714171D02*
X100437143Y-62699885D01*
X100437143Y-62699885D02*
X100508571Y-62699885D01*
X100508571Y-62699885D02*
X100537143Y-62714171D01*
X100537143Y-62714171D02*
X100551428Y-62728457D01*
X100551428Y-62728457D02*
X100565714Y-62757028D01*
X100565714Y-62757028D02*
X100565714Y-62785600D01*
X100565714Y-62785600D02*
X100551428Y-62828457D01*
X100551428Y-62828457D02*
X100380000Y-62999885D01*
X100380000Y-62999885D02*
X100565714Y-62999885D01*
D10*
X77976428Y-59398923D02*
X77909762Y-59303685D01*
X77862143Y-59398923D02*
X77862143Y-59198923D01*
X77862143Y-59198923D02*
X77938333Y-59198923D01*
X77938333Y-59198923D02*
X77957381Y-59208447D01*
X77957381Y-59208447D02*
X77966904Y-59217971D01*
X77966904Y-59217971D02*
X77976428Y-59237019D01*
X77976428Y-59237019D02*
X77976428Y-59265590D01*
X77976428Y-59265590D02*
X77966904Y-59284638D01*
X77966904Y-59284638D02*
X77957381Y-59294161D01*
X77957381Y-59294161D02*
X77938333Y-59303685D01*
X77938333Y-59303685D02*
X77862143Y-59303685D01*
X78166904Y-59398923D02*
X78052619Y-59398923D01*
X78109762Y-59398923D02*
X78109762Y-59198923D01*
X78109762Y-59198923D02*
X78090714Y-59227495D01*
X78090714Y-59227495D02*
X78071666Y-59246542D01*
X78071666Y-59246542D02*
X78052619Y-59256066D01*
X78338333Y-59265590D02*
X78338333Y-59398923D01*
X78290714Y-59189400D02*
X78243095Y-59332257D01*
X78243095Y-59332257D02*
X78366904Y-59332257D01*
X77976428Y-61049923D02*
X77909762Y-60954685D01*
X77862143Y-61049923D02*
X77862143Y-60849923D01*
X77862143Y-60849923D02*
X77938333Y-60849923D01*
X77938333Y-60849923D02*
X77957381Y-60859447D01*
X77957381Y-60859447D02*
X77966904Y-60868971D01*
X77966904Y-60868971D02*
X77976428Y-60888019D01*
X77976428Y-60888019D02*
X77976428Y-60916590D01*
X77976428Y-60916590D02*
X77966904Y-60935638D01*
X77966904Y-60935638D02*
X77957381Y-60945161D01*
X77957381Y-60945161D02*
X77938333Y-60954685D01*
X77938333Y-60954685D02*
X77862143Y-60954685D01*
X78166904Y-61049923D02*
X78052619Y-61049923D01*
X78109762Y-61049923D02*
X78109762Y-60849923D01*
X78109762Y-60849923D02*
X78090714Y-60878495D01*
X78090714Y-60878495D02*
X78071666Y-60897542D01*
X78071666Y-60897542D02*
X78052619Y-60907066D01*
X78233571Y-60849923D02*
X78357380Y-60849923D01*
X78357380Y-60849923D02*
X78290714Y-60926114D01*
X78290714Y-60926114D02*
X78319285Y-60926114D01*
X78319285Y-60926114D02*
X78338333Y-60935638D01*
X78338333Y-60935638D02*
X78347857Y-60945161D01*
X78347857Y-60945161D02*
X78357380Y-60964209D01*
X78357380Y-60964209D02*
X78357380Y-61011828D01*
X78357380Y-61011828D02*
X78347857Y-61030876D01*
X78347857Y-61030876D02*
X78338333Y-61040400D01*
X78338333Y-61040400D02*
X78319285Y-61049923D01*
X78319285Y-61049923D02*
X78262142Y-61049923D01*
X78262142Y-61049923D02*
X78243095Y-61040400D01*
X78243095Y-61040400D02*
X78233571Y-61030876D01*
D15*
X99981571Y-97162885D02*
X99981571Y-96862885D01*
X99981571Y-96862885D02*
X100053000Y-96862885D01*
X100053000Y-96862885D02*
X100095857Y-96877171D01*
X100095857Y-96877171D02*
X100124428Y-96905742D01*
X100124428Y-96905742D02*
X100138714Y-96934314D01*
X100138714Y-96934314D02*
X100153000Y-96991457D01*
X100153000Y-96991457D02*
X100153000Y-97034314D01*
X100153000Y-97034314D02*
X100138714Y-97091457D01*
X100138714Y-97091457D02*
X100124428Y-97120028D01*
X100124428Y-97120028D02*
X100095857Y-97148600D01*
X100095857Y-97148600D02*
X100053000Y-97162885D01*
X100053000Y-97162885D02*
X99981571Y-97162885D01*
X100410143Y-96962885D02*
X100410143Y-97162885D01*
X100338714Y-96848600D02*
X100267285Y-97062885D01*
X100267285Y-97062885D02*
X100453000Y-97062885D01*
D10*
X72861428Y-57330876D02*
X72851904Y-57340400D01*
X72851904Y-57340400D02*
X72823333Y-57349923D01*
X72823333Y-57349923D02*
X72804285Y-57349923D01*
X72804285Y-57349923D02*
X72775714Y-57340400D01*
X72775714Y-57340400D02*
X72756666Y-57321352D01*
X72756666Y-57321352D02*
X72747143Y-57302304D01*
X72747143Y-57302304D02*
X72737619Y-57264209D01*
X72737619Y-57264209D02*
X72737619Y-57235638D01*
X72737619Y-57235638D02*
X72747143Y-57197542D01*
X72747143Y-57197542D02*
X72756666Y-57178495D01*
X72756666Y-57178495D02*
X72775714Y-57159447D01*
X72775714Y-57159447D02*
X72804285Y-57149923D01*
X72804285Y-57149923D02*
X72823333Y-57149923D01*
X72823333Y-57149923D02*
X72851904Y-57159447D01*
X72851904Y-57159447D02*
X72861428Y-57168971D01*
X72937619Y-57168971D02*
X72947143Y-57159447D01*
X72947143Y-57159447D02*
X72966190Y-57149923D01*
X72966190Y-57149923D02*
X73013809Y-57149923D01*
X73013809Y-57149923D02*
X73032857Y-57159447D01*
X73032857Y-57159447D02*
X73042381Y-57168971D01*
X73042381Y-57168971D02*
X73051904Y-57188019D01*
X73051904Y-57188019D02*
X73051904Y-57207066D01*
X73051904Y-57207066D02*
X73042381Y-57235638D01*
X73042381Y-57235638D02*
X72928095Y-57349923D01*
X72928095Y-57349923D02*
X73051904Y-57349923D01*
X73166190Y-57235638D02*
X73147142Y-57226114D01*
X73147142Y-57226114D02*
X73137619Y-57216590D01*
X73137619Y-57216590D02*
X73128095Y-57197542D01*
X73128095Y-57197542D02*
X73128095Y-57188019D01*
X73128095Y-57188019D02*
X73137619Y-57168971D01*
X73137619Y-57168971D02*
X73147142Y-57159447D01*
X73147142Y-57159447D02*
X73166190Y-57149923D01*
X73166190Y-57149923D02*
X73204285Y-57149923D01*
X73204285Y-57149923D02*
X73223333Y-57159447D01*
X73223333Y-57159447D02*
X73232857Y-57168971D01*
X73232857Y-57168971D02*
X73242380Y-57188019D01*
X73242380Y-57188019D02*
X73242380Y-57197542D01*
X73242380Y-57197542D02*
X73232857Y-57216590D01*
X73232857Y-57216590D02*
X73223333Y-57226114D01*
X73223333Y-57226114D02*
X73204285Y-57235638D01*
X73204285Y-57235638D02*
X73166190Y-57235638D01*
X73166190Y-57235638D02*
X73147142Y-57245161D01*
X73147142Y-57245161D02*
X73137619Y-57254685D01*
X73137619Y-57254685D02*
X73128095Y-57273733D01*
X73128095Y-57273733D02*
X73128095Y-57311828D01*
X73128095Y-57311828D02*
X73137619Y-57330876D01*
X73137619Y-57330876D02*
X73147142Y-57340400D01*
X73147142Y-57340400D02*
X73166190Y-57349923D01*
X73166190Y-57349923D02*
X73204285Y-57349923D01*
X73204285Y-57349923D02*
X73223333Y-57340400D01*
X73223333Y-57340400D02*
X73232857Y-57330876D01*
X73232857Y-57330876D02*
X73242380Y-57311828D01*
X73242380Y-57311828D02*
X73242380Y-57273733D01*
X73242380Y-57273733D02*
X73232857Y-57254685D01*
X73232857Y-57254685D02*
X73223333Y-57245161D01*
X73223333Y-57245161D02*
X73204285Y-57235638D01*
D11*
X65946666Y-41576683D02*
X65922857Y-41600493D01*
X65922857Y-41600493D02*
X65851428Y-41624302D01*
X65851428Y-41624302D02*
X65803809Y-41624302D01*
X65803809Y-41624302D02*
X65732381Y-41600493D01*
X65732381Y-41600493D02*
X65684762Y-41552873D01*
X65684762Y-41552873D02*
X65660952Y-41505254D01*
X65660952Y-41505254D02*
X65637143Y-41410016D01*
X65637143Y-41410016D02*
X65637143Y-41338588D01*
X65637143Y-41338588D02*
X65660952Y-41243350D01*
X65660952Y-41243350D02*
X65684762Y-41195731D01*
X65684762Y-41195731D02*
X65732381Y-41148112D01*
X65732381Y-41148112D02*
X65803809Y-41124302D01*
X65803809Y-41124302D02*
X65851428Y-41124302D01*
X65851428Y-41124302D02*
X65922857Y-41148112D01*
X65922857Y-41148112D02*
X65946666Y-41171921D01*
X66184762Y-41624302D02*
X66280000Y-41624302D01*
X66280000Y-41624302D02*
X66327619Y-41600493D01*
X66327619Y-41600493D02*
X66351428Y-41576683D01*
X66351428Y-41576683D02*
X66399047Y-41505254D01*
X66399047Y-41505254D02*
X66422857Y-41410016D01*
X66422857Y-41410016D02*
X66422857Y-41219540D01*
X66422857Y-41219540D02*
X66399047Y-41171921D01*
X66399047Y-41171921D02*
X66375238Y-41148112D01*
X66375238Y-41148112D02*
X66327619Y-41124302D01*
X66327619Y-41124302D02*
X66232381Y-41124302D01*
X66232381Y-41124302D02*
X66184762Y-41148112D01*
X66184762Y-41148112D02*
X66160952Y-41171921D01*
X66160952Y-41171921D02*
X66137143Y-41219540D01*
X66137143Y-41219540D02*
X66137143Y-41338588D01*
X66137143Y-41338588D02*
X66160952Y-41386207D01*
X66160952Y-41386207D02*
X66184762Y-41410016D01*
X66184762Y-41410016D02*
X66232381Y-41433826D01*
X66232381Y-41433826D02*
X66327619Y-41433826D01*
X66327619Y-41433826D02*
X66375238Y-41410016D01*
X66375238Y-41410016D02*
X66399047Y-41386207D01*
X66399047Y-41386207D02*
X66422857Y-41338588D01*
D14*
X138105919Y-64559523D02*
X138820204Y-64559523D01*
X138820204Y-64559523D02*
X138963061Y-64607142D01*
X138963061Y-64607142D02*
X139058300Y-64702380D01*
X139058300Y-64702380D02*
X139105919Y-64845237D01*
X139105919Y-64845237D02*
X139105919Y-64940475D01*
X139105919Y-63559523D02*
X139105919Y-64130951D01*
X139105919Y-63845237D02*
X138105919Y-63845237D01*
X138105919Y-63845237D02*
X138248776Y-63940475D01*
X138248776Y-63940475D02*
X138344014Y-64035713D01*
X138344014Y-64035713D02*
X138391633Y-64130951D01*
X139105919Y-62607142D02*
X139105919Y-63178570D01*
X139105919Y-62892856D02*
X138105919Y-62892856D01*
X138105919Y-62892856D02*
X138248776Y-62988094D01*
X138248776Y-62988094D02*
X138344014Y-63083332D01*
X138344014Y-63083332D02*
X138391633Y-63178570D01*
D10*
X100840466Y-109184923D02*
X100773800Y-109089685D01*
X100726181Y-109184923D02*
X100726181Y-108984923D01*
X100726181Y-108984923D02*
X100802371Y-108984923D01*
X100802371Y-108984923D02*
X100821419Y-108994447D01*
X100821419Y-108994447D02*
X100830942Y-109003971D01*
X100830942Y-109003971D02*
X100840466Y-109023019D01*
X100840466Y-109023019D02*
X100840466Y-109051590D01*
X100840466Y-109051590D02*
X100830942Y-109070638D01*
X100830942Y-109070638D02*
X100821419Y-109080161D01*
X100821419Y-109080161D02*
X100802371Y-109089685D01*
X100802371Y-109089685D02*
X100726181Y-109089685D01*
X101011895Y-109051590D02*
X101011895Y-109184923D01*
X100964276Y-108975400D02*
X100916657Y-109118257D01*
X100916657Y-109118257D02*
X101040466Y-109118257D01*
D14*
X89135200Y-119003450D02*
X89242343Y-119039164D01*
X89242343Y-119039164D02*
X89420914Y-119039164D01*
X89420914Y-119039164D02*
X89492343Y-119003450D01*
X89492343Y-119003450D02*
X89528057Y-118967735D01*
X89528057Y-118967735D02*
X89563771Y-118896307D01*
X89563771Y-118896307D02*
X89563771Y-118824878D01*
X89563771Y-118824878D02*
X89528057Y-118753450D01*
X89528057Y-118753450D02*
X89492343Y-118717735D01*
X89492343Y-118717735D02*
X89420914Y-118682021D01*
X89420914Y-118682021D02*
X89278057Y-118646307D01*
X89278057Y-118646307D02*
X89206628Y-118610592D01*
X89206628Y-118610592D02*
X89170914Y-118574878D01*
X89170914Y-118574878D02*
X89135200Y-118503450D01*
X89135200Y-118503450D02*
X89135200Y-118432021D01*
X89135200Y-118432021D02*
X89170914Y-118360592D01*
X89170914Y-118360592D02*
X89206628Y-118324878D01*
X89206628Y-118324878D02*
X89278057Y-118289164D01*
X89278057Y-118289164D02*
X89456628Y-118289164D01*
X89456628Y-118289164D02*
X89563771Y-118324878D01*
X89813771Y-118289164D02*
X89992343Y-119039164D01*
X89992343Y-119039164D02*
X90135200Y-118503450D01*
X90135200Y-118503450D02*
X90278057Y-119039164D01*
X90278057Y-119039164D02*
X90456629Y-118289164D01*
X91063772Y-118289164D02*
X90920914Y-118289164D01*
X90920914Y-118289164D02*
X90849486Y-118324878D01*
X90849486Y-118324878D02*
X90813772Y-118360592D01*
X90813772Y-118360592D02*
X90742343Y-118467735D01*
X90742343Y-118467735D02*
X90706629Y-118610592D01*
X90706629Y-118610592D02*
X90706629Y-118896307D01*
X90706629Y-118896307D02*
X90742343Y-118967735D01*
X90742343Y-118967735D02*
X90778057Y-119003450D01*
X90778057Y-119003450D02*
X90849486Y-119039164D01*
X90849486Y-119039164D02*
X90992343Y-119039164D01*
X90992343Y-119039164D02*
X91063772Y-119003450D01*
X91063772Y-119003450D02*
X91099486Y-118967735D01*
X91099486Y-118967735D02*
X91135200Y-118896307D01*
X91135200Y-118896307D02*
X91135200Y-118717735D01*
X91135200Y-118717735D02*
X91099486Y-118646307D01*
X91099486Y-118646307D02*
X91063772Y-118610592D01*
X91063772Y-118610592D02*
X90992343Y-118574878D01*
X90992343Y-118574878D02*
X90849486Y-118574878D01*
X90849486Y-118574878D02*
X90778057Y-118610592D01*
X90778057Y-118610592D02*
X90742343Y-118646307D01*
X90742343Y-118646307D02*
X90706629Y-118717735D01*
X88647618Y-120354819D02*
X88314285Y-119878628D01*
X88076190Y-120354819D02*
X88076190Y-119354819D01*
X88076190Y-119354819D02*
X88457142Y-119354819D01*
X88457142Y-119354819D02*
X88552380Y-119402438D01*
X88552380Y-119402438D02*
X88599999Y-119450057D01*
X88599999Y-119450057D02*
X88647618Y-119545295D01*
X88647618Y-119545295D02*
X88647618Y-119688152D01*
X88647618Y-119688152D02*
X88599999Y-119783390D01*
X88599999Y-119783390D02*
X88552380Y-119831009D01*
X88552380Y-119831009D02*
X88457142Y-119878628D01*
X88457142Y-119878628D02*
X88076190Y-119878628D01*
X89076190Y-119831009D02*
X89409523Y-119831009D01*
X89552380Y-120354819D02*
X89076190Y-120354819D01*
X89076190Y-120354819D02*
X89076190Y-119354819D01*
X89076190Y-119354819D02*
X89552380Y-119354819D01*
X89933333Y-120307200D02*
X90076190Y-120354819D01*
X90076190Y-120354819D02*
X90314285Y-120354819D01*
X90314285Y-120354819D02*
X90409523Y-120307200D01*
X90409523Y-120307200D02*
X90457142Y-120259580D01*
X90457142Y-120259580D02*
X90504761Y-120164342D01*
X90504761Y-120164342D02*
X90504761Y-120069104D01*
X90504761Y-120069104D02*
X90457142Y-119973866D01*
X90457142Y-119973866D02*
X90409523Y-119926247D01*
X90409523Y-119926247D02*
X90314285Y-119878628D01*
X90314285Y-119878628D02*
X90123809Y-119831009D01*
X90123809Y-119831009D02*
X90028571Y-119783390D01*
X90028571Y-119783390D02*
X89980952Y-119735771D01*
X89980952Y-119735771D02*
X89933333Y-119640533D01*
X89933333Y-119640533D02*
X89933333Y-119545295D01*
X89933333Y-119545295D02*
X89980952Y-119450057D01*
X89980952Y-119450057D02*
X90028571Y-119402438D01*
X90028571Y-119402438D02*
X90123809Y-119354819D01*
X90123809Y-119354819D02*
X90361904Y-119354819D01*
X90361904Y-119354819D02*
X90504761Y-119402438D01*
X90933333Y-119831009D02*
X91266666Y-119831009D01*
X91409523Y-120354819D02*
X90933333Y-120354819D01*
X90933333Y-120354819D02*
X90933333Y-119354819D01*
X90933333Y-119354819D02*
X91409523Y-119354819D01*
X91695238Y-119354819D02*
X92266666Y-119354819D01*
X91980952Y-120354819D02*
X91980952Y-119354819D01*
D10*
X67296428Y-84039923D02*
X67229762Y-83944685D01*
X67182143Y-84039923D02*
X67182143Y-83839923D01*
X67182143Y-83839923D02*
X67258333Y-83839923D01*
X67258333Y-83839923D02*
X67277381Y-83849447D01*
X67277381Y-83849447D02*
X67286904Y-83858971D01*
X67286904Y-83858971D02*
X67296428Y-83878019D01*
X67296428Y-83878019D02*
X67296428Y-83906590D01*
X67296428Y-83906590D02*
X67286904Y-83925638D01*
X67286904Y-83925638D02*
X67277381Y-83935161D01*
X67277381Y-83935161D02*
X67258333Y-83944685D01*
X67258333Y-83944685D02*
X67182143Y-83944685D01*
X67372619Y-83858971D02*
X67382143Y-83849447D01*
X67382143Y-83849447D02*
X67401190Y-83839923D01*
X67401190Y-83839923D02*
X67448809Y-83839923D01*
X67448809Y-83839923D02*
X67467857Y-83849447D01*
X67467857Y-83849447D02*
X67477381Y-83858971D01*
X67477381Y-83858971D02*
X67486904Y-83878019D01*
X67486904Y-83878019D02*
X67486904Y-83897066D01*
X67486904Y-83897066D02*
X67477381Y-83925638D01*
X67477381Y-83925638D02*
X67363095Y-84039923D01*
X67363095Y-84039923D02*
X67486904Y-84039923D01*
X67658333Y-83839923D02*
X67620238Y-83839923D01*
X67620238Y-83839923D02*
X67601190Y-83849447D01*
X67601190Y-83849447D02*
X67591666Y-83858971D01*
X67591666Y-83858971D02*
X67572619Y-83887542D01*
X67572619Y-83887542D02*
X67563095Y-83925638D01*
X67563095Y-83925638D02*
X67563095Y-84001828D01*
X67563095Y-84001828D02*
X67572619Y-84020876D01*
X67572619Y-84020876D02*
X67582142Y-84030400D01*
X67582142Y-84030400D02*
X67601190Y-84039923D01*
X67601190Y-84039923D02*
X67639285Y-84039923D01*
X67639285Y-84039923D02*
X67658333Y-84030400D01*
X67658333Y-84030400D02*
X67667857Y-84020876D01*
X67667857Y-84020876D02*
X67677380Y-84001828D01*
X67677380Y-84001828D02*
X67677380Y-83954209D01*
X67677380Y-83954209D02*
X67667857Y-83935161D01*
X67667857Y-83935161D02*
X67658333Y-83925638D01*
X67658333Y-83925638D02*
X67639285Y-83916114D01*
X67639285Y-83916114D02*
X67601190Y-83916114D01*
X67601190Y-83916114D02*
X67582142Y-83925638D01*
X67582142Y-83925638D02*
X67572619Y-83935161D01*
X67572619Y-83935161D02*
X67563095Y-83954209D01*
X56170876Y-87438333D02*
X56180400Y-87447857D01*
X56180400Y-87447857D02*
X56189923Y-87476428D01*
X56189923Y-87476428D02*
X56189923Y-87495476D01*
X56189923Y-87495476D02*
X56180400Y-87524047D01*
X56180400Y-87524047D02*
X56161352Y-87543095D01*
X56161352Y-87543095D02*
X56142304Y-87552618D01*
X56142304Y-87552618D02*
X56104209Y-87562142D01*
X56104209Y-87562142D02*
X56075638Y-87562142D01*
X56075638Y-87562142D02*
X56037542Y-87552618D01*
X56037542Y-87552618D02*
X56018495Y-87543095D01*
X56018495Y-87543095D02*
X55999447Y-87524047D01*
X55999447Y-87524047D02*
X55989923Y-87495476D01*
X55989923Y-87495476D02*
X55989923Y-87476428D01*
X55989923Y-87476428D02*
X55999447Y-87447857D01*
X55999447Y-87447857D02*
X56008971Y-87438333D01*
X55989923Y-87257380D02*
X55989923Y-87352618D01*
X55989923Y-87352618D02*
X56085161Y-87362142D01*
X56085161Y-87362142D02*
X56075638Y-87352618D01*
X56075638Y-87352618D02*
X56066114Y-87333571D01*
X56066114Y-87333571D02*
X56066114Y-87285952D01*
X56066114Y-87285952D02*
X56075638Y-87266904D01*
X56075638Y-87266904D02*
X56085161Y-87257380D01*
X56085161Y-87257380D02*
X56104209Y-87247857D01*
X56104209Y-87247857D02*
X56151828Y-87247857D01*
X56151828Y-87247857D02*
X56170876Y-87257380D01*
X56170876Y-87257380D02*
X56180400Y-87266904D01*
X56180400Y-87266904D02*
X56189923Y-87285952D01*
X56189923Y-87285952D02*
X56189923Y-87333571D01*
X56189923Y-87333571D02*
X56180400Y-87352618D01*
X56180400Y-87352618D02*
X56170876Y-87362142D01*
X68980076Y-54347112D02*
X68818171Y-54347112D01*
X68818171Y-54347112D02*
X68799123Y-54356635D01*
X68799123Y-54356635D02*
X68789600Y-54366159D01*
X68789600Y-54366159D02*
X68780076Y-54385207D01*
X68780076Y-54385207D02*
X68780076Y-54423302D01*
X68780076Y-54423302D02*
X68789600Y-54442350D01*
X68789600Y-54442350D02*
X68799123Y-54451873D01*
X68799123Y-54451873D02*
X68818171Y-54461397D01*
X68818171Y-54461397D02*
X68980076Y-54461397D01*
X68980076Y-54651874D02*
X68980076Y-54556636D01*
X68980076Y-54556636D02*
X68884838Y-54547112D01*
X68884838Y-54547112D02*
X68894361Y-54556636D01*
X68894361Y-54556636D02*
X68903885Y-54575683D01*
X68903885Y-54575683D02*
X68903885Y-54623302D01*
X68903885Y-54623302D02*
X68894361Y-54642350D01*
X68894361Y-54642350D02*
X68884838Y-54651874D01*
X68884838Y-54651874D02*
X68865790Y-54661397D01*
X68865790Y-54661397D02*
X68818171Y-54661397D01*
X68818171Y-54661397D02*
X68799123Y-54651874D01*
X68799123Y-54651874D02*
X68789600Y-54642350D01*
X68789600Y-54642350D02*
X68780076Y-54623302D01*
X68780076Y-54623302D02*
X68780076Y-54575683D01*
X68780076Y-54575683D02*
X68789600Y-54556636D01*
X68789600Y-54556636D02*
X68799123Y-54547112D01*
X69847619Y-52639923D02*
X69847619Y-52801828D01*
X69847619Y-52801828D02*
X69857142Y-52820876D01*
X69857142Y-52820876D02*
X69866666Y-52830400D01*
X69866666Y-52830400D02*
X69885714Y-52839923D01*
X69885714Y-52839923D02*
X69923809Y-52839923D01*
X69923809Y-52839923D02*
X69942857Y-52830400D01*
X69942857Y-52830400D02*
X69952380Y-52820876D01*
X69952380Y-52820876D02*
X69961904Y-52801828D01*
X69961904Y-52801828D02*
X69961904Y-52639923D01*
X70152381Y-52639923D02*
X70057143Y-52639923D01*
X70057143Y-52639923D02*
X70047619Y-52735161D01*
X70047619Y-52735161D02*
X70057143Y-52725638D01*
X70057143Y-52725638D02*
X70076190Y-52716114D01*
X70076190Y-52716114D02*
X70123809Y-52716114D01*
X70123809Y-52716114D02*
X70142857Y-52725638D01*
X70142857Y-52725638D02*
X70152381Y-52735161D01*
X70152381Y-52735161D02*
X70161904Y-52754209D01*
X70161904Y-52754209D02*
X70161904Y-52801828D01*
X70161904Y-52801828D02*
X70152381Y-52820876D01*
X70152381Y-52820876D02*
X70142857Y-52830400D01*
X70142857Y-52830400D02*
X70123809Y-52839923D01*
X70123809Y-52839923D02*
X70076190Y-52839923D01*
X70076190Y-52839923D02*
X70057143Y-52830400D01*
X70057143Y-52830400D02*
X70047619Y-52820876D01*
D14*
X76222266Y-76975619D02*
X76222266Y-77689904D01*
X76222266Y-77689904D02*
X76174647Y-77832761D01*
X76174647Y-77832761D02*
X76079409Y-77928000D01*
X76079409Y-77928000D02*
X75936552Y-77975619D01*
X75936552Y-77975619D02*
X75841314Y-77975619D01*
X76603219Y-76975619D02*
X77222266Y-76975619D01*
X77222266Y-76975619D02*
X76888933Y-77356571D01*
X76888933Y-77356571D02*
X77031790Y-77356571D01*
X77031790Y-77356571D02*
X77127028Y-77404190D01*
X77127028Y-77404190D02*
X77174647Y-77451809D01*
X77174647Y-77451809D02*
X77222266Y-77547047D01*
X77222266Y-77547047D02*
X77222266Y-77785142D01*
X77222266Y-77785142D02*
X77174647Y-77880380D01*
X77174647Y-77880380D02*
X77127028Y-77928000D01*
X77127028Y-77928000D02*
X77031790Y-77975619D01*
X77031790Y-77975619D02*
X76746076Y-77975619D01*
X76746076Y-77975619D02*
X76650838Y-77928000D01*
X76650838Y-77928000D02*
X76603219Y-77880380D01*
D10*
X100580466Y-57824523D02*
X100513800Y-57729285D01*
X100466181Y-57824523D02*
X100466181Y-57624523D01*
X100466181Y-57624523D02*
X100542371Y-57624523D01*
X100542371Y-57624523D02*
X100561419Y-57634047D01*
X100561419Y-57634047D02*
X100570942Y-57643571D01*
X100570942Y-57643571D02*
X100580466Y-57662619D01*
X100580466Y-57662619D02*
X100580466Y-57691190D01*
X100580466Y-57691190D02*
X100570942Y-57710238D01*
X100570942Y-57710238D02*
X100561419Y-57719761D01*
X100561419Y-57719761D02*
X100542371Y-57729285D01*
X100542371Y-57729285D02*
X100466181Y-57729285D01*
X100656657Y-57643571D02*
X100666181Y-57634047D01*
X100666181Y-57634047D02*
X100685228Y-57624523D01*
X100685228Y-57624523D02*
X100732847Y-57624523D01*
X100732847Y-57624523D02*
X100751895Y-57634047D01*
X100751895Y-57634047D02*
X100761419Y-57643571D01*
X100761419Y-57643571D02*
X100770942Y-57662619D01*
X100770942Y-57662619D02*
X100770942Y-57681666D01*
X100770942Y-57681666D02*
X100761419Y-57710238D01*
X100761419Y-57710238D02*
X100647133Y-57824523D01*
X100647133Y-57824523D02*
X100770942Y-57824523D01*
D17*
X55143571Y-53793157D02*
X55136428Y-53800300D01*
X55136428Y-53800300D02*
X55115000Y-53807442D01*
X55115000Y-53807442D02*
X55100714Y-53807442D01*
X55100714Y-53807442D02*
X55079285Y-53800300D01*
X55079285Y-53800300D02*
X55065000Y-53786014D01*
X55065000Y-53786014D02*
X55057857Y-53771728D01*
X55057857Y-53771728D02*
X55050714Y-53743157D01*
X55050714Y-53743157D02*
X55050714Y-53721728D01*
X55050714Y-53721728D02*
X55057857Y-53693157D01*
X55057857Y-53693157D02*
X55065000Y-53678871D01*
X55065000Y-53678871D02*
X55079285Y-53664585D01*
X55079285Y-53664585D02*
X55100714Y-53657442D01*
X55100714Y-53657442D02*
X55115000Y-53657442D01*
X55115000Y-53657442D02*
X55136428Y-53664585D01*
X55136428Y-53664585D02*
X55143571Y-53671728D01*
X55193571Y-53657442D02*
X55286428Y-53657442D01*
X55286428Y-53657442D02*
X55236428Y-53714585D01*
X55236428Y-53714585D02*
X55257857Y-53714585D01*
X55257857Y-53714585D02*
X55272143Y-53721728D01*
X55272143Y-53721728D02*
X55279285Y-53728871D01*
X55279285Y-53728871D02*
X55286428Y-53743157D01*
X55286428Y-53743157D02*
X55286428Y-53778871D01*
X55286428Y-53778871D02*
X55279285Y-53793157D01*
X55279285Y-53793157D02*
X55272143Y-53800300D01*
X55272143Y-53800300D02*
X55257857Y-53807442D01*
X55257857Y-53807442D02*
X55215000Y-53807442D01*
X55215000Y-53807442D02*
X55200714Y-53800300D01*
X55200714Y-53800300D02*
X55193571Y-53793157D01*
X55343571Y-53671728D02*
X55350714Y-53664585D01*
X55350714Y-53664585D02*
X55365000Y-53657442D01*
X55365000Y-53657442D02*
X55400714Y-53657442D01*
X55400714Y-53657442D02*
X55415000Y-53664585D01*
X55415000Y-53664585D02*
X55422142Y-53671728D01*
X55422142Y-53671728D02*
X55429285Y-53686014D01*
X55429285Y-53686014D02*
X55429285Y-53700300D01*
X55429285Y-53700300D02*
X55422142Y-53721728D01*
X55422142Y-53721728D02*
X55336428Y-53807442D01*
X55336428Y-53807442D02*
X55429285Y-53807442D01*
D10*
X75813428Y-52798369D02*
X75803904Y-52807893D01*
X75803904Y-52807893D02*
X75775333Y-52817416D01*
X75775333Y-52817416D02*
X75756285Y-52817416D01*
X75756285Y-52817416D02*
X75727714Y-52807893D01*
X75727714Y-52807893D02*
X75708666Y-52788845D01*
X75708666Y-52788845D02*
X75699143Y-52769797D01*
X75699143Y-52769797D02*
X75689619Y-52731702D01*
X75689619Y-52731702D02*
X75689619Y-52703131D01*
X75689619Y-52703131D02*
X75699143Y-52665035D01*
X75699143Y-52665035D02*
X75708666Y-52645988D01*
X75708666Y-52645988D02*
X75727714Y-52626940D01*
X75727714Y-52626940D02*
X75756285Y-52617416D01*
X75756285Y-52617416D02*
X75775333Y-52617416D01*
X75775333Y-52617416D02*
X75803904Y-52626940D01*
X75803904Y-52626940D02*
X75813428Y-52636464D01*
X75889619Y-52636464D02*
X75899143Y-52626940D01*
X75899143Y-52626940D02*
X75918190Y-52617416D01*
X75918190Y-52617416D02*
X75965809Y-52617416D01*
X75965809Y-52617416D02*
X75984857Y-52626940D01*
X75984857Y-52626940D02*
X75994381Y-52636464D01*
X75994381Y-52636464D02*
X76003904Y-52655512D01*
X76003904Y-52655512D02*
X76003904Y-52674559D01*
X76003904Y-52674559D02*
X75994381Y-52703131D01*
X75994381Y-52703131D02*
X75880095Y-52817416D01*
X75880095Y-52817416D02*
X76003904Y-52817416D01*
X76070571Y-52617416D02*
X76203904Y-52617416D01*
X76203904Y-52617416D02*
X76118190Y-52817416D01*
%TO.C,J2*%
D12*
X53930000Y-99935000D02*
X46910000Y-99935000D01*
X53930000Y-116195000D02*
X46910000Y-116195000D01*
X59760000Y-99705000D02*
X57960000Y-99705000D01*
X63010000Y-99935000D02*
X57210000Y-99935000D01*
X63010000Y-99935000D02*
X63010000Y-116195000D01*
X63010000Y-116195000D02*
X57210000Y-116195000D01*
%TO.C,J1*%
X40450000Y-42739493D02*
X55050000Y-42739493D01*
X40450000Y-51939493D02*
X40450000Y-42739493D01*
X49450000Y-51939493D02*
X40450000Y-51939493D01*
X53550000Y-42499493D02*
X55290000Y-42499493D01*
X55050000Y-42739493D02*
X55050000Y-45539493D01*
X55050000Y-49139493D02*
X55050000Y-51939493D01*
X55050000Y-51939493D02*
X53050000Y-51939493D01*
X55290000Y-42499493D02*
X55290000Y-44239493D01*
%TO.C,K11*%
X102703800Y-69384600D02*
X102703800Y-67194600D01*
X102943800Y-56444600D02*
X102943800Y-69144600D01*
X102943800Y-69144600D02*
X131943800Y-69144600D01*
X104743800Y-62444600D02*
X104743800Y-63144600D01*
X104743800Y-63144600D02*
X105943800Y-63144600D01*
X105043800Y-69384600D02*
X102703800Y-69384600D01*
X105543800Y-63144600D02*
X105143800Y-62444600D01*
X105943800Y-62444600D02*
X104743800Y-62444600D01*
X105943800Y-63144600D02*
X105943800Y-62444600D01*
X131943800Y-56444600D02*
X102943800Y-56444600D01*
X131943800Y-69144600D02*
X131943800Y-56444600D01*
%TO.C,C8*%
D18*
X45011252Y-66265000D02*
X44488748Y-66265000D01*
X45011252Y-67735000D02*
X44488748Y-67735000D01*
%TO.C,C3*%
X66340000Y-81310580D02*
X66340000Y-81029420D01*
X67360000Y-81310580D02*
X67360000Y-81029420D01*
%TO.C,12V*%
X66700000Y-49089493D02*
G75*
G02*
X64800000Y-49089493I-950000J0D01*
G01*
X64800000Y-49089493D02*
G75*
G02*
X66700000Y-49089493I950000J0D01*
G01*
%TO.C,R16*%
D12*
X52512742Y-96227500D02*
X52987258Y-96227500D01*
X52512742Y-97272500D02*
X52987258Y-97272500D01*
%TO.C,C37*%
D18*
X67607836Y-85890000D02*
X67392164Y-85890000D01*
X67607836Y-86610000D02*
X67392164Y-86610000D01*
%TO.C,R17*%
D12*
X52512742Y-94727500D02*
X52987258Y-94727500D01*
X52512742Y-95772500D02*
X52987258Y-95772500D01*
%TO.C,J4*%
D18*
X74110000Y-105084000D02*
X76090000Y-103684000D01*
X74110000Y-106384000D02*
X74110000Y-105084000D01*
X76015000Y-107004000D02*
X76015000Y-106369000D01*
X76090000Y-103684000D02*
X83670000Y-103684000D01*
X76090000Y-107784000D02*
X74110000Y-106384000D01*
X76650000Y-107004000D02*
X76015000Y-107004000D01*
X83670000Y-103684000D02*
X84270000Y-104284000D01*
X83670000Y-107784000D02*
X76090000Y-107784000D01*
X83670000Y-107784000D02*
X84270000Y-107184000D01*
X84270000Y-104284000D02*
X84270000Y-107184000D01*
%TO.C,D6*%
X63950000Y-85735000D02*
X66235000Y-85735000D01*
X66235000Y-84265000D02*
X63950000Y-84265000D01*
X66235000Y-85735000D02*
X66235000Y-84265000D01*
%TO.C,K14*%
D12*
X102703800Y-120845000D02*
X102703800Y-118655000D01*
X102943800Y-107905000D02*
X102943800Y-120605000D01*
X102943800Y-120605000D02*
X131943800Y-120605000D01*
X104743800Y-113905000D02*
X104743800Y-114605000D01*
X104743800Y-114605000D02*
X105943800Y-114605000D01*
X105043800Y-120845000D02*
X102703800Y-120845000D01*
X105543800Y-114605000D02*
X105143800Y-113905000D01*
X105943800Y-113905000D02*
X104743800Y-113905000D01*
X105943800Y-114605000D02*
X105943800Y-113905000D01*
X131943800Y-107905000D02*
X102943800Y-107905000D01*
X131943800Y-120605000D02*
X131943800Y-107905000D01*
%TO.C,J12*%
D18*
X139630000Y-72380000D02*
X147670000Y-72380000D01*
X139630000Y-88120000D02*
X139630000Y-72380000D01*
X143250000Y-73188000D02*
X143250000Y-72380000D01*
X143250000Y-78188000D02*
X143250000Y-76812000D01*
X143250000Y-83120000D02*
X143250000Y-81812000D01*
X143250000Y-88120000D02*
X143250000Y-86880000D01*
X144250000Y-73188000D02*
X144250000Y-72380000D01*
X144250000Y-78188000D02*
X144250000Y-76812000D01*
X144250000Y-83120000D02*
X144250000Y-81812000D01*
X144250000Y-88120000D02*
X144250000Y-86880000D01*
X145550000Y-74457000D02*
X145550000Y-72380000D01*
X145550000Y-79457000D02*
X145550000Y-75543000D01*
X145550000Y-83120000D02*
X145550000Y-80543000D01*
X145550000Y-88120000D02*
X145550000Y-86880000D01*
X147670000Y-72380000D02*
X147670000Y-84700000D01*
X147670000Y-85300000D02*
X147670000Y-88120000D01*
X147670000Y-88120000D02*
X139630000Y-88120000D01*
X147670000Y-85000000D02*
X148280000Y-84560000D01*
X148280000Y-85440000D01*
X147670000Y-85000000D01*
G36*
X148280000Y-85440000D02*
G01*
X147670000Y-85000000D01*
X148280000Y-84560000D01*
X148280000Y-85440000D01*
G37*
%TO.C,R7*%
D12*
X44727500Y-95012742D02*
X44727500Y-95487258D01*
X45772500Y-95012742D02*
X45772500Y-95487258D01*
%TO.C,C10*%
D18*
X64990000Y-46230073D02*
X64990000Y-45948913D01*
X66010000Y-46230073D02*
X66010000Y-45948913D01*
%TO.C,+5V*%
X58700000Y-58750000D02*
G75*
G02*
X57300000Y-58750000I-700000J0D01*
G01*
X57300000Y-58750000D02*
G75*
G02*
X58700000Y-58750000I700000J0D01*
G01*
%TO.C,U3*%
D12*
X46140000Y-84140000D02*
X46590000Y-84140000D01*
X46140000Y-84590000D02*
X46140000Y-84140000D01*
X46140000Y-91360000D02*
X46140000Y-90910000D01*
X46590000Y-91360000D02*
X46140000Y-91360000D01*
X52910000Y-84140000D02*
X53360000Y-84140000D01*
X53360000Y-84140000D02*
X53360000Y-84590000D01*
X53360000Y-90910000D02*
X53360000Y-91360000D01*
X53360000Y-91360000D02*
X52910000Y-91360000D01*
D19*
G36*
X46590000Y-92000000D02*
G01*
X46120000Y-92340000D01*
X46120000Y-91660000D01*
X46590000Y-92000000D01*
G37*
%TO.C,R25*%
D12*
X69732742Y-49876993D02*
X70207258Y-49876993D01*
X69732742Y-50921993D02*
X70207258Y-50921993D01*
%TO.C,R12*%
X76437258Y-62723500D02*
X75962742Y-62723500D01*
X76437258Y-63768500D02*
X75962742Y-63768500D01*
%TO.C,C35*%
X63738748Y-76565000D02*
X64261252Y-76565000D01*
X63738748Y-78035000D02*
X64261252Y-78035000D01*
%TO.C,K12*%
X102551400Y-86545000D02*
X102551400Y-84355000D01*
X102791400Y-73605000D02*
X102791400Y-86305000D01*
X102791400Y-86305000D02*
X131791400Y-86305000D01*
X104591400Y-79605000D02*
X104591400Y-80305000D01*
X104591400Y-80305000D02*
X105791400Y-80305000D01*
X104891400Y-86545000D02*
X102551400Y-86545000D01*
X105391400Y-80305000D02*
X104991400Y-79605000D01*
X105791400Y-79605000D02*
X104591400Y-79605000D01*
X105791400Y-80305000D02*
X105791400Y-79605000D01*
X131791400Y-73605000D02*
X102791400Y-73605000D01*
X131791400Y-86305000D02*
X131791400Y-73605000D01*
%TO.C,C18*%
X49738748Y-66515000D02*
X50261252Y-66515000D01*
X49738748Y-67985000D02*
X50261252Y-67985000D01*
%TO.C,R5*%
X100209942Y-92883700D02*
X100684458Y-92883700D01*
X100209942Y-93928700D02*
X100684458Y-93928700D01*
%TO.C,R9*%
X44412258Y-98227500D02*
X43937742Y-98227500D01*
X44412258Y-99272500D02*
X43937742Y-99272500D01*
%TO.C,3V3 Eth*%
D18*
X47700000Y-69750000D02*
G75*
G02*
X46300000Y-69750000I-700000J0D01*
G01*
X46300000Y-69750000D02*
G75*
G02*
X47700000Y-69750000I700000J0D01*
G01*
%TO.C,R11*%
D12*
X76437258Y-64374500D02*
X75962742Y-64374500D01*
X76437258Y-65419500D02*
X75962742Y-65419500D01*
%TO.C,C34*%
X47988748Y-62515000D02*
X48511252Y-62515000D01*
X47988748Y-63985000D02*
X48511252Y-63985000D01*
%TO.C,U10*%
D20*
X49275000Y-54950002D02*
X49275000Y-61650001D01*
X51875000Y-54950002D02*
X49275000Y-54950002D01*
X51875000Y-54950002D02*
X51875000Y-61650001D01*
X51875000Y-61650001D02*
X49275000Y-61650001D01*
D21*
X53650000Y-61650001D02*
G75*
G02*
X53399998Y-61650001I-125001J0D01*
G01*
X53399998Y-61650001D02*
G75*
G02*
X53650000Y-61650001I125001J0D01*
G01*
%TO.C,R28*%
D12*
X63847500Y-53586751D02*
X63847500Y-53112235D01*
X64892500Y-53586751D02*
X64892500Y-53112235D01*
%TO.C,Y2*%
X48021100Y-76365687D02*
X48021100Y-77134313D01*
X49834665Y-78477200D02*
X51465335Y-78477200D01*
X51465335Y-75022800D02*
X49834665Y-75022800D01*
X53278900Y-77134313D02*
X53278900Y-76365687D01*
%TO.C,C26*%
X73508748Y-50414493D02*
X74031252Y-50414493D01*
X73508748Y-51884493D02*
X74031252Y-51884493D01*
%TO.C,C36*%
D18*
X67627836Y-84603000D02*
X67412164Y-84603000D01*
X67627836Y-85323000D02*
X67412164Y-85323000D01*
%TO.C,R24*%
X49763884Y-80258569D02*
X50071166Y-80258569D01*
X49763884Y-81018569D02*
X50071166Y-81018569D01*
%TO.C,U2*%
D12*
X84786000Y-58123000D02*
X92506000Y-58123000D01*
X84786000Y-58368000D02*
X84786000Y-58123000D01*
X84786000Y-69893000D02*
X84786000Y-69648000D01*
X92506000Y-58123000D02*
X92506000Y-58368000D01*
X92506000Y-69648000D02*
X92506000Y-69893000D01*
X92506000Y-69893000D02*
X84786000Y-69893000D01*
D19*
G36*
X83996000Y-58368000D02*
G01*
X83656000Y-57898000D01*
X84336000Y-57898000D01*
X83996000Y-58368000D01*
G37*
%TO.C,R15*%
D12*
X51037258Y-117427500D02*
X50562742Y-117427500D01*
X51037258Y-118472500D02*
X50562742Y-118472500D01*
%TO.C,U4*%
X61647936Y-45929493D02*
X62852064Y-45929493D01*
X61647936Y-47749493D02*
X62852064Y-47749493D01*
%TO.C,R29*%
X61227500Y-83262742D02*
X61227500Y-83737258D01*
X62272500Y-83262742D02*
X62272500Y-83737258D01*
%TO.C,3V3A*%
D18*
X50450000Y-69500000D02*
G75*
G02*
X49050000Y-69500000I-700000J0D01*
G01*
X49050000Y-69500000D02*
G75*
G02*
X50450000Y-69500000I700000J0D01*
G01*
%TO.C,J10*%
X139380000Y-38880000D02*
X147420000Y-38880000D01*
X139380000Y-54620000D02*
X139380000Y-38880000D01*
X143000000Y-39688000D02*
X143000000Y-38880000D01*
X143000000Y-44688000D02*
X143000000Y-43312000D01*
X143000000Y-49620000D02*
X143000000Y-48312000D01*
X143000000Y-54620000D02*
X143000000Y-53380000D01*
X144000000Y-39688000D02*
X144000000Y-38880000D01*
X144000000Y-44688000D02*
X144000000Y-43312000D01*
X144000000Y-49620000D02*
X144000000Y-48312000D01*
X144000000Y-54620000D02*
X144000000Y-53380000D01*
X145300000Y-40957000D02*
X145300000Y-38880000D01*
X145300000Y-45957000D02*
X145300000Y-42043000D01*
X145300000Y-49620000D02*
X145300000Y-47043000D01*
X145300000Y-54620000D02*
X145300000Y-53380000D01*
X147420000Y-38880000D02*
X147420000Y-51200000D01*
X147420000Y-51800000D02*
X147420000Y-54620000D01*
X147420000Y-54620000D02*
X139380000Y-54620000D01*
X147420000Y-51500000D02*
X148030000Y-51060000D01*
X148030000Y-51940000D01*
X147420000Y-51500000D01*
G36*
X148030000Y-51940000D02*
G01*
X147420000Y-51500000D01*
X148030000Y-51060000D01*
X148030000Y-51940000D01*
G37*
%TO.C,U7*%
D12*
X56899999Y-44314494D02*
X56899999Y-44564493D01*
X56899999Y-46164495D02*
X56899999Y-46414494D01*
X59299999Y-44314494D02*
X59299999Y-45164494D01*
X59299999Y-46164495D02*
X59299999Y-46414494D01*
%TO.C,C30*%
X62385000Y-56538241D02*
X62385000Y-57060745D01*
X63855000Y-56538241D02*
X63855000Y-57060745D01*
%TO.C,D1*%
D18*
X99315000Y-43790000D02*
X99315000Y-45710000D01*
X99315000Y-45710000D02*
X102000000Y-45710000D01*
X102000000Y-43790000D02*
X99315000Y-43790000D01*
D19*
%TO.C,G\u002A\u002A\u002A*%
G36*
X68590325Y-120245926D02*
G01*
X68577392Y-120258859D01*
X68564460Y-120245926D01*
X68577392Y-120232993D01*
X68590325Y-120245926D01*
G37*
G36*
X69055906Y-120892565D02*
G01*
X69042973Y-120905498D01*
X69030040Y-120892565D01*
X69042973Y-120879633D01*
X69055906Y-120892565D01*
G37*
G36*
X69107637Y-120892565D02*
G01*
X69094704Y-120905498D01*
X69081771Y-120892565D01*
X69094704Y-120879633D01*
X69107637Y-120892565D01*
G37*
G36*
X69573217Y-120556313D02*
G01*
X69560284Y-120569246D01*
X69547352Y-120556313D01*
X69560284Y-120543380D01*
X69573217Y-120556313D01*
G37*
G36*
X69047284Y-120267481D02*
G01*
X69043733Y-120282858D01*
X69030040Y-120284724D01*
X69008750Y-120275260D01*
X69012796Y-120267481D01*
X69043493Y-120264385D01*
X69047284Y-120267481D01*
G37*
G36*
X69512743Y-120580208D02*
G01*
X69513115Y-120580350D01*
X69529111Y-120595508D01*
X69511022Y-120620799D01*
X69453742Y-120662023D01*
X69425082Y-120680291D01*
X69336003Y-120737937D01*
X69250800Y-120795980D01*
X69209849Y-120825533D01*
X69126940Y-120887828D01*
X69173795Y-120812600D01*
X69259090Y-120698435D01*
X69348780Y-120618385D01*
X69435715Y-120577345D01*
X69512743Y-120580208D01*
G37*
G36*
X68831429Y-120237884D02*
G01*
X68991242Y-120242775D01*
X68836048Y-120252237D01*
X68749341Y-120260919D01*
X68683597Y-120273726D01*
X68657598Y-120284829D01*
X68637841Y-120323726D01*
X68618618Y-120390397D01*
X68615307Y-120406271D01*
X68596274Y-120504582D01*
X68593300Y-120409433D01*
X68601074Y-120324609D01*
X68635633Y-120271163D01*
X68704245Y-120243860D01*
X68814174Y-120237466D01*
X68831429Y-120237884D01*
G37*
G36*
X68633293Y-120528271D02*
G01*
X68650954Y-120549847D01*
X68696658Y-120586518D01*
X68727129Y-120595111D01*
X68764274Y-120611451D01*
X68819326Y-120653282D01*
X68881447Y-120709823D01*
X68939799Y-120770291D01*
X68983546Y-120823903D01*
X69001850Y-120859878D01*
X68999985Y-120866578D01*
X68976579Y-120856586D01*
X68923003Y-120821641D01*
X68849785Y-120768721D01*
X68831547Y-120754948D01*
X68750491Y-120687792D01*
X68684311Y-120623014D01*
X68646007Y-120573480D01*
X68643933Y-120569246D01*
X68626772Y-120527416D01*
X68633293Y-120528271D01*
G37*
G36*
X69341531Y-120216680D02*
G01*
X69352471Y-120218088D01*
X69430525Y-120229282D01*
X69491906Y-120237626D01*
X69500855Y-120238748D01*
X69532488Y-120248663D01*
X69533131Y-120255836D01*
X69538922Y-120281295D01*
X69562167Y-120312670D01*
X69591419Y-120378384D01*
X69591964Y-120431164D01*
X69583971Y-120475179D01*
X69579250Y-120469843D01*
X69577093Y-120444684D01*
X69549407Y-120344468D01*
X69481675Y-120276734D01*
X69374292Y-120241705D01*
X69227655Y-120239605D01*
X69216770Y-120240615D01*
X69139312Y-120247535D01*
X69109272Y-120247600D01*
X69122696Y-120240019D01*
X69158479Y-120228965D01*
X69245951Y-120215356D01*
X69341531Y-120216680D01*
G37*
G36*
X67659164Y-116072422D02*
G01*
X67896126Y-116110390D01*
X68108661Y-116183317D01*
X68292954Y-116287115D01*
X68445189Y-116417699D01*
X68561550Y-116570984D01*
X68638220Y-116742885D01*
X68671384Y-116929315D01*
X68657225Y-117126191D01*
X68654778Y-117138288D01*
X68579082Y-117389317D01*
X68459889Y-117623320D01*
X68295154Y-117843101D01*
X68082830Y-118051466D01*
X67866089Y-118219804D01*
X67585494Y-118391043D01*
X67295722Y-118516007D01*
X67001178Y-118593649D01*
X66706267Y-118622919D01*
X66415393Y-118602767D01*
X66327087Y-118586397D01*
X66107357Y-118518782D01*
X65908905Y-118417266D01*
X65766839Y-118309485D01*
X66937773Y-118309485D01*
X66967811Y-118360339D01*
X66980193Y-118368600D01*
X67043460Y-118392316D01*
X67117741Y-118388950D01*
X67196190Y-118367099D01*
X67296863Y-118322593D01*
X67379288Y-118266191D01*
X67432836Y-118206844D01*
X67447252Y-118155701D01*
X67415734Y-118089278D01*
X67351984Y-118050845D01*
X67267291Y-118040422D01*
X67172942Y-118058032D01*
X67080225Y-118103698D01*
X67019969Y-118154857D01*
X66955243Y-118240538D01*
X66937773Y-118309485D01*
X65766839Y-118309485D01*
X65737660Y-118287348D01*
X65599551Y-118134528D01*
X65500507Y-117964305D01*
X65446456Y-117782178D01*
X65444308Y-117767657D01*
X65445631Y-117600723D01*
X65490136Y-117418654D01*
X65573778Y-117228300D01*
X66425589Y-117228300D01*
X66448707Y-117287079D01*
X66482530Y-117331628D01*
X66564700Y-117395537D01*
X66667837Y-117415177D01*
X66794136Y-117390603D01*
X66856259Y-117364069D01*
X68073410Y-117364069D01*
X68084389Y-117437164D01*
X68116439Y-117464112D01*
X68166522Y-117443357D01*
X68188965Y-117423326D01*
X68219117Y-117367691D01*
X68221050Y-117304427D01*
X68197186Y-117253784D01*
X68166643Y-117236728D01*
X68112251Y-117247698D01*
X68080490Y-117302288D01*
X68073410Y-117364069D01*
X66856259Y-117364069D01*
X66906723Y-117342515D01*
X67006544Y-117278778D01*
X67094396Y-117198921D01*
X67159712Y-117114802D01*
X67191930Y-117038280D01*
X67193584Y-117020496D01*
X67175185Y-116939688D01*
X67129190Y-116859647D01*
X67069397Y-116802237D01*
X67049467Y-116792165D01*
X66959530Y-116780631D01*
X66846465Y-116797901D01*
X66725654Y-116838240D01*
X66612483Y-116895912D01*
X66522335Y-116965183D01*
X66492523Y-116999796D01*
X66455384Y-117071673D01*
X66430162Y-117155266D01*
X66429844Y-117157035D01*
X66425589Y-117228300D01*
X65573778Y-117228300D01*
X65573972Y-117227858D01*
X65693288Y-117034743D01*
X65844234Y-116845718D01*
X66022960Y-116667192D01*
X66184826Y-116535143D01*
X66475268Y-116344320D01*
X66765854Y-116203937D01*
X67060303Y-116112826D01*
X67362335Y-116069821D01*
X67659164Y-116072422D01*
G37*
G36*
X71769428Y-116180839D02*
G01*
X71938334Y-116193922D01*
X71965122Y-116197688D01*
X72250433Y-116261629D01*
X72525474Y-116362472D01*
X72784228Y-116495642D01*
X73020677Y-116656567D01*
X73228804Y-116840675D01*
X73402592Y-117043392D01*
X73536022Y-117260145D01*
X73612447Y-117449510D01*
X73647897Y-117625696D01*
X73655222Y-117817218D01*
X73635214Y-118004645D01*
X73588667Y-118168547D01*
X73582531Y-118183015D01*
X73522053Y-118282994D01*
X73428234Y-118394562D01*
X73313596Y-118505377D01*
X73190661Y-118603097D01*
X73095236Y-118663289D01*
X72915512Y-118738824D01*
X72704038Y-118791104D01*
X72476429Y-118817671D01*
X72248299Y-118816071D01*
X72171985Y-118808499D01*
X71928720Y-118764242D01*
X71668659Y-118692481D01*
X71515776Y-118639323D01*
X71268949Y-118523843D01*
X71166222Y-118457331D01*
X72143588Y-118457331D01*
X72146821Y-118474065D01*
X72191509Y-118538356D01*
X72270422Y-118589294D01*
X72366646Y-118621349D01*
X72463269Y-118628992D01*
X72543378Y-118606695D01*
X72546564Y-118604748D01*
X72569907Y-118581188D01*
X72563925Y-118545593D01*
X72547512Y-118512471D01*
X72502346Y-118458242D01*
X72430675Y-118400324D01*
X72350636Y-118350861D01*
X72280365Y-118321999D01*
X72258508Y-118318940D01*
X72201422Y-118341304D01*
X72158085Y-118394421D01*
X72143588Y-118457331D01*
X71166222Y-118457331D01*
X71031128Y-118369863D01*
X70811656Y-118185787D01*
X70619872Y-117980017D01*
X70465118Y-117760958D01*
X70396641Y-117632482D01*
X70351215Y-117525852D01*
X70323549Y-117430318D01*
X70308258Y-117322765D01*
X70301934Y-117225851D01*
X70300365Y-117181507D01*
X71050318Y-117181507D01*
X71052108Y-117217663D01*
X71063161Y-117322198D01*
X71084989Y-117396697D01*
X71124803Y-117462733D01*
X71141089Y-117483813D01*
X71220727Y-117564161D01*
X71312958Y-117628526D01*
X71401150Y-117666453D01*
X71440788Y-117672260D01*
X71497771Y-117661804D01*
X71547875Y-117643578D01*
X71618283Y-117592378D01*
X71640860Y-117544674D01*
X73146139Y-117544674D01*
X73153725Y-117609374D01*
X73184846Y-117658458D01*
X73231326Y-117670137D01*
X73274208Y-117645718D01*
X73293380Y-117599747D01*
X73284831Y-117530836D01*
X73246881Y-117480320D01*
X73203352Y-117465376D01*
X73162452Y-117487158D01*
X73146139Y-117544674D01*
X71640860Y-117544674D01*
X71655298Y-117514167D01*
X71661581Y-117401751D01*
X71656601Y-117349665D01*
X71616198Y-117205303D01*
X71538703Y-117086436D01*
X71431693Y-117000265D01*
X71302749Y-116953992D01*
X71233908Y-116948064D01*
X71143538Y-116959360D01*
X71085778Y-116997640D01*
X71056186Y-117069493D01*
X71050318Y-117181507D01*
X70300365Y-117181507D01*
X70297917Y-117112315D01*
X70301146Y-117031733D01*
X70314998Y-116965472D01*
X70342850Y-116894900D01*
X70373560Y-116830776D01*
X70489793Y-116649615D01*
X70646333Y-116488352D01*
X70833042Y-116355411D01*
X71039784Y-116259216D01*
X71075741Y-116247265D01*
X71216699Y-116214806D01*
X71391024Y-116192261D01*
X71581129Y-116180612D01*
X71769428Y-116180839D01*
G37*
G36*
X72523487Y-113317698D02*
G01*
X72620650Y-113363570D01*
X72636618Y-113377045D01*
X72689330Y-113448123D01*
X72736925Y-113548162D01*
X72770259Y-113654548D01*
X72780549Y-113732962D01*
X72801477Y-113790342D01*
X72851680Y-113822278D01*
X73164889Y-113962775D01*
X73440800Y-114118876D01*
X73689190Y-114298210D01*
X73919834Y-114508409D01*
X74142510Y-114757103D01*
X74287570Y-114942962D01*
X74449937Y-115190047D01*
X74600426Y-115476194D01*
X74733927Y-115789179D01*
X74845331Y-116116776D01*
X74929527Y-116446761D01*
X74941956Y-116508350D01*
X74981400Y-116810020D01*
X74991425Y-117140921D01*
X74973275Y-117488623D01*
X74928195Y-117840692D01*
X74857432Y-118184699D01*
X74762230Y-118508212D01*
X74733694Y-118587259D01*
X74687803Y-118701456D01*
X74630405Y-118833000D01*
X74567549Y-118969159D01*
X74505285Y-119097203D01*
X74449660Y-119204401D01*
X74406725Y-119278021D01*
X74402513Y-119284285D01*
X74375465Y-119343260D01*
X74344743Y-119442844D01*
X74313361Y-119572351D01*
X74293142Y-119672268D01*
X74250541Y-119877002D01*
X74200547Y-120069699D01*
X74140108Y-120256998D01*
X74066172Y-120445537D01*
X73975689Y-120641955D01*
X73865606Y-120852889D01*
X73732873Y-121084979D01*
X73574437Y-121344862D01*
X73393342Y-121629734D01*
X73195889Y-121934806D01*
X73022909Y-122199642D01*
X72871634Y-122427983D01*
X72739293Y-122623570D01*
X72623119Y-122790143D01*
X72520341Y-122931443D01*
X72428191Y-123051213D01*
X72343900Y-123153191D01*
X72264698Y-123241120D01*
X72187816Y-123318740D01*
X72110486Y-123389792D01*
X72055882Y-123436557D01*
X71878105Y-123569950D01*
X71720144Y-123656303D01*
X71581194Y-123696021D01*
X71535888Y-123698981D01*
X71467178Y-123693639D01*
X71413693Y-123670958D01*
X71356300Y-123620952D01*
X71326888Y-123589898D01*
X71151098Y-123366994D01*
X70992152Y-123097104D01*
X70849546Y-122779306D01*
X70778402Y-122585247D01*
X70723554Y-122437698D01*
X70671472Y-122331762D01*
X70615136Y-122258255D01*
X70547525Y-122207993D01*
X70462633Y-122172128D01*
X70420030Y-122163474D01*
X70361739Y-122163102D01*
X70279401Y-122171954D01*
X70164656Y-122190974D01*
X70009144Y-122221108D01*
X69984120Y-122226171D01*
X69657651Y-122281410D01*
X69336791Y-122314574D01*
X69034305Y-122324826D01*
X68762958Y-122311333D01*
X68732586Y-122308019D01*
X68525661Y-122283926D01*
X68406293Y-122383096D01*
X68286461Y-122473556D01*
X68145328Y-122566251D01*
X68001382Y-122649914D01*
X67873112Y-122713278D01*
X67846166Y-122724429D01*
X67691800Y-122762514D01*
X67542662Y-122752477D01*
X67397140Y-122693526D01*
X67253621Y-122584867D01*
X67110491Y-122425706D01*
X67038729Y-122327173D01*
X66930334Y-122187857D01*
X66801987Y-122061236D01*
X66640901Y-121935177D01*
X66583272Y-121894966D01*
X66487013Y-121820678D01*
X66367233Y-121715045D01*
X66232879Y-121586995D01*
X66092896Y-121445457D01*
X65956230Y-121299359D01*
X65831828Y-121157631D01*
X65773299Y-121086557D01*
X65586111Y-120821071D01*
X65416678Y-120518087D01*
X65270644Y-120190402D01*
X65153653Y-119850812D01*
X65071349Y-119512113D01*
X65065975Y-119482891D01*
X65038360Y-119299708D01*
X65021471Y-119111682D01*
X65013895Y-118900116D01*
X65013151Y-118784521D01*
X65013219Y-118780960D01*
X65083933Y-118780960D01*
X65086863Y-118989461D01*
X65094440Y-119187994D01*
X65106565Y-119364612D01*
X65123141Y-119507372D01*
X65132676Y-119560488D01*
X65227274Y-119918339D01*
X65355357Y-120265281D01*
X65511784Y-120589548D01*
X65691412Y-120879372D01*
X65735116Y-120939453D01*
X65843717Y-121076227D01*
X65973729Y-121227456D01*
X66115494Y-121382951D01*
X66259354Y-121532524D01*
X66395651Y-121665987D01*
X66514728Y-121773150D01*
X66561044Y-121810794D01*
X66752065Y-121966599D01*
X66897177Y-122102457D01*
X66997659Y-122219615D01*
X67029229Y-122267542D01*
X67094284Y-122358671D01*
X67183732Y-122458002D01*
X67285712Y-122554791D01*
X67388359Y-122638300D01*
X67479810Y-122697786D01*
X67527101Y-122718325D01*
X67653698Y-122733994D01*
X67796730Y-122708841D01*
X67958923Y-122641848D01*
X68143003Y-122531996D01*
X68272067Y-122439852D01*
X68349876Y-122382755D01*
X68403517Y-122341836D01*
X68429138Y-122312575D01*
X68422892Y-122290455D01*
X68380928Y-122270956D01*
X68299399Y-122249562D01*
X68174455Y-122221753D01*
X68065635Y-122197532D01*
X67960635Y-122172769D01*
X67878738Y-122151539D01*
X67830146Y-122136604D01*
X67821372Y-122131410D01*
X67848590Y-122132450D01*
X67917550Y-122141254D01*
X68019070Y-122156485D01*
X68143967Y-122176809D01*
X68203801Y-122186993D01*
X68511824Y-122233231D01*
X68800754Y-122260870D01*
X69083077Y-122269731D01*
X69371282Y-122259638D01*
X69677854Y-122230412D01*
X70015283Y-122181876D01*
X70148382Y-122159351D01*
X70315124Y-122135516D01*
X70442430Y-122130857D01*
X70539240Y-122146222D01*
X70614493Y-122182459D01*
X70644362Y-122206397D01*
X70679606Y-122254415D01*
X70726277Y-122340808D01*
X70779076Y-122454999D01*
X70825991Y-122569026D01*
X70916418Y-122792721D01*
X70999784Y-122979160D01*
X71082355Y-123141072D01*
X71170397Y-123291189D01*
X71217633Y-123364598D01*
X71311962Y-123500677D01*
X71390947Y-123594336D01*
X71462735Y-123649247D01*
X71535473Y-123669080D01*
X71617309Y-123657505D01*
X71716389Y-123618193D01*
X71747314Y-123603221D01*
X71840717Y-123544075D01*
X71956706Y-123450738D01*
X72087584Y-123330957D01*
X72225654Y-123192484D01*
X72363220Y-123043065D01*
X72492585Y-122890452D01*
X72606052Y-122742392D01*
X72615599Y-122729022D01*
X72703873Y-122600942D01*
X72805255Y-122448203D01*
X72906676Y-122290765D01*
X72988146Y-122159979D01*
X73062029Y-122039924D01*
X73131396Y-121929365D01*
X73189382Y-121839102D01*
X73229119Y-121779933D01*
X73234854Y-121771995D01*
X73277282Y-121709311D01*
X73339479Y-121610250D01*
X73416242Y-121483740D01*
X73502371Y-121338711D01*
X73592666Y-121184092D01*
X73681926Y-121028812D01*
X73764949Y-120881800D01*
X73836536Y-120751986D01*
X73891486Y-120648299D01*
X73905260Y-120620977D01*
X74062583Y-120259505D01*
X74180501Y-119888035D01*
X74260762Y-119498593D01*
X74305109Y-119083207D01*
X74315867Y-118745722D01*
X74315055Y-118580856D01*
X74310751Y-118430607D01*
X74301924Y-118284537D01*
X74287546Y-118132205D01*
X74266585Y-117963171D01*
X74238013Y-117766994D01*
X74200799Y-117533235D01*
X74189455Y-117464247D01*
X74137551Y-117191630D01*
X74071499Y-116910671D01*
X73993897Y-116628621D01*
X73907345Y-116352730D01*
X73814443Y-116090248D01*
X73717789Y-115848424D01*
X73619983Y-115634509D01*
X73523624Y-115455751D01*
X73431312Y-115319402D01*
X73412127Y-115296189D01*
X73314655Y-115183316D01*
X73105800Y-115201026D01*
X72810911Y-115240921D01*
X72486751Y-115312143D01*
X72143394Y-115412434D01*
X72102031Y-115426098D01*
X71794472Y-115528929D01*
X71427480Y-115436757D01*
X71129394Y-115367704D01*
X70838381Y-115313081D01*
X70543802Y-115271757D01*
X70235018Y-115242602D01*
X69901392Y-115224486D01*
X69532285Y-115216277D01*
X69345485Y-115215519D01*
X69085475Y-115217294D01*
X68861702Y-115222872D01*
X68658741Y-115233310D01*
X68461171Y-115249664D01*
X68253568Y-115272993D01*
X68020510Y-115304353D01*
X67993865Y-115308165D01*
X67694858Y-115351135D01*
X67386024Y-115271826D01*
X67193209Y-115226377D01*
X66990650Y-115185720D01*
X66791459Y-115151963D01*
X66608749Y-115127219D01*
X66455633Y-115113597D01*
X66390603Y-115111608D01*
X66305869Y-115116469D01*
X66248531Y-115137553D01*
X66194661Y-115184611D01*
X66184333Y-115195671D01*
X66092317Y-115308679D01*
X65991019Y-115454712D01*
X65890081Y-115618649D01*
X65799144Y-115785370D01*
X65768386Y-115848058D01*
X65704988Y-115996431D01*
X65634201Y-116186839D01*
X65558555Y-116410544D01*
X65480578Y-116658809D01*
X65402800Y-116922899D01*
X65327748Y-117194074D01*
X65257952Y-117463599D01*
X65195941Y-117722736D01*
X65144242Y-117962748D01*
X65120629Y-118086150D01*
X65103997Y-118215084D01*
X65092403Y-118381826D01*
X65085747Y-118574433D01*
X65083933Y-118780960D01*
X65013219Y-118780960D01*
X65017598Y-118550112D01*
X65031671Y-118330232D01*
X65057176Y-118114513D01*
X65095917Y-117892591D01*
X65149701Y-117654102D01*
X65220333Y-117388679D01*
X65308287Y-117090325D01*
X65351603Y-116947924D01*
X65394484Y-116806137D01*
X65432084Y-116681036D01*
X65459557Y-116588690D01*
X65460364Y-116585946D01*
X65491800Y-116479159D01*
X65530548Y-116347654D01*
X65569271Y-116216328D01*
X65577087Y-116189834D01*
X65648862Y-115983863D01*
X65742280Y-115771647D01*
X65849898Y-115567242D01*
X65964269Y-115384702D01*
X66077946Y-115238084D01*
X66085974Y-115229214D01*
X66241140Y-115059877D01*
X66478105Y-115060828D01*
X66612513Y-115065642D01*
X66754008Y-115077531D01*
X66875935Y-115094129D01*
X66896130Y-115097906D01*
X67077189Y-115134034D01*
X67083482Y-115127228D01*
X67132674Y-115127228D01*
X67392036Y-115211064D01*
X67512090Y-115248756D01*
X67598511Y-115271449D01*
X67666502Y-115281207D01*
X67731265Y-115280096D01*
X67808005Y-115270181D01*
X67816941Y-115268782D01*
X67999005Y-115244370D01*
X68219961Y-115221667D01*
X68466977Y-115201531D01*
X68727220Y-115184817D01*
X68987859Y-115172382D01*
X69236061Y-115165082D01*
X69394868Y-115163487D01*
X69813777Y-115168945D01*
X70191405Y-115186325D01*
X70537061Y-115216746D01*
X70860057Y-115261327D01*
X71169702Y-115321187D01*
X71475306Y-115397446D01*
X71573779Y-115425499D01*
X71750817Y-115477373D01*
X72039359Y-115375381D01*
X72338635Y-115278064D01*
X72605379Y-115210000D01*
X72848376Y-115169313D01*
X73074304Y-115154155D01*
X73329261Y-115150407D01*
X73441922Y-115274703D01*
X73532624Y-115394250D01*
X73629065Y-115555882D01*
X73727634Y-115750804D01*
X73824717Y-115970223D01*
X73916700Y-116205343D01*
X73999972Y-116447372D01*
X74070918Y-116687514D01*
X74125926Y-116916977D01*
X74134732Y-116960997D01*
X74157889Y-117080933D01*
X74186245Y-117227462D01*
X74215120Y-117376397D01*
X74227375Y-117439510D01*
X74308419Y-117935189D01*
X74354202Y-118411892D01*
X74366629Y-118790987D01*
X74367919Y-118934159D01*
X74370048Y-119057374D01*
X74372785Y-119152171D01*
X74375901Y-119210089D01*
X74378367Y-119224236D01*
X74392445Y-119202326D01*
X74423537Y-119142828D01*
X74466902Y-119055091D01*
X74512789Y-118959113D01*
X74684855Y-118551112D01*
X74810776Y-118151752D01*
X74892788Y-117751353D01*
X74933127Y-117340238D01*
X74938375Y-117116191D01*
X74933889Y-116873917D01*
X74918753Y-116664110D01*
X74890058Y-116468437D01*
X74844899Y-116268567D01*
X74780369Y-116046165D01*
X74757213Y-115973593D01*
X74604075Y-115579617D01*
X74407833Y-115211477D01*
X74166665Y-114866300D01*
X73878747Y-114541211D01*
X73798325Y-114461852D01*
X73538569Y-114243964D01*
X73242931Y-114055921D01*
X72909710Y-113897033D01*
X72537208Y-113766614D01*
X72123722Y-113663972D01*
X71667552Y-113588421D01*
X71629531Y-113583573D01*
X71498585Y-113571793D01*
X71328675Y-113563251D01*
X71145043Y-113558300D01*
X71954297Y-113558300D01*
X71983189Y-113580592D01*
X72056016Y-113599979D01*
X72101814Y-113608708D01*
X72216466Y-113632465D01*
X72351774Y-113665030D01*
X72479102Y-113699497D01*
X72483095Y-113700662D01*
X72580487Y-113728838D01*
X72658395Y-113750747D01*
X72703842Y-113762760D01*
X72709419Y-113763923D01*
X72723588Y-113743747D01*
X72728818Y-113697168D01*
X72713435Y-113611087D01*
X72674077Y-113517798D01*
X72620930Y-113436181D01*
X72564180Y-113385113D01*
X72559093Y-113382592D01*
X72434133Y-113353980D01*
X72289458Y-113372647D01*
X72140590Y-113431091D01*
X72032060Y-113487840D01*
X71970275Y-113528813D01*
X71954297Y-113558300D01*
X71145043Y-113558300D01*
X71132469Y-113557961D01*
X70922634Y-113555938D01*
X70711837Y-113557198D01*
X70512744Y-113561754D01*
X70338024Y-113569623D01*
X70200343Y-113580820D01*
X70191231Y-113581869D01*
X69889076Y-113628739D01*
X69569376Y-113698153D01*
X69246917Y-113785817D01*
X68936486Y-113887441D01*
X68652870Y-113998730D01*
X68482584Y-114077882D01*
X68209511Y-114227455D01*
X67956923Y-114393426D01*
X67710938Y-114585815D01*
X67457670Y-114814641D01*
X67445706Y-114826122D01*
X67132674Y-115127228D01*
X67083482Y-115127228D01*
X67267480Y-114928230D01*
X67587542Y-114619095D01*
X67944288Y-114342309D01*
X68330893Y-114102236D01*
X68740534Y-113903239D01*
X69055906Y-113784523D01*
X69299290Y-113711071D01*
X69562700Y-113643839D01*
X69826369Y-113587308D01*
X70070530Y-113545962D01*
X70157224Y-113534802D01*
X70295807Y-113523322D01*
X70473023Y-113515211D01*
X70675885Y-113510465D01*
X70891406Y-113509079D01*
X71106596Y-113511049D01*
X71308470Y-113516370D01*
X71484039Y-113525037D01*
X71605607Y-113535331D01*
X71719709Y-113547536D01*
X71795161Y-113552395D01*
X71844719Y-113548334D01*
X71881143Y-113533779D01*
X71917188Y-113507156D01*
X71931595Y-113495100D01*
X72002885Y-113443316D01*
X72094235Y-113387328D01*
X72142213Y-113361474D01*
X72269558Y-113316186D01*
X72401553Y-113301748D01*
X72523487Y-113317698D01*
G37*
%TO.C,+3v3_ETH*%
D18*
X44200000Y-63750000D02*
G75*
G02*
X42800000Y-63750000I-700000J0D01*
G01*
X42800000Y-63750000D02*
G75*
G02*
X44200000Y-63750000I700000J0D01*
G01*
%TO.C,C31*%
D12*
X60135000Y-56538241D02*
X60135000Y-57060745D01*
X61605000Y-56538241D02*
X61605000Y-57060745D01*
%TO.C,L3*%
X66346700Y-58476193D02*
X66346700Y-63022793D01*
X66346700Y-63022793D02*
X70893300Y-63022793D01*
X70893300Y-58476193D02*
X66346700Y-58476193D01*
X70893300Y-63022793D02*
X70893300Y-58476193D01*
%TO.C,J13*%
D18*
X139630000Y-89380000D02*
X147670000Y-89380000D01*
X139630000Y-105120000D02*
X139630000Y-89380000D01*
X143250000Y-90188000D02*
X143250000Y-89380000D01*
X143250000Y-95188000D02*
X143250000Y-93812000D01*
X143250000Y-100120000D02*
X143250000Y-98812000D01*
X143250000Y-105120000D02*
X143250000Y-103880000D01*
X144250000Y-90188000D02*
X144250000Y-89380000D01*
X144250000Y-95188000D02*
X144250000Y-93812000D01*
X144250000Y-100120000D02*
X144250000Y-98812000D01*
X144250000Y-105120000D02*
X144250000Y-103880000D01*
X145550000Y-91457000D02*
X145550000Y-89380000D01*
X145550000Y-96457000D02*
X145550000Y-92543000D01*
X145550000Y-100120000D02*
X145550000Y-97543000D01*
X145550000Y-105120000D02*
X145550000Y-103880000D01*
X147670000Y-89380000D02*
X147670000Y-101700000D01*
X147670000Y-102300000D02*
X147670000Y-105120000D01*
X147670000Y-105120000D02*
X139630000Y-105120000D01*
X147670000Y-102000000D02*
X148280000Y-101560000D01*
X148280000Y-102440000D01*
X147670000Y-102000000D01*
G36*
X148280000Y-102440000D02*
G01*
X147670000Y-102000000D01*
X148280000Y-101560000D01*
X148280000Y-102440000D01*
G37*
%TO.C,SW5*%
X76500000Y-113500000D02*
X76500000Y-115000000D01*
X77750000Y-117500000D02*
X82250000Y-117500000D01*
X82250000Y-111000000D02*
X77750000Y-111000000D01*
X83500000Y-115000000D02*
X83500000Y-113500000D01*
%TO.C,R10*%
D12*
X76437258Y-66025500D02*
X75962742Y-66025500D01*
X76437258Y-67070500D02*
X75962742Y-67070500D01*
%TO.C,C2*%
D18*
X64590000Y-81310580D02*
X64590000Y-81029420D01*
X65610000Y-81310580D02*
X65610000Y-81029420D01*
%TO.C,C33*%
X60515000Y-65054913D02*
X60515000Y-64532409D01*
X61985000Y-65054913D02*
X61985000Y-64532409D01*
%TO.C,C4*%
X67990000Y-81310580D02*
X67990000Y-81029420D01*
X69010000Y-81310580D02*
X69010000Y-81029420D01*
%TO.C,R8*%
D12*
X46227500Y-95012742D02*
X46227500Y-95487258D01*
X47272500Y-95012742D02*
X47272500Y-95487258D01*
%TO.C,K13*%
X102602200Y-103776200D02*
X102602200Y-101586200D01*
X102842200Y-90836200D02*
X102842200Y-103536200D01*
X102842200Y-103536200D02*
X131842200Y-103536200D01*
X104642200Y-96836200D02*
X104642200Y-97536200D01*
X104642200Y-97536200D02*
X105842200Y-97536200D01*
X104942200Y-103776200D02*
X102602200Y-103776200D01*
X105442200Y-97536200D02*
X105042200Y-96836200D01*
X105842200Y-96836200D02*
X104642200Y-96836200D01*
X105842200Y-97536200D02*
X105842200Y-96836200D01*
X131842200Y-90836200D02*
X102842200Y-90836200D01*
X131842200Y-103536200D02*
X131842200Y-90836200D01*
%TO.C,D3*%
D18*
X99045000Y-77290000D02*
X99045000Y-79210000D01*
X99045000Y-79210000D02*
X101730000Y-79210000D01*
X101730000Y-77290000D02*
X99045000Y-77290000D01*
%TO.C,U1*%
D12*
X70140000Y-97950000D02*
X70140000Y-98850000D01*
X70140000Y-98850000D02*
X72825000Y-98850000D01*
X70450000Y-79430000D02*
X88360000Y-79430000D01*
X85675000Y-98850000D02*
X88360000Y-98850000D01*
X88360000Y-79430000D02*
X88360000Y-80020000D01*
X88360000Y-97950000D02*
X88360000Y-98850000D01*
D19*
G36*
X70140000Y-79990000D02*
G01*
X69640000Y-79990000D01*
X70140000Y-79490000D01*
X70140000Y-79990000D01*
G37*
%TO.C,J14*%
D18*
X139593200Y-106880000D02*
X147633200Y-106880000D01*
X139593200Y-122620000D02*
X139593200Y-106880000D01*
X143213200Y-107688000D02*
X143213200Y-106880000D01*
X143213200Y-112688000D02*
X143213200Y-111312000D01*
X143213200Y-117620000D02*
X143213200Y-116312000D01*
X143213200Y-122620000D02*
X143213200Y-121380000D01*
X144213200Y-107688000D02*
X144213200Y-106880000D01*
X144213200Y-112688000D02*
X144213200Y-111312000D01*
X144213200Y-117620000D02*
X144213200Y-116312000D01*
X144213200Y-122620000D02*
X144213200Y-121380000D01*
X145513200Y-108957000D02*
X145513200Y-106880000D01*
X145513200Y-113957000D02*
X145513200Y-110043000D01*
X145513200Y-117620000D02*
X145513200Y-115043000D01*
X145513200Y-122620000D02*
X145513200Y-121380000D01*
X147633200Y-106880000D02*
X147633200Y-119200000D01*
X147633200Y-119800000D02*
X147633200Y-122620000D01*
X147633200Y-122620000D02*
X139593200Y-122620000D01*
X147633200Y-119500000D02*
X148243200Y-119060000D01*
X148243200Y-119940000D01*
X147633200Y-119500000D01*
G36*
X148243200Y-119940000D02*
G01*
X147633200Y-119500000D01*
X148243200Y-119060000D01*
X148243200Y-119940000D01*
G37*
%TO.C,R1*%
D12*
X100884542Y-42297100D02*
X101359058Y-42297100D01*
X100884542Y-43342100D02*
X101359058Y-43342100D01*
%TO.C,R3*%
X100224142Y-75698300D02*
X100698658Y-75698300D01*
X100224142Y-76743300D02*
X100698658Y-76743300D01*
%TO.C,3V3 MCU*%
D18*
X63742800Y-80162400D02*
G75*
G02*
X62342800Y-80162400I-700000J0D01*
G01*
X62342800Y-80162400D02*
G75*
G02*
X63742800Y-80162400I700000J0D01*
G01*
%TO.C,K10*%
D12*
X102957800Y-53128600D02*
X102957800Y-50938600D01*
X103197800Y-40188600D02*
X103197800Y-52888600D01*
X103197800Y-52888600D02*
X132197800Y-52888600D01*
X104997800Y-46188600D02*
X104997800Y-46888600D01*
X104997800Y-46888600D02*
X106197800Y-46888600D01*
X105297800Y-53128600D02*
X102957800Y-53128600D01*
X105797800Y-46888600D02*
X105397800Y-46188600D01*
X106197800Y-46188600D02*
X104997800Y-46188600D01*
X106197800Y-46888600D02*
X106197800Y-46188600D01*
X132197800Y-40188600D02*
X103197800Y-40188600D01*
X132197800Y-52888600D02*
X132197800Y-40188600D01*
%TO.C,U9*%
D20*
X63071202Y-68088000D02*
X63071202Y-70688000D01*
X63071202Y-68088000D02*
X69771201Y-68088000D01*
X63071202Y-70688000D02*
X69771201Y-70688000D01*
X69771201Y-68088000D02*
X69771201Y-70688000D01*
D21*
X69896202Y-66438001D02*
G75*
G02*
X69646200Y-66438001I-125001J0D01*
G01*
X69646200Y-66438001D02*
G75*
G02*
X69896202Y-66438001I125001J0D01*
G01*
%TO.C,R23*%
D18*
X46620000Y-77653641D02*
X46620000Y-77346359D01*
X47380000Y-77653641D02*
X47380000Y-77346359D01*
%TO.C,D5*%
X99065000Y-111790000D02*
X99065000Y-113710000D01*
X99065000Y-113710000D02*
X101750000Y-113710000D01*
X101750000Y-111790000D02*
X99065000Y-111790000D01*
%TO.C,C29*%
D12*
X64610000Y-56608913D02*
X64610000Y-56890073D01*
X65630000Y-56608913D02*
X65630000Y-56890073D01*
%TO.C,C1*%
X63738748Y-74465000D02*
X64261252Y-74465000D01*
X63738748Y-75935000D02*
X64261252Y-75935000D01*
%TO.C,C24*%
X73488748Y-48104493D02*
X74011252Y-48104493D01*
X73488748Y-49574493D02*
X74011252Y-49574493D01*
%TO.C,D2*%
D18*
X99065000Y-60540000D02*
X99065000Y-62460000D01*
X99065000Y-62460000D02*
X101750000Y-62460000D01*
X101750000Y-60540000D02*
X99065000Y-60540000D01*
%TO.C,R14*%
D12*
X76437258Y-59421500D02*
X75962742Y-59421500D01*
X76437258Y-60466500D02*
X75962742Y-60466500D01*
%TO.C,R13*%
X76437258Y-61072500D02*
X75962742Y-61072500D01*
X76437258Y-62117500D02*
X75962742Y-62117500D01*
%TO.C,D4*%
D18*
X98815000Y-94540000D02*
X98815000Y-96460000D01*
X98815000Y-96460000D02*
X101500000Y-96460000D01*
X101500000Y-94540000D02*
X98815000Y-94540000D01*
%TO.C,C28*%
D12*
X71360002Y-55958913D02*
X71360002Y-56240073D01*
X72380002Y-55958913D02*
X72380002Y-56240073D01*
%TO.C,C9*%
D18*
X66590000Y-39929493D02*
X68940000Y-39929493D01*
X66590000Y-45685056D02*
X66590000Y-39929493D01*
X67654437Y-46749493D02*
X66590000Y-45685056D01*
X67654437Y-46749493D02*
X68940000Y-46749493D01*
X72345563Y-46749493D02*
X71060000Y-46749493D01*
X72345563Y-46749493D02*
X73410000Y-45685056D01*
X73410000Y-39929493D02*
X71060000Y-39929493D01*
X73410000Y-45685056D02*
X73410000Y-39929493D01*
%TO.C,J11*%
X139651100Y-55880000D02*
X147691100Y-55880000D01*
X139651100Y-71620000D02*
X139651100Y-55880000D01*
X143271100Y-56688000D02*
X143271100Y-55880000D01*
X143271100Y-61688000D02*
X143271100Y-60312000D01*
X143271100Y-66620000D02*
X143271100Y-65312000D01*
X143271100Y-71620000D02*
X143271100Y-70380000D01*
X144271100Y-56688000D02*
X144271100Y-55880000D01*
X144271100Y-61688000D02*
X144271100Y-60312000D01*
X144271100Y-66620000D02*
X144271100Y-65312000D01*
X144271100Y-71620000D02*
X144271100Y-70380000D01*
X145571100Y-57957000D02*
X145571100Y-55880000D01*
X145571100Y-62957000D02*
X145571100Y-59043000D01*
X145571100Y-66620000D02*
X145571100Y-64043000D01*
X145571100Y-71620000D02*
X145571100Y-70380000D01*
X147691100Y-55880000D02*
X147691100Y-68200000D01*
X147691100Y-68800000D02*
X147691100Y-71620000D01*
X147691100Y-71620000D02*
X139651100Y-71620000D01*
X147691100Y-68500000D02*
X148301100Y-68060000D01*
X148301100Y-68940000D01*
X147691100Y-68500000D01*
G36*
X148301100Y-68940000D02*
G01*
X147691100Y-68500000D01*
X148301100Y-68060000D01*
X148301100Y-68940000D01*
G37*
%TO.C,R4*%
D12*
X100636542Y-110002500D02*
X101111058Y-110002500D01*
X100636542Y-111047500D02*
X101111058Y-111047500D01*
%TO.C,SW6*%
D18*
X86750000Y-113500000D02*
X86750000Y-115000000D01*
X88000000Y-117500000D02*
X92500000Y-117500000D01*
X92500000Y-111000000D02*
X88000000Y-111000000D01*
X93750000Y-115000000D02*
X93750000Y-113500000D01*
%TO.C,R26*%
X67271359Y-82920000D02*
X67578641Y-82920000D01*
X67271359Y-83680000D02*
X67578641Y-83680000D01*
%TO.C,U5*%
D12*
X67195000Y-53074492D02*
X67195000Y-53274494D01*
X67195000Y-53074492D02*
X67395002Y-53074492D01*
X67195000Y-55724492D02*
X67195000Y-55924494D01*
X67195000Y-55924494D02*
X67395002Y-55924494D01*
X69970000Y-53074492D02*
X70545000Y-53074492D01*
X70344998Y-55924494D02*
X70545000Y-55924494D01*
X70545000Y-53074492D02*
X70545000Y-53399493D01*
X70545000Y-55724492D02*
X70545000Y-55924494D01*
%TO.C,J3*%
D18*
X72120000Y-75790000D02*
X72120000Y-68060000D01*
X74880000Y-68060000D02*
X72120000Y-68060000D01*
X74880000Y-75790000D02*
X72120000Y-75790000D01*
X74880000Y-75790000D02*
X74880000Y-68060000D01*
X74880000Y-77060000D02*
X74880000Y-78440000D01*
X74880000Y-78440000D02*
X73500000Y-78440000D01*
%TO.C,R2*%
D12*
X100376542Y-58642100D02*
X100851058Y-58642100D01*
X100376542Y-59687100D02*
X100851058Y-59687100D01*
%TO.C,C32*%
D18*
X55765000Y-55261252D02*
X55765000Y-54738748D01*
X57235000Y-55261252D02*
X57235000Y-54738748D01*
%TO.C,C27*%
D12*
X73458748Y-52664493D02*
X73981252Y-52664493D01*
X73458748Y-54134493D02*
X73981252Y-54134493D01*
%TD*%
M02*
