%TF.GenerationSoftware,KiCad,Pcbnew,10.0.3*%
%TF.CreationDate,2026-08-08T20:31:57-07:00*%
%TF.ProjectId,48VERelay,34385645-5265-46c6-9179-2e6b69636164,rev?*%
%TF.SameCoordinates,Original*%
%TF.FileFunction,Copper,L4,Bot*%
%TF.FilePolarity,Positive*%
%FSLAX46Y46*%
G04 Gerber Fmt 4.6, Leading zero omitted, Abs format (unit mm)*
G04 Created by KiCad (PCBNEW 10.0.3) date 2026-08-08 20:31:57*
%MOMM*%
%LPD*%
G01*
G04 APERTURE LIST*
G04 Aperture macros list*
%AMRoundRect*
0 Rectangle with rounded corners*
0 $1 Rounding radius*
0 $2 $3 $4 $5 $6 $7 $8 $9 X,Y pos of 4 corners*
0 Add a 4 corners polygon primitive as box body*
4,1,4,$2,$3,$4,$5,$6,$7,$8,$9,$2,$3,0*
0 Add four circle primitives for the rounded corners*
1,1,$1+$1,$2,$3*
1,1,$1+$1,$4,$5*
1,1,$1+$1,$6,$7*
1,1,$1+$1,$8,$9*
0 Add four rect primitives between the rounded corners*
20,1,$1+$1,$2,$3,$4,$5,0*
20,1,$1+$1,$4,$5,$6,$7,0*
20,1,$1+$1,$6,$7,$8,$9,0*
20,1,$1+$1,$8,$9,$2,$3,0*%
G04 Aperture macros list end*
%TA.AperFunction,ComponentPad*%
%ADD10RoundRect,0.250500X-0.499500X0.499500X-0.499500X-0.499500X0.499500X-0.499500X0.499500X0.499500X0*%
%TD*%
%TA.AperFunction,ComponentPad*%
%ADD11C,1.500000*%
%TD*%
%TA.AperFunction,ComponentPad*%
%ADD12C,2.500000*%
%TD*%
%TA.AperFunction,ComponentPad*%
%ADD13R,2.600000X2.600000*%
%TD*%
%TA.AperFunction,ComponentPad*%
%ADD14C,2.600000*%
%TD*%
%TA.AperFunction,ComponentPad*%
%ADD15C,2.000000*%
%TD*%
%TA.AperFunction,ComponentPad*%
%ADD16R,2.000000X2.000000*%
%TD*%
%TA.AperFunction,ComponentPad*%
%ADD17C,3.100000*%
%TD*%
%TA.AperFunction,ConnectorPad*%
%ADD18C,4.700000*%
%TD*%
%TA.AperFunction,ComponentPad*%
%ADD19RoundRect,0.250001X1.149999X-1.149999X1.149999X1.149999X-1.149999X1.149999X-1.149999X-1.149999X0*%
%TD*%
%TA.AperFunction,ComponentPad*%
%ADD20C,2.800000*%
%TD*%
%TA.AperFunction,HeatsinkPad*%
%ADD21C,0.600000*%
%TD*%
%TA.AperFunction,ComponentPad*%
%ADD22R,1.700000X1.700000*%
%TD*%
%TA.AperFunction,ComponentPad*%
%ADD23C,1.700000*%
%TD*%
%TA.AperFunction,SMDPad,CuDef*%
%ADD24RoundRect,0.140000X0.170000X-0.140000X0.170000X0.140000X-0.170000X0.140000X-0.170000X-0.140000X0*%
%TD*%
%TA.AperFunction,SMDPad,CuDef*%
%ADD25RoundRect,0.100000X0.130000X0.100000X-0.130000X0.100000X-0.130000X-0.100000X0.130000X-0.100000X0*%
%TD*%
%TA.AperFunction,SMDPad,CuDef*%
%ADD26RoundRect,0.100000X-0.100000X0.130000X-0.100000X-0.130000X0.100000X-0.130000X0.100000X0.130000X0*%
%TD*%
%TA.AperFunction,SMDPad,CuDef*%
%ADD27RoundRect,0.140000X0.140000X0.170000X-0.140000X0.170000X-0.140000X-0.170000X0.140000X-0.170000X0*%
%TD*%
%TA.AperFunction,SMDPad,CuDef*%
%ADD28RoundRect,0.135000X0.135000X0.185000X-0.135000X0.185000X-0.135000X-0.185000X0.135000X-0.185000X0*%
%TD*%
%TA.AperFunction,ViaPad*%
%ADD29C,0.600000*%
%TD*%
%TA.AperFunction,ViaPad*%
%ADD30C,0.500000*%
%TD*%
%TA.AperFunction,ViaPad*%
%ADD31C,0.800000*%
%TD*%
%TA.AperFunction,ViaPad*%
%ADD32C,0.900000*%
%TD*%
%TA.AperFunction,ViaPad*%
%ADD33C,0.609600*%
%TD*%
%TA.AperFunction,Conductor*%
%ADD34C,0.200000*%
%TD*%
%TA.AperFunction,Conductor*%
%ADD35C,0.254000*%
%TD*%
%TA.AperFunction,Conductor*%
%ADD36C,0.381000*%
%TD*%
%TA.AperFunction,Conductor*%
%ADD37C,0.230378*%
%TD*%
%TA.AperFunction,Conductor*%
%ADD38C,2.032000*%
%TD*%
%TA.AperFunction,Conductor*%
%ADD39C,1.270000*%
%TD*%
%TA.AperFunction,Conductor*%
%ADD40C,0.304800*%
%TD*%
%TA.AperFunction,Conductor*%
%ADD41C,1.016000*%
%TD*%
%TA.AperFunction,Conductor*%
%ADD42C,0.508000*%
%TD*%
%TA.AperFunction,Conductor*%
%ADD43C,0.762000*%
%TD*%
%TA.AperFunction,Conductor*%
%ADD44C,0.203200*%
%TD*%
G04 APERTURE END LIST*
D10*
%TO.P,J2,1,TD+_1*%
%TO.N,TX_P*%
X58860000Y-103625000D03*
D11*
%TO.P,J2,2,TD-_2*%
%TO.N,TX_N*%
X61400000Y-104885000D03*
%TO.P,J2,3,RD+_3*%
%TO.N,RX_P*%
X58860000Y-106165000D03*
%TO.P,J2,4,TCT_4*%
%TO.N,TX_CT*%
X61400000Y-107425000D03*
%TO.P,J2,5,RCT_5*%
%TO.N,RX_CT*%
X58860000Y-108705000D03*
%TO.P,J2,6,RD-_6*%
%TO.N,RX_N*%
X61400000Y-109965000D03*
%TO.P,J2,7,NC_7*%
%TO.N,unconnected-(J2-NC-Pad7)*%
X58860000Y-111245000D03*
%TO.P,J2,8*%
%TO.N,GND*%
X61400000Y-112505000D03*
%TO.P,J2,9*%
%TO.N,Net-(J2-Pad9)*%
X47600000Y-101440000D03*
%TO.P,J2,10*%
%TO.N,ACT_LED*%
X47600000Y-103980000D03*
%TO.P,J2,11*%
%TO.N,LINK_LED*%
X47600000Y-112150000D03*
%TO.P,J2,12*%
%TO.N,Net-(J2-Pad12)*%
X47600000Y-114690000D03*
D12*
%TO.P,J2,SH*%
%TO.N,GND*%
X55550000Y-100320000D03*
X55550000Y-115810000D03*
%TD*%
D13*
%TO.P,J1,1*%
%TO.N,/Power/VIN_12V*%
X54250000Y-47339493D03*
D14*
%TO.P,J1,2*%
%TO.N,GND*%
X48250000Y-47339493D03*
%TO.P,J1,3*%
%TO.N,N/C*%
X51250000Y-52039493D03*
%TD*%
D15*
%TO.P,K11,11*%
%TO.N,/Outputs/COM_2*%
X125343800Y-66544600D03*
X125343800Y-59044600D03*
%TO.P,K11,12*%
%TO.N,/Outputs/NC_2*%
X120343800Y-66544600D03*
X120343800Y-59044600D03*
%TO.P,K11,14*%
%TO.N,/Outputs/NO_2*%
X130343800Y-66544600D03*
X130343800Y-59044600D03*
D16*
%TO.P,K11,A1*%
%TO.N,+12V*%
X105343800Y-66544600D03*
D15*
%TO.P,K11,A2*%
%TO.N,/Outputs/Relay_2*%
X105343800Y-59044600D03*
%TD*%
D17*
%TO.P,REF\u002A\u002A,1*%
%TO.N,N/C*%
X152400000Y-120650000D03*
D18*
X152400000Y-120650000D03*
%TD*%
D15*
%TO.P,K14,11*%
%TO.N,/Outputs/COM_5*%
X125343800Y-118005000D03*
X125343800Y-110505000D03*
%TO.P,K14,12*%
%TO.N,/Outputs/NC_5*%
X120343800Y-118005000D03*
X120343800Y-110505000D03*
%TO.P,K14,14*%
%TO.N,/Outputs/NO_5*%
X130343800Y-118005000D03*
X130343800Y-110505000D03*
D16*
%TO.P,K14,A1*%
%TO.N,+12V*%
X105343800Y-118005000D03*
D15*
%TO.P,K14,A2*%
%TO.N,/Outputs/Relay_5*%
X105343800Y-110505000D03*
%TD*%
D19*
%TO.P,J12,1,Pin_1_1*%
%TO.N,/Outputs/NO_3*%
X143750000Y-85000000D03*
D20*
%TO.P,J12,2,Pin_2_2*%
%TO.N,/Outputs/COM_3*%
X143750000Y-80000000D03*
%TO.P,J12,3,Pin_3_3*%
%TO.N,/Outputs/NC_3*%
X143750000Y-75000000D03*
%TD*%
D15*
%TO.P,K12,11*%
%TO.N,/Outputs/COM_3*%
X125191400Y-83705000D03*
X125191400Y-76205000D03*
%TO.P,K12,12*%
%TO.N,/Outputs/NC_3*%
X120191400Y-83705000D03*
X120191400Y-76205000D03*
%TO.P,K12,14*%
%TO.N,/Outputs/NO_3*%
X130191400Y-83705000D03*
X130191400Y-76205000D03*
D16*
%TO.P,K12,A1*%
%TO.N,+12V*%
X105191400Y-83705000D03*
D15*
%TO.P,K12,A2*%
%TO.N,/Outputs/Relay_3*%
X105191400Y-76205000D03*
%TD*%
D17*
%TO.P,REF\u002A\u002A,1*%
%TO.N,N/C*%
X152400000Y-38100000D03*
D18*
X152400000Y-38100000D03*
%TD*%
D19*
%TO.P,J10,1,Pin_1_1*%
%TO.N,/Outputs/NO_1*%
X143500000Y-51500000D03*
D20*
%TO.P,J10,2,Pin_2_2*%
%TO.N,/Outputs/COM_1*%
X143500000Y-46500000D03*
%TO.P,J10,3,Pin_3_3*%
%TO.N,/Outputs/NC_1*%
X143500000Y-41500000D03*
%TD*%
D19*
%TO.P,J13,1,Pin_1_1*%
%TO.N,/Outputs/NO_4*%
X143750000Y-102000000D03*
D20*
%TO.P,J13,2,Pin_2_2*%
%TO.N,/Outputs/COM_4*%
X143750000Y-97000000D03*
%TO.P,J13,3,Pin_3_3*%
%TO.N,/Outputs/NC_4*%
X143750000Y-92000000D03*
%TD*%
D15*
%TO.P,SW5,1,1_1*%
%TO.N,GND*%
X76750000Y-116500000D03*
%TO.P,SW5,2,2_2*%
%TO.N,Net-(U1-EN)*%
X76750000Y-112000000D03*
%TO.P,SW5,3,3_3*%
%TO.N,GND*%
X83250000Y-116500000D03*
%TO.P,SW5,4,4_4*%
%TO.N,Net-(U1-EN)*%
X83250000Y-112000000D03*
%TD*%
%TO.P,K13,11*%
%TO.N,/Outputs/COM_4*%
X125242200Y-100936200D03*
X125242200Y-93436200D03*
%TO.P,K13,12*%
%TO.N,/Outputs/NC_4*%
X120242200Y-100936200D03*
X120242200Y-93436200D03*
%TO.P,K13,14*%
%TO.N,/Outputs/NO_4*%
X130242200Y-100936200D03*
X130242200Y-93436200D03*
D16*
%TO.P,K13,A1*%
%TO.N,+12V*%
X105242200Y-100936200D03*
D15*
%TO.P,K13,A2*%
%TO.N,/Outputs/Relay_4*%
X105242200Y-93436200D03*
%TD*%
D21*
%TO.P,U1,39,GND_39*%
%TO.N,GND*%
X76350000Y-87370000D03*
X76350000Y-88770000D03*
X77050000Y-86670000D03*
X77050000Y-88070000D03*
X77050000Y-89470000D03*
X77750000Y-87370000D03*
X77750000Y-88770000D03*
X78450000Y-86670000D03*
X78450000Y-88070000D03*
X78450000Y-89470000D03*
X79150000Y-87370000D03*
X79150000Y-88770000D03*
%TD*%
D19*
%TO.P,J14,1,Pin_1_1*%
%TO.N,/Outputs/NO_5*%
X143713200Y-119500000D03*
D20*
%TO.P,J14,2,Pin_2_2*%
%TO.N,/Outputs/COM_5*%
X143713200Y-114500000D03*
%TO.P,J14,3,Pin_3_3*%
%TO.N,/Outputs/NC_5*%
X143713200Y-109500000D03*
%TD*%
D15*
%TO.P,K10,11*%
%TO.N,/Outputs/COM_1*%
X125597800Y-50288600D03*
X125597800Y-42788600D03*
%TO.P,K10,12*%
%TO.N,/Outputs/NC_1*%
X120597800Y-50288600D03*
X120597800Y-42788600D03*
%TO.P,K10,14*%
%TO.N,/Outputs/NO_1*%
X130597800Y-50288600D03*
X130597800Y-42788600D03*
D16*
%TO.P,K10,A1*%
%TO.N,+12V*%
X105597800Y-50288600D03*
D15*
%TO.P,K10,A2*%
%TO.N,/Outputs/Relay_1*%
X105597800Y-42788600D03*
%TD*%
D19*
%TO.P,J11,1,Pin_1_1*%
%TO.N,/Outputs/NO_2*%
X143771100Y-68500000D03*
D20*
%TO.P,J11,2,Pin_2_2*%
%TO.N,/Outputs/COM_2*%
X143771100Y-63500000D03*
%TO.P,J11,3,Pin_3_3*%
%TO.N,/Outputs/NC_2*%
X143771100Y-58500000D03*
%TD*%
D17*
%TO.P,REF\u002A\u002A,1*%
%TO.N,N/C*%
X44450000Y-120650000D03*
D18*
X44450000Y-120650000D03*
%TD*%
D15*
%TO.P,SW6,1,1_1*%
%TO.N,Net-(U1-IO0)*%
X87000000Y-112000000D03*
%TO.P,SW6,2,2_2*%
%TO.N,GND*%
X87000000Y-116500000D03*
%TO.P,SW6,3,3_3*%
%TO.N,Net-(U1-IO0)*%
X93500000Y-112000000D03*
%TO.P,SW6,4,4_4*%
%TO.N,GND*%
X93500000Y-116500000D03*
%TD*%
D17*
%TO.P,REF\u002A\u002A,1*%
%TO.N,N/C*%
X44450000Y-38100000D03*
D18*
X44450000Y-38100000D03*
%TD*%
D22*
%TO.P,J3,1,1_1*%
%TO.N,3V3 MCU*%
X73500000Y-77060000D03*
D23*
%TO.P,J3,2,2_2*%
%TO.N,UART_TXD*%
X73500000Y-74520000D03*
%TO.P,J3,3,3_3*%
%TO.N,UART_RXD*%
X73500000Y-71980000D03*
%TO.P,J3,4,4_4*%
%TO.N,GND*%
X73500000Y-69440000D03*
%TD*%
D24*
%TO.P,C15,1*%
%TO.N,+3V3A*%
X50500000Y-92460000D03*
%TO.P,C15,2*%
%TO.N,GND*%
X50500000Y-91500000D03*
%TD*%
D25*
%TO.P,C23,1*%
%TO.N,Net-(U3-1V2O)*%
X54075507Y-85500000D03*
%TO.P,C23,2*%
%TO.N,GND*%
X53435507Y-85500000D03*
%TD*%
D26*
%TO.P,R20,1*%
%TO.N,+3V3A*%
X46250000Y-105680000D03*
%TO.P,R20,2*%
%TO.N,TX_CT*%
X46250000Y-106320000D03*
%TD*%
D27*
%TO.P,C14,1*%
%TO.N,+3V3A*%
X54460000Y-88500000D03*
%TO.P,C14,2*%
%TO.N,GND*%
X53500000Y-88500000D03*
%TD*%
%TO.P,C11,1*%
%TO.N,+3V3A*%
X54480000Y-86500000D03*
%TO.P,C11,2*%
%TO.N,GND*%
X53520000Y-86500000D03*
%TD*%
D24*
%TO.P,C12,1*%
%TO.N,+3V3A*%
X48500000Y-92480000D03*
%TO.P,C12,2*%
%TO.N,GND*%
X48500000Y-91520000D03*
%TD*%
%TO.P,C13,1*%
%TO.N,+3V3A*%
X53236000Y-92527200D03*
%TO.P,C13,2*%
%TO.N,GND*%
X53236000Y-91567200D03*
%TD*%
D26*
%TO.P,C7,1*%
%TO.N,+3V3 Eth*%
X52250000Y-82000000D03*
%TO.P,C7,2*%
%TO.N,GND*%
X52250000Y-82640000D03*
%TD*%
D27*
%TO.P,C16,1*%
%TO.N,+3V3A*%
X54460000Y-89500000D03*
%TO.P,C16,2*%
%TO.N,GND*%
X53500000Y-89500000D03*
%TD*%
D28*
%TO.P,R6,1*%
%TO.N,Net-(U3-EXRES1)*%
X52250000Y-94500000D03*
%TO.P,R6,2*%
%TO.N,GND*%
X51230000Y-94500000D03*
%TD*%
D26*
%TO.P,C6,1*%
%TO.N,TX_CT*%
X46250000Y-107585000D03*
%TO.P,C6,2*%
%TO.N,GND*%
X46250000Y-108225000D03*
%TD*%
D29*
%TO.N,GND*%
X72800000Y-67100000D03*
X71150000Y-69450000D03*
X53600000Y-83350000D03*
%TO.N,Net-(U1-EN)*%
X69700000Y-107900000D03*
%TO.N,GND*%
X92500000Y-95000000D03*
X92500000Y-107500000D03*
X92500000Y-102500000D03*
X87500000Y-102500000D03*
X87500000Y-107500000D03*
X65000000Y-115000000D03*
X65000000Y-97500000D03*
X60000000Y-42500000D03*
X75000000Y-42500000D03*
X75000000Y-37500000D03*
X60000000Y-37500000D03*
X50000000Y-50000000D03*
X47500000Y-50000000D03*
X50000000Y-45000000D03*
X47500000Y-45000000D03*
X42500000Y-50000000D03*
X42500000Y-45000000D03*
X50000000Y-35000000D03*
X112500000Y-42500000D03*
X112500000Y-52500000D03*
X112500000Y-47500000D03*
X112500000Y-57500000D03*
X112500000Y-62500000D03*
X112500000Y-67500000D03*
X112500000Y-120000000D03*
X112500000Y-115000000D03*
X112500000Y-97500000D03*
X112500000Y-80000000D03*
X112500000Y-75000000D03*
X112500000Y-85000000D03*
X112500000Y-110000000D03*
X112500000Y-102500000D03*
X112500000Y-92500000D03*
X87500000Y-60000000D03*
X90000000Y-60000000D03*
X90000000Y-67500000D03*
X87500000Y-67500000D03*
X80000000Y-82500000D03*
X80000000Y-85000000D03*
X80000000Y-95000000D03*
X80000000Y-92500000D03*
X75000000Y-92500000D03*
X75000000Y-85000000D03*
X85000000Y-87500000D03*
X85000000Y-85000000D03*
X85000000Y-90000000D03*
X85000000Y-92500000D03*
X85000000Y-95000000D03*
X75000000Y-95000000D03*
X75000000Y-82500000D03*
X85000000Y-82500000D03*
X54000000Y-98000000D03*
X53000000Y-100000000D03*
X57500000Y-115000000D03*
X57500000Y-117500000D03*
X57500000Y-110000000D03*
X57500000Y-112500000D03*
X50000000Y-110000000D03*
X50000000Y-112500000D03*
X45000000Y-115000000D03*
X45000000Y-112500000D03*
X45000000Y-110000000D03*
X45000000Y-105000000D03*
X45000000Y-102500000D03*
%TO.N,JTAG_TDI*%
X80416400Y-101850000D03*
X75250000Y-101850000D03*
%TO.N,GND*%
X81750000Y-109550000D03*
X80500000Y-109550000D03*
X77900000Y-109550000D03*
X79200000Y-109550000D03*
%TO.N,3V3 MCU*%
X74700000Y-109750000D03*
%TO.N,GND*%
X48406694Y-94700000D03*
X48792491Y-95585109D03*
X53350000Y-98800000D03*
X51000000Y-99000000D03*
X49250000Y-97800000D03*
X68884800Y-69850000D03*
X68884800Y-68783200D03*
%TO.N,TX_P*%
X55001616Y-104290272D03*
%TO.N,TX_N*%
X55001616Y-105109728D03*
%TO.N,RX_CT*%
X56600000Y-98000000D03*
X55850000Y-94550000D03*
%TO.N,GND*%
X52162500Y-85787500D03*
X52200000Y-88150000D03*
X68280000Y-39109493D03*
X49650000Y-96500000D03*
X76100000Y-53389493D03*
X58850000Y-43250000D03*
X65850000Y-86250000D03*
X62900000Y-63800000D03*
X47450000Y-90000000D03*
X65120000Y-59089493D03*
X58099999Y-45364494D03*
X53700000Y-62600000D03*
X76050000Y-48839493D03*
X63150000Y-59139493D03*
X66850000Y-79000000D03*
X61300000Y-62400000D03*
X51750000Y-85200000D03*
X47000000Y-74050000D03*
X73550000Y-96200000D03*
X57350000Y-43250000D03*
X69330000Y-38279493D03*
X64100000Y-63800000D03*
X70810000Y-38249493D03*
X50500000Y-85200000D03*
X52175000Y-86875000D03*
X58120000Y-43250000D03*
X68750000Y-64200000D03*
X86050000Y-80700000D03*
X58350000Y-54050000D03*
X65532000Y-43815000D03*
X65100000Y-79050000D03*
X65970000Y-54399493D03*
X66020000Y-52349493D03*
X54700000Y-54050000D03*
X48350000Y-90150000D03*
X54160507Y-75600000D03*
X64050000Y-45000000D03*
X42858762Y-97300000D03*
X50350000Y-94750000D03*
X82400000Y-70000000D03*
X51250000Y-63250000D03*
X70770000Y-52599493D03*
X66250000Y-75200000D03*
X55000000Y-103350000D03*
X74000000Y-63200000D03*
X48674000Y-79318000D03*
X71870000Y-58099493D03*
X52150000Y-89000000D03*
X60900000Y-59139493D03*
X74000000Y-66500000D03*
X70485000Y-78740000D03*
X53910507Y-79500000D03*
X53700000Y-62600000D03*
X42550000Y-67550000D03*
X66250000Y-77300000D03*
X74000000Y-64900000D03*
X74000000Y-59900000D03*
X51000000Y-65500000D03*
X45000000Y-108250000D03*
X56500000Y-52650000D03*
X71750000Y-39159493D03*
X52350000Y-90500000D03*
X68500000Y-79000000D03*
X72450000Y-80800000D03*
D30*
X68300000Y-54099491D03*
D29*
X52500000Y-67250000D03*
X76100000Y-51189493D03*
X51000000Y-90100000D03*
X61300000Y-61200000D03*
X46250000Y-109500000D03*
X48600000Y-97300000D03*
X74000000Y-61600000D03*
D30*
X69444254Y-54096027D03*
D29*
X55000000Y-105975000D03*
X70800000Y-66200000D03*
X55600000Y-60600000D03*
X57550000Y-98950000D03*
D31*
X68695000Y-57149493D03*
D29*
X66720000Y-52349493D03*
%TO.N,ACT_LED*%
X52200000Y-98750000D03*
X50356644Y-97456644D03*
X52350000Y-80950000D03*
%TO.N,LINK_LED*%
X49150000Y-104950000D03*
X53150003Y-80950000D03*
D31*
%TO.N,/Outputs/NO_2*%
X130343800Y-66544600D03*
D29*
%TO.N,+12V*%
X101700000Y-79850000D03*
X101700000Y-114400000D03*
D32*
X74168000Y-56007000D03*
D29*
X101950000Y-46300000D03*
X101450000Y-97150000D03*
D32*
X96647000Y-69100000D03*
D29*
X101687500Y-62992000D03*
D33*
%TO.N,+3V3 Eth*%
X45700000Y-68400000D03*
D29*
X41900000Y-98775000D03*
X51460507Y-81900000D03*
X48641000Y-117983000D03*
X53850000Y-82000000D03*
%TO.N,3V3 MCU*%
X63050000Y-78740000D03*
X63900000Y-81250000D03*
%TO.N,+3V3A*%
X47600000Y-67250000D03*
X48421800Y-93550000D03*
X55413149Y-88500000D03*
D33*
X55950000Y-86300000D03*
D29*
X53439200Y-93266400D03*
X50350000Y-93600000D03*
D33*
X43850000Y-97250000D03*
X47900000Y-96400000D03*
D29*
X55281337Y-89540100D03*
%TO.N,Net-(U1-EN)*%
X68250000Y-87900000D03*
%TO.N,/Outputs/NO_3*%
X130191400Y-83705000D03*
%TO.N,Net-(U3-EXRES1)*%
X51880083Y-93496439D03*
%TO.N,Net-(U3-1V2O)*%
X55278907Y-85818400D03*
%TO.N,/MCU/Ether_CS*%
X60500000Y-90800000D03*
X46000000Y-73200000D03*
%TO.N,/MCU/Ether_SCLK*%
X65450000Y-94700000D03*
X45323000Y-73735173D03*
%TO.N,/MCU/Ether_MISO*%
X44696000Y-74487235D03*
X65450000Y-93430000D03*
%TO.N,/MCU/Ether_MOSI*%
X44069000Y-75137352D03*
X65400000Y-92160000D03*
%TO.N,/MCU/Ether_INT*%
X43442000Y-75822651D03*
X65400000Y-89550000D03*
%TO.N,/MCU/Ether_RESET*%
X89600000Y-95970000D03*
X43027000Y-71650322D03*
%TO.N,MCU_RELAY_3*%
X91043000Y-90890000D03*
X79994000Y-61468000D03*
%TO.N,MCU_RELAY_4*%
X80764000Y-62738000D03*
X91797000Y-89620000D03*
%TO.N,MCU_RELAY_1*%
X78359000Y-58928000D03*
X89535000Y-94700000D03*
%TO.N,MCU_RELAY_2*%
X90289000Y-93430000D03*
X79240000Y-60198000D03*
%TO.N,MCU_RELAY_5*%
X81518000Y-64008000D03*
X92551000Y-82000000D03*
%TO.N,/Outputs/NO_4*%
X130242200Y-100936200D03*
%TD*%
%TO.N,GND*%
D34*
X45125000Y-108225000D02*
X46250000Y-108225000D01*
X45000000Y-108250000D02*
X45100000Y-108250000D01*
X45100000Y-108250000D02*
X45125000Y-108225000D01*
D35*
X52890000Y-82640000D02*
X53600000Y-83350000D01*
X52250000Y-82640000D02*
X52890000Y-82640000D01*
%TO.N,/MCU/Ether_RESET*%
D34*
X54186269Y-70782400D02*
X61163200Y-77759331D01*
X61163200Y-77759331D02*
X61163200Y-78363200D01*
X62600000Y-79800000D02*
X87750000Y-79800000D01*
X87750000Y-94120000D02*
X89600000Y-95970000D01*
X61163200Y-78363200D02*
X62600000Y-79800000D01*
X87750000Y-79800000D02*
X87750000Y-94120000D01*
%TO.N,Net-(U1-EN)*%
D36*
X68250000Y-87900000D02*
X68250000Y-106450000D01*
X68250000Y-106450000D02*
X69700000Y-107900000D01*
%TO.N,GND*%
D34*
X50350000Y-94750000D02*
X50350000Y-94700000D01*
X50350000Y-94700000D02*
X50550000Y-94500000D01*
X50550000Y-94500000D02*
X51230000Y-94500000D01*
%TO.N,JTAG_TDI*%
D35*
X75250000Y-101850000D02*
X80416400Y-101850000D01*
%TO.N,3V3 MCU*%
D36*
X63900000Y-81250000D02*
X63900000Y-86550000D01*
X63900000Y-86550000D02*
X64550000Y-87200000D01*
X67550000Y-97050000D02*
X67550000Y-108200000D01*
X64550000Y-87200000D02*
X65350000Y-87200000D01*
X65350000Y-87200000D02*
X67200000Y-89050000D01*
X67200000Y-89050000D02*
X67200000Y-96700000D01*
X67200000Y-96700000D02*
X67550000Y-97050000D01*
X67550000Y-108200000D02*
X69100000Y-109750000D01*
X69100000Y-109750000D02*
X74700000Y-109750000D01*
%TO.N,ACT_LED*%
D35*
X50273000Y-97784948D02*
X50273000Y-97877000D01*
X50356644Y-97456644D02*
X50356644Y-97701303D01*
X50273000Y-97877000D02*
X48696000Y-99454000D01*
X50356644Y-97701303D02*
X50273000Y-97784948D01*
X48696000Y-102884000D02*
X47600000Y-103980000D01*
X48696000Y-99454000D02*
X48696000Y-102884000D01*
%TO.N,TX_P*%
D37*
X56683118Y-103659894D02*
G75*
G02*
X56923106Y-103899894I-18J-240006D01*
G01*
X56083118Y-104659894D02*
G75*
G03*
X56323094Y-104419894I-18J239994D01*
G01*
X56923118Y-104419894D02*
G75*
G03*
X57163118Y-104659882I239982J-6D01*
G01*
X56323118Y-103899894D02*
G75*
G02*
X56563118Y-103659918I239982J-6D01*
G01*
X56323118Y-104419894D02*
X56323118Y-103899894D01*
X58860000Y-104566919D02*
X58860000Y-103625000D01*
X55001616Y-104290272D02*
X55202683Y-104491339D01*
X56923118Y-103899894D02*
X56923118Y-104419894D01*
X55202683Y-104491339D02*
X55257762Y-104491339D01*
X55257762Y-104491339D02*
X55426317Y-104659894D01*
X55426317Y-104659894D02*
X56083118Y-104659894D01*
X56563118Y-103659894D02*
X56683118Y-103659894D01*
X57163118Y-104659894D02*
X57283118Y-104659894D01*
X57283118Y-104659894D02*
X57294801Y-104659894D01*
X58767025Y-104659894D02*
X58860000Y-104566919D01*
X57294801Y-104659894D02*
X58767025Y-104659894D01*
%TO.N,TX_N*%
X58404341Y-105109728D02*
X58417458Y-105096611D01*
X58417458Y-105096611D02*
X58966470Y-105096611D01*
X55001616Y-105109728D02*
X58404341Y-105109728D01*
X59178081Y-104885000D02*
X61400000Y-104885000D01*
X58966470Y-105096611D02*
X59178081Y-104885000D01*
%TO.N,TX_CT*%
D34*
X46775000Y-107425000D02*
X61400000Y-107425000D01*
X46250000Y-106900000D02*
X46250000Y-107585000D01*
X46250000Y-106320000D02*
X46250000Y-106900000D01*
X46250000Y-106900000D02*
X46775000Y-107425000D01*
%TO.N,RX_CT*%
X55850000Y-97250000D02*
X56600000Y-98000000D01*
X55850000Y-94550000D02*
X55850000Y-97250000D01*
%TO.N,GND*%
D35*
X50500000Y-91500000D02*
X50500000Y-90550000D01*
X51750000Y-85200000D02*
X51900000Y-85200000D01*
X53236000Y-91386000D02*
X52350000Y-90500000D01*
X50550000Y-90550000D02*
X51000000Y-90100000D01*
X52162500Y-85787500D02*
X52450000Y-85500000D01*
X53500000Y-88500000D02*
X52550000Y-88500000D01*
X52450000Y-85500000D02*
X53435507Y-85500000D01*
D34*
X46250000Y-108225000D02*
X46250000Y-109500000D01*
D35*
X53236000Y-91375669D02*
X53236000Y-91567200D01*
X48500000Y-90600000D02*
X48500000Y-91520000D01*
X51900000Y-85200000D02*
X52250000Y-84850000D01*
X53236000Y-91567200D02*
X53236000Y-91386000D01*
X52250000Y-84850000D02*
X52250000Y-82640000D01*
X48350000Y-90450000D02*
X48500000Y-90600000D01*
X48350000Y-90150000D02*
X48350000Y-90450000D01*
X52175000Y-86875000D02*
X52550000Y-86500000D01*
X50500000Y-90550000D02*
X50550000Y-90550000D01*
X52550000Y-88500000D02*
X52200000Y-88150000D01*
X52550000Y-86500000D02*
X53520000Y-86500000D01*
%TO.N,ACT_LED*%
X52890291Y-80323000D02*
X53701764Y-80323000D01*
X52350000Y-80950000D02*
X52350000Y-80863291D01*
X53701764Y-80323000D02*
X57039000Y-83660236D01*
X57039000Y-92303052D02*
X52200000Y-97142052D01*
X52350000Y-80863291D02*
X52890291Y-80323000D01*
X52200000Y-97142052D02*
X52200000Y-98750000D01*
X57039000Y-83660236D02*
X57039000Y-92303052D01*
%TO.N,LINK_LED*%
X50727000Y-97973000D02*
X50727000Y-98309712D01*
X50115052Y-98677000D02*
X49150000Y-99642052D01*
X50727000Y-98309712D02*
X50359712Y-98677000D01*
X50359712Y-98677000D02*
X50115052Y-98677000D01*
X49150000Y-99642052D02*
X49150000Y-104950000D01*
X53686712Y-80950000D02*
X56585000Y-83848288D01*
X56585000Y-83848288D02*
X56585000Y-92115000D01*
X56585000Y-92115000D02*
X50727000Y-97973000D01*
X53150003Y-80950000D02*
X53686712Y-80950000D01*
%TO.N,/Outputs/NC_2*%
D38*
X143349500Y-59044600D02*
X143771100Y-58623000D01*
%TO.N,/Outputs/NO_2*%
X132299200Y-68500000D02*
X130343800Y-66544600D01*
X130343800Y-59044600D02*
X130343800Y-66544600D01*
X143771100Y-68500000D02*
X132299200Y-68500000D01*
%TO.N,+12V*%
X97005000Y-118005000D02*
X105343800Y-118005000D01*
X105242200Y-100936200D02*
X97083200Y-100936200D01*
X96647000Y-81153000D02*
X96647000Y-83500000D01*
D39*
X94742000Y-56007000D02*
X96544000Y-54205000D01*
D34*
X96769000Y-97150000D02*
X96647000Y-97028000D01*
D38*
X105343800Y-66544600D02*
X96691600Y-66544600D01*
D40*
X101450000Y-97150000D02*
X96769000Y-97150000D01*
X101687500Y-62992000D02*
X96901000Y-62992000D01*
D41*
X96691600Y-66544600D02*
X96647000Y-66500000D01*
X97083200Y-100936200D02*
X96647000Y-100500000D01*
D38*
X96647000Y-94742000D02*
X96647000Y-97028000D01*
X105597800Y-50288600D02*
X101854000Y-50288600D01*
D34*
X96868000Y-79850000D02*
X96647000Y-79629000D01*
D38*
X96647000Y-114427000D02*
X96647000Y-117647000D01*
X96647000Y-79629000D02*
X96647000Y-81153000D01*
X96647000Y-62738000D02*
X96647000Y-66500000D01*
D40*
X101700000Y-114400000D02*
X96674000Y-114400000D01*
D39*
X96647000Y-117647000D02*
X97005000Y-118005000D01*
D40*
X101950000Y-46300000D02*
X101950000Y-50192600D01*
D38*
X96647000Y-83500000D02*
X96647000Y-94742000D01*
X96647000Y-66500000D02*
X96647000Y-79629000D01*
D41*
X96852000Y-83705000D02*
X96647000Y-83500000D01*
D38*
X96647000Y-97028000D02*
X96647000Y-100500000D01*
X105191400Y-83705000D02*
X96852000Y-83705000D01*
X101854000Y-50288600D02*
X100460400Y-50288600D01*
X74168000Y-56007000D02*
X94107000Y-56007000D01*
D40*
X101700000Y-79850000D02*
X96868000Y-79850000D01*
D38*
X94742000Y-56007000D02*
X100460400Y-50288600D01*
X96699000Y-81205000D02*
X96647000Y-81153000D01*
X94107000Y-56007000D02*
X96647000Y-58547000D01*
X96647000Y-100500000D02*
X96647000Y-114427000D01*
X94107000Y-56007000D02*
X94742000Y-56007000D01*
D34*
X101950000Y-50192600D02*
X101854000Y-50288600D01*
D41*
X100460400Y-50288600D02*
X96544000Y-54205000D01*
D34*
X96674000Y-114400000D02*
X96647000Y-114427000D01*
D39*
X96684000Y-94705000D02*
X96647000Y-94742000D01*
D38*
X96647000Y-58547000D02*
X96647000Y-62738000D01*
D34*
X96901000Y-62992000D02*
X96647000Y-62738000D01*
%TO.N,+3V3 Eth*%
D42*
X41900000Y-98775000D02*
X41900000Y-117221000D01*
X46990000Y-117221000D02*
X47752000Y-117983000D01*
X44750000Y-68400000D02*
X41900000Y-71250000D01*
X41900000Y-71250000D02*
X41900000Y-98775000D01*
D36*
X52250000Y-82000000D02*
X51560507Y-82000000D01*
D42*
X41900000Y-117221000D02*
X46990000Y-117221000D01*
D35*
X53850000Y-82000000D02*
X52250000Y-82000000D01*
D36*
X51560507Y-82000000D02*
X51460507Y-81900000D01*
D42*
X45700000Y-68400000D02*
X44750000Y-68400000D01*
X47752000Y-117983000D02*
X48641000Y-117983000D01*
%TO.N,3V3 MCU*%
X67740000Y-77060000D02*
X66504000Y-78296000D01*
X66504000Y-78296000D02*
X63494000Y-78296000D01*
X63494000Y-78296000D02*
X63050000Y-78740000D01*
X73500000Y-77060000D02*
X67740000Y-77060000D01*
%TO.N,+3V3A*%
D35*
X50500000Y-92460000D02*
X50500000Y-93450000D01*
D42*
X53439200Y-93266400D02*
X53134400Y-92961600D01*
D35*
X43850000Y-97200000D02*
X44550000Y-96500000D01*
D42*
X55241238Y-89500000D02*
X54460000Y-89500000D01*
X48450000Y-93521800D02*
X48450000Y-93421800D01*
X55413149Y-88500000D02*
X54460000Y-88500000D01*
D35*
X46000000Y-96500000D02*
X46000000Y-96450000D01*
X44550000Y-96500000D02*
X46000000Y-96500000D01*
X43800000Y-99000000D02*
X45650000Y-100850000D01*
X46000000Y-94450000D02*
X46000000Y-96450000D01*
X43850000Y-97250000D02*
X43850000Y-97200000D01*
D42*
X54555600Y-86575600D02*
X54480000Y-86500000D01*
X55281337Y-89540100D02*
X55241238Y-89500000D01*
X48500000Y-93371800D02*
X48500000Y-92480000D01*
D35*
X50500000Y-93450000D02*
X50350000Y-93600000D01*
X45650000Y-100850000D02*
X45650000Y-105080000D01*
X43850000Y-97250000D02*
X43800000Y-97300000D01*
D43*
X54480000Y-92049200D02*
X54480000Y-86500000D01*
D35*
X45650000Y-105080000D02*
X46250000Y-105680000D01*
D43*
X54049200Y-92480000D02*
X54480000Y-92049200D01*
X53280000Y-92480000D02*
X48500000Y-92480000D01*
D35*
X46000000Y-96450000D02*
X47850000Y-96450000D01*
D42*
X47970000Y-92480000D02*
X46000000Y-94450000D01*
D43*
X53280000Y-92480000D02*
X54049200Y-92480000D01*
D42*
X52160000Y-92460000D02*
X52000000Y-92460000D01*
X48421800Y-93550000D02*
X48450000Y-93521800D01*
X48500000Y-92480000D02*
X47970000Y-92480000D01*
X53280000Y-92480000D02*
X52180000Y-92480000D01*
D35*
X43800000Y-97300000D02*
X43800000Y-99000000D01*
D42*
X52180000Y-92480000D02*
X52160000Y-92460000D01*
X55674400Y-86575600D02*
X54555600Y-86575600D01*
X53134400Y-92961600D02*
X53134400Y-92865600D01*
X48450000Y-93421800D02*
X48500000Y-93371800D01*
X55950000Y-86300000D02*
X55674400Y-86575600D01*
D35*
X47850000Y-96450000D02*
X47900000Y-96400000D01*
%TO.N,Net-(U1-EN)*%
D34*
X83250000Y-112000000D02*
X76750000Y-112000000D01*
%TO.N,/Outputs/NO_5*%
D38*
X130343800Y-110505000D02*
X130343800Y-118005000D01*
X143713200Y-119500000D02*
X131838800Y-119500000D01*
X131838800Y-119500000D02*
X130343800Y-118005000D01*
%TO.N,/Outputs/NO_3*%
X130191400Y-76205000D02*
X130295000Y-76205000D01*
X131486400Y-85000000D02*
X130191400Y-83705000D01*
X130191400Y-76205000D02*
X130191400Y-83705000D01*
X143750000Y-85000000D02*
X131486400Y-85000000D01*
%TO.N,/Outputs/NC_3*%
X143646000Y-75400000D02*
X143764000Y-75518000D01*
%TO.N,Net-(U3-EXRES1)*%
D35*
X51880083Y-94130083D02*
X52250000Y-94500000D01*
X51880083Y-93496439D02*
X51880083Y-94130083D01*
%TO.N,Net-(U3-1V2O)*%
D36*
X54960507Y-85500000D02*
X54075507Y-85500000D01*
X55278907Y-85818400D02*
X54960507Y-85500000D01*
%TO.N,/MCU/Ether_CS*%
D35*
X58434000Y-78234000D02*
X58434000Y-87315499D01*
X46000000Y-73200000D02*
X53400000Y-73200000D01*
X53400000Y-73200000D02*
X58434000Y-78234000D01*
X58434000Y-87315499D02*
X60500000Y-89381500D01*
X60500000Y-89381500D02*
X60500000Y-90800000D01*
%TO.N,/MCU/Ether_SCLK*%
X61346000Y-90280105D02*
X61342000Y-90276105D01*
X65450000Y-94700000D02*
X65350000Y-94800000D01*
X45740288Y-72573000D02*
X45323000Y-72990288D01*
X45323000Y-72990288D02*
X45323000Y-73735173D01*
X65350000Y-94800000D02*
X65350000Y-94292052D01*
X58888000Y-78045948D02*
X53415052Y-72573000D01*
X61346000Y-90288052D02*
X61346000Y-90280105D01*
X61342000Y-89581447D02*
X58888000Y-87127446D01*
X61342000Y-90276105D02*
X61342000Y-89581447D01*
X53415052Y-72573000D02*
X45740288Y-72573000D01*
X65350000Y-94292052D02*
X61346000Y-90288052D01*
X58888000Y-87127446D02*
X58888000Y-78045948D01*
%TO.N,/MCU/Ether_MISO*%
X53619000Y-72119000D02*
X45552236Y-72119000D01*
X61800000Y-90100000D02*
X61800000Y-90092053D01*
X65450000Y-93430000D02*
X65130000Y-93430000D01*
X44696000Y-72975236D02*
X44696000Y-74487235D01*
X61800000Y-90092053D02*
X61796000Y-90088052D01*
X61796000Y-89393394D02*
X59342000Y-86939393D01*
X45552236Y-72119000D02*
X44696000Y-72975236D01*
X65130000Y-93430000D02*
X61800000Y-90100000D01*
X59342000Y-86939393D02*
X59342000Y-77842000D01*
X59342000Y-77842000D02*
X53619000Y-72119000D01*
X61796000Y-90088052D02*
X61796000Y-89393394D01*
%TO.N,/MCU/Ether_MOSI*%
X44069000Y-75137352D02*
X44069000Y-72960184D01*
X58450000Y-76307947D02*
X53807053Y-71665000D01*
X45364184Y-71665000D02*
X45550000Y-71665000D01*
X62250000Y-89205341D02*
X59796000Y-86751340D01*
X65400000Y-92160000D02*
X65390000Y-92150000D01*
X59796000Y-86751340D02*
X59796000Y-77638052D01*
X59796000Y-77638052D02*
X58465895Y-76307947D01*
X44069000Y-72960184D02*
X45364184Y-71665000D01*
X65390000Y-92150000D02*
X64500000Y-92150000D01*
X62250000Y-89900000D02*
X62250000Y-89205341D01*
X58465895Y-76307947D02*
X58450000Y-76307947D01*
X64500000Y-92150000D02*
X62250000Y-89900000D01*
X53807053Y-71665000D02*
X45364184Y-71665000D01*
%TO.N,/MCU/Ether_INT*%
X43442000Y-75822651D02*
X43442000Y-72958000D01*
X64850000Y-89000000D02*
X65400000Y-89550000D01*
X60250000Y-86563288D02*
X62686712Y-89000000D01*
X43442000Y-72958000D02*
X43615000Y-72785000D01*
X62686712Y-89000000D02*
X64850000Y-89000000D01*
X43615000Y-72772131D02*
X45176132Y-71211000D01*
X60250000Y-77450000D02*
X60250000Y-86563288D01*
X43615000Y-72785000D02*
X43615000Y-72772131D01*
X54011000Y-71211000D02*
X60250000Y-77450000D01*
X45176132Y-71211000D02*
X54011000Y-71211000D01*
%TO.N,/MCU/Ether_RESET*%
D44*
X54188532Y-70782400D02*
X54186269Y-70782400D01*
X43894922Y-70782400D02*
X43027000Y-71650322D01*
X54186269Y-70782400D02*
X43894922Y-70782400D01*
%TO.N,MCU_RELAY_3*%
D42*
X90951000Y-80656465D02*
X90950997Y-80949728D01*
X90997000Y-80995746D02*
X90996998Y-81496995D01*
X80010000Y-63050318D02*
X80010000Y-72657472D01*
X91043000Y-81543000D02*
X91043000Y-90890000D01*
X90996992Y-80995729D02*
X90996992Y-80995738D01*
X89632499Y-76234000D02*
X90951000Y-77552501D01*
X80010000Y-72657472D02*
X83586530Y-76234001D01*
X90997000Y-81497000D02*
X91043000Y-81543000D01*
X90996992Y-80995738D02*
X90997000Y-80995746D01*
X90951000Y-80949736D02*
X90996992Y-80995729D01*
X90950997Y-80949728D02*
X90951000Y-80949736D01*
X83586530Y-76234001D02*
X89632499Y-76234000D01*
X90996998Y-81496995D02*
X90997000Y-81497000D01*
X90951000Y-77552501D02*
X90951000Y-80656465D01*
X79994000Y-61468000D02*
X80010000Y-61484000D01*
X80010000Y-62425682D02*
X80010000Y-63050318D01*
X80010000Y-61484000D02*
X80010000Y-62425682D01*
%TO.N,MCU_RELAY_4*%
X91751000Y-81249736D02*
X91705000Y-81203736D01*
X91705000Y-81203736D02*
X91705003Y-80702485D01*
X80764000Y-72410207D02*
X80764000Y-64320318D01*
X91659000Y-77259237D02*
X89925764Y-75526001D01*
X91704992Y-80702474D02*
X91704992Y-80702466D01*
X83879793Y-75526001D02*
X80764000Y-72410207D01*
X91704992Y-80702466D02*
X91659000Y-80656473D01*
X91797000Y-89620000D02*
X91797000Y-81697000D01*
X80764000Y-64320318D02*
X80764000Y-63695682D01*
X91797000Y-81697000D02*
X91751000Y-81651000D01*
X80764000Y-63695682D02*
X80764000Y-62738000D01*
X89925764Y-75526001D02*
X83879793Y-75526001D01*
X91705003Y-80702485D02*
X91704992Y-80702474D01*
X91659000Y-80656473D02*
X91659000Y-77259237D01*
X91751000Y-81651000D02*
X91751000Y-81249736D01*
%TO.N,MCU_RELAY_1*%
X89045971Y-77650000D02*
X83000000Y-77650000D01*
X83000000Y-77650000D02*
X78532000Y-73181999D01*
X78486000Y-67186000D02*
X78486000Y-59055000D01*
X78532000Y-67232000D02*
X78486000Y-67186000D01*
X89535000Y-80363195D02*
X89535000Y-78139029D01*
X89535000Y-94700000D02*
X89535000Y-81536254D01*
X89534994Y-80949720D02*
X89534996Y-80949718D01*
X89535000Y-81536254D02*
X89534994Y-81536244D01*
X89534994Y-81536244D02*
X89534994Y-80949720D01*
X89534998Y-80363197D02*
X89535000Y-80363195D01*
X89535000Y-78139029D02*
X89045971Y-77650000D01*
X78532000Y-73181999D02*
X78532000Y-67232000D01*
X89534996Y-80949718D02*
X89534998Y-80363197D01*
X78486000Y-59055000D02*
X78359000Y-58928000D01*
%TO.N,MCU_RELAY_2*%
X90288998Y-81790259D02*
X90289000Y-81790261D01*
X79240000Y-72888736D02*
X83293267Y-76942001D01*
X90288992Y-81289002D02*
X90288998Y-81289007D01*
X83293267Y-76942001D02*
X89339235Y-76942000D01*
X79240000Y-60198000D02*
X79240000Y-72888736D01*
X90288998Y-81289007D02*
X90288998Y-81790259D01*
X90288992Y-81288992D02*
X90288992Y-81289002D01*
X89339235Y-76942000D02*
X90243000Y-77845765D01*
X90243000Y-77845765D02*
X90243000Y-80656461D01*
X90243000Y-81243000D02*
X90288992Y-81288992D01*
X90289000Y-81790261D02*
X90289000Y-93430000D01*
X90243000Y-80656461D02*
X90242997Y-80656464D01*
X90242994Y-81242984D02*
X90243000Y-81242994D01*
X90242997Y-80656464D02*
X90242994Y-81242984D01*
X90243000Y-81242994D02*
X90243000Y-81243000D01*
%TO.N,MCU_RELAY_5*%
X92367000Y-80363210D02*
X92367000Y-76965973D01*
X92367000Y-76965973D02*
X90219028Y-74818001D01*
X92551000Y-80801000D02*
X92413003Y-80663003D01*
X92551000Y-82000000D02*
X92551000Y-80801000D01*
X81472000Y-72116944D02*
X81472000Y-64008000D01*
X92413003Y-80663003D02*
X92413005Y-80409223D01*
X81472000Y-64008000D02*
X81518000Y-64008000D01*
X92413005Y-80409223D02*
X92413000Y-80409210D01*
X84173057Y-74818001D02*
X81472000Y-72116944D01*
X90219028Y-74818001D02*
X84173057Y-74818001D01*
X92413000Y-80409210D02*
X92367000Y-80363210D01*
%TO.N,/Outputs/NO_1*%
D38*
X131809200Y-51500000D02*
X130597800Y-50288600D01*
X143500000Y-51500000D02*
X131809200Y-51500000D01*
X130597800Y-42788600D02*
X130597800Y-50288600D01*
%TO.N,/Outputs/NO_4*%
X143750000Y-102000000D02*
X131306000Y-102000000D01*
X131306000Y-102000000D02*
X130242200Y-100936200D01*
X130242200Y-93436200D02*
X130242200Y-100936200D01*
%TD*%
%TA.AperFunction,Conductor*%
%TO.N,GND*%
G36*
X115770151Y-33520185D02*
G01*
X115815906Y-33572989D01*
X115827112Y-33624509D01*
X115824058Y-77897964D01*
X115820851Y-124375512D01*
X115801163Y-124442547D01*
X115748356Y-124488298D01*
X115696852Y-124499500D01*
X40873990Y-124499500D01*
X40806951Y-124479815D01*
X40761196Y-124427011D01*
X40749990Y-124375500D01*
X40749987Y-120506762D01*
X41899500Y-120506762D01*
X41899500Y-120793237D01*
X41931572Y-121077891D01*
X41995317Y-121357181D01*
X41995321Y-121357193D01*
X42089929Y-121627565D01*
X42089935Y-121627579D01*
X42214223Y-121885666D01*
X42214225Y-121885669D01*
X42366634Y-122128227D01*
X42545243Y-122352195D01*
X42747805Y-122554757D01*
X42971773Y-122733366D01*
X43214331Y-122885775D01*
X43472428Y-123010068D01*
X43472434Y-123010070D01*
X43742806Y-123104678D01*
X43742818Y-123104682D01*
X44022102Y-123168426D01*
X44022105Y-123168426D01*
X44022108Y-123168427D01*
X44022107Y-123168427D01*
X44164434Y-123184463D01*
X44306763Y-123200499D01*
X44306764Y-123200500D01*
X44306767Y-123200500D01*
X44593236Y-123200500D01*
X44593236Y-123200499D01*
X44798815Y-123177336D01*
X44877891Y-123168427D01*
X44877892Y-123168426D01*
X44877898Y-123168426D01*
X45157182Y-123104682D01*
X45427572Y-123010068D01*
X45685669Y-122885775D01*
X45928227Y-122733366D01*
X46152195Y-122554757D01*
X46354757Y-122352195D01*
X46533366Y-122128227D01*
X46685775Y-121885669D01*
X46810068Y-121627572D01*
X46904682Y-121357182D01*
X46968426Y-121077898D01*
X47000500Y-120793233D01*
X47000500Y-120506767D01*
X46968426Y-120222102D01*
X46904682Y-119942818D01*
X46810068Y-119672428D01*
X46685775Y-119414331D01*
X46533366Y-119171773D01*
X46354757Y-118947805D01*
X46152195Y-118745243D01*
X46124447Y-118723115D01*
X46090046Y-118695681D01*
X45928227Y-118566634D01*
X45741637Y-118449392D01*
X45685666Y-118414223D01*
X45427579Y-118289935D01*
X45427565Y-118289929D01*
X45157193Y-118195321D01*
X45157181Y-118195317D01*
X44877891Y-118131572D01*
X44877892Y-118131572D01*
X44593237Y-118099500D01*
X44593233Y-118099500D01*
X44306767Y-118099500D01*
X44306762Y-118099500D01*
X44022108Y-118131572D01*
X43742818Y-118195317D01*
X43742806Y-118195321D01*
X43472434Y-118289929D01*
X43472420Y-118289935D01*
X43214333Y-118414223D01*
X42971774Y-118566633D01*
X42747805Y-118745242D01*
X42545242Y-118947805D01*
X42366633Y-119171774D01*
X42214223Y-119414333D01*
X42089935Y-119672420D01*
X42089929Y-119672434D01*
X41995321Y-119942806D01*
X41995317Y-119942818D01*
X41931572Y-120222108D01*
X41899500Y-120506762D01*
X40749987Y-120506762D01*
X40749987Y-120503288D01*
X40749987Y-119942806D01*
X40749973Y-98709108D01*
X41399500Y-98709108D01*
X41399500Y-98840892D01*
X41405104Y-98861805D01*
X41433608Y-98968186D01*
X41436059Y-98974102D01*
X41445500Y-99021559D01*
X41445500Y-117161164D01*
X41445500Y-117280836D01*
X41476473Y-117396431D01*
X41536309Y-117500070D01*
X41620930Y-117584691D01*
X41724569Y-117644527D01*
X41840164Y-117675500D01*
X46750378Y-117675500D01*
X46817417Y-117695185D01*
X46838059Y-117711819D01*
X47383968Y-118257728D01*
X47383978Y-118257739D01*
X47388308Y-118262069D01*
X47388309Y-118262070D01*
X47472930Y-118346691D01*
X47576569Y-118406527D01*
X47600993Y-118413071D01*
X47600995Y-118413072D01*
X47600996Y-118413072D01*
X47631386Y-118421215D01*
X47692164Y-118437501D01*
X47692166Y-118437501D01*
X47819432Y-118437501D01*
X47819448Y-118437500D01*
X48394440Y-118437500D01*
X48441894Y-118446939D01*
X48447806Y-118449387D01*
X48447814Y-118449392D01*
X48575108Y-118483500D01*
X48575110Y-118483500D01*
X48706890Y-118483500D01*
X48706892Y-118483500D01*
X48834186Y-118449392D01*
X48948314Y-118383500D01*
X49041500Y-118290314D01*
X49107392Y-118176186D01*
X49141500Y-118048892D01*
X49141500Y-117917108D01*
X49107392Y-117789814D01*
X49041500Y-117675686D01*
X48948314Y-117582500D01*
X48891250Y-117549554D01*
X48834187Y-117516608D01*
X48743022Y-117492181D01*
X48706892Y-117482500D01*
X48575108Y-117482500D01*
X48447817Y-117516607D01*
X48447815Y-117516607D01*
X48447814Y-117516608D01*
X48447812Y-117516608D01*
X48441894Y-117519061D01*
X48394440Y-117528500D01*
X47991622Y-117528500D01*
X47924583Y-117508815D01*
X47903941Y-117492181D01*
X47360761Y-116949001D01*
X47360759Y-116948998D01*
X47269072Y-116857311D01*
X47269066Y-116857306D01*
X47165434Y-116797474D01*
X47165429Y-116797472D01*
X47141003Y-116790926D01*
X47141003Y-116790927D01*
X47095419Y-116778713D01*
X47049836Y-116766499D01*
X46930164Y-116766499D01*
X46922568Y-116766499D01*
X46922552Y-116766500D01*
X42478500Y-116766500D01*
X42411461Y-116746815D01*
X42365706Y-116694011D01*
X42354500Y-116642500D01*
X42354500Y-114596379D01*
X46649500Y-114596379D01*
X46649500Y-114783620D01*
X46686025Y-114967243D01*
X46686027Y-114967251D01*
X46757676Y-115140228D01*
X46757681Y-115140237D01*
X46861697Y-115295907D01*
X46861700Y-115295911D01*
X46994088Y-115428299D01*
X46994092Y-115428302D01*
X47149762Y-115532318D01*
X47149768Y-115532321D01*
X47149769Y-115532322D01*
X47322749Y-115603973D01*
X47506379Y-115640499D01*
X47506383Y-115640500D01*
X47506384Y-115640500D01*
X47693617Y-115640500D01*
X47693618Y-115640499D01*
X47877251Y-115603973D01*
X48050231Y-115532322D01*
X48205908Y-115428302D01*
X48338302Y-115295908D01*
X48442322Y-115140231D01*
X48513973Y-114967251D01*
X48550500Y-114783616D01*
X48550500Y-114596384D01*
X48513973Y-114412749D01*
X48442322Y-114239769D01*
X48442321Y-114239768D01*
X48442318Y-114239762D01*
X48338302Y-114084092D01*
X48338299Y-114084088D01*
X48205911Y-113951700D01*
X48205907Y-113951697D01*
X48050237Y-113847681D01*
X48050228Y-113847676D01*
X47877252Y-113776027D01*
X47875409Y-113775660D01*
X47870233Y-113774631D01*
X47870231Y-113774630D01*
X47693620Y-113739500D01*
X47693616Y-113739500D01*
X47506384Y-113739500D01*
X47506379Y-113739500D01*
X47322756Y-113776025D01*
X47322748Y-113776027D01*
X47149771Y-113847676D01*
X47149762Y-113847681D01*
X46994092Y-113951697D01*
X46994088Y-113951700D01*
X46861700Y-114084088D01*
X46861697Y-114084092D01*
X46757681Y-114239762D01*
X46757676Y-114239771D01*
X46686027Y-114412748D01*
X46686025Y-114412756D01*
X46649500Y-114596379D01*
X42354500Y-114596379D01*
X42354500Y-113657065D01*
X50624500Y-113657065D01*
X50624500Y-113902934D01*
X50651227Y-114105939D01*
X50656591Y-114146677D01*
X50716217Y-114369205D01*
X50720222Y-114384152D01*
X50720225Y-114384162D01*
X50814303Y-114611285D01*
X50814307Y-114611294D01*
X50815886Y-114614029D01*
X50937233Y-114824208D01*
X50937235Y-114824211D01*
X50937236Y-114824212D01*
X51086897Y-115019254D01*
X51086903Y-115019261D01*
X51260738Y-115193096D01*
X51260745Y-115193102D01*
X51329176Y-115245611D01*
X51455792Y-115342767D01*
X51668708Y-115465694D01*
X51895847Y-115559778D01*
X52133323Y-115623409D01*
X52377073Y-115655500D01*
X52377080Y-115655500D01*
X52622920Y-115655500D01*
X52622927Y-115655500D01*
X52866677Y-115623409D01*
X53104153Y-115559778D01*
X53331292Y-115465694D01*
X53544208Y-115342767D01*
X53656286Y-115256766D01*
X53721453Y-115231573D01*
X53789898Y-115245611D01*
X53839888Y-115294425D01*
X53855552Y-115362516D01*
X53851546Y-115387236D01*
X53829942Y-115467860D01*
X53800001Y-115695289D01*
X53800000Y-115695305D01*
X53800000Y-115924694D01*
X53800001Y-115924710D01*
X53829942Y-116152137D01*
X53889318Y-116373730D01*
X53977102Y-116585659D01*
X53977106Y-116585669D01*
X54091799Y-116784324D01*
X54091805Y-116784331D01*
X54148381Y-116858064D01*
X54822672Y-116183772D01*
X54827757Y-116196047D01*
X54916949Y-116329532D01*
X55030468Y-116443051D01*
X55163953Y-116532243D01*
X55176225Y-116537326D01*
X54501934Y-117211617D01*
X54501934Y-117211618D01*
X54575666Y-117268194D01*
X54774330Y-117382893D01*
X54774340Y-117382897D01*
X54986269Y-117470681D01*
X55207862Y-117530057D01*
X55435289Y-117559998D01*
X55435306Y-117560000D01*
X55664694Y-117560000D01*
X55664710Y-117559998D01*
X55721974Y-117552460D01*
X55892137Y-117530057D01*
X56113730Y-117470681D01*
X56325659Y-117382897D01*
X56325668Y-117382893D01*
X56524327Y-117268197D01*
X56524334Y-117268192D01*
X56598064Y-117211617D01*
X55923773Y-116537326D01*
X55936047Y-116532243D01*
X56069532Y-116443051D01*
X56183051Y-116329532D01*
X56272243Y-116196047D01*
X56277326Y-116183773D01*
X56951617Y-116858064D01*
X57008192Y-116784334D01*
X57008197Y-116784327D01*
X57122893Y-116585668D01*
X57122897Y-116585659D01*
X57207277Y-116381947D01*
X75250000Y-116381947D01*
X75250000Y-116618052D01*
X75286934Y-116851247D01*
X75359897Y-117075802D01*
X75467087Y-117286174D01*
X75527338Y-117369104D01*
X75527340Y-117369105D01*
X76226212Y-116670233D01*
X76237482Y-116712292D01*
X76309890Y-116837708D01*
X76412292Y-116940110D01*
X76537708Y-117012518D01*
X76579765Y-117023787D01*
X75880893Y-117722658D01*
X75963828Y-117782914D01*
X76174197Y-117890102D01*
X76398752Y-117963065D01*
X76398751Y-117963065D01*
X76631948Y-118000000D01*
X76868052Y-118000000D01*
X77101247Y-117963065D01*
X77325802Y-117890102D01*
X77536163Y-117782918D01*
X77536169Y-117782914D01*
X77619104Y-117722658D01*
X77619105Y-117722658D01*
X76920233Y-117023787D01*
X76962292Y-117012518D01*
X77087708Y-116940110D01*
X77190110Y-116837708D01*
X77262518Y-116712292D01*
X77273787Y-116670234D01*
X77972658Y-117369105D01*
X77972658Y-117369104D01*
X78032914Y-117286169D01*
X78032918Y-117286163D01*
X78140102Y-117075802D01*
X78213065Y-116851247D01*
X78250000Y-116618052D01*
X78250000Y-116381947D01*
X81750000Y-116381947D01*
X81750000Y-116618052D01*
X81786934Y-116851247D01*
X81859897Y-117075802D01*
X81967087Y-117286174D01*
X82027338Y-117369104D01*
X82027340Y-117369105D01*
X82726212Y-116670233D01*
X82737482Y-116712292D01*
X82809890Y-116837708D01*
X82912292Y-116940110D01*
X83037708Y-117012518D01*
X83079765Y-117023787D01*
X82380893Y-117722658D01*
X82463828Y-117782914D01*
X82674197Y-117890102D01*
X82898752Y-117963065D01*
X82898751Y-117963065D01*
X83131948Y-118000000D01*
X83368052Y-118000000D01*
X83601247Y-117963065D01*
X83825802Y-117890102D01*
X84036163Y-117782918D01*
X84036169Y-117782914D01*
X84119104Y-117722658D01*
X84119105Y-117722658D01*
X83420233Y-117023787D01*
X83462292Y-117012518D01*
X83587708Y-116940110D01*
X83690110Y-116837708D01*
X83762518Y-116712292D01*
X83773787Y-116670234D01*
X84472658Y-117369105D01*
X84472658Y-117369104D01*
X84532914Y-117286169D01*
X84532918Y-117286163D01*
X84640102Y-117075802D01*
X84713065Y-116851247D01*
X84750000Y-116618052D01*
X84750000Y-116381947D01*
X85500000Y-116381947D01*
X85500000Y-116618052D01*
X85536934Y-116851247D01*
X85609897Y-117075802D01*
X85717087Y-117286174D01*
X85777338Y-117369104D01*
X85777340Y-117369105D01*
X86476212Y-116670233D01*
X86487482Y-116712292D01*
X86559890Y-116837708D01*
X86662292Y-116940110D01*
X86787708Y-117012518D01*
X86829765Y-117023787D01*
X86130893Y-117722658D01*
X86213828Y-117782914D01*
X86424197Y-117890102D01*
X86648752Y-117963065D01*
X86648751Y-117963065D01*
X86881948Y-118000000D01*
X87118052Y-118000000D01*
X87351247Y-117963065D01*
X87575802Y-117890102D01*
X87786163Y-117782918D01*
X87786169Y-117782914D01*
X87869104Y-117722658D01*
X87869105Y-117722658D01*
X87170233Y-117023787D01*
X87212292Y-117012518D01*
X87337708Y-116940110D01*
X87440110Y-116837708D01*
X87512518Y-116712292D01*
X87523787Y-116670233D01*
X88222658Y-117369105D01*
X88222658Y-117369104D01*
X88282914Y-117286169D01*
X88282918Y-117286163D01*
X88390102Y-117075802D01*
X88463065Y-116851247D01*
X88500000Y-116618052D01*
X88500000Y-116381947D01*
X92000000Y-116381947D01*
X92000000Y-116618052D01*
X92036934Y-116851247D01*
X92109897Y-117075802D01*
X92217087Y-117286174D01*
X92277338Y-117369104D01*
X92277340Y-117369105D01*
X92976212Y-116670233D01*
X92987482Y-116712292D01*
X93059890Y-116837708D01*
X93162292Y-116940110D01*
X93287708Y-117012518D01*
X93329765Y-117023787D01*
X92630893Y-117722658D01*
X92713828Y-117782914D01*
X92924197Y-117890102D01*
X93148752Y-117963065D01*
X93148751Y-117963065D01*
X93381948Y-118000000D01*
X93618052Y-118000000D01*
X93851247Y-117963065D01*
X94075802Y-117890102D01*
X94286163Y-117782918D01*
X94286169Y-117782914D01*
X94369104Y-117722658D01*
X94369105Y-117722658D01*
X93670233Y-117023787D01*
X93712292Y-117012518D01*
X93837708Y-116940110D01*
X93940110Y-116837708D01*
X94012518Y-116712292D01*
X94023787Y-116670234D01*
X94722658Y-117369105D01*
X94722658Y-117369104D01*
X94782914Y-117286169D01*
X94782918Y-117286163D01*
X94890102Y-117075802D01*
X94963065Y-116851247D01*
X95000000Y-116618052D01*
X95000000Y-116381947D01*
X94963065Y-116148752D01*
X94890102Y-115924197D01*
X94782914Y-115713828D01*
X94722658Y-115630894D01*
X94722658Y-115630893D01*
X94023787Y-116329765D01*
X94012518Y-116287708D01*
X93940110Y-116162292D01*
X93837708Y-116059890D01*
X93712292Y-115987482D01*
X93670234Y-115976212D01*
X94369105Y-115277340D01*
X94369104Y-115277338D01*
X94286174Y-115217087D01*
X94075802Y-115109897D01*
X93851247Y-115036934D01*
X93851248Y-115036934D01*
X93618052Y-115000000D01*
X93381948Y-115000000D01*
X93148752Y-115036934D01*
X92924197Y-115109897D01*
X92713830Y-115217084D01*
X92630894Y-115277340D01*
X93329766Y-115976212D01*
X93287708Y-115987482D01*
X93162292Y-116059890D01*
X93059890Y-116162292D01*
X92987482Y-116287708D01*
X92976212Y-116329766D01*
X92277340Y-115630894D01*
X92217084Y-115713830D01*
X92109897Y-115924197D01*
X92036934Y-116148752D01*
X92000000Y-116381947D01*
X88500000Y-116381947D01*
X88463065Y-116148752D01*
X88390102Y-115924197D01*
X88282914Y-115713828D01*
X88222658Y-115630894D01*
X88222658Y-115630893D01*
X87523787Y-116329765D01*
X87512518Y-116287708D01*
X87440110Y-116162292D01*
X87337708Y-116059890D01*
X87212292Y-115987482D01*
X87170234Y-115976212D01*
X87869105Y-115277340D01*
X87869104Y-115277339D01*
X87786174Y-115217087D01*
X87575802Y-115109897D01*
X87351247Y-115036934D01*
X87351248Y-115036934D01*
X87118052Y-115000000D01*
X86881948Y-115000000D01*
X86648752Y-115036934D01*
X86424197Y-115109897D01*
X86213830Y-115217084D01*
X86130894Y-115277340D01*
X86829766Y-115976212D01*
X86787708Y-115987482D01*
X86662292Y-116059890D01*
X86559890Y-116162292D01*
X86487482Y-116287708D01*
X86476212Y-116329766D01*
X85777340Y-115630894D01*
X85717084Y-115713830D01*
X85609897Y-115924197D01*
X85536934Y-116148752D01*
X85500000Y-116381947D01*
X84750000Y-116381947D01*
X84713065Y-116148752D01*
X84640102Y-115924197D01*
X84532914Y-115713828D01*
X84472658Y-115630894D01*
X84472658Y-115630893D01*
X83773787Y-116329765D01*
X83762518Y-116287708D01*
X83690110Y-116162292D01*
X83587708Y-116059890D01*
X83462292Y-115987482D01*
X83420234Y-115976212D01*
X84119105Y-115277340D01*
X84119104Y-115277339D01*
X84036174Y-115217087D01*
X83825802Y-115109897D01*
X83601247Y-115036934D01*
X83601248Y-115036934D01*
X83368052Y-115000000D01*
X83131948Y-115000000D01*
X82898752Y-115036934D01*
X82674197Y-115109897D01*
X82463830Y-115217084D01*
X82380894Y-115277340D01*
X83079766Y-115976212D01*
X83037708Y-115987482D01*
X82912292Y-116059890D01*
X82809890Y-116162292D01*
X82737482Y-116287708D01*
X82726212Y-116329766D01*
X82027340Y-115630894D01*
X81967084Y-115713830D01*
X81859897Y-115924197D01*
X81786934Y-116148752D01*
X81750000Y-116381947D01*
X78250000Y-116381947D01*
X78213065Y-116148752D01*
X78140102Y-115924197D01*
X78032914Y-115713828D01*
X77972658Y-115630894D01*
X77972658Y-115630893D01*
X77273787Y-116329765D01*
X77262518Y-116287708D01*
X77190110Y-116162292D01*
X77087708Y-116059890D01*
X76962292Y-115987482D01*
X76920234Y-115976212D01*
X77619105Y-115277340D01*
X77619104Y-115277339D01*
X77536174Y-115217087D01*
X77325802Y-115109897D01*
X77101247Y-115036934D01*
X77101248Y-115036934D01*
X76868052Y-115000000D01*
X76631948Y-115000000D01*
X76398752Y-115036934D01*
X76174197Y-115109897D01*
X75963830Y-115217084D01*
X75880894Y-115277340D01*
X76579766Y-115976212D01*
X76537708Y-115987482D01*
X76412292Y-116059890D01*
X76309890Y-116162292D01*
X76237482Y-116287708D01*
X76226212Y-116329766D01*
X75527340Y-115630894D01*
X75467084Y-115713830D01*
X75359897Y-115924197D01*
X75286934Y-116148752D01*
X75250000Y-116381947D01*
X57207277Y-116381947D01*
X57210681Y-116373730D01*
X57218385Y-116344981D01*
X57270057Y-116152137D01*
X57299998Y-115924710D01*
X57300000Y-115924694D01*
X57300000Y-115695305D01*
X57299998Y-115695289D01*
X57270057Y-115467863D01*
X57240269Y-115356693D01*
X57240269Y-115356692D01*
X57210682Y-115246271D01*
X57122897Y-115034340D01*
X57122893Y-115034330D01*
X57008194Y-114835666D01*
X56951618Y-114761934D01*
X56951617Y-114761934D01*
X56277326Y-115436225D01*
X56272243Y-115423953D01*
X56183051Y-115290468D01*
X56069532Y-115176949D01*
X55936047Y-115087757D01*
X55923772Y-115082672D01*
X56598064Y-114408381D01*
X56598064Y-114408380D01*
X56524331Y-114351805D01*
X56524324Y-114351799D01*
X56325669Y-114237106D01*
X56325659Y-114237102D01*
X56113730Y-114149318D01*
X55892137Y-114089942D01*
X55664710Y-114060001D01*
X55664694Y-114060000D01*
X55435306Y-114060000D01*
X55435289Y-114060001D01*
X55207862Y-114089942D01*
X54986269Y-114149318D01*
X54774340Y-114237102D01*
X54774331Y-114237106D01*
X54575662Y-114351808D01*
X54503910Y-114406865D01*
X54438741Y-114432058D01*
X54370296Y-114418019D01*
X54320307Y-114369205D01*
X54304645Y-114301113D01*
X54308647Y-114276410D01*
X54343409Y-114146677D01*
X54375500Y-113902927D01*
X54375500Y-113657073D01*
X54343409Y-113413323D01*
X54279778Y-113175847D01*
X54277745Y-113170940D01*
X54218024Y-113026760D01*
X54185694Y-112948708D01*
X54062767Y-112735792D01*
X53913101Y-112540744D01*
X53913096Y-112540738D01*
X53778975Y-112406617D01*
X60150000Y-112406617D01*
X60150000Y-112603382D01*
X60180778Y-112797705D01*
X60241581Y-112984835D01*
X60330905Y-113160145D01*
X60356319Y-113195125D01*
X60356320Y-113195125D01*
X60961944Y-112589501D01*
X60985326Y-112676764D01*
X61043911Y-112778236D01*
X61126764Y-112861089D01*
X61228236Y-112919674D01*
X61315497Y-112943055D01*
X60709873Y-113548677D01*
X60709873Y-113548678D01*
X60744858Y-113574096D01*
X60920164Y-113663418D01*
X61107294Y-113724221D01*
X61301618Y-113755000D01*
X61498382Y-113755000D01*
X61692705Y-113724221D01*
X61879835Y-113663418D01*
X62055143Y-113574095D01*
X62090125Y-113548678D01*
X62090126Y-113548678D01*
X61484503Y-112943055D01*
X61571764Y-112919674D01*
X61673236Y-112861089D01*
X61756089Y-112778236D01*
X61814674Y-112676764D01*
X61838055Y-112589503D01*
X62443678Y-113195126D01*
X62443678Y-113195125D01*
X62469095Y-113160143D01*
X62558418Y-112984835D01*
X62619221Y-112797705D01*
X62650000Y-112603382D01*
X62650000Y-112406617D01*
X62619221Y-112212294D01*
X62558418Y-112025164D01*
X62523658Y-111956942D01*
X62497454Y-111905513D01*
X75549500Y-111905513D01*
X75549500Y-112094486D01*
X75579059Y-112281118D01*
X75637454Y-112460836D01*
X75723240Y-112629199D01*
X75834310Y-112782073D01*
X75967927Y-112915690D01*
X76120801Y-113026760D01*
X76193834Y-113063972D01*
X76289163Y-113112545D01*
X76289165Y-113112545D01*
X76289168Y-113112547D01*
X76385497Y-113143846D01*
X76468881Y-113170940D01*
X76655514Y-113200500D01*
X76655519Y-113200500D01*
X76844486Y-113200500D01*
X77031118Y-113170940D01*
X77064341Y-113160145D01*
X77210832Y-113112547D01*
X77379199Y-113026760D01*
X77532073Y-112915690D01*
X77665690Y-112782073D01*
X77776760Y-112629199D01*
X77862547Y-112460832D01*
X77862548Y-112460829D01*
X77886803Y-112386182D01*
X77926241Y-112328506D01*
X77990599Y-112301308D01*
X78004734Y-112300500D01*
X81995266Y-112300500D01*
X82062305Y-112320185D01*
X82108060Y-112372989D01*
X82113197Y-112386182D01*
X82137451Y-112460829D01*
X82189808Y-112563585D01*
X82223240Y-112629199D01*
X82334310Y-112782073D01*
X82467927Y-112915690D01*
X82620801Y-113026760D01*
X82693834Y-113063972D01*
X82789163Y-113112545D01*
X82789165Y-113112545D01*
X82789168Y-113112547D01*
X82885497Y-113143846D01*
X82968881Y-113170940D01*
X83155514Y-113200500D01*
X83155519Y-113200500D01*
X83344486Y-113200500D01*
X83531118Y-113170940D01*
X83564341Y-113160145D01*
X83710832Y-113112547D01*
X83879199Y-113026760D01*
X84032073Y-112915690D01*
X84165690Y-112782073D01*
X84276760Y-112629199D01*
X84362547Y-112460832D01*
X84420940Y-112281118D01*
X84426879Y-112243620D01*
X84450500Y-112094486D01*
X84450500Y-111905513D01*
X85799500Y-111905513D01*
X85799500Y-112094486D01*
X85829059Y-112281118D01*
X85887454Y-112460836D01*
X85973240Y-112629199D01*
X86084310Y-112782073D01*
X86217927Y-112915690D01*
X86370801Y-113026760D01*
X86443834Y-113063972D01*
X86539163Y-113112545D01*
X86539165Y-113112545D01*
X86539168Y-113112547D01*
X86635497Y-113143846D01*
X86718881Y-113170940D01*
X86905514Y-113200500D01*
X86905519Y-113200500D01*
X87094486Y-113200500D01*
X87281118Y-113170940D01*
X87314341Y-113160145D01*
X87460832Y-113112547D01*
X87629199Y-113026760D01*
X87782073Y-112915690D01*
X87915690Y-112782073D01*
X88026760Y-112629199D01*
X88112547Y-112460832D01*
X88170940Y-112281118D01*
X88176879Y-112243620D01*
X88200500Y-112094486D01*
X88200500Y-111905513D01*
X92299500Y-111905513D01*
X92299500Y-112094486D01*
X92329059Y-112281118D01*
X92387454Y-112460836D01*
X92473240Y-112629199D01*
X92584310Y-112782073D01*
X92717927Y-112915690D01*
X92870801Y-113026760D01*
X92943834Y-113063972D01*
X93039163Y-113112545D01*
X93039165Y-113112545D01*
X93039168Y-113112547D01*
X93135497Y-113143846D01*
X93218881Y-113170940D01*
X93405514Y-113200500D01*
X93405519Y-113200500D01*
X93594486Y-113200500D01*
X93781118Y-113170940D01*
X93814341Y-113160145D01*
X93960832Y-113112547D01*
X94129199Y-113026760D01*
X94282073Y-112915690D01*
X94415690Y-112782073D01*
X94526760Y-112629199D01*
X94612547Y-112460832D01*
X94670940Y-112281118D01*
X94676879Y-112243620D01*
X94700500Y-112094486D01*
X94700500Y-111905513D01*
X94670940Y-111718881D01*
X94614147Y-111544092D01*
X94612547Y-111539168D01*
X94612545Y-111539165D01*
X94612545Y-111539163D01*
X94559932Y-111435905D01*
X94526760Y-111370801D01*
X94415690Y-111217927D01*
X94282073Y-111084310D01*
X94129199Y-110973240D01*
X94114660Y-110965832D01*
X93960836Y-110887454D01*
X93781118Y-110829059D01*
X93594486Y-110799500D01*
X93594481Y-110799500D01*
X93405519Y-110799500D01*
X93405514Y-110799500D01*
X93218881Y-110829059D01*
X93039163Y-110887454D01*
X92870800Y-110973240D01*
X92783579Y-111036610D01*
X92717927Y-111084310D01*
X92717925Y-111084312D01*
X92717924Y-111084312D01*
X92584312Y-111217924D01*
X92584312Y-111217925D01*
X92584310Y-111217927D01*
X92571161Y-111236025D01*
X92473240Y-111370800D01*
X92387454Y-111539163D01*
X92329059Y-111718881D01*
X92299500Y-111905513D01*
X88200500Y-111905513D01*
X88170940Y-111718881D01*
X88114147Y-111544092D01*
X88112547Y-111539168D01*
X88112545Y-111539165D01*
X88112545Y-111539163D01*
X88059932Y-111435905D01*
X88026760Y-111370801D01*
X87915690Y-111217927D01*
X87782073Y-111084310D01*
X87629199Y-110973240D01*
X87614660Y-110965832D01*
X87460836Y-110887454D01*
X87281118Y-110829059D01*
X87094486Y-110799500D01*
X87094481Y-110799500D01*
X86905519Y-110799500D01*
X86905514Y-110799500D01*
X86718881Y-110829059D01*
X86539163Y-110887454D01*
X86370800Y-110973240D01*
X86283579Y-111036610D01*
X86217927Y-111084310D01*
X86217925Y-111084312D01*
X86217924Y-111084312D01*
X86084312Y-111217924D01*
X86084312Y-111217925D01*
X86084310Y-111217927D01*
X86071161Y-111236025D01*
X85973240Y-111370800D01*
X85887454Y-111539163D01*
X85829059Y-111718881D01*
X85799500Y-111905513D01*
X84450500Y-111905513D01*
X84420940Y-111718881D01*
X84364147Y-111544092D01*
X84362547Y-111539168D01*
X84362545Y-111539165D01*
X84362545Y-111539163D01*
X84309932Y-111435905D01*
X84276760Y-111370801D01*
X84165690Y-111217927D01*
X84032073Y-111084310D01*
X83879199Y-110973240D01*
X83864660Y-110965832D01*
X83710836Y-110887454D01*
X83531118Y-110829059D01*
X83344486Y-110799500D01*
X83344481Y-110799500D01*
X83155519Y-110799500D01*
X83155514Y-110799500D01*
X82968881Y-110829059D01*
X82789163Y-110887454D01*
X82620800Y-110973240D01*
X82533579Y-111036610D01*
X82467927Y-111084310D01*
X82467925Y-111084312D01*
X82467924Y-111084312D01*
X82334312Y-111217924D01*
X82334312Y-111217925D01*
X82334310Y-111217927D01*
X82321161Y-111236025D01*
X82223240Y-111370800D01*
X82137451Y-111539170D01*
X82113197Y-111613818D01*
X82073759Y-111671494D01*
X82009401Y-111698692D01*
X81995266Y-111699500D01*
X78004734Y-111699500D01*
X77937695Y-111679815D01*
X77891940Y-111627011D01*
X77886803Y-111613818D01*
X77862548Y-111539170D01*
X77834635Y-111484388D01*
X77776760Y-111370801D01*
X77665690Y-111217927D01*
X77532073Y-111084310D01*
X77379199Y-110973240D01*
X77364660Y-110965832D01*
X77210836Y-110887454D01*
X77031118Y-110829059D01*
X76844486Y-110799500D01*
X76844481Y-110799500D01*
X76655519Y-110799500D01*
X76655514Y-110799500D01*
X76468881Y-110829059D01*
X76289163Y-110887454D01*
X76120800Y-110973240D01*
X76033579Y-111036610D01*
X75967927Y-111084310D01*
X75967925Y-111084312D01*
X75967924Y-111084312D01*
X75834312Y-111217924D01*
X75834312Y-111217925D01*
X75834310Y-111217927D01*
X75821161Y-111236025D01*
X75723240Y-111370800D01*
X75637454Y-111539163D01*
X75579059Y-111718881D01*
X75549500Y-111905513D01*
X62497454Y-111905513D01*
X62469096Y-111849858D01*
X62443678Y-111814873D01*
X62443677Y-111814873D01*
X61838055Y-112420496D01*
X61814674Y-112333236D01*
X61756089Y-112231764D01*
X61673236Y-112148911D01*
X61571764Y-112090326D01*
X61484502Y-112066944D01*
X62090125Y-111461320D01*
X62090125Y-111461319D01*
X62055145Y-111435905D01*
X61879835Y-111346581D01*
X61692705Y-111285778D01*
X61498382Y-111255000D01*
X61301618Y-111255000D01*
X61107294Y-111285778D01*
X60920161Y-111346582D01*
X60744863Y-111435899D01*
X60744859Y-111435902D01*
X60709873Y-111461320D01*
X60709872Y-111461320D01*
X61315498Y-112066944D01*
X61228236Y-112090326D01*
X61126764Y-112148911D01*
X61043911Y-112231764D01*
X60985326Y-112333236D01*
X60961944Y-112420497D01*
X60356320Y-111814872D01*
X60356320Y-111814873D01*
X60330902Y-111849859D01*
X60330899Y-111849863D01*
X60241582Y-112025161D01*
X60180778Y-112212294D01*
X60150000Y-112406617D01*
X53778975Y-112406617D01*
X53739261Y-112366903D01*
X53739254Y-112366897D01*
X53544212Y-112217236D01*
X53544211Y-112217235D01*
X53544208Y-112217233D01*
X53331292Y-112094306D01*
X53331285Y-112094303D01*
X53104162Y-112000225D01*
X53104155Y-112000223D01*
X53104153Y-112000222D01*
X52866677Y-111936591D01*
X52825939Y-111931227D01*
X52622934Y-111904500D01*
X52622927Y-111904500D01*
X52377073Y-111904500D01*
X52377065Y-111904500D01*
X52145059Y-111935045D01*
X52133323Y-111936591D01*
X51959005Y-111983299D01*
X51895847Y-112000222D01*
X51895837Y-112000225D01*
X51668714Y-112094303D01*
X51668705Y-112094307D01*
X51455787Y-112217236D01*
X51260745Y-112366897D01*
X51260738Y-112366903D01*
X51086903Y-112540738D01*
X51086897Y-112540745D01*
X50937236Y-112735787D01*
X50814307Y-112948705D01*
X50814303Y-112948714D01*
X50720225Y-113175837D01*
X50720222Y-113175847D01*
X50656592Y-113413320D01*
X50656590Y-113413331D01*
X50624500Y-113657065D01*
X42354500Y-113657065D01*
X42354500Y-112056379D01*
X46649500Y-112056379D01*
X46649500Y-112243620D01*
X46686025Y-112427243D01*
X46686027Y-112427251D01*
X46757676Y-112600228D01*
X46757681Y-112600237D01*
X46861697Y-112755907D01*
X46861700Y-112755911D01*
X46994088Y-112888299D01*
X46994092Y-112888302D01*
X47149762Y-112992318D01*
X47149768Y-112992321D01*
X47149769Y-112992322D01*
X47322749Y-113063973D01*
X47506379Y-113100499D01*
X47506383Y-113100500D01*
X47506384Y-113100500D01*
X47693617Y-113100500D01*
X47693618Y-113100499D01*
X47877251Y-113063973D01*
X48050231Y-112992322D01*
X48205908Y-112888302D01*
X48338302Y-112755908D01*
X48442322Y-112600231D01*
X48513973Y-112427251D01*
X48550500Y-112243616D01*
X48550500Y-112056384D01*
X48513973Y-111872749D01*
X48450239Y-111718882D01*
X48442323Y-111699771D01*
X48442318Y-111699762D01*
X48338302Y-111544092D01*
X48338299Y-111544088D01*
X48205911Y-111411700D01*
X48205907Y-111411697D01*
X48050237Y-111307681D01*
X48050227Y-111307676D01*
X47934772Y-111259853D01*
X47934770Y-111259852D01*
X47877255Y-111236028D01*
X47877243Y-111236025D01*
X47693620Y-111199500D01*
X47693616Y-111199500D01*
X47506384Y-111199500D01*
X47506379Y-111199500D01*
X47322756Y-111236025D01*
X47322748Y-111236027D01*
X47149771Y-111307676D01*
X47149762Y-111307681D01*
X46994092Y-111411697D01*
X46994088Y-111411700D01*
X46861700Y-111544088D01*
X46861697Y-111544092D01*
X46757681Y-111699762D01*
X46757676Y-111699771D01*
X46686027Y-111872748D01*
X46686025Y-111872756D01*
X46649500Y-112056379D01*
X42354500Y-112056379D01*
X42354500Y-111151379D01*
X57909500Y-111151379D01*
X57909500Y-111338620D01*
X57946025Y-111522243D01*
X57946027Y-111522251D01*
X58017676Y-111695228D01*
X58017681Y-111695237D01*
X58121697Y-111850907D01*
X58121700Y-111850911D01*
X58254088Y-111983299D01*
X58254092Y-111983302D01*
X58409762Y-112087318D01*
X58409771Y-112087323D01*
X58426630Y-112094306D01*
X58582749Y-112158973D01*
X58766379Y-112195499D01*
X58766383Y-112195500D01*
X58766384Y-112195500D01*
X58953617Y-112195500D01*
X58953618Y-112195499D01*
X59137251Y-112158973D01*
X59310231Y-112087322D01*
X59465908Y-111983302D01*
X59598302Y-111850908D01*
X59702322Y-111695231D01*
X59773973Y-111522251D01*
X59777598Y-111504023D01*
X59781505Y-111484388D01*
X59810499Y-111338620D01*
X59810500Y-111338617D01*
X59810500Y-111151383D01*
X59810499Y-111151379D01*
X59773974Y-110967756D01*
X59773973Y-110967749D01*
X59702322Y-110794769D01*
X59702321Y-110794768D01*
X59702318Y-110794762D01*
X59598302Y-110639092D01*
X59598299Y-110639088D01*
X59465911Y-110506700D01*
X59465907Y-110506697D01*
X59310237Y-110402681D01*
X59310228Y-110402676D01*
X59137251Y-110331027D01*
X59137243Y-110331025D01*
X58953620Y-110294500D01*
X58953616Y-110294500D01*
X58766384Y-110294500D01*
X58766379Y-110294500D01*
X58582756Y-110331025D01*
X58582748Y-110331027D01*
X58409771Y-110402676D01*
X58409762Y-110402681D01*
X58254092Y-110506697D01*
X58254088Y-110506700D01*
X58121700Y-110639088D01*
X58121697Y-110639092D01*
X58017681Y-110794762D01*
X58017676Y-110794771D01*
X57946027Y-110967748D01*
X57946025Y-110967756D01*
X57909500Y-111151379D01*
X42354500Y-111151379D01*
X42354500Y-109871064D01*
X60446300Y-109871064D01*
X60446300Y-110058935D01*
X60482948Y-110243176D01*
X60482951Y-110243188D01*
X60554839Y-110416743D01*
X60659213Y-110572951D01*
X60792048Y-110705786D01*
X60948256Y-110810160D01*
X61121811Y-110882048D01*
X61121816Y-110882050D01*
X61306064Y-110918699D01*
X61306068Y-110918700D01*
X61306069Y-110918700D01*
X61493932Y-110918700D01*
X61493933Y-110918699D01*
X61678184Y-110882050D01*
X61764965Y-110846104D01*
X61851743Y-110810160D01*
X61851744Y-110810159D01*
X61851747Y-110810158D01*
X62007949Y-110705788D01*
X62140788Y-110572949D01*
X62245158Y-110416747D01*
X62247741Y-110410513D01*
X62295794Y-110294500D01*
X62317050Y-110243184D01*
X62353700Y-110058931D01*
X62353700Y-109871069D01*
X62317050Y-109686816D01*
X62263201Y-109556812D01*
X62245160Y-109513256D01*
X62140786Y-109357048D01*
X62007951Y-109224213D01*
X61851743Y-109119839D01*
X61678188Y-109047951D01*
X61678176Y-109047948D01*
X61493935Y-109011300D01*
X61493931Y-109011300D01*
X61306069Y-109011300D01*
X61306064Y-109011300D01*
X61121823Y-109047948D01*
X61121811Y-109047951D01*
X60948256Y-109119839D01*
X60792048Y-109224213D01*
X60659213Y-109357048D01*
X60554839Y-109513256D01*
X60482951Y-109686811D01*
X60482948Y-109686823D01*
X60446300Y-109871064D01*
X42354500Y-109871064D01*
X42354500Y-108425001D01*
X45554039Y-108425001D01*
X45565442Y-108511627D01*
X45565444Y-108511633D01*
X45625899Y-108657585D01*
X45722075Y-108782924D01*
X45847414Y-108879100D01*
X45993366Y-108939555D01*
X45993372Y-108939557D01*
X46049998Y-108947011D01*
X46050000Y-108947010D01*
X46450000Y-108947010D01*
X46450001Y-108947011D01*
X46506627Y-108939557D01*
X46506633Y-108939555D01*
X46652585Y-108879100D01*
X46777924Y-108782924D01*
X46874100Y-108657586D01*
X46934554Y-108511634D01*
X46934555Y-108511630D01*
X46945961Y-108425000D01*
X46450000Y-108425000D01*
X46450000Y-108947010D01*
X46050000Y-108947010D01*
X46050000Y-108425000D01*
X45554041Y-108425000D01*
X45554039Y-108425001D01*
X42354500Y-108425001D01*
X42354500Y-99021559D01*
X42363941Y-98974102D01*
X42366388Y-98968192D01*
X42366392Y-98968186D01*
X42400500Y-98840892D01*
X42400500Y-98709108D01*
X42366392Y-98581814D01*
X42366389Y-98581810D01*
X42363938Y-98575890D01*
X42354500Y-98528439D01*
X42354500Y-97183055D01*
X43341500Y-97183055D01*
X43341500Y-97316945D01*
X43358941Y-97382036D01*
X43376153Y-97446274D01*
X43420183Y-97522536D01*
X43443098Y-97562225D01*
X43443671Y-97562970D01*
X43443958Y-97563714D01*
X43447163Y-97569264D01*
X43446297Y-97569763D01*
X43468869Y-97628137D01*
X43469300Y-97638463D01*
X43469300Y-99043539D01*
X43491836Y-99127646D01*
X43535374Y-99203055D01*
X43535376Y-99203057D01*
X43604010Y-99271691D01*
X43604016Y-99271696D01*
X45282981Y-100950661D01*
X45316466Y-101011984D01*
X45319300Y-101038342D01*
X45319300Y-105123539D01*
X45324565Y-105143187D01*
X45341836Y-105207646D01*
X45385374Y-105283055D01*
X45385376Y-105283057D01*
X45454010Y-105351691D01*
X45454016Y-105351696D01*
X45809981Y-105707661D01*
X45843415Y-105768750D01*
X45846300Y-105781891D01*
X45846301Y-105855344D01*
X45849246Y-105880737D01*
X45886556Y-105965237D01*
X45889220Y-105977369D01*
X45887622Y-106000328D01*
X45890611Y-106023153D01*
X45884612Y-106043581D01*
X45884370Y-106047070D01*
X45883080Y-106048798D01*
X45881540Y-106054046D01*
X45874024Y-106071069D01*
X45852415Y-106120009D01*
X45849500Y-106145131D01*
X45849500Y-106494856D01*
X45849502Y-106494882D01*
X45852413Y-106519987D01*
X45852415Y-106519991D01*
X45897793Y-106622764D01*
X45913181Y-106638152D01*
X45946666Y-106699475D01*
X45949500Y-106725833D01*
X45949500Y-107179167D01*
X45929815Y-107246206D01*
X45913181Y-107266848D01*
X45897794Y-107282234D01*
X45852415Y-107385006D01*
X45852415Y-107385008D01*
X45849500Y-107410131D01*
X45849500Y-107508148D01*
X45829815Y-107575187D01*
X45800987Y-107606523D01*
X45722077Y-107667073D01*
X45625899Y-107792413D01*
X45565445Y-107938365D01*
X45565444Y-107938369D01*
X45554038Y-108025000D01*
X46945959Y-108025000D01*
X46945960Y-108024998D01*
X46934557Y-107938372D01*
X46934556Y-107938369D01*
X46917401Y-107896953D01*
X46909932Y-107827484D01*
X46941207Y-107765004D01*
X47001296Y-107729352D01*
X47031962Y-107725500D01*
X58206297Y-107725500D01*
X58273336Y-107745185D01*
X58319091Y-107797989D01*
X58329035Y-107867147D01*
X58300010Y-107930703D01*
X58275187Y-107952603D01*
X58254089Y-107966699D01*
X58121700Y-108099088D01*
X58121697Y-108099092D01*
X58017681Y-108254762D01*
X58017676Y-108254771D01*
X57946027Y-108427748D01*
X57946025Y-108427756D01*
X57909500Y-108611379D01*
X57909500Y-108798620D01*
X57946025Y-108982243D01*
X57946027Y-108982251D01*
X58017676Y-109155228D01*
X58017681Y-109155237D01*
X58121697Y-109310907D01*
X58121700Y-109310911D01*
X58254088Y-109443299D01*
X58254092Y-109443302D01*
X58409762Y-109547318D01*
X58409771Y-109547323D01*
X58448956Y-109563554D01*
X58582749Y-109618973D01*
X58766379Y-109655499D01*
X58766383Y-109655500D01*
X58766384Y-109655500D01*
X58953617Y-109655500D01*
X58953618Y-109655499D01*
X59137251Y-109618973D01*
X59310231Y-109547322D01*
X59465908Y-109443302D01*
X59598302Y-109310908D01*
X59702322Y-109155231D01*
X59773973Y-108982251D01*
X59810500Y-108798616D01*
X59810500Y-108611384D01*
X59773973Y-108427749D01*
X59702322Y-108254769D01*
X59702321Y-108254768D01*
X59702318Y-108254762D01*
X59598302Y-108099092D01*
X59598299Y-108099088D01*
X59465910Y-107966699D01*
X59444813Y-107952603D01*
X59400007Y-107898991D01*
X59391300Y-107829666D01*
X59421454Y-107766638D01*
X59480897Y-107729918D01*
X59513703Y-107725500D01*
X60412803Y-107725500D01*
X60479842Y-107745185D01*
X60525597Y-107797989D01*
X60527364Y-107802047D01*
X60557676Y-107875228D01*
X60557681Y-107875237D01*
X60661697Y-108030907D01*
X60661700Y-108030911D01*
X60794088Y-108163299D01*
X60794092Y-108163302D01*
X60949762Y-108267318D01*
X60949768Y-108267321D01*
X60949769Y-108267322D01*
X61122749Y-108338973D01*
X61260590Y-108366391D01*
X61306379Y-108375499D01*
X61306383Y-108375500D01*
X61306384Y-108375500D01*
X61493617Y-108375500D01*
X61493618Y-108375499D01*
X61677251Y-108338973D01*
X61850231Y-108267322D01*
X62005908Y-108163302D01*
X62138302Y-108030908D01*
X62242322Y-107875231D01*
X62313973Y-107702251D01*
X62350500Y-107518616D01*
X62350500Y-107331384D01*
X62313973Y-107147749D01*
X62242322Y-106974769D01*
X62242321Y-106974768D01*
X62242318Y-106974762D01*
X62138302Y-106819092D01*
X62138299Y-106819088D01*
X62005911Y-106686700D01*
X62005907Y-106686697D01*
X61850237Y-106582681D01*
X61850228Y-106582676D01*
X61677251Y-106511027D01*
X61677243Y-106511025D01*
X61493620Y-106474500D01*
X61493616Y-106474500D01*
X61306384Y-106474500D01*
X61306379Y-106474500D01*
X61122756Y-106511025D01*
X61122748Y-106511027D01*
X60949771Y-106582676D01*
X60949762Y-106582681D01*
X60794092Y-106686697D01*
X60794088Y-106686700D01*
X60661700Y-106819088D01*
X60661697Y-106819092D01*
X60557681Y-106974762D01*
X60557676Y-106974771D01*
X60527364Y-107047953D01*
X60483523Y-107102356D01*
X60417229Y-107124421D01*
X60412803Y-107124500D01*
X59548005Y-107124500D01*
X59480966Y-107104815D01*
X59435211Y-107052011D01*
X59425267Y-106982853D01*
X59454292Y-106919297D01*
X59463691Y-106910145D01*
X59463642Y-106910096D01*
X59600785Y-106772952D01*
X59600786Y-106772951D01*
X59600788Y-106772949D01*
X59705158Y-106616747D01*
X59777050Y-106443184D01*
X59813700Y-106258931D01*
X59813700Y-106071069D01*
X59777050Y-105886816D01*
X59764015Y-105855346D01*
X59705160Y-105713256D01*
X59600786Y-105557048D01*
X59467951Y-105424213D01*
X59467377Y-105423742D01*
X59467156Y-105423418D01*
X59463642Y-105419904D01*
X59464308Y-105419237D01*
X59428043Y-105365997D01*
X59426172Y-105296152D01*
X59462359Y-105236384D01*
X59525115Y-105205668D01*
X59546042Y-105203889D01*
X60416957Y-105203889D01*
X60483996Y-105223574D01*
X60529751Y-105276378D01*
X60531518Y-105280437D01*
X60554838Y-105336740D01*
X60554844Y-105336750D01*
X60659213Y-105492951D01*
X60792048Y-105625786D01*
X60948256Y-105730160D01*
X61121811Y-105802048D01*
X61121816Y-105802050D01*
X61306064Y-105838699D01*
X61306068Y-105838700D01*
X61306069Y-105838700D01*
X61493932Y-105838700D01*
X61493933Y-105838699D01*
X61678184Y-105802050D01*
X61818378Y-105743980D01*
X61851743Y-105730160D01*
X61851744Y-105730159D01*
X61851747Y-105730158D01*
X62007949Y-105625788D01*
X62140788Y-105492949D01*
X62245158Y-105336747D01*
X62252161Y-105319842D01*
X62298633Y-105207646D01*
X62317050Y-105163184D01*
X62353700Y-104978931D01*
X62353700Y-104791069D01*
X62317050Y-104606816D01*
X62308164Y-104585363D01*
X62245160Y-104433256D01*
X62140786Y-104277048D01*
X62007951Y-104144213D01*
X61851743Y-104039839D01*
X61678188Y-103967951D01*
X61678176Y-103967948D01*
X61493935Y-103931300D01*
X61493931Y-103931300D01*
X61306069Y-103931300D01*
X61306064Y-103931300D01*
X61121823Y-103967948D01*
X61121811Y-103967951D01*
X60948256Y-104039839D01*
X60792048Y-104144213D01*
X60659213Y-104277048D01*
X60554844Y-104433249D01*
X60554838Y-104433259D01*
X60531518Y-104489563D01*
X60487678Y-104543967D01*
X60421384Y-104566032D01*
X60416957Y-104566111D01*
X59843712Y-104566111D01*
X59776673Y-104546426D01*
X59730918Y-104493622D01*
X59720974Y-104424464D01*
X59743941Y-104368478D01*
X59746706Y-104364731D01*
X59765601Y-104339130D01*
X59810822Y-104209895D01*
X59813700Y-104179205D01*
X59813699Y-103070796D01*
X59810822Y-103040105D01*
X59765601Y-102910870D01*
X59724948Y-102855787D01*
X59684295Y-102800704D01*
X59609659Y-102745621D01*
X59574130Y-102719399D01*
X59574128Y-102719398D01*
X59444897Y-102674178D01*
X59444895Y-102674177D01*
X59414209Y-102671300D01*
X58305801Y-102671300D01*
X58288964Y-102672878D01*
X58275105Y-102674178D01*
X58275103Y-102674178D01*
X58275099Y-102674179D01*
X58145871Y-102719398D01*
X58035704Y-102800704D01*
X57954398Y-102910871D01*
X57909178Y-103040102D01*
X57909177Y-103040104D01*
X57906300Y-103070790D01*
X57906300Y-104179199D01*
X57908760Y-104205432D01*
X57895418Y-104274016D01*
X57847115Y-104324500D01*
X57785301Y-104341005D01*
X57366007Y-104341005D01*
X57298968Y-104321320D01*
X57253213Y-104268516D01*
X57242007Y-104217005D01*
X57242007Y-103836925D01*
X57242006Y-103836918D01*
X57213982Y-103714137D01*
X57159340Y-103600670D01*
X57159337Y-103600665D01*
X57080813Y-103502199D01*
X56982346Y-103423674D01*
X56982341Y-103423671D01*
X56868874Y-103369029D01*
X56746093Y-103341005D01*
X56746088Y-103341005D01*
X56725101Y-103341005D01*
X56613627Y-103341005D01*
X56563120Y-103341005D01*
X56500148Y-103341005D01*
X56500142Y-103341005D01*
X56377361Y-103369029D01*
X56263894Y-103423671D01*
X56263889Y-103423674D01*
X56165423Y-103502199D01*
X56086898Y-103600665D01*
X56086895Y-103600670D01*
X56032253Y-103714137D01*
X56004229Y-103836918D01*
X56004229Y-104217005D01*
X55984544Y-104284044D01*
X55931740Y-104329799D01*
X55880229Y-104341005D01*
X55629316Y-104341005D01*
X55562277Y-104321320D01*
X55516522Y-104268516D01*
X55508520Y-104231736D01*
X55506377Y-104232019D01*
X55505316Y-104223961D01*
X55505316Y-104223959D01*
X55470989Y-104095851D01*
X55436259Y-104035696D01*
X55404678Y-103980996D01*
X55404674Y-103980991D01*
X55310896Y-103887213D01*
X55310891Y-103887209D01*
X55196039Y-103820900D01*
X55196038Y-103820899D01*
X55164010Y-103812317D01*
X55067929Y-103786572D01*
X54935303Y-103786572D01*
X54858438Y-103807168D01*
X54807193Y-103820899D01*
X54807192Y-103820900D01*
X54692340Y-103887209D01*
X54692335Y-103887213D01*
X54598557Y-103980991D01*
X54598553Y-103980996D01*
X54532244Y-104095848D01*
X54532243Y-104095849D01*
X54523153Y-104129774D01*
X54497916Y-104223959D01*
X54497916Y-104223961D01*
X54497916Y-104356582D01*
X54497915Y-104356582D01*
X54532243Y-104484694D01*
X54532244Y-104484695D01*
X54598553Y-104599547D01*
X54598554Y-104599548D01*
X54598556Y-104599551D01*
X54605010Y-104606005D01*
X54611326Y-104612321D01*
X54644809Y-104673645D01*
X54639823Y-104743337D01*
X54611326Y-104787679D01*
X54598553Y-104800452D01*
X54532244Y-104915304D01*
X54532243Y-104915305D01*
X54531517Y-104918016D01*
X54497916Y-105043415D01*
X54497916Y-105043417D01*
X54497916Y-105176038D01*
X54497915Y-105176038D01*
X54532243Y-105304150D01*
X54532244Y-105304151D01*
X54598553Y-105419003D01*
X54598555Y-105419006D01*
X54598556Y-105419007D01*
X54692337Y-105512788D01*
X54692338Y-105512789D01*
X54692340Y-105512790D01*
X54749766Y-105545944D01*
X54807195Y-105579101D01*
X54935303Y-105613428D01*
X54935306Y-105613428D01*
X55067926Y-105613428D01*
X55067929Y-105613428D01*
X55196037Y-105579101D01*
X55310895Y-105512788D01*
X55358747Y-105464936D01*
X55420070Y-105431451D01*
X55446428Y-105428617D01*
X57973041Y-105428617D01*
X58040080Y-105448302D01*
X58085835Y-105501106D01*
X58095779Y-105570264D01*
X58076144Y-105621507D01*
X58014840Y-105713256D01*
X57942951Y-105886811D01*
X57942948Y-105886823D01*
X57906300Y-106071064D01*
X57906300Y-106258935D01*
X57942948Y-106443176D01*
X57942951Y-106443188D01*
X58014839Y-106616743D01*
X58119213Y-106772951D01*
X58256358Y-106910096D01*
X58255176Y-106911277D01*
X58289994Y-106962392D01*
X58291865Y-107032237D01*
X58255678Y-107092005D01*
X58192922Y-107122721D01*
X58171995Y-107124500D01*
X46950833Y-107124500D01*
X46883794Y-107104815D01*
X46863152Y-107088181D01*
X46587652Y-106812681D01*
X46554167Y-106751358D01*
X46559151Y-106681666D01*
X46587652Y-106637319D01*
X46602206Y-106622765D01*
X46647585Y-106519991D01*
X46650500Y-106494865D01*
X46650499Y-106145136D01*
X46650497Y-106145117D01*
X46647586Y-106120012D01*
X46647585Y-106120011D01*
X46647585Y-106120009D01*
X46618459Y-106054046D01*
X46609388Y-105984769D01*
X46618457Y-105953882D01*
X46650754Y-105880737D01*
X46653700Y-105855345D01*
X46653699Y-105504656D01*
X46650754Y-105479263D01*
X46604892Y-105375395D01*
X46524605Y-105295108D01*
X46497312Y-105283057D01*
X46420738Y-105249246D01*
X46395346Y-105246300D01*
X46395345Y-105246300D01*
X46335342Y-105246300D01*
X46268303Y-105226615D01*
X46247661Y-105209981D01*
X46017019Y-104979339D01*
X45983534Y-104918016D01*
X45980700Y-104891658D01*
X45980700Y-100806465D01*
X45980700Y-100806462D01*
X45958164Y-100722354D01*
X45914626Y-100646945D01*
X45853055Y-100585374D01*
X45848724Y-100581043D01*
X45848713Y-100581033D01*
X44167019Y-98899339D01*
X44133534Y-98838016D01*
X44130700Y-98811658D01*
X44130700Y-97739789D01*
X44150385Y-97672750D01*
X44167019Y-97652108D01*
X44205266Y-97613861D01*
X44256901Y-97562226D01*
X44323847Y-97446274D01*
X44358500Y-97316945D01*
X44358500Y-97210542D01*
X44378185Y-97143503D01*
X44394819Y-97122860D01*
X44440679Y-97077001D01*
X44581712Y-96935968D01*
X44650663Y-96867018D01*
X44711986Y-96833534D01*
X44738344Y-96830700D01*
X46043535Y-96830700D01*
X46043538Y-96830700D01*
X46127646Y-96808164D01*
X46146440Y-96797312D01*
X46208441Y-96780700D01*
X47511536Y-96780700D01*
X47578575Y-96800385D01*
X47587023Y-96806324D01*
X47587770Y-96806897D01*
X47587774Y-96806901D01*
X47703726Y-96873847D01*
X47833055Y-96908500D01*
X47833057Y-96908500D01*
X47966943Y-96908500D01*
X47966945Y-96908500D01*
X48096274Y-96873847D01*
X48212226Y-96806901D01*
X48306901Y-96712226D01*
X48373847Y-96596274D01*
X48408500Y-96466945D01*
X48408500Y-96333055D01*
X48373847Y-96203726D01*
X48306901Y-96087774D01*
X48212226Y-95993099D01*
X48096274Y-95926153D01*
X47966945Y-95891500D01*
X47833055Y-95891500D01*
X47703725Y-95926153D01*
X47587775Y-95993098D01*
X47497891Y-96082982D01*
X47436567Y-96116466D01*
X47410210Y-96119300D01*
X46454700Y-96119300D01*
X46387661Y-96099615D01*
X46341906Y-96046811D01*
X46330700Y-95995300D01*
X46330700Y-94817947D01*
X46339344Y-94788506D01*
X46345868Y-94758520D01*
X46349622Y-94753504D01*
X46350385Y-94750908D01*
X46351117Y-94750000D01*
X50460069Y-94750000D01*
X50462832Y-94785122D01*
X50462833Y-94785128D01*
X50507592Y-94939188D01*
X50507593Y-94939191D01*
X50589261Y-95077285D01*
X50589268Y-95077294D01*
X50702705Y-95190731D01*
X50702714Y-95190738D01*
X50840805Y-95272404D01*
X50980000Y-95312844D01*
X50980000Y-94750000D01*
X50460069Y-94750000D01*
X46351117Y-94750000D01*
X46367019Y-94730266D01*
X47706419Y-93390866D01*
X47767742Y-93357381D01*
X47837434Y-93362365D01*
X47893367Y-93404237D01*
X47917784Y-93469701D01*
X47918100Y-93478547D01*
X47918100Y-93616310D01*
X47918099Y-93616310D01*
X47952427Y-93744422D01*
X47952428Y-93744423D01*
X48018737Y-93859275D01*
X48018739Y-93859278D01*
X48018740Y-93859279D01*
X48112521Y-93953060D01*
X48112522Y-93953061D01*
X48112524Y-93953062D01*
X48128811Y-93962465D01*
X48227379Y-94019373D01*
X48355487Y-94053700D01*
X48355490Y-94053700D01*
X48488110Y-94053700D01*
X48488113Y-94053700D01*
X48616221Y-94019373D01*
X48731079Y-93953060D01*
X48824860Y-93859279D01*
X48891173Y-93744421D01*
X48925500Y-93616313D01*
X48925500Y-93568550D01*
X48929723Y-93536463D01*
X48957700Y-93432057D01*
X48957700Y-93311542D01*
X48957700Y-93188700D01*
X48977385Y-93121661D01*
X49030189Y-93075906D01*
X49081700Y-93064700D01*
X49873599Y-93064700D01*
X49940638Y-93084385D01*
X49986393Y-93137189D01*
X49996337Y-93206347D01*
X49967312Y-93269903D01*
X49961280Y-93276381D01*
X49946941Y-93290719D01*
X49946937Y-93290724D01*
X49880628Y-93405576D01*
X49880627Y-93405577D01*
X49865825Y-93460821D01*
X49846300Y-93533687D01*
X49846300Y-93533689D01*
X49846300Y-93666310D01*
X49846299Y-93666310D01*
X49880627Y-93794422D01*
X49880628Y-93794423D01*
X49946937Y-93909275D01*
X49946939Y-93909278D01*
X49946940Y-93909279D01*
X50040721Y-94003060D01*
X50040722Y-94003061D01*
X50040724Y-94003062D01*
X50090753Y-94031946D01*
X50155579Y-94069373D01*
X50283687Y-94103700D01*
X50283690Y-94103700D01*
X50337440Y-94103700D01*
X50404479Y-94123385D01*
X50450234Y-94176189D01*
X50461058Y-94237427D01*
X50460069Y-94250000D01*
X50980000Y-94250000D01*
X50980000Y-93687154D01*
X50967329Y-93677641D01*
X50942424Y-93677570D01*
X50883754Y-93639627D01*
X50855680Y-93580763D01*
X50853700Y-93569815D01*
X50853700Y-93533687D01*
X50833596Y-93458659D01*
X50832680Y-93453594D01*
X50833095Y-93449717D01*
X50830700Y-93431525D01*
X50830700Y-93188700D01*
X50850385Y-93121661D01*
X50903189Y-93075906D01*
X50954700Y-93064700D01*
X51336645Y-93064700D01*
X51403684Y-93084385D01*
X51449439Y-93137189D01*
X51459383Y-93206347D01*
X51444032Y-93250700D01*
X51413692Y-93303249D01*
X51413692Y-93303250D01*
X51413691Y-93303252D01*
X51413691Y-93303253D01*
X51379583Y-93430547D01*
X51379583Y-93562331D01*
X51394047Y-93616313D01*
X51413691Y-93689626D01*
X51440333Y-93735771D01*
X51460153Y-93770100D01*
X51463387Y-93775700D01*
X51480000Y-93837701D01*
X51480000Y-95312843D01*
X51619194Y-95272404D01*
X51757285Y-95190738D01*
X51757294Y-95190731D01*
X51870731Y-95077294D01*
X51870735Y-95077288D01*
X51876568Y-95067426D01*
X51927634Y-95019740D01*
X51996376Y-95007233D01*
X52018002Y-95011496D01*
X52026827Y-95014068D01*
X52075683Y-95020500D01*
X52075684Y-95020500D01*
X52424317Y-95020500D01*
X52440601Y-95018356D01*
X52473173Y-95014068D01*
X52580404Y-94964065D01*
X52664065Y-94880404D01*
X52714068Y-94773173D01*
X52720500Y-94724316D01*
X52720500Y-94275684D01*
X52714068Y-94226827D01*
X52664065Y-94119596D01*
X52580404Y-94035935D01*
X52473173Y-93985932D01*
X52473171Y-93985931D01*
X52473172Y-93985931D01*
X52424317Y-93979500D01*
X52424316Y-93979500D01*
X52393890Y-93979500D01*
X52326851Y-93959815D01*
X52281096Y-93907011D01*
X52271152Y-93837853D01*
X52286503Y-93793500D01*
X52346473Y-93689628D01*
X52346475Y-93689625D01*
X52380583Y-93562331D01*
X52380583Y-93430547D01*
X52346475Y-93303253D01*
X52346473Y-93303249D01*
X52316134Y-93250700D01*
X52314702Y-93244798D01*
X52310727Y-93240211D01*
X52306562Y-93211246D01*
X52299661Y-93182800D01*
X52301646Y-93177061D01*
X52300783Y-93171053D01*
X52312939Y-93144433D01*
X52322513Y-93116773D01*
X52327285Y-93113019D01*
X52329808Y-93107497D01*
X52354428Y-93091674D01*
X52377435Y-93073582D01*
X52384785Y-93072165D01*
X52388586Y-93069723D01*
X52423521Y-93064700D01*
X52594566Y-93064700D01*
X52661605Y-93084385D01*
X52702739Y-93131856D01*
X52703828Y-93131228D01*
X52707088Y-93136876D01*
X52707360Y-93137189D01*
X52707637Y-93137826D01*
X52768144Y-93242628D01*
X52768150Y-93242636D01*
X52940711Y-93415197D01*
X52967589Y-93455421D01*
X52969824Y-93460818D01*
X53036137Y-93575675D01*
X53036139Y-93575678D01*
X53036140Y-93575679D01*
X53129921Y-93669460D01*
X53244779Y-93735773D01*
X53372887Y-93770100D01*
X53372890Y-93770100D01*
X53505510Y-93770100D01*
X53505513Y-93770100D01*
X53633621Y-93735773D01*
X53748479Y-93669460D01*
X53842260Y-93575679D01*
X53908573Y-93460821D01*
X53942900Y-93332713D01*
X53942900Y-93200087D01*
X53942900Y-93191959D01*
X53945547Y-93191959D01*
X53954298Y-93135848D01*
X54000679Y-93083593D01*
X54066471Y-93064700D01*
X54126174Y-93064700D01*
X54126177Y-93064700D01*
X54274886Y-93024853D01*
X54408214Y-92947876D01*
X54517076Y-92839014D01*
X54575626Y-92780464D01*
X54575634Y-92780454D01*
X54947876Y-92408215D01*
X55001064Y-92316090D01*
X55024853Y-92274886D01*
X55064700Y-92126177D01*
X55064700Y-90165120D01*
X55084385Y-90098081D01*
X55137189Y-90052326D01*
X55206347Y-90042382D01*
X55210088Y-90043149D01*
X55215022Y-90043799D01*
X55215024Y-90043800D01*
X55215026Y-90043800D01*
X55347647Y-90043800D01*
X55347650Y-90043800D01*
X55475758Y-90009473D01*
X55590616Y-89943160D01*
X55684397Y-89849379D01*
X55750710Y-89734521D01*
X55785037Y-89606413D01*
X55785037Y-89473787D01*
X55750710Y-89345679D01*
X55695470Y-89250000D01*
X55684399Y-89230824D01*
X55684395Y-89230819D01*
X55604793Y-89151217D01*
X55571308Y-89089894D01*
X55576292Y-89020202D01*
X55618164Y-88964269D01*
X55630464Y-88956154D01*
X55722428Y-88903060D01*
X55816209Y-88809279D01*
X55882522Y-88694421D01*
X55916849Y-88566313D01*
X55916849Y-88433687D01*
X55882522Y-88305579D01*
X55825789Y-88207314D01*
X55816211Y-88190724D01*
X55816207Y-88190719D01*
X55722429Y-88096941D01*
X55722424Y-88096937D01*
X55607572Y-88030628D01*
X55607571Y-88030627D01*
X55575543Y-88022045D01*
X55479462Y-87996300D01*
X55346836Y-87996300D01*
X55220793Y-88030073D01*
X55150943Y-88028410D01*
X55093081Y-87989247D01*
X55065577Y-87925019D01*
X55064700Y-87910298D01*
X55064700Y-87157300D01*
X55084385Y-87090261D01*
X55137189Y-87044506D01*
X55188700Y-87033300D01*
X55734656Y-87033300D01*
X55734658Y-87033300D01*
X55851066Y-87002108D01*
X55955435Y-86941851D01*
X56032448Y-86864838D01*
X56045819Y-86851467D01*
X56107142Y-86817982D01*
X56176834Y-86822966D01*
X56232767Y-86864838D01*
X56257184Y-86930302D01*
X56257500Y-86939148D01*
X56257500Y-91927982D01*
X56237815Y-91995021D01*
X56221181Y-92015663D01*
X50992336Y-97244507D01*
X50931013Y-97277992D01*
X50861321Y-97273008D01*
X50805388Y-97231136D01*
X50797268Y-97218827D01*
X50776615Y-97183055D01*
X50757144Y-97149330D01*
X50663958Y-97056144D01*
X50606894Y-97023198D01*
X50549831Y-96990252D01*
X50486183Y-96973198D01*
X50422536Y-96956144D01*
X50290752Y-96956144D01*
X50163456Y-96990252D01*
X50049330Y-97056144D01*
X50049327Y-97056146D01*
X49956146Y-97149327D01*
X49956144Y-97149330D01*
X49890252Y-97263456D01*
X49856144Y-97390752D01*
X49856144Y-97522535D01*
X49890252Y-97649832D01*
X49896395Y-97660470D01*
X49912869Y-97728370D01*
X49890018Y-97794397D01*
X49876690Y-97810153D01*
X48494910Y-99191935D01*
X48433936Y-99252908D01*
X48433934Y-99252911D01*
X48390819Y-99327589D01*
X48368500Y-99410885D01*
X48368500Y-100578350D01*
X48348815Y-100645389D01*
X48296011Y-100691144D01*
X48226853Y-100701088D01*
X48175609Y-100681452D01*
X48050237Y-100597681D01*
X48050228Y-100597676D01*
X47877251Y-100526027D01*
X47877243Y-100526025D01*
X47693620Y-100489500D01*
X47693616Y-100489500D01*
X47506384Y-100489500D01*
X47506379Y-100489500D01*
X47322756Y-100526025D01*
X47322748Y-100526027D01*
X47149771Y-100597676D01*
X47149762Y-100597681D01*
X46994092Y-100701697D01*
X46994088Y-100701700D01*
X46861700Y-100834088D01*
X46861697Y-100834092D01*
X46757681Y-100989762D01*
X46757676Y-100989771D01*
X46686027Y-101162748D01*
X46686025Y-101162756D01*
X46649500Y-101346379D01*
X46649500Y-101533620D01*
X46686025Y-101717243D01*
X46686027Y-101717251D01*
X46757676Y-101890228D01*
X46757681Y-101890237D01*
X46861697Y-102045907D01*
X46861700Y-102045911D01*
X46994088Y-102178299D01*
X46994092Y-102178302D01*
X47149762Y-102282318D01*
X47149768Y-102282321D01*
X47149769Y-102282322D01*
X47322749Y-102353973D01*
X47506379Y-102390499D01*
X47506383Y-102390500D01*
X47506384Y-102390500D01*
X47693617Y-102390500D01*
X47693618Y-102390499D01*
X47877251Y-102353973D01*
X48050231Y-102282322D01*
X48175609Y-102198546D01*
X48242286Y-102177669D01*
X48309666Y-102196153D01*
X48356357Y-102248132D01*
X48368500Y-102301649D01*
X48368500Y-102696982D01*
X48348815Y-102764021D01*
X48332181Y-102784663D01*
X48058567Y-103058276D01*
X47997244Y-103091761D01*
X47927552Y-103086777D01*
X47923435Y-103085157D01*
X47877251Y-103066027D01*
X47877247Y-103066026D01*
X47877243Y-103066024D01*
X47693620Y-103029500D01*
X47693616Y-103029500D01*
X47506384Y-103029500D01*
X47506379Y-103029500D01*
X47322756Y-103066025D01*
X47322748Y-103066027D01*
X47149771Y-103137676D01*
X47149762Y-103137681D01*
X46994092Y-103241697D01*
X46994088Y-103241700D01*
X46861700Y-103374088D01*
X46861697Y-103374092D01*
X46757681Y-103529762D01*
X46757676Y-103529771D01*
X46686027Y-103702748D01*
X46686025Y-103702756D01*
X46649500Y-103886379D01*
X46649500Y-104073620D01*
X46686025Y-104257243D01*
X46686027Y-104257251D01*
X46757676Y-104430228D01*
X46757681Y-104430237D01*
X46861697Y-104585907D01*
X46861700Y-104585911D01*
X46994088Y-104718299D01*
X46994092Y-104718302D01*
X47149762Y-104822318D01*
X47149768Y-104822321D01*
X47149769Y-104822322D01*
X47322749Y-104893973D01*
X47506379Y-104930499D01*
X47506383Y-104930500D01*
X47506384Y-104930500D01*
X47693617Y-104930500D01*
X47693618Y-104930499D01*
X47877251Y-104893973D01*
X48050231Y-104822322D01*
X48205908Y-104718302D01*
X48338302Y-104585908D01*
X48442322Y-104430231D01*
X48513973Y-104257251D01*
X48550500Y-104073616D01*
X48550500Y-103886384D01*
X48513973Y-103702749D01*
X48494842Y-103656564D01*
X48487373Y-103587097D01*
X48518647Y-103524617D01*
X48521662Y-103521491D01*
X48610822Y-103432332D01*
X48672143Y-103398850D01*
X48741834Y-103403834D01*
X48797768Y-103445706D01*
X48822184Y-103511171D01*
X48822500Y-103520016D01*
X48822500Y-104518324D01*
X48802815Y-104585363D01*
X48786181Y-104606005D01*
X48749502Y-104642683D01*
X48749500Y-104642686D01*
X48683608Y-104756812D01*
X48674325Y-104791459D01*
X48649500Y-104884108D01*
X48649500Y-105015892D01*
X48649760Y-105016861D01*
X48683608Y-105143187D01*
X48690254Y-105154698D01*
X48749500Y-105257314D01*
X48842686Y-105350500D01*
X48956814Y-105416392D01*
X49084108Y-105450500D01*
X49084110Y-105450500D01*
X49215890Y-105450500D01*
X49215892Y-105450500D01*
X49343186Y-105416392D01*
X49457314Y-105350500D01*
X49550500Y-105257314D01*
X49616392Y-105143186D01*
X49650500Y-105015892D01*
X49650500Y-104884108D01*
X49616392Y-104756814D01*
X49550500Y-104642686D01*
X49513819Y-104606005D01*
X49480334Y-104544682D01*
X49477500Y-104518324D01*
X49477500Y-102227065D01*
X50624500Y-102227065D01*
X50624500Y-102472934D01*
X50650617Y-102671300D01*
X50656591Y-102716677D01*
X50708625Y-102910871D01*
X50720222Y-102954152D01*
X50720225Y-102954162D01*
X50796242Y-103137681D01*
X50814306Y-103181292D01*
X50937233Y-103394208D01*
X50937235Y-103394211D01*
X50937236Y-103394212D01*
X51086897Y-103589254D01*
X51086903Y-103589261D01*
X51260738Y-103763096D01*
X51260744Y-103763101D01*
X51455792Y-103912767D01*
X51668708Y-104035694D01*
X51895847Y-104129778D01*
X52133323Y-104193409D01*
X52377073Y-104225500D01*
X52377080Y-104225500D01*
X52622920Y-104225500D01*
X52622927Y-104225500D01*
X52866677Y-104193409D01*
X53104153Y-104129778D01*
X53331292Y-104035694D01*
X53544208Y-103912767D01*
X53739256Y-103763101D01*
X53913101Y-103589256D01*
X54062767Y-103394208D01*
X54185694Y-103181292D01*
X54279778Y-102954153D01*
X54343409Y-102716677D01*
X54375500Y-102472927D01*
X54375500Y-102227073D01*
X54343409Y-101983323D01*
X54308650Y-101853600D01*
X54310313Y-101783755D01*
X54349475Y-101725892D01*
X54413704Y-101698388D01*
X54482606Y-101709974D01*
X54503911Y-101723135D01*
X54575661Y-101778190D01*
X54774331Y-101892893D01*
X54774340Y-101892897D01*
X54986269Y-101980681D01*
X55207862Y-102040057D01*
X55435289Y-102069998D01*
X55435306Y-102070000D01*
X55664694Y-102070000D01*
X55664710Y-102069998D01*
X55892137Y-102040057D01*
X56113730Y-101980681D01*
X56325659Y-101892897D01*
X56325668Y-101892893D01*
X56524327Y-101778197D01*
X56524334Y-101778192D01*
X56598064Y-101721617D01*
X55923773Y-101047326D01*
X55936047Y-101042243D01*
X56069532Y-100953051D01*
X56183051Y-100839532D01*
X56272243Y-100706047D01*
X56277326Y-100693773D01*
X56951617Y-101368064D01*
X57008192Y-101294334D01*
X57008197Y-101294327D01*
X57122893Y-101095668D01*
X57122897Y-101095659D01*
X57210681Y-100883730D01*
X57270057Y-100662137D01*
X57299998Y-100434710D01*
X57300000Y-100434694D01*
X57300000Y-100205305D01*
X57299998Y-100205289D01*
X57270057Y-99977862D01*
X57210681Y-99756269D01*
X57122897Y-99544340D01*
X57122893Y-99544330D01*
X57008194Y-99345666D01*
X56951618Y-99271934D01*
X56951617Y-99271934D01*
X56277326Y-99946225D01*
X56272243Y-99933953D01*
X56183051Y-99800468D01*
X56069532Y-99686949D01*
X55936047Y-99597757D01*
X55923772Y-99592672D01*
X56598064Y-98918381D01*
X56598064Y-98918380D01*
X56524331Y-98861805D01*
X56524324Y-98861799D01*
X56325669Y-98747106D01*
X56325659Y-98747102D01*
X56113730Y-98659318D01*
X55892137Y-98599942D01*
X55664710Y-98570001D01*
X55664694Y-98570000D01*
X55435306Y-98570000D01*
X55435289Y-98570001D01*
X55207862Y-98599942D01*
X54986269Y-98659318D01*
X54774340Y-98747102D01*
X54774330Y-98747106D01*
X54575673Y-98861801D01*
X54575659Y-98861810D01*
X54501934Y-98918380D01*
X55176226Y-99592673D01*
X55163953Y-99597757D01*
X55030468Y-99686949D01*
X54916949Y-99800468D01*
X54827757Y-99933953D01*
X54822672Y-99946226D01*
X54148380Y-99271934D01*
X54091810Y-99345659D01*
X54091801Y-99345673D01*
X53977106Y-99544330D01*
X53977102Y-99544340D01*
X53889318Y-99756269D01*
X53829942Y-99977862D01*
X53800001Y-100205289D01*
X53800000Y-100205305D01*
X53800000Y-100434694D01*
X53800001Y-100434710D01*
X53829942Y-100662137D01*
X53851546Y-100742762D01*
X53849883Y-100812612D01*
X53810721Y-100870475D01*
X53746492Y-100897979D01*
X53677590Y-100886393D01*
X53656285Y-100873232D01*
X53544212Y-100787236D01*
X53544211Y-100787235D01*
X53544208Y-100787233D01*
X53331292Y-100664306D01*
X53289379Y-100646945D01*
X53104162Y-100570225D01*
X53104155Y-100570223D01*
X53104153Y-100570222D01*
X52866677Y-100506591D01*
X52825939Y-100501227D01*
X52622934Y-100474500D01*
X52622927Y-100474500D01*
X52377073Y-100474500D01*
X52377065Y-100474500D01*
X52145059Y-100505045D01*
X52133323Y-100506591D01*
X51942479Y-100557727D01*
X51895847Y-100570222D01*
X51895837Y-100570225D01*
X51668714Y-100664303D01*
X51668705Y-100664307D01*
X51455787Y-100787236D01*
X51260745Y-100936897D01*
X51260738Y-100936903D01*
X51086903Y-101110738D01*
X51086897Y-101110745D01*
X50937236Y-101305787D01*
X50814307Y-101518705D01*
X50814303Y-101518714D01*
X50720225Y-101745837D01*
X50720222Y-101745847D01*
X50674660Y-101915890D01*
X50656592Y-101983320D01*
X50656590Y-101983331D01*
X50624500Y-102227065D01*
X49477500Y-102227065D01*
X49477500Y-99829069D01*
X49497185Y-99762030D01*
X49513819Y-99741388D01*
X50214388Y-99040819D01*
X50275711Y-99007334D01*
X50302069Y-99004500D01*
X50402826Y-99004500D01*
X50402828Y-99004500D01*
X50486122Y-98982181D01*
X50560802Y-98939065D01*
X50989065Y-98510802D01*
X51032181Y-98436122D01*
X51054500Y-98352828D01*
X51054500Y-98266596D01*
X51054500Y-98160017D01*
X51074185Y-98092978D01*
X51090819Y-98072336D01*
X51660819Y-97502336D01*
X51722142Y-97468851D01*
X51791834Y-97473835D01*
X51847767Y-97515707D01*
X51872184Y-97581171D01*
X51872500Y-97590017D01*
X51872500Y-98318324D01*
X51852815Y-98385363D01*
X51836181Y-98406005D01*
X51799502Y-98442683D01*
X51799500Y-98442686D01*
X51733608Y-98556812D01*
X51726909Y-98581814D01*
X51699500Y-98684108D01*
X51699500Y-98815892D01*
X51706199Y-98840892D01*
X51733608Y-98943187D01*
X51766554Y-99000250D01*
X51799500Y-99057314D01*
X51892686Y-99150500D01*
X52006814Y-99216392D01*
X52134108Y-99250500D01*
X52134110Y-99250500D01*
X52265890Y-99250500D01*
X52265892Y-99250500D01*
X52393186Y-99216392D01*
X52507314Y-99150500D01*
X52600500Y-99057314D01*
X52666392Y-98943186D01*
X52700500Y-98815892D01*
X52700500Y-98684108D01*
X52666392Y-98556814D01*
X52600500Y-98442686D01*
X52563819Y-98406005D01*
X52530334Y-98344682D01*
X52527500Y-98318324D01*
X52527500Y-97329068D01*
X52547185Y-97262029D01*
X52563814Y-97241392D01*
X55163782Y-94641423D01*
X55225103Y-94607940D01*
X55294795Y-94612924D01*
X55350728Y-94654796D01*
X55371235Y-94697011D01*
X55383608Y-94743186D01*
X55449500Y-94857314D01*
X55449502Y-94857316D01*
X55513181Y-94920995D01*
X55546666Y-94982318D01*
X55549500Y-95008676D01*
X55549500Y-97289562D01*
X55559739Y-97327775D01*
X55569979Y-97365991D01*
X55569981Y-97365994D01*
X55605572Y-97427638D01*
X55605573Y-97427640D01*
X55609255Y-97434017D01*
X55609540Y-97434511D01*
X55609544Y-97434515D01*
X56063181Y-97888152D01*
X56096666Y-97949475D01*
X56099500Y-97975833D01*
X56099500Y-98065891D01*
X56133608Y-98193187D01*
X56166554Y-98250250D01*
X56199500Y-98307314D01*
X56292686Y-98400500D01*
X56406814Y-98466392D01*
X56534108Y-98500500D01*
X56534110Y-98500500D01*
X56665890Y-98500500D01*
X56665892Y-98500500D01*
X56793186Y-98466392D01*
X56907314Y-98400500D01*
X57000500Y-98307314D01*
X57066392Y-98193186D01*
X57100500Y-98065892D01*
X57100500Y-97934108D01*
X57066392Y-97806814D01*
X57000500Y-97692686D01*
X56907314Y-97599500D01*
X56833529Y-97556900D01*
X56793187Y-97533608D01*
X56726378Y-97515707D01*
X56665892Y-97499500D01*
X56575833Y-97499500D01*
X56508794Y-97479815D01*
X56488152Y-97463181D01*
X56186819Y-97161848D01*
X56153334Y-97100525D01*
X56150500Y-97074167D01*
X56150500Y-95008676D01*
X56170185Y-94941637D01*
X56186819Y-94920995D01*
X56214628Y-94893186D01*
X56250500Y-94857314D01*
X56316392Y-94743186D01*
X56350500Y-94615892D01*
X56350500Y-94484108D01*
X56316392Y-94356814D01*
X56250500Y-94242686D01*
X56157314Y-94149500D01*
X56043186Y-94083608D01*
X55997011Y-94071235D01*
X55937352Y-94034870D01*
X55906823Y-93972023D01*
X55915118Y-93902648D01*
X55941422Y-93863783D01*
X57301065Y-92504142D01*
X57344181Y-92429462D01*
X57366500Y-92346168D01*
X57366500Y-92259936D01*
X57366500Y-83617120D01*
X57344181Y-83533826D01*
X57301065Y-83459146D01*
X57240090Y-83398171D01*
X53902854Y-80060935D01*
X53828174Y-80017819D01*
X53828175Y-80017819D01*
X53800409Y-80010379D01*
X53744880Y-79995500D01*
X52933407Y-79995500D01*
X52847175Y-79995500D01*
X52791645Y-80010379D01*
X52763880Y-80017819D01*
X52689202Y-80060934D01*
X52689199Y-80060936D01*
X52330179Y-80419956D01*
X52274592Y-80452049D01*
X52156814Y-80483608D01*
X52156812Y-80483608D01*
X52156812Y-80483609D01*
X52042686Y-80549500D01*
X52042683Y-80549502D01*
X51949502Y-80642683D01*
X51949500Y-80642686D01*
X51883608Y-80756812D01*
X51849500Y-80884108D01*
X51849500Y-81015891D01*
X51883608Y-81143187D01*
X51916554Y-81200250D01*
X51949500Y-81257314D01*
X52042686Y-81350500D01*
X52065096Y-81363438D01*
X52073913Y-81372685D01*
X52085471Y-81378140D01*
X52097565Y-81397491D01*
X52113311Y-81414004D01*
X52115729Y-81426552D01*
X52122503Y-81437389D01*
X52122215Y-81460203D01*
X52126535Y-81482611D01*
X52121784Y-81494476D01*
X52121624Y-81507253D01*
X52109048Y-81526291D01*
X52100567Y-81547476D01*
X52089252Y-81556259D01*
X52083114Y-81565552D01*
X52053185Y-81584258D01*
X52021084Y-81598433D01*
X51970995Y-81609000D01*
X51928683Y-81609000D01*
X51861644Y-81589315D01*
X51841002Y-81572681D01*
X51767823Y-81499502D01*
X51767821Y-81499500D01*
X51682951Y-81450500D01*
X51653694Y-81433608D01*
X51580529Y-81414004D01*
X51526399Y-81399500D01*
X51394615Y-81399500D01*
X51267319Y-81433608D01*
X51153193Y-81499500D01*
X51153190Y-81499502D01*
X51060009Y-81592683D01*
X51060007Y-81592686D01*
X50994115Y-81706812D01*
X50960007Y-81834108D01*
X50960007Y-81965891D01*
X50994115Y-82093187D01*
X51027061Y-82150250D01*
X51060007Y-82207314D01*
X51153193Y-82300500D01*
X51267321Y-82366392D01*
X51394615Y-82400500D01*
X51394617Y-82400500D01*
X51463214Y-82400500D01*
X51530253Y-82420185D01*
X51553260Y-82440000D01*
X52945959Y-82440000D01*
X52955644Y-82428956D01*
X52960372Y-82398647D01*
X53006753Y-82346392D01*
X53072544Y-82327500D01*
X53418324Y-82327500D01*
X53485363Y-82347185D01*
X53506005Y-82363819D01*
X53542686Y-82400500D01*
X53641521Y-82457563D01*
X53654863Y-82465266D01*
X53656814Y-82466392D01*
X53784108Y-82500500D01*
X53784110Y-82500500D01*
X53915890Y-82500500D01*
X53915892Y-82500500D01*
X54043186Y-82466392D01*
X54157314Y-82400500D01*
X54250500Y-82307314D01*
X54290625Y-82237814D01*
X54341190Y-82189601D01*
X54409797Y-82176377D01*
X54474662Y-82202345D01*
X54485692Y-82212135D01*
X56221181Y-83947624D01*
X56254666Y-84008947D01*
X56257500Y-84035305D01*
X56257500Y-85694356D01*
X56237815Y-85761395D01*
X56185011Y-85807150D01*
X56120176Y-85817638D01*
X56110654Y-85816608D01*
X56016945Y-85791500D01*
X55883055Y-85791500D01*
X55881694Y-85791864D01*
X55871679Y-85790782D01*
X55845330Y-85779850D01*
X55817964Y-85771815D01*
X55813475Y-85766635D01*
X55807143Y-85764008D01*
X55790884Y-85740564D01*
X55772209Y-85719011D01*
X55768194Y-85707845D01*
X55767327Y-85706594D01*
X55767281Y-85705305D01*
X55765230Y-85699599D01*
X55745299Y-85625214D01*
X55679407Y-85511086D01*
X55586221Y-85417900D01*
X55472093Y-85352008D01*
X55358539Y-85321581D01*
X55302953Y-85289488D01*
X55200589Y-85187124D01*
X55200587Y-85187122D01*
X55111428Y-85135646D01*
X55011983Y-85109000D01*
X55011982Y-85109000D01*
X54316268Y-85109000D01*
X54309093Y-85108792D01*
X54287046Y-85107514D01*
X54275498Y-85102415D01*
X54250372Y-85099500D01*
X54148777Y-85099500D01*
X54145184Y-85099292D01*
X54115528Y-85088685D01*
X54085320Y-85079815D01*
X54081880Y-85076650D01*
X54079396Y-85075762D01*
X54075709Y-85070973D01*
X54053984Y-85050987D01*
X53993433Y-84972077D01*
X53868093Y-84875899D01*
X53722138Y-84815444D01*
X53635507Y-84804038D01*
X53635507Y-85582295D01*
X53642174Y-85594505D01*
X53645008Y-85620863D01*
X53645008Y-85644856D01*
X53645009Y-85644882D01*
X53647920Y-85669987D01*
X53647922Y-85669991D01*
X53693300Y-85772764D01*
X53733681Y-85813145D01*
X53767166Y-85874468D01*
X53770000Y-85900826D01*
X53770000Y-87304504D01*
X53779765Y-87311836D01*
X53788947Y-87310516D01*
X53797342Y-87314349D01*
X53806570Y-87314376D01*
X53828617Y-87328632D01*
X53852503Y-87339541D01*
X53857492Y-87347304D01*
X53865242Y-87352316D01*
X53876082Y-87376231D01*
X53890277Y-87398319D01*
X53892220Y-87411834D01*
X53894087Y-87415953D01*
X53895300Y-87433254D01*
X53895300Y-87572555D01*
X53875615Y-87639594D01*
X53822811Y-87685349D01*
X53753653Y-87695293D01*
X53751024Y-87694725D01*
X53750000Y-87695494D01*
X53750000Y-90304504D01*
X53755214Y-90308419D01*
X53806574Y-90308566D01*
X53865244Y-90346508D01*
X53894088Y-90410146D01*
X53895300Y-90427443D01*
X53895300Y-90755631D01*
X53875615Y-90822670D01*
X53822811Y-90868425D01*
X53753653Y-90878369D01*
X53708179Y-90862363D01*
X53662195Y-90835168D01*
X53662190Y-90835166D01*
X53506918Y-90790055D01*
X53506912Y-90790054D01*
X53486000Y-90788409D01*
X53486000Y-91443200D01*
X53466315Y-91510239D01*
X53413511Y-91555994D01*
X53362000Y-91567200D01*
X53236000Y-91567200D01*
X53236000Y-91693200D01*
X53216315Y-91760239D01*
X53163511Y-91805994D01*
X53112000Y-91817200D01*
X52431495Y-91817200D01*
X52410058Y-91845752D01*
X52354065Y-91887543D01*
X52310897Y-91895300D01*
X51427444Y-91895300D01*
X51360405Y-91875615D01*
X51314650Y-91822811D01*
X51304706Y-91753653D01*
X51305273Y-91751024D01*
X51304505Y-91750000D01*
X49695495Y-91750000D01*
X49691579Y-91755214D01*
X49691557Y-91762960D01*
X49695294Y-91788947D01*
X49691458Y-91797345D01*
X49691432Y-91806576D01*
X49677176Y-91828618D01*
X49666269Y-91852503D01*
X49658502Y-91857494D01*
X49653489Y-91865246D01*
X49629577Y-91876083D01*
X49607491Y-91890277D01*
X49593969Y-91892221D01*
X49589850Y-91894088D01*
X49572556Y-91895300D01*
X49433254Y-91895300D01*
X49366215Y-91875615D01*
X49320460Y-91822811D01*
X49314847Y-91783774D01*
X49304505Y-91770000D01*
X47695496Y-91770000D01*
X47737968Y-91916194D01*
X47748805Y-91934519D01*
X47765986Y-92002243D01*
X47743826Y-92068506D01*
X47704076Y-92105024D01*
X47688969Y-92113746D01*
X47688964Y-92113750D01*
X45633750Y-94168963D01*
X45633744Y-94168971D01*
X45573495Y-94273327D01*
X45573492Y-94273332D01*
X45557994Y-94331173D01*
X45542300Y-94389742D01*
X45542300Y-94510258D01*
X45563094Y-94587863D01*
X45573492Y-94626667D01*
X45573495Y-94626672D01*
X45633744Y-94731028D01*
X45638695Y-94737480D01*
X45637443Y-94738440D01*
X45666466Y-94791590D01*
X45669300Y-94817948D01*
X45669300Y-96045300D01*
X45649615Y-96112339D01*
X45596811Y-96158094D01*
X45545300Y-96169300D01*
X44506460Y-96169300D01*
X44422353Y-96191836D01*
X44346941Y-96235376D01*
X43877139Y-96705181D01*
X43815816Y-96738666D01*
X43789458Y-96741500D01*
X43783055Y-96741500D01*
X43653725Y-96776153D01*
X43537774Y-96843099D01*
X43537771Y-96843101D01*
X43443101Y-96937771D01*
X43443099Y-96937774D01*
X43376153Y-97053725D01*
X43363613Y-97100525D01*
X43341500Y-97183055D01*
X42354500Y-97183055D01*
X42354500Y-91129000D01*
X46388000Y-91129000D01*
X47736458Y-91129000D01*
X47695496Y-91270000D01*
X48250000Y-91270000D01*
X48250000Y-91129000D01*
X48750000Y-91129000D01*
X48750000Y-91270000D01*
X49304504Y-91270000D01*
X49263541Y-91129000D01*
X49730648Y-91129000D01*
X49695496Y-91250000D01*
X50250000Y-91250000D01*
X50250000Y-91129000D01*
X50750000Y-91129000D01*
X50750000Y-91250000D01*
X51304504Y-91250000D01*
X51269351Y-91129000D01*
X52498809Y-91129000D01*
X52473968Y-91171004D01*
X52431496Y-91317200D01*
X52986000Y-91317200D01*
X52986000Y-91129000D01*
X53119000Y-91129000D01*
X53119000Y-90266445D01*
X53250000Y-90304504D01*
X53250000Y-89750000D01*
X53119000Y-89750000D01*
X53119000Y-89250000D01*
X53250000Y-89250000D01*
X53250000Y-88750000D01*
X53119000Y-88750000D01*
X53119000Y-88250000D01*
X53250000Y-88250000D01*
X53250000Y-87695494D01*
X53249998Y-87695493D01*
X53119000Y-87733551D01*
X53119000Y-87259189D01*
X53123804Y-87262031D01*
X53270000Y-87304504D01*
X53270000Y-86750000D01*
X53119000Y-86750000D01*
X53119000Y-86250000D01*
X53235507Y-86250000D01*
X53235507Y-85700000D01*
X53119000Y-85700000D01*
X53119000Y-85300000D01*
X53235507Y-85300000D01*
X53235507Y-84804038D01*
X53148876Y-84815444D01*
X53148872Y-84815445D01*
X53119000Y-84827818D01*
X53119000Y-84398000D01*
X46388000Y-84398000D01*
X46388000Y-91129000D01*
X42354500Y-91129000D01*
X42354500Y-82840001D01*
X51554039Y-82840001D01*
X51565442Y-82926627D01*
X51565444Y-82926633D01*
X51625899Y-83072585D01*
X51722075Y-83197924D01*
X51847414Y-83294100D01*
X51993366Y-83354555D01*
X51993372Y-83354557D01*
X52049998Y-83362011D01*
X52050000Y-83362010D01*
X52450000Y-83362010D01*
X52450001Y-83362011D01*
X52506627Y-83354557D01*
X52506633Y-83354555D01*
X52652585Y-83294100D01*
X52777924Y-83197924D01*
X52874100Y-83072586D01*
X52934554Y-82926634D01*
X52934555Y-82926630D01*
X52945961Y-82840000D01*
X52450000Y-82840000D01*
X52450000Y-83362010D01*
X52050000Y-83362010D01*
X52050000Y-82840000D01*
X51554041Y-82840000D01*
X51554039Y-82840001D01*
X42354500Y-82840001D01*
X42354500Y-71949293D01*
X42374185Y-71882254D01*
X42426989Y-71836499D01*
X42496147Y-71826555D01*
X42559703Y-71855580D01*
X42585886Y-71887291D01*
X42626500Y-71957636D01*
X42719686Y-72050822D01*
X42833814Y-72116714D01*
X42961108Y-72150822D01*
X42961110Y-72150822D01*
X43092890Y-72150822D01*
X43092892Y-72150822D01*
X43220186Y-72116714D01*
X43334314Y-72050822D01*
X43427500Y-71957636D01*
X43493392Y-71843508D01*
X43527500Y-71716214D01*
X43527500Y-71628417D01*
X43547185Y-71561378D01*
X43563819Y-71540736D01*
X43983737Y-71120819D01*
X44045060Y-71087334D01*
X44071418Y-71084500D01*
X44540115Y-71084500D01*
X44607154Y-71104185D01*
X44652909Y-71156989D01*
X44662853Y-71226147D01*
X44633828Y-71289703D01*
X44627800Y-71296176D01*
X44295559Y-71628417D01*
X43396469Y-72527506D01*
X43352936Y-72571038D01*
X43343515Y-72587355D01*
X43323813Y-72613029D01*
X43240910Y-72695934D01*
X43240910Y-72695935D01*
X43179933Y-72756911D01*
X43136819Y-72831589D01*
X43114500Y-72914885D01*
X43114500Y-75390975D01*
X43094815Y-75458014D01*
X43078181Y-75478656D01*
X43041502Y-75515334D01*
X43041500Y-75515337D01*
X42975608Y-75629463D01*
X42941500Y-75756759D01*
X42941500Y-75888542D01*
X42975608Y-76015838D01*
X43004250Y-76065447D01*
X43041500Y-76129965D01*
X43134686Y-76223151D01*
X43248814Y-76289043D01*
X43376108Y-76323151D01*
X43376110Y-76323151D01*
X43507890Y-76323151D01*
X43507892Y-76323151D01*
X43635186Y-76289043D01*
X43749314Y-76223151D01*
X43842500Y-76129965D01*
X43908392Y-76015837D01*
X43942500Y-75888543D01*
X43942500Y-75761852D01*
X43962185Y-75694813D01*
X44014989Y-75649058D01*
X44066500Y-75637852D01*
X44134890Y-75637852D01*
X44134892Y-75637852D01*
X44262186Y-75603744D01*
X44376314Y-75537852D01*
X44469500Y-75444666D01*
X44535392Y-75330538D01*
X44569500Y-75203244D01*
X44569500Y-75111735D01*
X44589185Y-75044696D01*
X44641989Y-74998941D01*
X44693500Y-74987735D01*
X44761890Y-74987735D01*
X44761892Y-74987735D01*
X44889186Y-74953627D01*
X45003314Y-74887735D01*
X45096500Y-74794549D01*
X45162392Y-74680421D01*
X45196500Y-74553127D01*
X45196500Y-74421343D01*
X45189301Y-74394474D01*
X45188575Y-74391765D01*
X45190238Y-74321915D01*
X45229402Y-74264053D01*
X45293630Y-74236550D01*
X45308350Y-74235673D01*
X45388890Y-74235673D01*
X45388892Y-74235673D01*
X45516186Y-74201565D01*
X45630314Y-74135673D01*
X45723500Y-74042487D01*
X45789392Y-73928359D01*
X45823500Y-73801065D01*
X45823500Y-73801063D01*
X45825603Y-73793215D01*
X45828849Y-73794084D01*
X45850775Y-73744461D01*
X45909082Y-73705964D01*
X45945484Y-73700500D01*
X46065890Y-73700500D01*
X46065892Y-73700500D01*
X46193186Y-73666392D01*
X46307314Y-73600500D01*
X46343995Y-73563819D01*
X46405318Y-73530334D01*
X46431676Y-73527500D01*
X53212983Y-73527500D01*
X53280022Y-73547185D01*
X53300664Y-73563819D01*
X58070181Y-78333336D01*
X58103666Y-78394659D01*
X58106500Y-78421017D01*
X58106500Y-87272383D01*
X58106500Y-87358615D01*
X58128819Y-87441909D01*
X58169792Y-87512878D01*
X58171934Y-87516587D01*
X58171936Y-87516590D01*
X60136181Y-89480835D01*
X60169666Y-89542158D01*
X60172500Y-89568516D01*
X60172500Y-90368324D01*
X60152815Y-90435363D01*
X60136181Y-90456005D01*
X60099502Y-90492683D01*
X60099500Y-90492686D01*
X60033608Y-90606812D01*
X59999500Y-90734108D01*
X59999500Y-90865891D01*
X60033608Y-90993187D01*
X60055911Y-91031816D01*
X60099500Y-91107314D01*
X60192686Y-91200500D01*
X60306814Y-91266392D01*
X60434108Y-91300500D01*
X60434110Y-91300500D01*
X60565890Y-91300500D01*
X60565892Y-91300500D01*
X60693186Y-91266392D01*
X60807314Y-91200500D01*
X60900500Y-91107314D01*
X60966392Y-90993186D01*
X61000500Y-90865892D01*
X61000500Y-90734108D01*
X61000072Y-90732511D01*
X61000105Y-90731112D01*
X60999439Y-90726052D01*
X61000227Y-90725948D01*
X61001731Y-90662665D01*
X61040890Y-90604800D01*
X61105116Y-90577292D01*
X61174019Y-90588874D01*
X61207526Y-90612733D01*
X64959582Y-94364789D01*
X64993067Y-94426112D01*
X64988083Y-94495804D01*
X64986464Y-94499918D01*
X64983609Y-94506810D01*
X64983608Y-94506814D01*
X64949500Y-94634108D01*
X64949500Y-94765892D01*
X64956386Y-94791590D01*
X64983608Y-94893187D01*
X65010167Y-94939188D01*
X65049500Y-95007314D01*
X65142686Y-95100500D01*
X65256814Y-95166392D01*
X65384108Y-95200500D01*
X65384110Y-95200500D01*
X65515890Y-95200500D01*
X65515892Y-95200500D01*
X65643186Y-95166392D01*
X65757314Y-95100500D01*
X65850500Y-95007314D01*
X65916392Y-94893186D01*
X65950500Y-94765892D01*
X65950500Y-94634108D01*
X65916392Y-94506814D01*
X65850500Y-94392686D01*
X65757314Y-94299500D01*
X65723399Y-94279919D01*
X65675185Y-94229352D01*
X65674459Y-94227921D01*
X65668868Y-94216723D01*
X65655181Y-94165642D01*
X65612065Y-94090962D01*
X65600116Y-94079013D01*
X65591111Y-94060976D01*
X65588358Y-94045629D01*
X65580887Y-94031946D01*
X65582317Y-94011944D01*
X65578777Y-93992204D01*
X65584758Y-93977805D01*
X65585871Y-93962254D01*
X65597889Y-93946199D01*
X65605583Y-93927681D01*
X65618399Y-93918802D01*
X65627743Y-93906321D01*
X65640053Y-93898201D01*
X65652605Y-93890953D01*
X65757314Y-93830500D01*
X65850500Y-93737314D01*
X65916392Y-93623186D01*
X65950500Y-93495892D01*
X65950500Y-93364108D01*
X65916392Y-93236814D01*
X65850500Y-93122686D01*
X65757314Y-93029500D01*
X65700250Y-92996554D01*
X65643187Y-92963608D01*
X65569742Y-92943929D01*
X65515892Y-92929500D01*
X65384108Y-92929500D01*
X65256814Y-92963608D01*
X65256803Y-92963612D01*
X65256751Y-92963643D01*
X65256701Y-92963655D01*
X65249304Y-92966719D01*
X65248825Y-92965564D01*
X65188848Y-92980107D01*
X65122824Y-92957246D01*
X65107084Y-92943929D01*
X64852336Y-92689181D01*
X64841723Y-92669744D01*
X64827223Y-92653011D01*
X64825306Y-92639679D01*
X64818851Y-92627858D01*
X64820430Y-92605771D01*
X64817279Y-92583853D01*
X64822874Y-92571601D01*
X64823835Y-92558166D01*
X64837105Y-92540439D01*
X64846304Y-92520297D01*
X64857635Y-92513014D01*
X64865707Y-92502233D01*
X64886452Y-92494495D01*
X64905082Y-92482523D01*
X64927000Y-92479371D01*
X64931171Y-92477816D01*
X64940017Y-92477500D01*
X64958324Y-92477500D01*
X65025363Y-92497185D01*
X65046005Y-92513819D01*
X65092686Y-92560500D01*
X65206814Y-92626392D01*
X65334108Y-92660500D01*
X65334110Y-92660500D01*
X65465890Y-92660500D01*
X65465892Y-92660500D01*
X65593186Y-92626392D01*
X65707314Y-92560500D01*
X65800500Y-92467314D01*
X65866392Y-92353186D01*
X65900500Y-92225892D01*
X65900500Y-92094108D01*
X65866392Y-91966814D01*
X65800500Y-91852686D01*
X65707314Y-91759500D01*
X65650250Y-91726554D01*
X65593187Y-91693608D01*
X65529539Y-91676554D01*
X65465892Y-91659500D01*
X65334108Y-91659500D01*
X65206812Y-91693608D01*
X65092686Y-91759500D01*
X65092683Y-91759502D01*
X65066005Y-91786181D01*
X65004682Y-91819666D01*
X64978324Y-91822500D01*
X64687017Y-91822500D01*
X64619978Y-91802815D01*
X64599336Y-91786181D01*
X62613819Y-89800664D01*
X62580334Y-89739341D01*
X62577500Y-89712983D01*
X62577500Y-89451500D01*
X62597185Y-89384461D01*
X62649989Y-89338706D01*
X62701500Y-89327500D01*
X64662983Y-89327500D01*
X64692423Y-89336144D01*
X64722410Y-89342668D01*
X64727425Y-89346422D01*
X64730022Y-89347185D01*
X64750664Y-89363819D01*
X64863181Y-89476336D01*
X64896666Y-89537659D01*
X64899500Y-89564017D01*
X64899500Y-89615891D01*
X64933608Y-89743187D01*
X64937542Y-89750000D01*
X64999500Y-89857314D01*
X65092686Y-89950500D01*
X65172613Y-89996646D01*
X65194826Y-90009471D01*
X65206814Y-90016392D01*
X65334108Y-90050500D01*
X65334110Y-90050500D01*
X65465890Y-90050500D01*
X65465892Y-90050500D01*
X65593186Y-90016392D01*
X65707314Y-89950500D01*
X65800500Y-89857314D01*
X65866392Y-89743186D01*
X65900500Y-89615892D01*
X65900500Y-89484108D01*
X65866392Y-89356814D01*
X65800500Y-89242686D01*
X65707314Y-89149500D01*
X65604074Y-89089894D01*
X65593187Y-89083608D01*
X65529539Y-89066554D01*
X65465892Y-89049500D01*
X65465891Y-89049500D01*
X65414017Y-89049500D01*
X65346978Y-89029815D01*
X65326336Y-89013181D01*
X65051091Y-88737936D01*
X65051090Y-88737935D01*
X64976410Y-88694819D01*
X64976411Y-88694819D01*
X64948645Y-88687379D01*
X64893116Y-88672500D01*
X64893114Y-88672500D01*
X62873729Y-88672500D01*
X62806690Y-88652815D01*
X62786048Y-88636181D01*
X60613819Y-86463952D01*
X60580334Y-86402629D01*
X60577500Y-86376271D01*
X60577500Y-81184108D01*
X63399500Y-81184108D01*
X63399500Y-81315892D01*
X63416179Y-81378140D01*
X63433608Y-81443187D01*
X63463220Y-81494476D01*
X63492387Y-81544994D01*
X63509000Y-81606994D01*
X63509000Y-86601475D01*
X63535646Y-86700920D01*
X63535647Y-86700923D01*
X63552804Y-86730640D01*
X63587122Y-86790080D01*
X64237122Y-87440080D01*
X64309920Y-87512878D01*
X64399080Y-87564354D01*
X64498524Y-87591000D01*
X65136680Y-87591000D01*
X65203719Y-87610685D01*
X65224361Y-87627319D01*
X66772681Y-89175639D01*
X66806166Y-89236962D01*
X66809000Y-89263320D01*
X66809000Y-96648524D01*
X66809000Y-96751476D01*
X66835646Y-96850921D01*
X66887122Y-96940080D01*
X66887124Y-96940082D01*
X67122681Y-97175639D01*
X67156166Y-97236962D01*
X67159000Y-97263320D01*
X67159000Y-108148524D01*
X67159000Y-108251476D01*
X67185646Y-108350921D01*
X67237122Y-108440080D01*
X68859920Y-110062878D01*
X68949079Y-110114354D01*
X69048524Y-110141000D01*
X74343006Y-110141000D01*
X74405005Y-110157612D01*
X74506814Y-110216392D01*
X74634108Y-110250500D01*
X74634110Y-110250500D01*
X74765890Y-110250500D01*
X74765892Y-110250500D01*
X74893186Y-110216392D01*
X75007314Y-110150500D01*
X75100500Y-110057314D01*
X75166392Y-109943186D01*
X75200500Y-109815892D01*
X75200500Y-109684108D01*
X75166392Y-109556814D01*
X75160909Y-109547318D01*
X75157563Y-109541521D01*
X75100500Y-109442686D01*
X75007314Y-109349500D01*
X74929372Y-109304500D01*
X74893187Y-109283608D01*
X74829539Y-109266554D01*
X74765892Y-109249500D01*
X74634108Y-109249500D01*
X74506812Y-109283608D01*
X74439138Y-109322681D01*
X74405005Y-109342387D01*
X74343006Y-109359000D01*
X69313320Y-109359000D01*
X69246281Y-109339315D01*
X69225639Y-109322681D01*
X67977319Y-108074361D01*
X67943834Y-108013038D01*
X67941000Y-107986680D01*
X67941000Y-106993319D01*
X67960685Y-106926280D01*
X68013489Y-106880525D01*
X68082647Y-106870581D01*
X68146203Y-106899606D01*
X68152681Y-106905638D01*
X69171088Y-107924045D01*
X69203182Y-107979633D01*
X69233608Y-108093187D01*
X69265557Y-108148524D01*
X69299500Y-108207314D01*
X69392686Y-108300500D01*
X69506814Y-108366392D01*
X69634108Y-108400500D01*
X69634110Y-108400500D01*
X69765890Y-108400500D01*
X69765892Y-108400500D01*
X69893186Y-108366392D01*
X70007314Y-108300500D01*
X70100500Y-108207314D01*
X70166392Y-108093186D01*
X70200500Y-107965892D01*
X70200500Y-107834108D01*
X70166392Y-107706814D01*
X70100500Y-107592686D01*
X70007314Y-107499500D01*
X69950250Y-107466554D01*
X69893187Y-107433608D01*
X69805568Y-107410131D01*
X69779632Y-107403181D01*
X69724045Y-107371088D01*
X69111092Y-106758134D01*
X69029498Y-106676540D01*
X82254200Y-106676540D01*
X82254200Y-106823459D01*
X82282858Y-106967534D01*
X82282861Y-106967544D01*
X82339078Y-107103266D01*
X82339083Y-107103275D01*
X82420698Y-107225419D01*
X82420701Y-107225423D01*
X82524576Y-107329298D01*
X82524580Y-107329301D01*
X82646724Y-107410916D01*
X82646730Y-107410919D01*
X82646731Y-107410920D01*
X82782458Y-107467140D01*
X82926540Y-107495799D01*
X82926544Y-107495800D01*
X82926545Y-107495800D01*
X83073456Y-107495800D01*
X83073457Y-107495799D01*
X83217542Y-107467140D01*
X83353269Y-107410920D01*
X83475420Y-107329301D01*
X83579301Y-107225420D01*
X83660920Y-107103269D01*
X83717140Y-106967542D01*
X83745800Y-106823455D01*
X83745800Y-106676545D01*
X83717140Y-106532458D01*
X83660920Y-106396731D01*
X83660919Y-106396730D01*
X83660916Y-106396724D01*
X83579301Y-106274580D01*
X83579298Y-106274576D01*
X83475423Y-106170701D01*
X83475419Y-106170698D01*
X83353275Y-106089083D01*
X83353266Y-106089078D01*
X83217544Y-106032861D01*
X83217545Y-106032861D01*
X83217542Y-106032860D01*
X83217538Y-106032859D01*
X83217534Y-106032858D01*
X83073459Y-106004200D01*
X83073455Y-106004200D01*
X82926545Y-106004200D01*
X82926540Y-106004200D01*
X82782465Y-106032858D01*
X82782455Y-106032861D01*
X82646733Y-106089078D01*
X82646724Y-106089083D01*
X82524580Y-106170698D01*
X82524576Y-106170701D01*
X82420701Y-106274576D01*
X82420698Y-106274580D01*
X82339083Y-106396724D01*
X82339078Y-106396733D01*
X82282861Y-106532455D01*
X82282858Y-106532465D01*
X82254200Y-106676540D01*
X69029498Y-106676540D01*
X68677319Y-106324361D01*
X68643834Y-106263038D01*
X68641000Y-106236680D01*
X68641000Y-105660540D01*
X74634200Y-105660540D01*
X74634200Y-105807459D01*
X74662858Y-105951534D01*
X74662861Y-105951544D01*
X74719078Y-106087266D01*
X74719083Y-106087275D01*
X74800698Y-106209419D01*
X74800701Y-106209423D01*
X74904576Y-106313298D01*
X74904580Y-106313301D01*
X75026724Y-106394916D01*
X75026730Y-106394919D01*
X75026731Y-106394920D01*
X75162458Y-106451140D01*
X75306540Y-106479799D01*
X75306544Y-106479800D01*
X75306545Y-106479800D01*
X75453456Y-106479800D01*
X75453457Y-106479799D01*
X75597542Y-106451140D01*
X75733269Y-106394920D01*
X75855420Y-106313301D01*
X75959301Y-106209420D01*
X76040920Y-106087269D01*
X76097140Y-105951542D01*
X76125800Y-105807455D01*
X76125800Y-105660545D01*
X76097140Y-105516458D01*
X76040920Y-105380731D01*
X76040919Y-105380730D01*
X76040916Y-105380724D01*
X75959301Y-105258580D01*
X75959298Y-105258576D01*
X75855423Y-105154701D01*
X75855419Y-105154698D01*
X75733275Y-105073083D01*
X75733266Y-105073078D01*
X75597544Y-105016861D01*
X75597545Y-105016861D01*
X75597542Y-105016860D01*
X75597538Y-105016859D01*
X75597534Y-105016858D01*
X75453459Y-104988200D01*
X75453455Y-104988200D01*
X75306545Y-104988200D01*
X75306540Y-104988200D01*
X75162465Y-105016858D01*
X75162455Y-105016861D01*
X75026733Y-105073078D01*
X75026724Y-105073083D01*
X74904580Y-105154698D01*
X74904576Y-105154701D01*
X74800701Y-105258576D01*
X74800698Y-105258580D01*
X74719083Y-105380724D01*
X74719078Y-105380733D01*
X74662861Y-105516455D01*
X74662858Y-105516465D01*
X74634200Y-105660540D01*
X68641000Y-105660540D01*
X68641000Y-104644540D01*
X82254200Y-104644540D01*
X82254200Y-104791459D01*
X82281857Y-104930500D01*
X82282860Y-104935542D01*
X82293244Y-104960611D01*
X82339078Y-105071266D01*
X82339083Y-105071275D01*
X82420698Y-105193419D01*
X82420701Y-105193423D01*
X82524576Y-105297298D01*
X82524580Y-105297301D01*
X82646724Y-105378916D01*
X82646730Y-105378919D01*
X82646731Y-105378920D01*
X82782458Y-105435140D01*
X82926540Y-105463799D01*
X82926544Y-105463800D01*
X82926545Y-105463800D01*
X83073456Y-105463800D01*
X83073457Y-105463799D01*
X83217542Y-105435140D01*
X83353269Y-105378920D01*
X83475420Y-105297301D01*
X83579301Y-105193420D01*
X83660920Y-105071269D01*
X83717140Y-104935542D01*
X83745800Y-104791455D01*
X83745800Y-104644545D01*
X83717140Y-104500458D01*
X83660920Y-104364731D01*
X83660919Y-104364730D01*
X83660916Y-104364724D01*
X83579301Y-104242580D01*
X83579298Y-104242576D01*
X83475423Y-104138701D01*
X83475419Y-104138698D01*
X83353275Y-104057083D01*
X83353266Y-104057078D01*
X83217544Y-104000861D01*
X83217545Y-104000861D01*
X83217542Y-104000860D01*
X83217538Y-104000859D01*
X83217534Y-104000858D01*
X83073459Y-103972200D01*
X83073455Y-103972200D01*
X82926545Y-103972200D01*
X82926540Y-103972200D01*
X82782465Y-104000858D01*
X82782455Y-104000861D01*
X82646733Y-104057078D01*
X82646724Y-104057083D01*
X82524580Y-104138698D01*
X82524576Y-104138701D01*
X82420701Y-104242576D01*
X82420698Y-104242580D01*
X82339083Y-104364724D01*
X82339078Y-104364733D01*
X82282861Y-104500455D01*
X82282858Y-104500465D01*
X82254200Y-104644540D01*
X68641000Y-104644540D01*
X68641000Y-101784108D01*
X74749500Y-101784108D01*
X74749500Y-101915891D01*
X74783608Y-102043187D01*
X74785181Y-102045911D01*
X74849500Y-102157314D01*
X74942686Y-102250500D01*
X75056814Y-102316392D01*
X75184108Y-102350500D01*
X75184110Y-102350500D01*
X75315890Y-102350500D01*
X75315892Y-102350500D01*
X75443186Y-102316392D01*
X75557314Y-102250500D01*
X75593995Y-102213819D01*
X75655318Y-102180334D01*
X75681676Y-102177500D01*
X79984724Y-102177500D01*
X80051763Y-102197185D01*
X80072405Y-102213819D01*
X80109086Y-102250500D01*
X80223214Y-102316392D01*
X80350508Y-102350500D01*
X80350510Y-102350500D01*
X80482290Y-102350500D01*
X80482292Y-102350500D01*
X80609586Y-102316392D01*
X80723714Y-102250500D01*
X80816900Y-102157314D01*
X80882792Y-102043186D01*
X80916900Y-101915892D01*
X80916900Y-101784108D01*
X80882792Y-101656814D01*
X80816900Y-101542686D01*
X80723714Y-101449500D01*
X80666650Y-101416554D01*
X80609587Y-101383608D01*
X80545939Y-101366554D01*
X80482292Y-101349500D01*
X80350508Y-101349500D01*
X80223212Y-101383608D01*
X80109086Y-101449500D01*
X80109083Y-101449502D01*
X80072405Y-101486181D01*
X80011082Y-101519666D01*
X79984724Y-101522500D01*
X75681676Y-101522500D01*
X75614637Y-101502815D01*
X75593995Y-101486181D01*
X75557316Y-101449502D01*
X75557314Y-101449500D01*
X75500250Y-101416554D01*
X75443187Y-101383608D01*
X75379539Y-101366554D01*
X75315892Y-101349500D01*
X75184108Y-101349500D01*
X75056812Y-101383608D01*
X74942686Y-101449500D01*
X74942683Y-101449502D01*
X74849502Y-101542683D01*
X74849500Y-101542686D01*
X74783608Y-101656812D01*
X74749500Y-101784108D01*
X68641000Y-101784108D01*
X68641000Y-88256994D01*
X68657612Y-88194994D01*
X68716392Y-88093186D01*
X68750500Y-87965892D01*
X68750500Y-87834108D01*
X68716392Y-87706814D01*
X68650500Y-87592686D01*
X68557314Y-87499500D01*
X68457564Y-87441909D01*
X68443187Y-87433608D01*
X68377296Y-87415953D01*
X68315892Y-87399500D01*
X68184108Y-87399500D01*
X68056812Y-87433608D01*
X67942686Y-87499500D01*
X67942683Y-87499502D01*
X67849502Y-87592683D01*
X67849500Y-87592686D01*
X67783608Y-87706812D01*
X67749500Y-87834108D01*
X67749500Y-87965891D01*
X67783608Y-88093187D01*
X67813687Y-88145285D01*
X67842387Y-88194994D01*
X67859000Y-88256994D01*
X67859000Y-96506680D01*
X67852761Y-96527925D01*
X67851182Y-96550014D01*
X67843109Y-96560797D01*
X67839315Y-96573719D01*
X67822581Y-96588218D01*
X67809310Y-96605947D01*
X67796689Y-96610654D01*
X67786511Y-96619474D01*
X67764593Y-96622625D01*
X67743846Y-96630364D01*
X67730685Y-96627501D01*
X67717353Y-96629418D01*
X67697209Y-96620218D01*
X67675573Y-96615512D01*
X67657847Y-96602243D01*
X67653797Y-96600393D01*
X67647319Y-96594361D01*
X67627319Y-96574361D01*
X67593834Y-96513038D01*
X67591000Y-96486680D01*
X67591000Y-88998525D01*
X67591000Y-88998524D01*
X67576196Y-88943276D01*
X67564354Y-88899079D01*
X67512878Y-88809920D01*
X65590080Y-86887122D01*
X65500921Y-86835646D01*
X65401476Y-86809000D01*
X65401475Y-86809000D01*
X64763320Y-86809000D01*
X64696281Y-86789315D01*
X64675639Y-86772681D01*
X64327319Y-86424361D01*
X64293834Y-86363038D01*
X64291000Y-86336680D01*
X64291000Y-81606994D01*
X64307612Y-81544994D01*
X64366392Y-81443186D01*
X64400500Y-81315892D01*
X64400500Y-81184108D01*
X64366392Y-81056814D01*
X64300500Y-80942686D01*
X64207314Y-80849500D01*
X64150250Y-80816554D01*
X64093187Y-80783608D01*
X63993188Y-80756814D01*
X63965892Y-80749500D01*
X63834108Y-80749500D01*
X63706812Y-80783608D01*
X63592686Y-80849500D01*
X63592683Y-80849502D01*
X63499502Y-80942683D01*
X63499500Y-80942686D01*
X63433608Y-81056812D01*
X63399500Y-81184108D01*
X60577500Y-81184108D01*
X60577500Y-77897964D01*
X60583738Y-77876718D01*
X60585318Y-77854630D01*
X60593390Y-77843846D01*
X60597185Y-77830925D01*
X60613918Y-77816425D01*
X60627190Y-77798697D01*
X60639810Y-77793989D01*
X60649989Y-77785170D01*
X60671906Y-77782018D01*
X60692654Y-77774280D01*
X60705814Y-77777142D01*
X60719147Y-77775226D01*
X60739290Y-77784425D01*
X60760927Y-77789132D01*
X60778652Y-77802400D01*
X60782703Y-77804251D01*
X60789181Y-77810283D01*
X60826381Y-77847483D01*
X60859866Y-77908806D01*
X60862700Y-77935164D01*
X60862700Y-78402762D01*
X60876352Y-78453713D01*
X60883179Y-78479190D01*
X60883180Y-78479191D01*
X60896764Y-78502719D01*
X60922740Y-78547711D01*
X62359540Y-79984511D01*
X62415489Y-80040460D01*
X62415491Y-80040461D01*
X62415495Y-80040464D01*
X62456315Y-80064031D01*
X62484011Y-80080021D01*
X62560438Y-80100500D01*
X62639562Y-80100500D01*
X87325500Y-80100500D01*
X87392539Y-80120185D01*
X87438294Y-80172989D01*
X87449500Y-80224500D01*
X87449500Y-94159562D01*
X87469979Y-94235989D01*
X87477454Y-94248936D01*
X87506647Y-94299500D01*
X87509539Y-94304509D01*
X87509541Y-94304512D01*
X89063181Y-95858152D01*
X89096666Y-95919475D01*
X89099500Y-95945833D01*
X89099500Y-96035891D01*
X89133608Y-96163187D01*
X89150149Y-96191836D01*
X89199500Y-96277314D01*
X89292686Y-96370500D01*
X89406814Y-96436392D01*
X89534108Y-96470500D01*
X89534110Y-96470500D01*
X89665890Y-96470500D01*
X89665892Y-96470500D01*
X89793186Y-96436392D01*
X89907314Y-96370500D01*
X90000500Y-96277314D01*
X90066392Y-96163186D01*
X90100500Y-96035892D01*
X90100500Y-95904108D01*
X90066392Y-95776814D01*
X90000500Y-95662686D01*
X89907314Y-95569500D01*
X89850250Y-95536554D01*
X89793187Y-95503608D01*
X89729539Y-95486554D01*
X89665892Y-95469500D01*
X89575833Y-95469500D01*
X89546392Y-95460855D01*
X89516406Y-95454332D01*
X89511390Y-95450577D01*
X89508794Y-95449815D01*
X89488152Y-95433181D01*
X89467152Y-95412181D01*
X89433667Y-95350858D01*
X89438651Y-95281166D01*
X89480523Y-95225233D01*
X89545987Y-95200816D01*
X89554833Y-95200500D01*
X89600890Y-95200500D01*
X89600892Y-95200500D01*
X89728186Y-95166392D01*
X89842314Y-95100500D01*
X89935500Y-95007314D01*
X90001392Y-94893186D01*
X90035500Y-94765892D01*
X90035500Y-94634108D01*
X90001392Y-94506814D01*
X90001389Y-94506810D01*
X89998938Y-94500890D01*
X89989500Y-94453439D01*
X89989500Y-94029504D01*
X90009185Y-93962465D01*
X90061989Y-93916710D01*
X90131147Y-93906766D01*
X90145571Y-93909724D01*
X90223108Y-93930500D01*
X90223111Y-93930500D01*
X90354890Y-93930500D01*
X90354892Y-93930500D01*
X90482186Y-93896392D01*
X90596314Y-93830500D01*
X90689500Y-93737314D01*
X90755392Y-93623186D01*
X90789500Y-93495892D01*
X90789500Y-93364108D01*
X90755392Y-93236814D01*
X90755389Y-93236810D01*
X90752938Y-93230890D01*
X90743500Y-93183439D01*
X90743500Y-91489504D01*
X90763185Y-91422465D01*
X90815989Y-91376710D01*
X90885147Y-91366766D01*
X90899571Y-91369724D01*
X90977108Y-91390500D01*
X90977111Y-91390500D01*
X91108890Y-91390500D01*
X91108892Y-91390500D01*
X91236186Y-91356392D01*
X91350314Y-91290500D01*
X91443500Y-91197314D01*
X91509392Y-91083186D01*
X91543500Y-90955892D01*
X91543500Y-90824108D01*
X91509392Y-90696814D01*
X91509389Y-90696810D01*
X91506938Y-90690890D01*
X91497500Y-90643439D01*
X91497500Y-90219504D01*
X91517185Y-90152465D01*
X91569989Y-90106710D01*
X91639147Y-90096766D01*
X91653571Y-90099724D01*
X91731108Y-90120500D01*
X91731111Y-90120500D01*
X91862890Y-90120500D01*
X91862892Y-90120500D01*
X91990186Y-90086392D01*
X92104314Y-90020500D01*
X92197500Y-89927314D01*
X92263392Y-89813186D01*
X92297500Y-89685892D01*
X92297500Y-89554108D01*
X92263392Y-89426814D01*
X92263389Y-89426810D01*
X92260938Y-89420890D01*
X92251500Y-89373439D01*
X92251500Y-82599504D01*
X92271185Y-82532465D01*
X92323989Y-82486710D01*
X92393147Y-82476766D01*
X92407571Y-82479724D01*
X92485108Y-82500500D01*
X92485111Y-82500500D01*
X92616890Y-82500500D01*
X92616892Y-82500500D01*
X92744186Y-82466392D01*
X92858314Y-82400500D01*
X92951500Y-82307314D01*
X93017392Y-82193186D01*
X93051500Y-82065892D01*
X93051500Y-81934108D01*
X93017392Y-81806814D01*
X93017389Y-81806810D01*
X93014938Y-81800890D01*
X93005500Y-81753439D01*
X93005500Y-80741166D01*
X93005500Y-80741164D01*
X92974527Y-80625569D01*
X92914691Y-80521930D01*
X92907481Y-80514720D01*
X92894935Y-80491745D01*
X92879161Y-80470853D01*
X92877196Y-80459258D01*
X92873996Y-80453397D01*
X92871516Y-80436397D01*
X92870647Y-80424920D01*
X92871278Y-80420923D01*
X92867998Y-80389928D01*
X92867858Y-80388066D01*
X92867969Y-80387541D01*
X92867504Y-80378705D01*
X92867505Y-80349391D01*
X92867501Y-80349376D01*
X92867501Y-80349374D01*
X92863751Y-80335380D01*
X92860214Y-80316332D01*
X92858690Y-80301915D01*
X92848163Y-80274544D01*
X92844122Y-80262121D01*
X92842723Y-80256900D01*
X92836762Y-80234653D01*
X92836552Y-80233840D01*
X92836351Y-80233346D01*
X92833280Y-80225750D01*
X92835032Y-80225041D01*
X92821500Y-80174526D01*
X92821500Y-77035811D01*
X92821501Y-77035798D01*
X92821501Y-76906138D01*
X92790527Y-76790543D01*
X92790527Y-76790541D01*
X92764144Y-76744845D01*
X92730691Y-76686903D01*
X92646070Y-76602282D01*
X92646069Y-76602281D01*
X92641739Y-76597951D01*
X92641728Y-76597941D01*
X90589789Y-74546002D01*
X90589787Y-74545999D01*
X90498100Y-74454312D01*
X90498094Y-74454307D01*
X90394462Y-74394475D01*
X90394457Y-74394473D01*
X90370031Y-74387927D01*
X90370031Y-74387928D01*
X90324447Y-74375714D01*
X90278864Y-74363500D01*
X90159192Y-74363500D01*
X90151596Y-74363500D01*
X90151580Y-74363501D01*
X84412679Y-74363501D01*
X84345640Y-74343816D01*
X84324998Y-74327182D01*
X81962819Y-71965003D01*
X81929334Y-71903680D01*
X81926500Y-71877322D01*
X81926500Y-64334682D01*
X81943114Y-64272681D01*
X81984389Y-64201191D01*
X81984388Y-64201191D01*
X81984392Y-64201186D01*
X82018500Y-64073892D01*
X82018500Y-63942108D01*
X81984392Y-63814814D01*
X81918500Y-63700686D01*
X81825314Y-63607500D01*
X81768250Y-63574554D01*
X81711187Y-63541608D01*
X81641366Y-63522900D01*
X81583892Y-63507500D01*
X81452108Y-63507500D01*
X81374593Y-63528270D01*
X81304743Y-63526607D01*
X81246881Y-63487444D01*
X81219377Y-63423216D01*
X81218500Y-63408495D01*
X81218500Y-62984559D01*
X81227941Y-62937102D01*
X81230388Y-62931192D01*
X81230392Y-62931186D01*
X81264500Y-62803892D01*
X81264500Y-62672108D01*
X81230392Y-62544814D01*
X81164500Y-62430686D01*
X81071314Y-62337500D01*
X81014250Y-62304554D01*
X80957187Y-62271608D01*
X80893539Y-62254554D01*
X80829892Y-62237500D01*
X80698108Y-62237500D01*
X80620593Y-62258270D01*
X80550743Y-62256607D01*
X80492881Y-62217444D01*
X80465377Y-62153216D01*
X80464500Y-62138495D01*
X80464500Y-61662178D01*
X80468725Y-61630085D01*
X80494500Y-61533892D01*
X80494500Y-61402108D01*
X80460392Y-61274814D01*
X80394500Y-61160686D01*
X80301314Y-61067500D01*
X80244250Y-61034554D01*
X80187187Y-61001608D01*
X80123539Y-60984554D01*
X80059892Y-60967500D01*
X79928108Y-60967500D01*
X79850593Y-60988270D01*
X79780743Y-60986607D01*
X79722881Y-60947444D01*
X79695377Y-60883216D01*
X79694500Y-60868495D01*
X79694500Y-60444559D01*
X79703941Y-60397102D01*
X79706388Y-60391192D01*
X79706392Y-60391186D01*
X79740500Y-60263892D01*
X79740500Y-60132108D01*
X79706392Y-60004814D01*
X79640500Y-59890686D01*
X79547314Y-59797500D01*
X79490250Y-59764554D01*
X79433187Y-59731608D01*
X79369539Y-59714554D01*
X79305892Y-59697500D01*
X79174108Y-59697500D01*
X79096593Y-59718270D01*
X79026743Y-59716607D01*
X78968881Y-59677444D01*
X78941377Y-59613216D01*
X78940500Y-59598495D01*
X78940500Y-59124838D01*
X78940501Y-59124825D01*
X78940501Y-58995165D01*
X78913582Y-58894704D01*
X78909527Y-58879570D01*
X78909527Y-58879569D01*
X78849691Y-58775930D01*
X78842715Y-58768954D01*
X78834379Y-58754162D01*
X78833086Y-58748581D01*
X78827845Y-58740737D01*
X78825393Y-58734819D01*
X78825392Y-58734814D01*
X78759500Y-58620686D01*
X78666314Y-58527500D01*
X78609250Y-58494554D01*
X78552187Y-58461608D01*
X78488539Y-58444554D01*
X78424892Y-58427500D01*
X78293108Y-58427500D01*
X78165812Y-58461608D01*
X78051686Y-58527500D01*
X78051683Y-58527502D01*
X77958502Y-58620683D01*
X77958500Y-58620686D01*
X77892608Y-58734812D01*
X77858500Y-58862108D01*
X77858500Y-58993891D01*
X77892608Y-59121187D01*
X77925554Y-59178250D01*
X77958500Y-59235314D01*
X77958502Y-59235316D01*
X77995181Y-59271995D01*
X78028666Y-59333318D01*
X78031500Y-59359676D01*
X78031500Y-67126160D01*
X78031499Y-67126164D01*
X78031499Y-67245836D01*
X78047915Y-67307099D01*
X78050625Y-67317213D01*
X78062474Y-67361435D01*
X78065585Y-67368945D01*
X78063828Y-67369672D01*
X78077500Y-67420684D01*
X78077500Y-73122159D01*
X78077499Y-73122163D01*
X78077499Y-73241835D01*
X78091871Y-73295469D01*
X78094680Y-73305955D01*
X78094681Y-73305957D01*
X78108474Y-73357432D01*
X78111092Y-73361967D01*
X78111093Y-73361968D01*
X78168306Y-73461065D01*
X78168308Y-73461068D01*
X78168309Y-73461069D01*
X82636308Y-77929069D01*
X82636309Y-77929070D01*
X82720930Y-78013691D01*
X82824569Y-78073527D01*
X82845715Y-78079193D01*
X82940164Y-78104501D01*
X82940166Y-78104501D01*
X83067432Y-78104501D01*
X83067448Y-78104500D01*
X88806349Y-78104500D01*
X88835789Y-78113144D01*
X88865776Y-78119668D01*
X88870791Y-78123422D01*
X88873388Y-78124185D01*
X88894030Y-78140819D01*
X89044181Y-78290970D01*
X89077666Y-78352293D01*
X89080500Y-78378651D01*
X89080500Y-80295732D01*
X89080497Y-80295782D01*
X89080497Y-80303361D01*
X89080497Y-80423033D01*
X89080497Y-80423035D01*
X89080496Y-80889871D01*
X89080493Y-80889884D01*
X89080493Y-81009556D01*
X89080494Y-81009559D01*
X89080494Y-81019552D01*
X89080494Y-81468750D01*
X89079688Y-81482862D01*
X89079550Y-81484060D01*
X89080476Y-81539043D01*
X89080494Y-81541117D01*
X89080494Y-81596080D01*
X89080499Y-81596099D01*
X89080500Y-81604378D01*
X89080499Y-81604380D01*
X89080500Y-81604390D01*
X89080500Y-94453439D01*
X89071062Y-94500890D01*
X89068608Y-94506813D01*
X89034500Y-94634108D01*
X89034500Y-94680167D01*
X89014815Y-94747206D01*
X88962011Y-94792961D01*
X88892853Y-94802905D01*
X88829297Y-94773880D01*
X88822819Y-94767848D01*
X88086819Y-94031848D01*
X88053334Y-93970525D01*
X88050500Y-93944167D01*
X88050500Y-79760439D01*
X88030020Y-79684009D01*
X88030017Y-79684004D01*
X87990464Y-79615495D01*
X87990458Y-79615487D01*
X87934512Y-79559541D01*
X87934504Y-79559535D01*
X87865995Y-79519982D01*
X87865990Y-79519979D01*
X87827001Y-79509532D01*
X87789562Y-79499500D01*
X87789560Y-79499500D01*
X62775833Y-79499500D01*
X62708794Y-79479815D01*
X62688152Y-79463181D01*
X61899079Y-78674108D01*
X62549500Y-78674108D01*
X62549500Y-78805891D01*
X62583608Y-78933187D01*
X62583610Y-78933190D01*
X62649500Y-79047314D01*
X62742686Y-79140500D01*
X62856814Y-79206392D01*
X62984108Y-79240500D01*
X62984110Y-79240500D01*
X63115890Y-79240500D01*
X63115892Y-79240500D01*
X63243186Y-79206392D01*
X63357314Y-79140500D01*
X63450500Y-79047314D01*
X63516392Y-78933186D01*
X63516394Y-78933176D01*
X63518840Y-78927273D01*
X63523474Y-78920335D01*
X63524573Y-78915288D01*
X63545725Y-78887034D01*
X63645943Y-78786818D01*
X63707266Y-78753334D01*
X63733623Y-78750500D01*
X66436552Y-78750500D01*
X66436568Y-78750501D01*
X66444164Y-78750501D01*
X66563835Y-78750501D01*
X66563836Y-78750501D01*
X66654998Y-78726073D01*
X66655001Y-78726073D01*
X66669105Y-78722293D01*
X66679431Y-78719527D01*
X66783070Y-78659691D01*
X66867691Y-78575070D01*
X66867691Y-78575068D01*
X66877895Y-78564865D01*
X66877898Y-78564860D01*
X67891941Y-77550819D01*
X67953264Y-77517334D01*
X67979622Y-77514500D01*
X72325500Y-77514500D01*
X72392539Y-77534185D01*
X72438294Y-77586989D01*
X72449500Y-77638500D01*
X72449500Y-77929752D01*
X72461131Y-77988229D01*
X72461132Y-77988230D01*
X72505447Y-78054552D01*
X72571769Y-78098867D01*
X72571770Y-78098868D01*
X72630247Y-78110499D01*
X72630250Y-78110500D01*
X72630252Y-78110500D01*
X74369750Y-78110500D01*
X74369751Y-78110499D01*
X74384568Y-78107552D01*
X74428229Y-78098868D01*
X74428229Y-78098867D01*
X74428231Y-78098867D01*
X74494552Y-78054552D01*
X74538867Y-77988231D01*
X74538867Y-77988229D01*
X74538868Y-77988229D01*
X74549990Y-77932311D01*
X74550500Y-77929748D01*
X74550500Y-76190252D01*
X74550500Y-76190249D01*
X74550499Y-76190247D01*
X74538868Y-76131770D01*
X74538867Y-76131769D01*
X74494552Y-76065447D01*
X74428230Y-76021132D01*
X74428229Y-76021131D01*
X74369752Y-76009500D01*
X74369748Y-76009500D01*
X72630252Y-76009500D01*
X72630247Y-76009500D01*
X72571770Y-76021131D01*
X72571769Y-76021132D01*
X72505447Y-76065447D01*
X72461132Y-76131769D01*
X72461131Y-76131770D01*
X72449500Y-76190247D01*
X72449500Y-76481500D01*
X72429815Y-76548539D01*
X72377011Y-76594294D01*
X72325500Y-76605500D01*
X67807448Y-76605500D01*
X67807432Y-76605499D01*
X67799836Y-76605499D01*
X67680164Y-76605499D01*
X67588997Y-76629927D01*
X67579518Y-76632466D01*
X67564570Y-76636472D01*
X67564565Y-76636474D01*
X67460933Y-76696306D01*
X67460927Y-76696311D01*
X67376307Y-76780932D01*
X66352059Y-77805181D01*
X66290736Y-77838666D01*
X66264378Y-77841500D01*
X63561448Y-77841500D01*
X63561432Y-77841499D01*
X63553836Y-77841499D01*
X63434164Y-77841499D01*
X63342997Y-77865927D01*
X63333518Y-77868466D01*
X63318570Y-77872472D01*
X63318565Y-77872474D01*
X63214933Y-77932306D01*
X63214927Y-77932311D01*
X63130307Y-78016932D01*
X62902964Y-78244274D01*
X62862741Y-78271152D01*
X62856818Y-78273605D01*
X62742686Y-78339500D01*
X62742683Y-78339502D01*
X62649502Y-78432683D01*
X62649500Y-78432686D01*
X62583608Y-78546812D01*
X62549500Y-78674108D01*
X61899079Y-78674108D01*
X61500019Y-78275048D01*
X61466534Y-78213725D01*
X61463700Y-78187367D01*
X61463700Y-77719770D01*
X61443220Y-77643340D01*
X61443217Y-77643335D01*
X61403664Y-77574826D01*
X61403658Y-77574818D01*
X58245370Y-74416530D01*
X72449500Y-74416530D01*
X72449500Y-74623469D01*
X72489868Y-74826412D01*
X72489870Y-74826420D01*
X72563633Y-75004500D01*
X72569059Y-75017598D01*
X72587165Y-75044696D01*
X72684024Y-75189657D01*
X72830342Y-75335975D01*
X72830345Y-75335977D01*
X73002402Y-75450941D01*
X73193580Y-75530130D01*
X73396530Y-75570499D01*
X73396534Y-75570500D01*
X73396535Y-75570500D01*
X73603466Y-75570500D01*
X73603467Y-75570499D01*
X73806420Y-75530130D01*
X73997598Y-75450941D01*
X74169655Y-75335977D01*
X74315977Y-75189655D01*
X74430941Y-75017598D01*
X74510130Y-74826420D01*
X74550500Y-74623465D01*
X74550500Y-74416535D01*
X74510130Y-74213580D01*
X74430941Y-74022402D01*
X74315977Y-73850345D01*
X74315975Y-73850342D01*
X74169657Y-73704024D01*
X74083626Y-73646541D01*
X73997598Y-73589059D01*
X73806420Y-73509870D01*
X73806412Y-73509868D01*
X73603469Y-73469500D01*
X73603465Y-73469500D01*
X73396535Y-73469500D01*
X73396530Y-73469500D01*
X73193587Y-73509868D01*
X73193579Y-73509870D01*
X73002403Y-73589058D01*
X72830342Y-73704024D01*
X72684024Y-73850342D01*
X72569058Y-74022403D01*
X72489870Y-74213579D01*
X72489868Y-74213587D01*
X72449500Y-74416530D01*
X58245370Y-74416530D01*
X54447998Y-70619158D01*
X54435626Y-70603035D01*
X54435216Y-70603350D01*
X54430272Y-70596906D01*
X54374025Y-70540659D01*
X54305138Y-70500887D01*
X54228305Y-70480300D01*
X54228304Y-70480300D01*
X54226041Y-70480300D01*
X43934694Y-70480300D01*
X43855150Y-70480300D01*
X43855146Y-70480300D01*
X43778316Y-70500885D01*
X43709425Y-70540661D01*
X43136584Y-71113503D01*
X43110437Y-71127780D01*
X43085614Y-71144263D01*
X43078193Y-71145386D01*
X43075261Y-71146988D01*
X43050758Y-71149808D01*
X43049822Y-71149822D01*
X42961108Y-71149822D01*
X42955862Y-71151227D01*
X42942535Y-71151427D01*
X42915520Y-71143932D01*
X42887826Y-71139612D01*
X42882313Y-71134719D01*
X42875208Y-71132748D01*
X42856534Y-71111837D01*
X42835572Y-71093231D01*
X42833579Y-71086132D01*
X42828669Y-71080634D01*
X42824265Y-71052950D01*
X42816689Y-71025961D01*
X42818850Y-71018912D01*
X42817692Y-71011632D01*
X42828953Y-70985962D01*
X42837172Y-70959161D01*
X42844831Y-70949771D01*
X42845763Y-70947649D01*
X42847509Y-70946489D01*
X42852994Y-70939765D01*
X44459007Y-69333753D01*
X72150000Y-69333753D01*
X72150000Y-69546246D01*
X72183242Y-69756127D01*
X72183242Y-69756130D01*
X72248904Y-69958217D01*
X72345375Y-70147550D01*
X72384728Y-70201716D01*
X73017037Y-69569408D01*
X73034075Y-69632993D01*
X73099901Y-69747007D01*
X73192993Y-69840099D01*
X73307007Y-69905925D01*
X73370590Y-69922962D01*
X72738282Y-70555269D01*
X72738282Y-70555270D01*
X72792449Y-70594624D01*
X72981782Y-70691095D01*
X73157973Y-70748343D01*
X73215648Y-70787780D01*
X73242847Y-70852139D01*
X73230932Y-70920985D01*
X73183688Y-70972461D01*
X73167108Y-70980835D01*
X73002403Y-71049057D01*
X72830342Y-71164024D01*
X72684024Y-71310342D01*
X72569058Y-71482403D01*
X72489870Y-71673579D01*
X72489868Y-71673587D01*
X72449500Y-71876530D01*
X72449500Y-72083469D01*
X72489868Y-72286412D01*
X72489870Y-72286420D01*
X72569058Y-72477596D01*
X72684024Y-72649657D01*
X72830342Y-72795975D01*
X72830345Y-72795977D01*
X73002402Y-72910941D01*
X73193580Y-72990130D01*
X73396530Y-73030499D01*
X73396534Y-73030500D01*
X73396535Y-73030500D01*
X73603466Y-73030500D01*
X73603467Y-73030499D01*
X73806420Y-72990130D01*
X73997598Y-72910941D01*
X74169655Y-72795977D01*
X74315977Y-72649655D01*
X74430941Y-72477598D01*
X74510130Y-72286420D01*
X74550500Y-72083465D01*
X74550500Y-71876535D01*
X74510130Y-71673580D01*
X74430941Y-71482402D01*
X74315977Y-71310345D01*
X74315975Y-71310342D01*
X74169657Y-71164024D01*
X74080100Y-71104185D01*
X73997598Y-71049059D01*
X73997593Y-71049057D01*
X73845269Y-70985962D01*
X73832890Y-70980834D01*
X73778488Y-70936994D01*
X73756423Y-70870700D01*
X73773702Y-70803001D01*
X73824839Y-70755390D01*
X73842026Y-70748343D01*
X74018217Y-70691095D01*
X74207554Y-70594622D01*
X74261716Y-70555270D01*
X74261717Y-70555270D01*
X73629408Y-69922962D01*
X73692993Y-69905925D01*
X73807007Y-69840099D01*
X73900099Y-69747007D01*
X73965925Y-69632993D01*
X73982962Y-69569408D01*
X74615270Y-70201717D01*
X74615270Y-70201716D01*
X74654622Y-70147554D01*
X74751095Y-69958217D01*
X74816757Y-69756130D01*
X74816757Y-69756127D01*
X74850000Y-69546246D01*
X74850000Y-69333753D01*
X74816757Y-69123872D01*
X74816757Y-69123869D01*
X74751095Y-68921782D01*
X74654624Y-68732449D01*
X74615270Y-68678282D01*
X74615269Y-68678282D01*
X73982962Y-69310590D01*
X73965925Y-69247007D01*
X73900099Y-69132993D01*
X73807007Y-69039901D01*
X73692993Y-68974075D01*
X73629409Y-68957037D01*
X74261716Y-68324728D01*
X74207550Y-68285375D01*
X74018217Y-68188904D01*
X73816129Y-68123242D01*
X73606246Y-68090000D01*
X73393754Y-68090000D01*
X73183872Y-68123242D01*
X73183869Y-68123242D01*
X72981782Y-68188904D01*
X72792439Y-68285380D01*
X72738282Y-68324727D01*
X72738282Y-68324728D01*
X73370591Y-68957037D01*
X73307007Y-68974075D01*
X73192993Y-69039901D01*
X73099901Y-69132993D01*
X73034075Y-69247007D01*
X73017037Y-69310591D01*
X72384728Y-68678282D01*
X72384727Y-68678282D01*
X72345380Y-68732439D01*
X72248904Y-68921782D01*
X72183242Y-69123869D01*
X72183242Y-69123872D01*
X72150000Y-69333753D01*
X44459007Y-69333753D01*
X44901941Y-68890819D01*
X44963264Y-68857334D01*
X44989622Y-68854500D01*
X45443392Y-68854500D01*
X45496991Y-68868861D01*
X45497451Y-68867753D01*
X45504959Y-68870863D01*
X45504961Y-68870863D01*
X45504962Y-68870864D01*
X45633476Y-68905300D01*
X45633478Y-68905300D01*
X45766522Y-68905300D01*
X45766524Y-68905300D01*
X45895038Y-68870864D01*
X46010261Y-68804340D01*
X46104340Y-68710261D01*
X46170864Y-68595038D01*
X46205300Y-68466524D01*
X46205300Y-68333476D01*
X46170864Y-68204962D01*
X46170863Y-68204961D01*
X46170863Y-68204959D01*
X46170862Y-68204958D01*
X46122348Y-68120930D01*
X46104340Y-68089739D01*
X46010261Y-67995660D01*
X45976027Y-67975895D01*
X45895041Y-67929137D01*
X45895040Y-67929136D01*
X45830781Y-67911918D01*
X45766524Y-67894700D01*
X45633476Y-67894700D01*
X45582070Y-67908474D01*
X45504959Y-67929136D01*
X45497451Y-67932247D01*
X45496991Y-67931138D01*
X45443392Y-67945500D01*
X44817448Y-67945500D01*
X44817432Y-67945499D01*
X44809836Y-67945499D01*
X44690164Y-67945499D01*
X44574568Y-67976472D01*
X44541336Y-67995660D01*
X44470930Y-68036309D01*
X44470927Y-68036311D01*
X41536311Y-70970927D01*
X41536307Y-70970933D01*
X41476472Y-71074568D01*
X41476473Y-71074568D01*
X41476473Y-71074569D01*
X41476473Y-71074570D01*
X41447170Y-71183930D01*
X41445499Y-71190165D01*
X41445499Y-71319825D01*
X41445500Y-71319838D01*
X41445500Y-98528439D01*
X41444496Y-98533481D01*
X41441315Y-98560382D01*
X41437311Y-98575399D01*
X41433608Y-98581814D01*
X41399500Y-98709108D01*
X40749973Y-98709108D01*
X40749957Y-72756911D01*
X40749953Y-67316310D01*
X47096299Y-67316310D01*
X47130627Y-67444422D01*
X47130628Y-67444423D01*
X47196937Y-67559275D01*
X47196939Y-67559278D01*
X47196940Y-67559279D01*
X47290721Y-67653060D01*
X47405579Y-67719373D01*
X47533687Y-67753700D01*
X47533690Y-67753700D01*
X47666310Y-67753700D01*
X47666313Y-67753700D01*
X47794421Y-67719373D01*
X47909279Y-67653060D01*
X48003060Y-67559279D01*
X48069373Y-67444421D01*
X48103700Y-67316313D01*
X48103700Y-67183687D01*
X48069373Y-67055579D01*
X48003060Y-66940721D01*
X47909279Y-66846940D01*
X47909278Y-66846939D01*
X47909275Y-66846937D01*
X47794423Y-66780628D01*
X47794422Y-66780627D01*
X47762394Y-66772045D01*
X47666313Y-66746300D01*
X47533687Y-66746300D01*
X47456822Y-66766896D01*
X47405577Y-66780627D01*
X47405576Y-66780628D01*
X47290724Y-66846937D01*
X47290719Y-66846941D01*
X47196941Y-66940719D01*
X47196937Y-66940724D01*
X47130628Y-67055576D01*
X47130627Y-67055577D01*
X47115304Y-67112763D01*
X47096300Y-67183687D01*
X47096300Y-67183689D01*
X47096300Y-67316310D01*
X47096299Y-67316310D01*
X40749953Y-67316310D01*
X40749953Y-67175559D01*
X40749946Y-55907009D01*
X72897500Y-55907009D01*
X72897500Y-56106990D01*
X72928784Y-56304511D01*
X72990579Y-56494700D01*
X72990581Y-56494703D01*
X73081371Y-56672887D01*
X73198917Y-56834675D01*
X73340325Y-56976083D01*
X73502113Y-57093629D01*
X73680297Y-57184419D01*
X73680299Y-57184420D01*
X73775393Y-57215317D01*
X73870490Y-57246216D01*
X74068009Y-57277500D01*
X93529380Y-57277500D01*
X93596419Y-57297185D01*
X93617061Y-57313819D01*
X95340181Y-59036939D01*
X95373666Y-59098262D01*
X95376500Y-59124620D01*
X95376500Y-62638009D01*
X95376500Y-66400009D01*
X95376500Y-79529009D01*
X95376500Y-81053009D01*
X95376500Y-83400009D01*
X95376500Y-94642009D01*
X95376500Y-96928009D01*
X95376500Y-100400009D01*
X95376500Y-114327009D01*
X95376500Y-117746991D01*
X95385527Y-117803985D01*
X95407784Y-117944511D01*
X95469579Y-118134700D01*
X95532266Y-118257728D01*
X95560371Y-118312887D01*
X95677917Y-118474675D01*
X95819325Y-118616083D01*
X95928887Y-118695684D01*
X95956317Y-118723115D01*
X96035917Y-118832675D01*
X96177325Y-118974083D01*
X96339113Y-119091629D01*
X96496403Y-119171773D01*
X96517299Y-119182420D01*
X96612393Y-119213317D01*
X96707490Y-119244216D01*
X96905009Y-119275500D01*
X96905010Y-119275500D01*
X105443790Y-119275500D01*
X105443791Y-119275500D01*
X105535173Y-119261025D01*
X105554571Y-119259499D01*
X106368864Y-119259499D01*
X106368866Y-119259499D01*
X106443101Y-119244734D01*
X106527284Y-119188484D01*
X106583534Y-119104301D01*
X106598300Y-119030067D01*
X106598299Y-118215770D01*
X106599826Y-118196373D01*
X106614300Y-118104989D01*
X106614300Y-117905009D01*
X106599826Y-117813625D01*
X106598299Y-117794227D01*
X106598299Y-116979936D01*
X106598299Y-116979934D01*
X106583534Y-116905699D01*
X106551202Y-116857311D01*
X106527284Y-116821515D01*
X106471623Y-116784324D01*
X106443101Y-116765266D01*
X106443099Y-116765265D01*
X106443096Y-116765264D01*
X106368871Y-116750500D01*
X106368867Y-116750500D01*
X105554570Y-116750500D01*
X105535172Y-116748973D01*
X105521349Y-116746783D01*
X105443795Y-116734500D01*
X105443791Y-116734500D01*
X98041500Y-116734500D01*
X97974461Y-116714815D01*
X97928706Y-116662011D01*
X97917500Y-116610500D01*
X97917500Y-114930900D01*
X97937185Y-114863861D01*
X97989989Y-114818106D01*
X98041500Y-114806900D01*
X101271356Y-114806900D01*
X101338395Y-114826585D01*
X101359037Y-114843219D01*
X101359529Y-114843711D01*
X101485971Y-114916712D01*
X101626999Y-114954500D01*
X101627001Y-114954500D01*
X101772999Y-114954500D01*
X101773001Y-114954500D01*
X101914029Y-114916712D01*
X102040471Y-114843711D01*
X102143711Y-114740471D01*
X102216712Y-114614029D01*
X102254500Y-114473001D01*
X102254500Y-114326999D01*
X102216712Y-114185971D01*
X102161270Y-114089942D01*
X102143713Y-114059532D01*
X102143709Y-114059527D01*
X102040472Y-113956290D01*
X102040467Y-113956286D01*
X101914031Y-113883289D01*
X101914030Y-113883288D01*
X101914029Y-113883288D01*
X101773001Y-113845500D01*
X101626999Y-113845500D01*
X101485971Y-113883288D01*
X101485968Y-113883289D01*
X101359532Y-113956286D01*
X101359527Y-113956290D01*
X101359037Y-113956781D01*
X101358521Y-113957062D01*
X101353084Y-113961235D01*
X101352433Y-113960386D01*
X101297714Y-113990266D01*
X101271356Y-113993100D01*
X98041500Y-113993100D01*
X97974461Y-113973415D01*
X97928706Y-113920611D01*
X97917500Y-113869100D01*
X97917500Y-110410513D01*
X104143300Y-110410513D01*
X104143300Y-110599486D01*
X104172859Y-110786118D01*
X104231254Y-110965836D01*
X104291620Y-111084310D01*
X104317040Y-111134199D01*
X104428110Y-111287073D01*
X104561727Y-111420690D01*
X104714601Y-111531760D01*
X104794147Y-111572290D01*
X104882963Y-111617545D01*
X104882965Y-111617545D01*
X104882968Y-111617547D01*
X104979297Y-111648846D01*
X105062681Y-111675940D01*
X105249314Y-111705500D01*
X105249319Y-111705500D01*
X105438286Y-111705500D01*
X105624918Y-111675940D01*
X105638601Y-111671494D01*
X105804632Y-111617547D01*
X105972999Y-111531760D01*
X106125873Y-111420690D01*
X106259490Y-111287073D01*
X106370560Y-111134199D01*
X106456347Y-110965832D01*
X106514740Y-110786118D01*
X106527463Y-110705788D01*
X106544300Y-110599486D01*
X106544300Y-110410513D01*
X106514740Y-110223881D01*
X106479151Y-110114352D01*
X106456347Y-110044168D01*
X106456345Y-110044165D01*
X106456345Y-110044163D01*
X106370559Y-109875800D01*
X106327033Y-109815892D01*
X106259490Y-109722927D01*
X106125873Y-109589310D01*
X105972999Y-109478240D01*
X105804636Y-109392454D01*
X105624918Y-109334059D01*
X105438286Y-109304500D01*
X105438281Y-109304500D01*
X105249319Y-109304500D01*
X105249314Y-109304500D01*
X105062681Y-109334059D01*
X104882963Y-109392454D01*
X104714600Y-109478240D01*
X104627379Y-109541610D01*
X104561727Y-109589310D01*
X104561725Y-109589312D01*
X104561724Y-109589312D01*
X104428112Y-109722924D01*
X104428112Y-109722925D01*
X104428110Y-109722927D01*
X104380410Y-109788579D01*
X104317040Y-109875800D01*
X104231254Y-110044163D01*
X104172859Y-110223881D01*
X104143300Y-110410513D01*
X97917500Y-110410513D01*
X97917500Y-102330700D01*
X97937185Y-102263661D01*
X97989989Y-102217906D01*
X98041500Y-102206700D01*
X105342190Y-102206700D01*
X105342191Y-102206700D01*
X105433573Y-102192225D01*
X105452971Y-102190699D01*
X106267264Y-102190699D01*
X106267266Y-102190699D01*
X106341501Y-102175934D01*
X106425684Y-102119684D01*
X106481934Y-102035501D01*
X106496700Y-101961267D01*
X106496699Y-101146970D01*
X106498226Y-101127573D01*
X106512700Y-101036189D01*
X106512700Y-100836209D01*
X106498226Y-100744825D01*
X106496699Y-100725427D01*
X106496699Y-99911136D01*
X106496699Y-99911134D01*
X106481934Y-99836899D01*
X106442383Y-99777707D01*
X106425684Y-99752715D01*
X106375219Y-99718996D01*
X106341501Y-99696466D01*
X106341499Y-99696465D01*
X106341496Y-99696464D01*
X106267271Y-99681700D01*
X106267267Y-99681700D01*
X105452970Y-99681700D01*
X105433572Y-99680173D01*
X105419749Y-99677983D01*
X105342195Y-99665700D01*
X105342191Y-99665700D01*
X98041500Y-99665700D01*
X97974461Y-99646015D01*
X97928706Y-99593211D01*
X97917500Y-99541700D01*
X97917500Y-97680900D01*
X97937185Y-97613861D01*
X97989989Y-97568106D01*
X98041500Y-97556900D01*
X101021356Y-97556900D01*
X101088395Y-97576585D01*
X101109037Y-97593219D01*
X101109529Y-97593711D01*
X101109530Y-97593712D01*
X101109532Y-97593713D01*
X101119559Y-97599502D01*
X101235971Y-97666712D01*
X101376999Y-97704500D01*
X101377001Y-97704500D01*
X101522999Y-97704500D01*
X101523001Y-97704500D01*
X101664029Y-97666712D01*
X101790471Y-97593711D01*
X101893711Y-97490471D01*
X101966712Y-97364029D01*
X102004500Y-97223001D01*
X102004500Y-97076999D01*
X101966712Y-96935971D01*
X101905934Y-96830700D01*
X101893713Y-96809532D01*
X101893709Y-96809527D01*
X101790472Y-96706290D01*
X101790467Y-96706286D01*
X101664031Y-96633289D01*
X101664030Y-96633288D01*
X101664029Y-96633288D01*
X101523001Y-96595500D01*
X101376999Y-96595500D01*
X101235971Y-96633288D01*
X101235968Y-96633289D01*
X101109532Y-96706286D01*
X101109527Y-96706290D01*
X101109037Y-96706781D01*
X101108521Y-96707062D01*
X101103084Y-96711235D01*
X101102433Y-96710386D01*
X101047714Y-96740266D01*
X101021356Y-96743100D01*
X98041500Y-96743100D01*
X97974461Y-96723415D01*
X97928706Y-96670611D01*
X97917500Y-96619100D01*
X97917500Y-93341713D01*
X104041700Y-93341713D01*
X104041700Y-93530686D01*
X104071259Y-93717318D01*
X104129654Y-93897036D01*
X104197397Y-94029987D01*
X104215440Y-94065399D01*
X104326510Y-94218273D01*
X104460127Y-94351890D01*
X104613001Y-94462960D01*
X104658644Y-94486216D01*
X104781363Y-94548745D01*
X104781365Y-94548745D01*
X104781368Y-94548747D01*
X104877697Y-94580046D01*
X104961081Y-94607140D01*
X105147714Y-94636700D01*
X105147719Y-94636700D01*
X105336686Y-94636700D01*
X105523318Y-94607140D01*
X105703032Y-94548747D01*
X105871399Y-94462960D01*
X106024273Y-94351890D01*
X106157890Y-94218273D01*
X106268960Y-94065399D01*
X106354747Y-93897032D01*
X106413140Y-93717318D01*
X106417526Y-93689625D01*
X106442700Y-93530686D01*
X106442700Y-93341713D01*
X106413140Y-93155081D01*
X106366393Y-93011210D01*
X106354747Y-92975368D01*
X106354745Y-92975365D01*
X106354745Y-92975363D01*
X106268959Y-92807000D01*
X106157890Y-92654127D01*
X106024273Y-92520510D01*
X105871399Y-92409440D01*
X105868989Y-92408212D01*
X105703036Y-92323654D01*
X105523318Y-92265259D01*
X105336686Y-92235700D01*
X105336681Y-92235700D01*
X105147719Y-92235700D01*
X105147714Y-92235700D01*
X104961081Y-92265259D01*
X104781363Y-92323654D01*
X104613000Y-92409440D01*
X104585443Y-92429462D01*
X104460127Y-92520510D01*
X104460125Y-92520512D01*
X104460124Y-92520512D01*
X104326512Y-92654124D01*
X104326512Y-92654125D01*
X104326510Y-92654127D01*
X104321880Y-92660500D01*
X104215440Y-92807000D01*
X104129654Y-92975363D01*
X104071259Y-93155081D01*
X104041700Y-93341713D01*
X97917500Y-93341713D01*
X97917500Y-85099500D01*
X97937185Y-85032461D01*
X97989989Y-84986706D01*
X98041500Y-84975500D01*
X105291390Y-84975500D01*
X105291391Y-84975500D01*
X105382773Y-84961025D01*
X105402171Y-84959499D01*
X106216464Y-84959499D01*
X106216466Y-84959499D01*
X106290701Y-84944734D01*
X106374884Y-84888484D01*
X106431134Y-84804301D01*
X106445900Y-84730067D01*
X106445899Y-83915770D01*
X106447426Y-83896373D01*
X106461900Y-83804989D01*
X106461900Y-83605009D01*
X106447426Y-83513625D01*
X106445899Y-83494227D01*
X106445899Y-82679936D01*
X106445899Y-82679934D01*
X106431134Y-82605699D01*
X106412468Y-82577765D01*
X106374884Y-82521515D01*
X106312346Y-82479729D01*
X106290701Y-82465266D01*
X106290699Y-82465265D01*
X106290696Y-82465264D01*
X106216471Y-82450500D01*
X106216467Y-82450500D01*
X105402170Y-82450500D01*
X105382772Y-82448973D01*
X105368949Y-82446783D01*
X105291395Y-82434500D01*
X105291391Y-82434500D01*
X98041500Y-82434500D01*
X97974461Y-82414815D01*
X97928706Y-82362011D01*
X97917500Y-82310500D01*
X97917500Y-81585906D01*
X97923569Y-81547587D01*
X97924412Y-81544993D01*
X97938216Y-81502509D01*
X97969500Y-81304990D01*
X97969500Y-81105009D01*
X97938216Y-80907490D01*
X97923569Y-80862410D01*
X97917500Y-80824092D01*
X97917500Y-80380900D01*
X97937185Y-80313861D01*
X97989989Y-80268106D01*
X98041500Y-80256900D01*
X101271356Y-80256900D01*
X101338395Y-80276585D01*
X101359037Y-80293219D01*
X101359529Y-80293711D01*
X101359530Y-80293712D01*
X101359532Y-80293713D01*
X101376243Y-80303361D01*
X101485971Y-80366712D01*
X101626999Y-80404500D01*
X101627001Y-80404500D01*
X101772999Y-80404500D01*
X101773001Y-80404500D01*
X101914029Y-80366712D01*
X102040471Y-80293711D01*
X102143711Y-80190471D01*
X102216712Y-80064029D01*
X102254500Y-79923001D01*
X102254500Y-79776999D01*
X102216712Y-79635971D01*
X102149746Y-79519982D01*
X102143713Y-79509532D01*
X102143709Y-79509527D01*
X102040472Y-79406290D01*
X102040467Y-79406286D01*
X101914031Y-79333289D01*
X101914030Y-79333288D01*
X101914029Y-79333288D01*
X101773001Y-79295500D01*
X101626999Y-79295500D01*
X101485971Y-79333288D01*
X101485968Y-79333289D01*
X101359532Y-79406286D01*
X101359527Y-79406290D01*
X101359037Y-79406781D01*
X101358521Y-79407062D01*
X101353084Y-79411235D01*
X101352433Y-79410386D01*
X101297714Y-79440266D01*
X101271356Y-79443100D01*
X98041500Y-79443100D01*
X97974461Y-79423415D01*
X97928706Y-79370611D01*
X97917500Y-79319100D01*
X97917500Y-76110513D01*
X103990900Y-76110513D01*
X103990900Y-76299486D01*
X104020459Y-76486118D01*
X104078854Y-76665836D01*
X104142396Y-76790543D01*
X104164640Y-76834199D01*
X104275710Y-76987073D01*
X104409327Y-77120690D01*
X104562201Y-77231760D01*
X104641747Y-77272290D01*
X104730563Y-77317545D01*
X104730565Y-77317545D01*
X104730568Y-77317547D01*
X104826897Y-77348846D01*
X104910281Y-77375940D01*
X105096914Y-77405500D01*
X105096919Y-77405500D01*
X105285886Y-77405500D01*
X105472518Y-77375940D01*
X105652232Y-77317547D01*
X105820599Y-77231760D01*
X105973473Y-77120690D01*
X106107090Y-76987073D01*
X106218160Y-76834199D01*
X106303947Y-76665832D01*
X106362340Y-76486118D01*
X106363071Y-76481500D01*
X106391900Y-76299486D01*
X106391900Y-76110513D01*
X106362340Y-75923881D01*
X106303945Y-75744163D01*
X106245502Y-75629463D01*
X106218160Y-75575801D01*
X106107090Y-75422927D01*
X105973473Y-75289310D01*
X105820599Y-75178240D01*
X105652236Y-75092454D01*
X105472518Y-75034059D01*
X105285886Y-75004500D01*
X105285881Y-75004500D01*
X105096919Y-75004500D01*
X105096914Y-75004500D01*
X104910281Y-75034059D01*
X104730563Y-75092454D01*
X104562200Y-75178240D01*
X104527787Y-75203243D01*
X104409327Y-75289310D01*
X104409325Y-75289312D01*
X104409324Y-75289312D01*
X104275712Y-75422924D01*
X104275712Y-75422925D01*
X104275710Y-75422927D01*
X104255357Y-75450941D01*
X104164640Y-75575800D01*
X104078854Y-75744163D01*
X104020459Y-75923881D01*
X103990900Y-76110513D01*
X97917500Y-76110513D01*
X97917500Y-67939100D01*
X97937185Y-67872061D01*
X97989989Y-67826306D01*
X98041500Y-67815100D01*
X105443790Y-67815100D01*
X105443791Y-67815100D01*
X105535173Y-67800625D01*
X105554571Y-67799099D01*
X106368864Y-67799099D01*
X106368866Y-67799099D01*
X106443101Y-67784334D01*
X106527284Y-67728084D01*
X106583534Y-67643901D01*
X106598300Y-67569667D01*
X106598299Y-66755370D01*
X106599826Y-66735973D01*
X106614300Y-66644589D01*
X106614300Y-66444609D01*
X106599826Y-66353225D01*
X106598299Y-66333827D01*
X106598299Y-65519536D01*
X106598299Y-65519534D01*
X106583534Y-65445299D01*
X106564868Y-65417365D01*
X106527284Y-65361115D01*
X106476819Y-65327396D01*
X106443101Y-65304866D01*
X106443099Y-65304865D01*
X106443096Y-65304864D01*
X106368871Y-65290100D01*
X106368867Y-65290100D01*
X105554570Y-65290100D01*
X105535172Y-65288573D01*
X105521349Y-65286383D01*
X105443795Y-65274100D01*
X105443791Y-65274100D01*
X98041500Y-65274100D01*
X97974461Y-65254415D01*
X97928706Y-65201611D01*
X97917500Y-65150100D01*
X97917500Y-63522900D01*
X97937185Y-63455861D01*
X97989989Y-63410106D01*
X98041500Y-63398900D01*
X101258856Y-63398900D01*
X101325895Y-63418585D01*
X101346537Y-63435219D01*
X101347029Y-63435711D01*
X101473471Y-63508712D01*
X101614499Y-63546500D01*
X101614501Y-63546500D01*
X101760499Y-63546500D01*
X101760501Y-63546500D01*
X101901529Y-63508712D01*
X102027971Y-63435711D01*
X102131211Y-63332471D01*
X102204212Y-63206029D01*
X102242000Y-63065001D01*
X102242000Y-62918999D01*
X102204212Y-62777971D01*
X102167711Y-62714750D01*
X102131213Y-62651532D01*
X102131209Y-62651527D01*
X102027972Y-62548290D01*
X102027967Y-62548286D01*
X101901531Y-62475289D01*
X101901530Y-62475288D01*
X101901529Y-62475288D01*
X101760501Y-62437500D01*
X101614499Y-62437500D01*
X101473471Y-62475288D01*
X101473468Y-62475289D01*
X101347032Y-62548286D01*
X101347027Y-62548290D01*
X101346537Y-62548781D01*
X101346021Y-62549062D01*
X101340584Y-62553235D01*
X101339933Y-62552386D01*
X101285214Y-62582266D01*
X101258856Y-62585100D01*
X98041500Y-62585100D01*
X97974461Y-62565415D01*
X97928706Y-62512611D01*
X97917500Y-62461100D01*
X97917500Y-58950113D01*
X104143300Y-58950113D01*
X104143300Y-59139086D01*
X104172859Y-59325718D01*
X104231254Y-59505436D01*
X104317040Y-59673799D01*
X104428110Y-59826673D01*
X104561727Y-59960290D01*
X104714601Y-60071360D01*
X104794147Y-60111890D01*
X104882963Y-60157145D01*
X104882965Y-60157145D01*
X104882968Y-60157147D01*
X104979297Y-60188446D01*
X105062681Y-60215540D01*
X105249314Y-60245100D01*
X105249319Y-60245100D01*
X105438286Y-60245100D01*
X105624918Y-60215540D01*
X105804632Y-60157147D01*
X105972999Y-60071360D01*
X106125873Y-59960290D01*
X106259490Y-59826673D01*
X106370560Y-59673799D01*
X106456347Y-59505432D01*
X106514740Y-59325718D01*
X106544300Y-59139086D01*
X106544300Y-58950113D01*
X106514740Y-58763481D01*
X106456345Y-58583763D01*
X106411090Y-58494947D01*
X106370560Y-58415401D01*
X106259490Y-58262527D01*
X106125873Y-58128910D01*
X105972999Y-58017840D01*
X105804636Y-57932054D01*
X105624918Y-57873659D01*
X105438286Y-57844100D01*
X105438281Y-57844100D01*
X105249319Y-57844100D01*
X105249314Y-57844100D01*
X105062681Y-57873659D01*
X104882963Y-57932054D01*
X104714600Y-58017840D01*
X104657538Y-58059299D01*
X104561727Y-58128910D01*
X104561725Y-58128912D01*
X104561724Y-58128912D01*
X104428112Y-58262524D01*
X104428112Y-58262525D01*
X104428110Y-58262527D01*
X104380410Y-58328179D01*
X104317040Y-58415400D01*
X104231254Y-58583763D01*
X104172859Y-58763481D01*
X104143300Y-58950113D01*
X97917500Y-58950113D01*
X97917500Y-58447009D01*
X97912494Y-58415400D01*
X97886216Y-58249490D01*
X97847038Y-58128912D01*
X97824420Y-58059299D01*
X97733628Y-57881112D01*
X97706737Y-57844100D01*
X97616083Y-57719325D01*
X97474675Y-57577917D01*
X96308939Y-56412181D01*
X96275454Y-56350858D01*
X96280438Y-56281166D01*
X96308939Y-56236819D01*
X100950340Y-51595419D01*
X101011663Y-51561934D01*
X101038021Y-51559100D01*
X105697790Y-51559100D01*
X105697791Y-51559100D01*
X105789173Y-51544625D01*
X105808571Y-51543099D01*
X106622864Y-51543099D01*
X106622866Y-51543099D01*
X106697101Y-51528334D01*
X106781284Y-51472084D01*
X106837534Y-51387901D01*
X106852300Y-51313667D01*
X106852299Y-50499370D01*
X106853826Y-50479973D01*
X106868300Y-50388589D01*
X106868300Y-50188609D01*
X106853826Y-50097225D01*
X106852299Y-50077827D01*
X106852299Y-49263536D01*
X106852299Y-49263534D01*
X106837534Y-49189299D01*
X106818868Y-49161365D01*
X106781284Y-49105115D01*
X106730819Y-49071396D01*
X106697101Y-49048866D01*
X106697099Y-49048865D01*
X106697096Y-49048864D01*
X106622871Y-49034100D01*
X106622867Y-49034100D01*
X105808570Y-49034100D01*
X105789172Y-49032573D01*
X105775349Y-49030383D01*
X105697795Y-49018100D01*
X105697791Y-49018100D01*
X102480900Y-49018100D01*
X102413861Y-48998415D01*
X102368106Y-48945611D01*
X102356900Y-48894100D01*
X102356900Y-46728644D01*
X102376585Y-46661605D01*
X102393219Y-46640963D01*
X102393711Y-46640471D01*
X102466712Y-46514029D01*
X102504500Y-46373001D01*
X102504500Y-46226999D01*
X102466712Y-46085971D01*
X102393711Y-45959529D01*
X102290471Y-45856289D01*
X102290470Y-45856288D01*
X102290467Y-45856286D01*
X102164031Y-45783289D01*
X102164030Y-45783288D01*
X102164029Y-45783288D01*
X102023001Y-45745500D01*
X101876999Y-45745500D01*
X101735971Y-45783288D01*
X101735968Y-45783289D01*
X101609532Y-45856286D01*
X101609527Y-45856290D01*
X101506290Y-45959527D01*
X101506286Y-45959532D01*
X101433289Y-46085968D01*
X101433288Y-46085971D01*
X101395500Y-46226999D01*
X101395500Y-46373000D01*
X101433288Y-46514028D01*
X101433289Y-46514031D01*
X101506286Y-46640467D01*
X101506290Y-46640472D01*
X101506781Y-46640963D01*
X101507062Y-46641478D01*
X101511235Y-46646916D01*
X101510386Y-46647566D01*
X101540266Y-46702286D01*
X101543100Y-46728644D01*
X101543100Y-48894100D01*
X101523415Y-48961139D01*
X101470611Y-49006894D01*
X101419100Y-49018100D01*
X100360409Y-49018100D01*
X100294569Y-49028528D01*
X100162888Y-49049384D01*
X99991363Y-49105116D01*
X99991362Y-49105115D01*
X99972702Y-49111179D01*
X99972699Y-49111180D01*
X99972697Y-49111181D01*
X99917134Y-49139492D01*
X99794508Y-49201973D01*
X99632730Y-49319510D01*
X99632726Y-49319514D01*
X94252061Y-54700181D01*
X94190738Y-54733666D01*
X94164380Y-54736500D01*
X74068009Y-54736500D01*
X74002169Y-54746928D01*
X73870488Y-54767784D01*
X73680299Y-54829579D01*
X73502112Y-54920371D01*
X73409806Y-54987435D01*
X73340325Y-55037917D01*
X73340323Y-55037919D01*
X73340322Y-55037919D01*
X73198919Y-55179322D01*
X73198919Y-55179323D01*
X73198917Y-55179325D01*
X73148435Y-55248806D01*
X73081371Y-55341112D01*
X72990579Y-55519299D01*
X72928784Y-55709488D01*
X72897500Y-55907009D01*
X40749946Y-55907009D01*
X40749946Y-55902137D01*
X40749943Y-51921395D01*
X49749500Y-51921395D01*
X49749500Y-52157590D01*
X49786446Y-52390861D01*
X49859433Y-52615489D01*
X49966657Y-52825926D01*
X50105483Y-53017003D01*
X50272490Y-53184010D01*
X50463567Y-53322836D01*
X50562991Y-53373495D01*
X50674003Y-53430059D01*
X50674005Y-53430059D01*
X50674008Y-53430061D01*
X50794412Y-53469182D01*
X50898631Y-53503046D01*
X51131903Y-53539993D01*
X51131908Y-53539993D01*
X51368097Y-53539993D01*
X51601368Y-53503046D01*
X51825992Y-53430061D01*
X52036433Y-53322836D01*
X52227510Y-53184010D01*
X52394517Y-53017003D01*
X52533343Y-52825926D01*
X52640568Y-52615485D01*
X52713553Y-52390861D01*
X52750500Y-52157590D01*
X52750500Y-51921395D01*
X52713553Y-51688124D01*
X52666431Y-51543099D01*
X52640568Y-51463501D01*
X52640566Y-51463498D01*
X52640566Y-51463496D01*
X52533342Y-51253059D01*
X52394517Y-51061983D01*
X52227510Y-50894976D01*
X52036433Y-50756150D01*
X51825996Y-50648926D01*
X51601368Y-50575939D01*
X51368097Y-50538993D01*
X51368092Y-50538993D01*
X51131908Y-50538993D01*
X51131903Y-50538993D01*
X50898631Y-50575939D01*
X50674003Y-50648926D01*
X50463566Y-50756150D01*
X50354550Y-50835355D01*
X50272490Y-50894976D01*
X50272488Y-50894978D01*
X50272487Y-50894978D01*
X50105485Y-51061980D01*
X50105485Y-51061981D01*
X50105483Y-51061983D01*
X50045862Y-51144043D01*
X49966657Y-51253059D01*
X49859433Y-51463496D01*
X49786446Y-51688124D01*
X49749500Y-51921395D01*
X40749943Y-51921395D01*
X40749943Y-51916529D01*
X40749942Y-51061981D01*
X40749940Y-47221507D01*
X46450000Y-47221507D01*
X46450000Y-47457478D01*
X46480799Y-47691407D01*
X46541870Y-47919330D01*
X46632160Y-48137312D01*
X46632165Y-48137321D01*
X46750144Y-48341664D01*
X46750145Y-48341665D01*
X46812721Y-48423216D01*
X47534152Y-47701785D01*
X47541049Y-47718435D01*
X47628599Y-47849463D01*
X47740030Y-47960894D01*
X47871058Y-48048444D01*
X47887706Y-48055339D01*
X47166275Y-48776770D01*
X47247827Y-48839347D01*
X47247828Y-48839348D01*
X47452171Y-48957327D01*
X47452180Y-48957332D01*
X47670163Y-49047622D01*
X47670161Y-49047622D01*
X47898085Y-49108693D01*
X48132014Y-49139492D01*
X48132029Y-49139493D01*
X48367971Y-49139493D01*
X48367985Y-49139492D01*
X48601914Y-49108693D01*
X48829837Y-49047622D01*
X49047819Y-48957332D01*
X49047828Y-48957327D01*
X49252181Y-48839343D01*
X49333723Y-48776772D01*
X49333723Y-48776769D01*
X48612293Y-48055340D01*
X48628942Y-48048444D01*
X48759970Y-47960894D01*
X48871401Y-47849463D01*
X48958951Y-47718435D01*
X48965847Y-47701786D01*
X49687276Y-48423216D01*
X49687279Y-48423216D01*
X49749850Y-48341674D01*
X49867834Y-48137321D01*
X49867839Y-48137312D01*
X49958129Y-47919330D01*
X50019200Y-47691407D01*
X50049999Y-47457478D01*
X50050000Y-47457464D01*
X50050000Y-47221521D01*
X50049999Y-47221507D01*
X50019200Y-46987578D01*
X49958129Y-46759655D01*
X49867839Y-46541673D01*
X49867834Y-46541664D01*
X49749855Y-46337321D01*
X49749854Y-46337320D01*
X49687277Y-46255768D01*
X48965846Y-46977198D01*
X48958951Y-46960551D01*
X48871401Y-46829523D01*
X48759970Y-46718092D01*
X48628942Y-46630542D01*
X48612293Y-46623645D01*
X49216198Y-46019740D01*
X52749500Y-46019740D01*
X52749500Y-48659245D01*
X52761131Y-48717722D01*
X52761132Y-48717723D01*
X52805447Y-48784045D01*
X52871769Y-48828360D01*
X52871770Y-48828361D01*
X52930247Y-48839992D01*
X52930250Y-48839993D01*
X52930252Y-48839993D01*
X55569750Y-48839993D01*
X55569751Y-48839992D01*
X55584568Y-48837045D01*
X55628229Y-48828361D01*
X55628229Y-48828360D01*
X55628231Y-48828360D01*
X55694552Y-48784045D01*
X55738867Y-48717724D01*
X55738867Y-48717722D01*
X55738868Y-48717722D01*
X55750499Y-48659245D01*
X55750500Y-48659243D01*
X55750500Y-46019742D01*
X55750499Y-46019740D01*
X55738868Y-45961263D01*
X55738867Y-45961262D01*
X55694552Y-45894940D01*
X55628230Y-45850625D01*
X55628229Y-45850624D01*
X55569752Y-45838993D01*
X55569748Y-45838993D01*
X52930252Y-45838993D01*
X52930247Y-45838993D01*
X52871770Y-45850624D01*
X52871769Y-45850625D01*
X52805447Y-45894940D01*
X52761132Y-45961262D01*
X52761131Y-45961263D01*
X52749500Y-46019740D01*
X49216198Y-46019740D01*
X49309966Y-45925972D01*
X49333723Y-45902214D01*
X49252172Y-45839638D01*
X49252171Y-45839637D01*
X49047828Y-45721658D01*
X49047819Y-45721653D01*
X48829836Y-45631363D01*
X48829838Y-45631363D01*
X48601914Y-45570292D01*
X48367985Y-45539493D01*
X48132014Y-45539493D01*
X47898085Y-45570292D01*
X47670162Y-45631363D01*
X47452180Y-45721653D01*
X47452171Y-45721658D01*
X47247828Y-45839637D01*
X47247818Y-45839643D01*
X47166275Y-45902213D01*
X47166275Y-45902214D01*
X47887706Y-46623645D01*
X47871058Y-46630542D01*
X47740030Y-46718092D01*
X47628599Y-46829523D01*
X47541049Y-46960551D01*
X47534152Y-46977199D01*
X46812721Y-46255768D01*
X46812720Y-46255768D01*
X46750150Y-46337311D01*
X46750144Y-46337321D01*
X46632165Y-46541664D01*
X46632160Y-46541673D01*
X46541870Y-46759655D01*
X46480799Y-46987578D01*
X46450000Y-47221507D01*
X40749940Y-47221507D01*
X40749937Y-42694113D01*
X104397300Y-42694113D01*
X104397300Y-42883086D01*
X104426859Y-43069718D01*
X104485254Y-43249436D01*
X104571040Y-43417799D01*
X104682110Y-43570673D01*
X104815727Y-43704290D01*
X104968601Y-43815360D01*
X105048147Y-43855890D01*
X105136963Y-43901145D01*
X105136965Y-43901145D01*
X105136968Y-43901147D01*
X105233297Y-43932446D01*
X105316681Y-43959540D01*
X105503314Y-43989100D01*
X105503319Y-43989100D01*
X105692286Y-43989100D01*
X105878918Y-43959540D01*
X106058632Y-43901147D01*
X106226999Y-43815360D01*
X106379873Y-43704290D01*
X106513490Y-43570673D01*
X106624560Y-43417799D01*
X106710347Y-43249432D01*
X106768740Y-43069718D01*
X106798300Y-42883086D01*
X106798300Y-42694113D01*
X106768740Y-42507481D01*
X106710345Y-42327763D01*
X106624559Y-42159400D01*
X106513490Y-42006527D01*
X106379873Y-41872910D01*
X106226999Y-41761840D01*
X106058636Y-41676054D01*
X105878918Y-41617659D01*
X105692286Y-41588100D01*
X105692281Y-41588100D01*
X105503319Y-41588100D01*
X105503314Y-41588100D01*
X105316681Y-41617659D01*
X105136963Y-41676054D01*
X104968600Y-41761840D01*
X104881379Y-41825210D01*
X104815727Y-41872910D01*
X104815725Y-41872912D01*
X104815724Y-41872912D01*
X104682112Y-42006524D01*
X104682112Y-42006525D01*
X104682110Y-42006527D01*
X104634410Y-42072179D01*
X104571040Y-42159400D01*
X104485254Y-42327763D01*
X104426859Y-42507481D01*
X104397300Y-42694113D01*
X40749937Y-42694113D01*
X40749934Y-37956762D01*
X41899500Y-37956762D01*
X41899500Y-38243237D01*
X41931572Y-38527891D01*
X41995317Y-38807181D01*
X41995321Y-38807193D01*
X42089929Y-39077565D01*
X42089935Y-39077579D01*
X42214223Y-39335666D01*
X42214225Y-39335669D01*
X42366634Y-39578227D01*
X42545243Y-39802195D01*
X42747805Y-40004757D01*
X42971773Y-40183366D01*
X43214331Y-40335775D01*
X43472428Y-40460068D01*
X43472434Y-40460070D01*
X43742806Y-40554678D01*
X43742818Y-40554682D01*
X44022102Y-40618426D01*
X44022105Y-40618426D01*
X44022108Y-40618427D01*
X44022107Y-40618427D01*
X44164434Y-40634463D01*
X44306763Y-40650499D01*
X44306764Y-40650500D01*
X44306767Y-40650500D01*
X44593236Y-40650500D01*
X44593236Y-40650499D01*
X44798815Y-40627336D01*
X44877891Y-40618427D01*
X44877892Y-40618426D01*
X44877898Y-40618426D01*
X45157182Y-40554682D01*
X45427572Y-40460068D01*
X45685669Y-40335775D01*
X45928227Y-40183366D01*
X46152195Y-40004757D01*
X46354757Y-39802195D01*
X46533366Y-39578227D01*
X46685775Y-39335669D01*
X46810068Y-39077572D01*
X46904682Y-38807182D01*
X46968426Y-38527898D01*
X47000500Y-38243233D01*
X47000500Y-37956767D01*
X46968426Y-37672102D01*
X46904682Y-37392818D01*
X46810068Y-37122428D01*
X46685775Y-36864331D01*
X46533366Y-36621773D01*
X46354757Y-36397805D01*
X46152195Y-36195243D01*
X45928227Y-36016634D01*
X45685669Y-35864225D01*
X45685666Y-35864223D01*
X45427579Y-35739935D01*
X45427565Y-35739929D01*
X45157193Y-35645321D01*
X45157181Y-35645317D01*
X44877891Y-35581572D01*
X44877892Y-35581572D01*
X44593237Y-35549500D01*
X44593233Y-35549500D01*
X44306767Y-35549500D01*
X44306762Y-35549500D01*
X44022108Y-35581572D01*
X43742818Y-35645317D01*
X43742806Y-35645321D01*
X43472434Y-35739929D01*
X43472420Y-35739935D01*
X43214333Y-35864223D01*
X42971774Y-36016633D01*
X42747805Y-36195242D01*
X42545242Y-36397805D01*
X42366633Y-36621774D01*
X42214223Y-36864333D01*
X42089935Y-37122420D01*
X42089929Y-37122434D01*
X41995321Y-37392806D01*
X41995317Y-37392818D01*
X41931572Y-37672108D01*
X41899500Y-37956762D01*
X40749934Y-37956762D01*
X40749931Y-33624498D01*
X40769616Y-33557461D01*
X40822419Y-33511706D01*
X40873931Y-33500500D01*
X115703112Y-33500500D01*
X115770151Y-33520185D01*
G37*
%TD.AperFunction*%
%TD*%
%TA.AperFunction,Conductor*%
%TO.N,GND*%
G36*
X53119000Y-84827817D02*
G01*
X53002921Y-84875899D01*
X52877582Y-84972075D01*
X52781406Y-85097413D01*
X52720951Y-85243368D01*
X52713494Y-85300000D01*
X53119000Y-85300000D01*
X53119000Y-85700000D01*
X52713497Y-85700000D01*
X52713495Y-85700001D01*
X52720949Y-85756627D01*
X52720951Y-85756633D01*
X52781407Y-85902588D01*
X52791284Y-85915460D01*
X52816478Y-85980629D01*
X52802440Y-86049074D01*
X52799640Y-86054066D01*
X52787971Y-86073797D01*
X52787967Y-86073806D01*
X52742855Y-86229081D01*
X52742854Y-86229087D01*
X52741209Y-86249999D01*
X52741210Y-86250000D01*
X53119000Y-86250000D01*
X53119000Y-86750000D01*
X52741210Y-86750000D01*
X52742854Y-86770910D01*
X52787968Y-86926195D01*
X52870278Y-87065374D01*
X52870285Y-87065383D01*
X52984616Y-87179714D01*
X52984625Y-87179721D01*
X53119000Y-87259189D01*
X53119000Y-87733553D01*
X53103803Y-87737969D01*
X52964625Y-87820278D01*
X52964616Y-87820285D01*
X52850285Y-87934616D01*
X52850278Y-87934625D01*
X52767968Y-88073804D01*
X52767966Y-88073809D01*
X52722855Y-88229081D01*
X52722854Y-88229087D01*
X52721209Y-88249999D01*
X52721210Y-88250000D01*
X53119000Y-88250000D01*
X53119000Y-88750000D01*
X52721210Y-88750000D01*
X52722854Y-88770910D01*
X52767968Y-88926195D01*
X52767968Y-88926196D01*
X52774288Y-88936882D01*
X52791468Y-89004607D01*
X52774288Y-89063118D01*
X52767968Y-89073803D01*
X52767966Y-89073809D01*
X52722855Y-89229081D01*
X52722854Y-89229087D01*
X52721209Y-89249999D01*
X52721210Y-89250000D01*
X53119000Y-89250000D01*
X53119000Y-89750000D01*
X52721210Y-89750000D01*
X52722854Y-89770910D01*
X52767968Y-89926195D01*
X52850278Y-90065374D01*
X52850285Y-90065383D01*
X52964616Y-90179714D01*
X52964625Y-90179721D01*
X53103803Y-90262030D01*
X53119000Y-90266445D01*
X53119000Y-91129000D01*
X52986000Y-91129000D01*
X52986000Y-90788410D01*
X52985999Y-90788409D01*
X52965087Y-90790054D01*
X52965081Y-90790055D01*
X52809809Y-90835166D01*
X52809804Y-90835168D01*
X52670625Y-90917478D01*
X52670616Y-90917485D01*
X52556285Y-91031816D01*
X52556278Y-91031825D01*
X52498809Y-91129000D01*
X51269350Y-91129000D01*
X51262030Y-91103803D01*
X51179721Y-90964625D01*
X51179714Y-90964616D01*
X51065383Y-90850285D01*
X51065374Y-90850278D01*
X50926195Y-90767968D01*
X50926190Y-90767966D01*
X50770918Y-90722855D01*
X50770912Y-90722854D01*
X50750000Y-90721209D01*
X50750000Y-91129000D01*
X50250000Y-91129000D01*
X50250000Y-90721210D01*
X50249999Y-90721209D01*
X50229087Y-90722854D01*
X50229081Y-90722855D01*
X50073809Y-90767966D01*
X50073804Y-90767968D01*
X49934625Y-90850278D01*
X49934616Y-90850285D01*
X49820285Y-90964616D01*
X49820278Y-90964625D01*
X49737969Y-91103803D01*
X49730649Y-91129000D01*
X49263540Y-91129000D01*
X49262030Y-91123803D01*
X49179721Y-90984625D01*
X49179714Y-90984616D01*
X49065383Y-90870285D01*
X49065374Y-90870278D01*
X48926195Y-90787968D01*
X48926190Y-90787966D01*
X48770918Y-90742855D01*
X48770912Y-90742854D01*
X48750000Y-90741209D01*
X48750000Y-91129000D01*
X48250000Y-91129000D01*
X48250000Y-90741210D01*
X48249999Y-90741209D01*
X48229087Y-90742854D01*
X48229081Y-90742855D01*
X48073809Y-90787966D01*
X48073804Y-90787968D01*
X47934625Y-90870278D01*
X47934616Y-90870285D01*
X47820285Y-90984616D01*
X47820278Y-90984625D01*
X47737969Y-91123803D01*
X47736459Y-91129000D01*
X46388000Y-91129000D01*
X46388000Y-84398000D01*
X53119000Y-84398000D01*
X53119000Y-84827817D01*
G37*
%TD.AperFunction*%
%TD*%
M02*
