%TF.GenerationSoftware,KiCad,Pcbnew,10.0.3*%
%TF.CreationDate,2026-07-31T00:23:01-07:00*%
%TF.ProjectId,48VERelay,34385645-5265-46c6-9179-2e6b69636164,rev?*%
%TF.SameCoordinates,Original*%
%TF.FileFunction,Other,User*%
%FSLAX46Y46*%
G04 Gerber Fmt 4.6, Leading zero omitted, Abs format (unit mm)*
G04 Created by KiCad (PCBNEW 10.0.3) date 2026-07-31 00:23:01*
%MOMM*%
%LPD*%
G01*
G04 APERTURE LIST*
%ADD10C,0.050000*%
%ADD11C,0.100000*%
G04 APERTURE END LIST*
%TO.C,C15*%
D10*
X53240000Y-71960000D02*
X54160000Y-71960000D01*
X54160000Y-73780000D01*
X53240000Y-73780000D01*
X53240000Y-71960000D01*
%TO.C,C23*%
D11*
X49744493Y-79000000D02*
X51144493Y-79000000D01*
X51144493Y-79700000D01*
X49744493Y-79700000D01*
X49744493Y-79000000D01*
%TO.C,R20*%
D10*
X63355000Y-95800000D02*
X64755000Y-95800000D01*
X64755000Y-96500000D01*
X63355000Y-96500000D01*
X63355000Y-95800000D01*
%TO.C,C14*%
X49310000Y-75890000D02*
X51130000Y-75890000D01*
X51130000Y-76810000D01*
X49310000Y-76810000D01*
X49310000Y-75890000D01*
%TO.C,3V3 Eth*%
X45500000Y-78250000D02*
G75*
G02*
X43500000Y-78250000I-1000000J0D01*
G01*
X43500000Y-78250000D02*
G75*
G02*
X45500000Y-78250000I1000000J0D01*
G01*
%TO.C,C11*%
X49290000Y-77890000D02*
X51110000Y-77890000D01*
X51110000Y-78810000D01*
X49290000Y-78810000D01*
X49290000Y-77890000D01*
%TO.C,3V3A*%
X50750000Y-70250000D02*
G75*
G02*
X48750000Y-70250000I-1000000J0D01*
G01*
X48750000Y-70250000D02*
G75*
G02*
X50750000Y-70250000I1000000J0D01*
G01*
%TO.C,C12*%
X55240000Y-71940000D02*
X56160000Y-71940000D01*
X56160000Y-73760000D01*
X55240000Y-73760000D01*
X55240000Y-71940000D01*
%TO.C,C13*%
X50504000Y-71892800D02*
X51424000Y-71892800D01*
X51424000Y-73712800D01*
X50504000Y-73712800D01*
X50504000Y-71892800D01*
%TO.C,C7*%
X51600000Y-81830000D02*
X52300000Y-81830000D01*
X52300000Y-83230000D01*
X51600000Y-83230000D01*
X51600000Y-81830000D01*
%TO.C,C16*%
X49310000Y-74890000D02*
X51130000Y-74890000D01*
X51130000Y-75810000D01*
X49310000Y-75810000D01*
X49310000Y-74890000D01*
%TO.C,R6*%
X51280000Y-69070000D02*
X52220000Y-69070000D01*
X52220000Y-70930000D01*
X51280000Y-70930000D01*
X51280000Y-69070000D01*
%TO.C,C6*%
D11*
X65650000Y-108400000D02*
X66350000Y-108400000D01*
X66350000Y-109800000D01*
X65650000Y-109800000D01*
X65650000Y-108400000D01*
%TD*%
M02*
