%TF.GenerationSoftware,KiCad,Pcbnew,10.0.3*%
%TF.CreationDate,2026-07-31T00:23:01-07:00*%
%TF.ProjectId,48VERelay,34385645-5265-46c6-9179-2e6b69636164,rev?*%
%TF.SameCoordinates,Original*%
%TF.FileFunction,Other,User*%
%FSLAX46Y46*%
G04 Gerber Fmt 4.6, Leading zero omitted, Abs format (unit mm)*
G04 Created by KiCad (PCBNEW 10.0.3) date 2026-07-31 00:23:01*
%MOMM*%
%LPD*%
G01*
G04 APERTURE LIST*
%ADD10C,0.050000*%
%ADD11C,0.100000*%
G04 APERTURE END LIST*
%TO.C,D6*%
D10*
X63270000Y-84270000D02*
X66230000Y-84270000D01*
X66230000Y-85730000D01*
X63270000Y-85730000D01*
X63270000Y-84270000D01*
%TO.C,J2*%
D11*
X41100000Y-99545000D02*
X41100000Y-116585000D01*
X53830000Y-99545000D02*
X41100000Y-99545000D01*
X53830000Y-116585000D02*
X41100000Y-116585000D01*
X54810000Y-98565000D02*
X53830000Y-99545000D01*
X54810000Y-117565000D02*
X53830000Y-116585000D01*
X54810000Y-117565000D02*
X56290000Y-117565000D01*
X56290000Y-98565000D02*
X54810000Y-98565000D01*
X56290000Y-98565000D02*
X57270000Y-99545000D01*
X56290000Y-117565000D02*
X57270000Y-116585000D01*
X63400000Y-99545000D02*
X57270000Y-99545000D01*
X63400000Y-99545000D02*
X63400000Y-116585000D01*
X63400000Y-116585000D02*
X57270000Y-116585000D01*
%TO.C,J1*%
X40050000Y-42339493D02*
X55450000Y-42339493D01*
X40050000Y-52339493D02*
X40050000Y-42339493D01*
X49450000Y-52339493D02*
X40050000Y-52339493D01*
X49450000Y-53839493D02*
X49450000Y-52339493D01*
X53050000Y-52339493D02*
X53050000Y-53839493D01*
X53050000Y-53839493D02*
X49450000Y-53839493D01*
X55450000Y-42339493D02*
X55450000Y-45539493D01*
X55450000Y-45539493D02*
X56050000Y-45539493D01*
X55450000Y-49139493D02*
X55450000Y-52339493D01*
X55450000Y-52339493D02*
X53050000Y-52339493D01*
X56050000Y-45539493D02*
X56050000Y-49139493D01*
X56050000Y-49139493D02*
X55450000Y-49139493D01*
%TO.C,K11*%
X102793800Y-56294600D02*
X102793800Y-69294600D01*
X102793800Y-69294600D02*
X132093800Y-69294600D01*
X132093800Y-56294600D02*
X102793800Y-56294600D01*
X132093800Y-69294600D02*
X132093800Y-56294600D01*
%TO.C,C8*%
D10*
X43050000Y-66020000D02*
X46450000Y-66020000D01*
X46450000Y-67980000D01*
X43050000Y-67980000D01*
X43050000Y-66020000D01*
%TO.C,C3*%
X66120000Y-79690000D02*
X67580000Y-79690000D01*
X67580000Y-82650000D01*
X66120000Y-82650000D01*
X66120000Y-79690000D01*
%TO.C,C17*%
D11*
X47100000Y-85005000D02*
X47800000Y-85005000D01*
X47800000Y-86405000D01*
X47100000Y-86405000D01*
X47100000Y-85005000D01*
%TO.C,REF\u002A\u002A*%
D10*
X155000000Y-120650000D02*
G75*
G02*
X149800000Y-120650000I-2600000J0D01*
G01*
X149800000Y-120650000D02*
G75*
G02*
X155000000Y-120650000I2600000J0D01*
G01*
%TO.C,12V*%
X67000000Y-49089493D02*
G75*
G02*
X64500000Y-49089493I-1250000J0D01*
G01*
X64500000Y-49089493D02*
G75*
G02*
X67000000Y-49089493I1250000J0D01*
G01*
%TO.C,R16*%
D11*
X44970000Y-71370000D02*
X46430000Y-71370000D01*
X46430000Y-74330000D01*
X44970000Y-74330000D01*
X44970000Y-71370000D01*
%TO.C,L1*%
X46764100Y-64500700D02*
X49735900Y-64500700D01*
X46764100Y-65999300D02*
X46764100Y-64500700D01*
X49735900Y-64500700D02*
X49735900Y-65999300D01*
X49735900Y-65999300D02*
X46764100Y-65999300D01*
%TO.C,C37*%
D10*
X66590000Y-85790000D02*
X68410000Y-85790000D01*
X68410000Y-86710000D01*
X66590000Y-86710000D01*
X66590000Y-85790000D01*
%TO.C,R17*%
D11*
X46470000Y-71370000D02*
X47930000Y-71370000D01*
X47930000Y-74330000D01*
X46470000Y-74330000D01*
X46470000Y-71370000D01*
%TO.C,K14*%
X102793800Y-107755000D02*
X102793800Y-120755000D01*
X102793800Y-120755000D02*
X132093800Y-120755000D01*
X132093800Y-107755000D02*
X102793800Y-107755000D01*
X132093800Y-120755000D02*
X132093800Y-107755000D01*
%TO.C,J12*%
D10*
X139250000Y-72000000D02*
X148060000Y-72000000D01*
X148060000Y-88500000D01*
X139250000Y-88500000D01*
X139250000Y-72000000D01*
%TO.C,F4*%
X133406800Y-96152000D02*
X137966800Y-96152000D01*
X137966800Y-98412000D01*
X133406800Y-98412000D01*
X133406800Y-96152000D01*
%TO.C,R7*%
D11*
X43220000Y-83620000D02*
X44680000Y-83620000D01*
X44680000Y-86580000D01*
X43220000Y-86580000D01*
X43220000Y-83620000D01*
%TO.C,R21*%
D10*
X46500000Y-81450000D02*
X47900000Y-81450000D01*
X47900000Y-82150000D01*
X46500000Y-82150000D01*
X46500000Y-81450000D01*
%TO.C,C10*%
X64770000Y-44609493D02*
X66230000Y-44609493D01*
X66230000Y-47569493D01*
X64770000Y-47569493D01*
X64770000Y-44609493D01*
%TO.C,+5V*%
X59000000Y-58750000D02*
G75*
G02*
X57000000Y-58750000I-1000000J0D01*
G01*
X57000000Y-58750000D02*
G75*
G02*
X59000000Y-58750000I1000000J0D01*
G01*
%TO.C,U3*%
D11*
X49300000Y-73950000D02*
X50700000Y-73950000D01*
X49300000Y-80250000D02*
X49300000Y-73950000D01*
X50700000Y-73350000D02*
X51300000Y-73350000D01*
X50700000Y-73950000D02*
X50700000Y-73350000D01*
X50700000Y-80250000D02*
X49300000Y-80250000D01*
X50700000Y-80850000D02*
X50700000Y-80250000D01*
X51300000Y-71950000D02*
X57600000Y-71950000D01*
X51300000Y-73350000D02*
X51300000Y-71950000D01*
X51300000Y-80850000D02*
X50700000Y-80850000D01*
X51300000Y-82250000D02*
X51300000Y-80850000D01*
X57600000Y-71950000D02*
X57600000Y-73350000D01*
X57600000Y-73350000D02*
X58200000Y-73350000D01*
X57600000Y-80850000D02*
X57600000Y-82250000D01*
X57600000Y-82250000D02*
X51300000Y-82250000D01*
X58200000Y-73350000D02*
X58200000Y-73950000D01*
X58200000Y-73950000D02*
X59600000Y-73950000D01*
X58200000Y-80250000D02*
X58200000Y-80850000D01*
X58200000Y-80850000D02*
X57600000Y-80850000D01*
X59600000Y-73950000D02*
X59600000Y-80250000D01*
X59600000Y-80250000D02*
X58200000Y-80250000D01*
%TO.C,R25*%
X68490000Y-49669493D02*
X71450000Y-49669493D01*
X71450000Y-51129493D01*
X68490000Y-51129493D01*
X68490000Y-49669493D01*
%TO.C,R22*%
D10*
X47700000Y-80800000D02*
X49100000Y-80800000D01*
X49100000Y-81500000D01*
X47700000Y-81500000D01*
X47700000Y-80800000D01*
%TO.C,R12*%
D11*
X74720000Y-62516000D02*
X77680000Y-62516000D01*
X77680000Y-63976000D01*
X74720000Y-63976000D01*
X74720000Y-62516000D01*
%TO.C,C35*%
X62300000Y-76320000D02*
X65700000Y-76320000D01*
X65700000Y-78280000D01*
X62300000Y-78280000D01*
X62300000Y-76320000D01*
%TO.C,K12*%
X102641400Y-73455000D02*
X102641400Y-86455000D01*
X102641400Y-86455000D02*
X131941400Y-86455000D01*
X131941400Y-73455000D02*
X102641400Y-73455000D01*
X131941400Y-86455000D02*
X131941400Y-73455000D01*
%TO.C,REF\u002A\u002A*%
D10*
X155000000Y-38100000D02*
G75*
G02*
X149800000Y-38100000I-2600000J0D01*
G01*
X149800000Y-38100000D02*
G75*
G02*
X155000000Y-38100000I2600000J0D01*
G01*
%TO.C,C18*%
D11*
X48300000Y-66270000D02*
X51700000Y-66270000D01*
X51700000Y-68230000D01*
X48300000Y-68230000D01*
X48300000Y-66270000D01*
%TO.C,R5*%
X98967200Y-92676200D02*
X101927200Y-92676200D01*
X101927200Y-94136200D01*
X98967200Y-94136200D01*
X98967200Y-92676200D01*
%TO.C,R9*%
X43495000Y-97220000D02*
X46455000Y-97220000D01*
X46455000Y-98680000D01*
X43495000Y-98680000D01*
X43495000Y-97220000D01*
%TO.C,R19*%
D10*
X48050000Y-95450000D02*
X49450000Y-95450000D01*
X49450000Y-96150000D01*
X48050000Y-96150000D01*
X48050000Y-95450000D01*
%TO.C,R11*%
D11*
X74720000Y-64167000D02*
X77680000Y-64167000D01*
X77680000Y-65627000D01*
X74720000Y-65627000D01*
X74720000Y-64167000D01*
%TO.C,C34*%
X46550000Y-62270000D02*
X49950000Y-62270000D01*
X49950000Y-64230000D01*
X46550000Y-64230000D01*
X46550000Y-62270000D01*
%TO.C,U10*%
D10*
X45874999Y-54450000D02*
X45874999Y-62150000D01*
D11*
X50575000Y-57800001D02*
X50575000Y-58800002D01*
X51074999Y-58300000D02*
X50075001Y-58300000D01*
D10*
X55275001Y-54450000D02*
X45874999Y-54450000D01*
X55275001Y-54450000D02*
X55275001Y-62150000D01*
X55275001Y-62150000D02*
X45874999Y-62150000D01*
%TO.C,R28*%
D11*
X63640000Y-51869493D02*
X65100000Y-51869493D01*
X65100000Y-54829493D01*
X63640000Y-54829493D01*
X63640000Y-51869493D01*
%TO.C,C22*%
X50655000Y-85000000D02*
X52055000Y-85000000D01*
X52055000Y-85700000D01*
X50655000Y-85700000D01*
X50655000Y-85000000D01*
%TO.C,Y2*%
X50540100Y-85972100D02*
X50540100Y-85972100D01*
X50540100Y-85972100D02*
X50540100Y-85991800D01*
X50540100Y-85991800D02*
X53722100Y-85991800D01*
X50540100Y-90208200D02*
X50540100Y-90227900D01*
X50540100Y-90227900D02*
X50540100Y-85972100D01*
X50540100Y-90227900D02*
X50540100Y-90227900D01*
X53377900Y-85991800D02*
X53377900Y-85991800D01*
X53377900Y-85991800D02*
X56559900Y-85991800D01*
X53377900Y-90208200D02*
X53377900Y-90208200D01*
X53377900Y-90208200D02*
X53722100Y-90208200D01*
X53722100Y-85991800D02*
X53377900Y-85991800D01*
X53722100Y-85991800D02*
X53722100Y-85991800D01*
X53722100Y-90208200D02*
X50540100Y-90208200D01*
X53722100Y-90208200D02*
X53722100Y-90208200D01*
X56559900Y-85972100D02*
X56559900Y-85972100D01*
X56559900Y-85972100D02*
X56559900Y-90227900D01*
X56559900Y-85991800D02*
X56559900Y-85972100D01*
X56559900Y-90208200D02*
X53377900Y-90208200D01*
X56559900Y-90227900D02*
X56559900Y-90208200D01*
X56559900Y-90227900D02*
X56559900Y-90227900D01*
%TO.C,C21*%
X56850000Y-88900000D02*
X57550000Y-88900000D01*
X57550000Y-90300000D01*
X56850000Y-90300000D01*
X56850000Y-88900000D01*
%TO.C,C26*%
X72070000Y-50169493D02*
X75470000Y-50169493D01*
X75470000Y-52129493D01*
X72070000Y-52129493D01*
X72070000Y-50169493D01*
%TO.C,C36*%
D10*
X66610000Y-84503000D02*
X68430000Y-84503000D01*
X68430000Y-85423000D01*
X66610000Y-85423000D01*
X66610000Y-84503000D01*
%TO.C,R24*%
X53352475Y-83741431D02*
X55212475Y-83741431D01*
X55212475Y-84681431D01*
X53352475Y-84681431D01*
X53352475Y-83741431D01*
%TO.C,U2*%
D11*
X82716000Y-58378000D02*
X84646000Y-58378000D01*
X82716000Y-69638000D02*
X82716000Y-58378000D01*
X84646000Y-57978000D02*
X92646000Y-57978000D01*
X84646000Y-58378000D02*
X84646000Y-57978000D01*
X84646000Y-69638000D02*
X82716000Y-69638000D01*
X84646000Y-70038000D02*
X84646000Y-69638000D01*
X92646000Y-57978000D02*
X92646000Y-58378000D01*
X92646000Y-58378000D02*
X94576000Y-58378000D01*
X92646000Y-69638000D02*
X92646000Y-70038000D01*
X92646000Y-70038000D02*
X84646000Y-70038000D01*
X94576000Y-58378000D02*
X94576000Y-69638000D01*
X94576000Y-69638000D02*
X92646000Y-69638000D01*
%TO.C,R15*%
X49320000Y-117220000D02*
X52280000Y-117220000D01*
X52280000Y-118680000D01*
X49320000Y-118680000D01*
X49320000Y-117220000D01*
%TO.C,U4*%
X59970000Y-45709493D02*
X64530000Y-45709493D01*
X64530000Y-47969493D01*
X59970000Y-47969493D01*
X59970000Y-45709493D01*
%TO.C,R29*%
X61020000Y-82020000D02*
X62480000Y-82020000D01*
X62480000Y-84980000D01*
X61020000Y-84980000D01*
X61020000Y-82020000D01*
%TO.C,J10*%
D10*
X139000000Y-38500000D02*
X147810000Y-38500000D01*
X147810000Y-55000000D01*
X139000000Y-55000000D01*
X139000000Y-38500000D01*
%TO.C,C30*%
D11*
X62140000Y-55099493D02*
X64100000Y-55099493D01*
X64100000Y-58499493D01*
X62140000Y-58499493D01*
X62140000Y-55099493D01*
%TO.C,D1*%
D10*
X99320000Y-43800000D02*
X102680000Y-43800000D01*
X102680000Y-45700000D01*
X99320000Y-45700000D01*
X99320000Y-43800000D01*
%TO.C,+3v3_ETH*%
X44500000Y-63750000D02*
G75*
G02*
X42500000Y-63750000I-1000000J0D01*
G01*
X42500000Y-63750000D02*
G75*
G02*
X44500000Y-63750000I1000000J0D01*
G01*
%TO.C,C31*%
D11*
X59890000Y-55099493D02*
X61850000Y-55099493D01*
X61850000Y-58499493D01*
X59890000Y-58499493D01*
X59890000Y-55099493D01*
%TO.C,L3*%
X65965700Y-58095193D02*
X71274300Y-58095193D01*
X65965700Y-58590493D02*
X65965700Y-58095193D01*
X65965700Y-58590493D02*
X65965700Y-58590493D01*
X65965700Y-62908493D02*
X65965700Y-58590493D01*
X65965700Y-62908493D02*
X65965700Y-62908493D01*
X65965700Y-63403793D02*
X65965700Y-62908493D01*
X71274300Y-58095193D02*
X71274300Y-58590493D01*
X71274300Y-58590493D02*
X71274300Y-58590493D01*
X71274300Y-58590493D02*
X71274300Y-62908493D01*
X71274300Y-62908493D02*
X71274300Y-62908493D01*
X71274300Y-62908493D02*
X71274300Y-63403793D01*
X71274300Y-63403793D02*
X65965700Y-63403793D01*
%TO.C,J13*%
D10*
X139250000Y-89000000D02*
X148060000Y-89000000D01*
X148060000Y-105500000D01*
X139250000Y-105500000D01*
X139250000Y-89000000D01*
%TO.C,C20*%
D11*
X66600000Y-104550000D02*
X68000000Y-104550000D01*
X68000000Y-105250000D01*
X66600000Y-105250000D01*
X66600000Y-104550000D01*
%TO.C,J5*%
D10*
X70250000Y-101135000D02*
X77250000Y-101135000D01*
X70250000Y-105135000D02*
X70250000Y-101135000D01*
X77250000Y-101135000D02*
X77250000Y-105135000D01*
X77250000Y-105135000D02*
X70250000Y-105135000D01*
%TO.C,SW5*%
X74750000Y-106000000D02*
X74750000Y-106250000D01*
X74750000Y-113250000D02*
X74750000Y-106250000D01*
X74750000Y-113500000D02*
X74750000Y-113250000D01*
X75000000Y-106000000D02*
X74750000Y-106000000D01*
X75000000Y-106000000D02*
X84000000Y-106000000D01*
X75000000Y-113500000D02*
X74750000Y-113500000D01*
X84000000Y-113500000D02*
X75000000Y-113500000D01*
X84250000Y-106000000D02*
X84000000Y-106000000D01*
X84250000Y-106250000D02*
X84250000Y-106000000D01*
X84250000Y-106250000D02*
X84250000Y-113250000D01*
X84250000Y-113250000D02*
X84250000Y-113500000D01*
X84250000Y-113500000D02*
X84000000Y-113500000D01*
%TO.C,R10*%
D11*
X74720000Y-65818000D02*
X77680000Y-65818000D01*
X77680000Y-67278000D01*
X74720000Y-67278000D01*
X74720000Y-65818000D01*
%TO.C,C2*%
D10*
X64370000Y-79690000D02*
X65830000Y-79690000D01*
X65830000Y-82650000D01*
X64370000Y-82650000D01*
X64370000Y-79690000D01*
%TO.C,C33*%
X60270000Y-63093661D02*
X62230000Y-63093661D01*
X62230000Y-66493661D01*
X60270000Y-66493661D01*
X60270000Y-63093661D01*
%TO.C,C4*%
X67770000Y-79690000D02*
X69230000Y-79690000D01*
X69230000Y-82650000D01*
X67770000Y-82650000D01*
X67770000Y-79690000D01*
%TO.C,R8*%
D11*
X44720000Y-83620000D02*
X46180000Y-83620000D01*
X46180000Y-86580000D01*
X44720000Y-86580000D01*
X44720000Y-83620000D01*
%TO.C,K13*%
X102692200Y-90686200D02*
X102692200Y-103686200D01*
X102692200Y-103686200D02*
X131992200Y-103686200D01*
X131992200Y-90686200D02*
X102692200Y-90686200D01*
X131992200Y-103686200D02*
X131992200Y-90686200D01*
%TO.C,D3*%
D10*
X99050000Y-77300000D02*
X102410000Y-77300000D01*
X102410000Y-79200000D01*
X99050000Y-79200000D01*
X99050000Y-77300000D01*
%TO.C,F1*%
X133470000Y-45470000D02*
X138030000Y-45470000D01*
X138030000Y-47730000D01*
X133470000Y-47730000D01*
X133470000Y-45470000D01*
%TO.C,U1*%
D11*
X69500000Y-79290000D02*
X69500000Y-99490000D01*
X69500000Y-79290000D02*
X89000000Y-79290000D01*
X69500000Y-99490000D02*
X89000000Y-99490000D01*
X89000000Y-79290000D02*
X89000000Y-99490000D01*
%TO.C,J14*%
D10*
X139213200Y-106500000D02*
X148023200Y-106500000D01*
X148023200Y-123000000D01*
X139213200Y-123000000D01*
X139213200Y-106500000D01*
%TO.C,R1*%
D11*
X99641800Y-42089600D02*
X102601800Y-42089600D01*
X102601800Y-43549600D01*
X99641800Y-43549600D01*
X99641800Y-42089600D01*
%TO.C,R3*%
X98981400Y-75490800D02*
X101941400Y-75490800D01*
X101941400Y-76950800D01*
X98981400Y-76950800D01*
X98981400Y-75490800D01*
%TO.C,3V3 MCU*%
D10*
X64042800Y-80162400D02*
G75*
G02*
X62042800Y-80162400I-1000000J0D01*
G01*
X62042800Y-80162400D02*
G75*
G02*
X64042800Y-80162400I1000000J0D01*
G01*
%TO.C,R18*%
X46680000Y-96250000D02*
X48080000Y-96250000D01*
X48080000Y-96950000D01*
X46680000Y-96950000D01*
X46680000Y-96250000D01*
%TO.C,K10*%
D11*
X103047800Y-40038600D02*
X103047800Y-53038600D01*
X103047800Y-53038600D02*
X132347800Y-53038600D01*
X132347800Y-40038600D02*
X103047800Y-40038600D01*
X132347800Y-53038600D02*
X132347800Y-40038600D01*
%TO.C,U9*%
D10*
X62571200Y-64687999D02*
X62571200Y-74088001D01*
X62571200Y-64687999D02*
X70271200Y-64687999D01*
X62571200Y-74088001D02*
X70271200Y-74088001D01*
D11*
X65921201Y-69388000D02*
X66921202Y-69388000D01*
X66421200Y-68888001D02*
X66421200Y-69887999D01*
D10*
X70271200Y-64687999D02*
X70271200Y-74088001D01*
%TO.C,C19*%
D11*
X47950000Y-84700000D02*
X48650000Y-84700000D01*
X48650000Y-86100000D01*
X47950000Y-86100000D01*
X47950000Y-84700000D01*
%TO.C,C25*%
X67420000Y-51999493D02*
X68820000Y-51999493D01*
X68820000Y-52699493D01*
X67420000Y-52699493D01*
X67420000Y-51999493D01*
%TO.C,R23*%
D10*
X56730000Y-86420000D02*
X57670000Y-86420000D01*
X57670000Y-88280000D01*
X56730000Y-88280000D01*
X56730000Y-86420000D01*
%TO.C,D5*%
X99070000Y-111800000D02*
X102430000Y-111800000D01*
X102430000Y-113700000D01*
X99070000Y-113700000D01*
X99070000Y-111800000D01*
%TO.C,C29*%
D11*
X64390000Y-55269493D02*
X65850000Y-55269493D01*
X65850000Y-58229493D01*
X64390000Y-58229493D01*
X64390000Y-55269493D01*
%TO.C,C1*%
X62300000Y-74220000D02*
X65700000Y-74220000D01*
X65700000Y-76180000D01*
X62300000Y-76180000D01*
X62300000Y-74220000D01*
%TO.C,C24*%
X72050000Y-47859493D02*
X75450000Y-47859493D01*
X75450000Y-49819493D01*
X72050000Y-49819493D01*
X72050000Y-47859493D01*
%TO.C,F2*%
D10*
X133470000Y-62670000D02*
X138030000Y-62670000D01*
X138030000Y-64930000D01*
X133470000Y-64930000D01*
X133470000Y-62670000D01*
%TO.C,D2*%
X99070000Y-60550000D02*
X102430000Y-60550000D01*
X102430000Y-62450000D01*
X99070000Y-62450000D01*
X99070000Y-60550000D01*
%TO.C,R14*%
D11*
X74720000Y-59214000D02*
X77680000Y-59214000D01*
X77680000Y-60674000D01*
X74720000Y-60674000D01*
X74720000Y-59214000D01*
%TO.C,R13*%
X74720000Y-60865000D02*
X77680000Y-60865000D01*
X77680000Y-62325000D01*
X74720000Y-62325000D01*
X74720000Y-60865000D01*
%TO.C,D4*%
D10*
X98820000Y-94550000D02*
X102180000Y-94550000D01*
X102180000Y-96450000D01*
X98820000Y-96450000D01*
X98820000Y-94550000D01*
%TO.C,C28*%
D11*
X71140002Y-54619493D02*
X72600002Y-54619493D01*
X72600002Y-57579493D01*
X71140002Y-57579493D01*
X71140002Y-54619493D01*
%TO.C,C9*%
D10*
X66450000Y-39789493D02*
X68950000Y-39789493D01*
X66450000Y-45739493D02*
X66450000Y-39789493D01*
X67600000Y-46889493D02*
X66450000Y-45739493D01*
X67600000Y-46889493D02*
X68950000Y-46889493D01*
X68950000Y-38889493D02*
X71050000Y-38889493D01*
X68950000Y-39789493D02*
X68950000Y-38889493D01*
X68950000Y-46889493D02*
X68950000Y-47789493D01*
X68950000Y-47789493D02*
X71050000Y-47789493D01*
X71050000Y-38889493D02*
X71050000Y-39789493D01*
X71050000Y-39789493D02*
X73550000Y-39789493D01*
X71050000Y-46889493D02*
X72400000Y-46889493D01*
X71050000Y-47789493D02*
X71050000Y-46889493D01*
X72400000Y-46889493D02*
X73550000Y-45739493D01*
X73550000Y-45739493D02*
X73550000Y-39789493D01*
%TO.C,J11*%
X139271100Y-55500000D02*
X148081100Y-55500000D01*
X148081100Y-72000000D01*
X139271100Y-72000000D01*
X139271100Y-55500000D01*
%TO.C,R4*%
D11*
X99393800Y-109795000D02*
X102353800Y-109795000D01*
X102353800Y-111255000D01*
X99393800Y-111255000D01*
X99393800Y-109795000D01*
%TO.C,REF\u002A\u002A*%
D10*
X47050000Y-120650000D02*
G75*
G02*
X41850000Y-120650000I-2600000J0D01*
G01*
X41850000Y-120650000D02*
G75*
G02*
X47050000Y-120650000I2600000J0D01*
G01*
%TO.C,SW6*%
X85000000Y-106000000D02*
X85250000Y-106000000D01*
X85000000Y-106250000D02*
X85000000Y-106000000D01*
X85000000Y-113250000D02*
X85000000Y-106250000D01*
X85000000Y-113250000D02*
X85000000Y-113500000D01*
X85000000Y-113500000D02*
X85250000Y-113500000D01*
X85250000Y-106000000D02*
X94250000Y-106000000D01*
X94250000Y-106000000D02*
X94500000Y-106000000D01*
X94250000Y-113500000D02*
X85250000Y-113500000D01*
X94250000Y-113500000D02*
X94500000Y-113500000D01*
X94500000Y-106000000D02*
X94500000Y-106250000D01*
X94500000Y-106250000D02*
X94500000Y-113250000D01*
X94500000Y-113500000D02*
X94500000Y-113250000D01*
%TO.C,REF\u002A\u002A*%
X47050000Y-38100000D02*
G75*
G02*
X41850000Y-38100000I-2600000J0D01*
G01*
X41850000Y-38100000D02*
G75*
G02*
X47050000Y-38100000I2600000J0D01*
G01*
%TO.C,R26*%
X66495000Y-82830000D02*
X68355000Y-82830000D01*
X68355000Y-83770000D01*
X66495000Y-83770000D01*
X66495000Y-82830000D01*
%TO.C,C5*%
X48350000Y-76805000D02*
X49050000Y-76805000D01*
X49050000Y-78205000D01*
X48350000Y-78205000D01*
X48350000Y-76805000D01*
%TO.C,F3*%
X133720000Y-79370000D02*
X138280000Y-79370000D01*
X138280000Y-81630000D01*
X133720000Y-81630000D01*
X133720000Y-79370000D01*
%TO.C,J3*%
X71730000Y-67670000D02*
X75270000Y-67670000D01*
X75270000Y-78830000D01*
X71730000Y-78830000D01*
X71730000Y-67670000D01*
%TO.C,R2*%
D11*
X99133800Y-58434600D02*
X102093800Y-58434600D01*
X102093800Y-59894600D01*
X99133800Y-59894600D01*
X99133800Y-58434600D01*
%TO.C,C32*%
D10*
X55520000Y-53300000D02*
X57480000Y-53300000D01*
X57480000Y-56700000D01*
X55520000Y-56700000D01*
X55520000Y-53300000D01*
%TO.C,C27*%
D11*
X72020000Y-52419493D02*
X75420000Y-52419493D01*
X75420000Y-54379493D01*
X72020000Y-54379493D01*
X72020000Y-52419493D01*
%TO.C,F5*%
D10*
X133420000Y-113370000D02*
X137980000Y-113370000D01*
X137980000Y-115630000D01*
X133420000Y-115630000D01*
X133420000Y-113370000D01*
%TD*%
M02*
