%TF.GenerationSoftware,KiCad,Pcbnew,10.0.3*%
%TF.CreationDate,2026-07-31T00:23:00-07:00*%
%TF.ProjectId,48VERelay,34385645-5265-46c6-9179-2e6b69636164,rev?*%
%TF.SameCoordinates,Original*%
%TF.FileFunction,Legend,Bot*%
%TF.FilePolarity,Positive*%
%FSLAX46Y46*%
G04 Gerber Fmt 4.6, Leading zero omitted, Abs format (unit mm)*
G04 Created by KiCad (PCBNEW 10.0.3) date 2026-07-31 00:23:00*
%MOMM*%
%LPD*%
G01*
G04 APERTURE LIST*
%ADD10C,0.050000*%
%ADD11C,0.037500*%
%ADD12C,0.075000*%
%ADD13C,0.025000*%
%ADD14C,0.120000*%
G04 APERTURE END LIST*
D10*
X54420876Y-72741428D02*
X54430400Y-72731904D01*
X54430400Y-72731904D02*
X54439923Y-72703333D01*
X54439923Y-72703333D02*
X54439923Y-72684285D01*
X54439923Y-72684285D02*
X54430400Y-72655714D01*
X54430400Y-72655714D02*
X54411352Y-72636666D01*
X54411352Y-72636666D02*
X54392304Y-72627143D01*
X54392304Y-72627143D02*
X54354209Y-72617619D01*
X54354209Y-72617619D02*
X54325638Y-72617619D01*
X54325638Y-72617619D02*
X54287542Y-72627143D01*
X54287542Y-72627143D02*
X54268495Y-72636666D01*
X54268495Y-72636666D02*
X54249447Y-72655714D01*
X54249447Y-72655714D02*
X54239923Y-72684285D01*
X54239923Y-72684285D02*
X54239923Y-72703333D01*
X54239923Y-72703333D02*
X54249447Y-72731904D01*
X54249447Y-72731904D02*
X54258971Y-72741428D01*
X54439923Y-72931904D02*
X54439923Y-72817619D01*
X54439923Y-72874762D02*
X54239923Y-72874762D01*
X54239923Y-72874762D02*
X54268495Y-72855714D01*
X54268495Y-72855714D02*
X54287542Y-72836666D01*
X54287542Y-72836666D02*
X54297066Y-72817619D01*
X54239923Y-73112857D02*
X54239923Y-73017619D01*
X54239923Y-73017619D02*
X54335161Y-73008095D01*
X54335161Y-73008095D02*
X54325638Y-73017619D01*
X54325638Y-73017619D02*
X54316114Y-73036666D01*
X54316114Y-73036666D02*
X54316114Y-73084285D01*
X54316114Y-73084285D02*
X54325638Y-73103333D01*
X54325638Y-73103333D02*
X54335161Y-73112857D01*
X54335161Y-73112857D02*
X54354209Y-73122380D01*
X54354209Y-73122380D02*
X54401828Y-73122380D01*
X54401828Y-73122380D02*
X54420876Y-73112857D01*
X54420876Y-73112857D02*
X54430400Y-73103333D01*
X54430400Y-73103333D02*
X54439923Y-73084285D01*
X54439923Y-73084285D02*
X54439923Y-73036666D01*
X54439923Y-73036666D02*
X54430400Y-73017619D01*
X54430400Y-73017619D02*
X54420876Y-73008095D01*
X51578571Y-79420876D02*
X51588095Y-79430400D01*
X51588095Y-79430400D02*
X51616666Y-79439923D01*
X51616666Y-79439923D02*
X51635714Y-79439923D01*
X51635714Y-79439923D02*
X51664285Y-79430400D01*
X51664285Y-79430400D02*
X51683333Y-79411352D01*
X51683333Y-79411352D02*
X51692856Y-79392304D01*
X51692856Y-79392304D02*
X51702380Y-79354209D01*
X51702380Y-79354209D02*
X51702380Y-79325638D01*
X51702380Y-79325638D02*
X51692856Y-79287542D01*
X51692856Y-79287542D02*
X51683333Y-79268495D01*
X51683333Y-79268495D02*
X51664285Y-79249447D01*
X51664285Y-79249447D02*
X51635714Y-79239923D01*
X51635714Y-79239923D02*
X51616666Y-79239923D01*
X51616666Y-79239923D02*
X51588095Y-79249447D01*
X51588095Y-79249447D02*
X51578571Y-79258971D01*
X51502380Y-79258971D02*
X51492856Y-79249447D01*
X51492856Y-79249447D02*
X51473809Y-79239923D01*
X51473809Y-79239923D02*
X51426190Y-79239923D01*
X51426190Y-79239923D02*
X51407142Y-79249447D01*
X51407142Y-79249447D02*
X51397618Y-79258971D01*
X51397618Y-79258971D02*
X51388095Y-79278019D01*
X51388095Y-79278019D02*
X51388095Y-79297066D01*
X51388095Y-79297066D02*
X51397618Y-79325638D01*
X51397618Y-79325638D02*
X51511904Y-79439923D01*
X51511904Y-79439923D02*
X51388095Y-79439923D01*
X51321428Y-79239923D02*
X51197619Y-79239923D01*
X51197619Y-79239923D02*
X51264285Y-79316114D01*
X51264285Y-79316114D02*
X51235714Y-79316114D01*
X51235714Y-79316114D02*
X51216666Y-79325638D01*
X51216666Y-79325638D02*
X51207142Y-79335161D01*
X51207142Y-79335161D02*
X51197619Y-79354209D01*
X51197619Y-79354209D02*
X51197619Y-79401828D01*
X51197619Y-79401828D02*
X51207142Y-79420876D01*
X51207142Y-79420876D02*
X51216666Y-79430400D01*
X51216666Y-79430400D02*
X51235714Y-79439923D01*
X51235714Y-79439923D02*
X51292857Y-79439923D01*
X51292857Y-79439923D02*
X51311904Y-79430400D01*
X51311904Y-79430400D02*
X51321428Y-79420876D01*
X64128571Y-96889923D02*
X64195237Y-96794685D01*
X64242856Y-96889923D02*
X64242856Y-96689923D01*
X64242856Y-96689923D02*
X64166666Y-96689923D01*
X64166666Y-96689923D02*
X64147618Y-96699447D01*
X64147618Y-96699447D02*
X64138095Y-96708971D01*
X64138095Y-96708971D02*
X64128571Y-96728019D01*
X64128571Y-96728019D02*
X64128571Y-96756590D01*
X64128571Y-96756590D02*
X64138095Y-96775638D01*
X64138095Y-96775638D02*
X64147618Y-96785161D01*
X64147618Y-96785161D02*
X64166666Y-96794685D01*
X64166666Y-96794685D02*
X64242856Y-96794685D01*
X64052380Y-96708971D02*
X64042856Y-96699447D01*
X64042856Y-96699447D02*
X64023809Y-96689923D01*
X64023809Y-96689923D02*
X63976190Y-96689923D01*
X63976190Y-96689923D02*
X63957142Y-96699447D01*
X63957142Y-96699447D02*
X63947618Y-96708971D01*
X63947618Y-96708971D02*
X63938095Y-96728019D01*
X63938095Y-96728019D02*
X63938095Y-96747066D01*
X63938095Y-96747066D02*
X63947618Y-96775638D01*
X63947618Y-96775638D02*
X64061904Y-96889923D01*
X64061904Y-96889923D02*
X63938095Y-96889923D01*
X63814285Y-96689923D02*
X63795238Y-96689923D01*
X63795238Y-96689923D02*
X63776190Y-96699447D01*
X63776190Y-96699447D02*
X63766666Y-96708971D01*
X63766666Y-96708971D02*
X63757142Y-96728019D01*
X63757142Y-96728019D02*
X63747619Y-96766114D01*
X63747619Y-96766114D02*
X63747619Y-96813733D01*
X63747619Y-96813733D02*
X63757142Y-96851828D01*
X63757142Y-96851828D02*
X63766666Y-96870876D01*
X63766666Y-96870876D02*
X63776190Y-96880400D01*
X63776190Y-96880400D02*
X63795238Y-96889923D01*
X63795238Y-96889923D02*
X63814285Y-96889923D01*
X63814285Y-96889923D02*
X63833333Y-96880400D01*
X63833333Y-96880400D02*
X63842857Y-96870876D01*
X63842857Y-96870876D02*
X63852380Y-96851828D01*
X63852380Y-96851828D02*
X63861904Y-96813733D01*
X63861904Y-96813733D02*
X63861904Y-96766114D01*
X63861904Y-96766114D02*
X63852380Y-96728019D01*
X63852380Y-96728019D02*
X63842857Y-96708971D01*
X63842857Y-96708971D02*
X63833333Y-96699447D01*
X63833333Y-96699447D02*
X63814285Y-96689923D01*
D11*
X51496428Y-76503157D02*
X51503571Y-76510300D01*
X51503571Y-76510300D02*
X51524999Y-76517442D01*
X51524999Y-76517442D02*
X51539285Y-76517442D01*
X51539285Y-76517442D02*
X51560714Y-76510300D01*
X51560714Y-76510300D02*
X51574999Y-76496014D01*
X51574999Y-76496014D02*
X51582142Y-76481728D01*
X51582142Y-76481728D02*
X51589285Y-76453157D01*
X51589285Y-76453157D02*
X51589285Y-76431728D01*
X51589285Y-76431728D02*
X51582142Y-76403157D01*
X51582142Y-76403157D02*
X51574999Y-76388871D01*
X51574999Y-76388871D02*
X51560714Y-76374585D01*
X51560714Y-76374585D02*
X51539285Y-76367442D01*
X51539285Y-76367442D02*
X51524999Y-76367442D01*
X51524999Y-76367442D02*
X51503571Y-76374585D01*
X51503571Y-76374585D02*
X51496428Y-76381728D01*
X51353571Y-76517442D02*
X51439285Y-76517442D01*
X51396428Y-76517442D02*
X51396428Y-76367442D01*
X51396428Y-76367442D02*
X51410714Y-76388871D01*
X51410714Y-76388871D02*
X51424999Y-76403157D01*
X51424999Y-76403157D02*
X51439285Y-76410300D01*
X51225000Y-76417442D02*
X51225000Y-76517442D01*
X51260714Y-76360300D02*
X51296428Y-76467442D01*
X51296428Y-76467442D02*
X51203571Y-76467442D01*
D12*
X45342856Y-76636885D02*
X45157142Y-76636885D01*
X45157142Y-76636885D02*
X45257142Y-76751171D01*
X45257142Y-76751171D02*
X45214285Y-76751171D01*
X45214285Y-76751171D02*
X45185714Y-76765457D01*
X45185714Y-76765457D02*
X45171428Y-76779742D01*
X45171428Y-76779742D02*
X45157142Y-76808314D01*
X45157142Y-76808314D02*
X45157142Y-76879742D01*
X45157142Y-76879742D02*
X45171428Y-76908314D01*
X45171428Y-76908314D02*
X45185714Y-76922600D01*
X45185714Y-76922600D02*
X45214285Y-76936885D01*
X45214285Y-76936885D02*
X45299999Y-76936885D01*
X45299999Y-76936885D02*
X45328571Y-76922600D01*
X45328571Y-76922600D02*
X45342856Y-76908314D01*
X45071428Y-76636885D02*
X44971428Y-76936885D01*
X44971428Y-76936885D02*
X44871428Y-76636885D01*
X44799999Y-76636885D02*
X44614285Y-76636885D01*
X44614285Y-76636885D02*
X44714285Y-76751171D01*
X44714285Y-76751171D02*
X44671428Y-76751171D01*
X44671428Y-76751171D02*
X44642857Y-76765457D01*
X44642857Y-76765457D02*
X44628571Y-76779742D01*
X44628571Y-76779742D02*
X44614285Y-76808314D01*
X44614285Y-76808314D02*
X44614285Y-76879742D01*
X44614285Y-76879742D02*
X44628571Y-76908314D01*
X44628571Y-76908314D02*
X44642857Y-76922600D01*
X44642857Y-76922600D02*
X44671428Y-76936885D01*
X44671428Y-76936885D02*
X44757142Y-76936885D01*
X44757142Y-76936885D02*
X44785714Y-76922600D01*
X44785714Y-76922600D02*
X44799999Y-76908314D01*
X44257143Y-76779742D02*
X44157143Y-76779742D01*
X44114286Y-76936885D02*
X44257143Y-76936885D01*
X44257143Y-76936885D02*
X44257143Y-76636885D01*
X44257143Y-76636885D02*
X44114286Y-76636885D01*
X44028571Y-76736885D02*
X43914285Y-76736885D01*
X43985714Y-76636885D02*
X43985714Y-76894028D01*
X43985714Y-76894028D02*
X43971428Y-76922600D01*
X43971428Y-76922600D02*
X43942857Y-76936885D01*
X43942857Y-76936885D02*
X43914285Y-76936885D01*
X43814285Y-76936885D02*
X43814285Y-76636885D01*
X43685714Y-76936885D02*
X43685714Y-76779742D01*
X43685714Y-76779742D02*
X43699999Y-76751171D01*
X43699999Y-76751171D02*
X43728571Y-76736885D01*
X43728571Y-76736885D02*
X43771428Y-76736885D01*
X43771428Y-76736885D02*
X43799999Y-76751171D01*
X43799999Y-76751171D02*
X43814285Y-76765457D01*
D11*
X51446428Y-78403157D02*
X51453571Y-78410300D01*
X51453571Y-78410300D02*
X51474999Y-78417442D01*
X51474999Y-78417442D02*
X51489285Y-78417442D01*
X51489285Y-78417442D02*
X51510714Y-78410300D01*
X51510714Y-78410300D02*
X51524999Y-78396014D01*
X51524999Y-78396014D02*
X51532142Y-78381728D01*
X51532142Y-78381728D02*
X51539285Y-78353157D01*
X51539285Y-78353157D02*
X51539285Y-78331728D01*
X51539285Y-78331728D02*
X51532142Y-78303157D01*
X51532142Y-78303157D02*
X51524999Y-78288871D01*
X51524999Y-78288871D02*
X51510714Y-78274585D01*
X51510714Y-78274585D02*
X51489285Y-78267442D01*
X51489285Y-78267442D02*
X51474999Y-78267442D01*
X51474999Y-78267442D02*
X51453571Y-78274585D01*
X51453571Y-78274585D02*
X51446428Y-78281728D01*
X51303571Y-78417442D02*
X51389285Y-78417442D01*
X51346428Y-78417442D02*
X51346428Y-78267442D01*
X51346428Y-78267442D02*
X51360714Y-78288871D01*
X51360714Y-78288871D02*
X51374999Y-78303157D01*
X51374999Y-78303157D02*
X51389285Y-78310300D01*
X51160714Y-78417442D02*
X51246428Y-78417442D01*
X51203571Y-78417442D02*
X51203571Y-78267442D01*
X51203571Y-78267442D02*
X51217857Y-78288871D01*
X51217857Y-78288871D02*
X51232142Y-78303157D01*
X51232142Y-78303157D02*
X51246428Y-78310300D01*
D12*
X50249999Y-68636885D02*
X50064285Y-68636885D01*
X50064285Y-68636885D02*
X50164285Y-68751171D01*
X50164285Y-68751171D02*
X50121428Y-68751171D01*
X50121428Y-68751171D02*
X50092857Y-68765457D01*
X50092857Y-68765457D02*
X50078571Y-68779742D01*
X50078571Y-68779742D02*
X50064285Y-68808314D01*
X50064285Y-68808314D02*
X50064285Y-68879742D01*
X50064285Y-68879742D02*
X50078571Y-68908314D01*
X50078571Y-68908314D02*
X50092857Y-68922600D01*
X50092857Y-68922600D02*
X50121428Y-68936885D01*
X50121428Y-68936885D02*
X50207142Y-68936885D01*
X50207142Y-68936885D02*
X50235714Y-68922600D01*
X50235714Y-68922600D02*
X50249999Y-68908314D01*
X49978571Y-68636885D02*
X49878571Y-68936885D01*
X49878571Y-68936885D02*
X49778571Y-68636885D01*
X49707142Y-68636885D02*
X49521428Y-68636885D01*
X49521428Y-68636885D02*
X49621428Y-68751171D01*
X49621428Y-68751171D02*
X49578571Y-68751171D01*
X49578571Y-68751171D02*
X49550000Y-68765457D01*
X49550000Y-68765457D02*
X49535714Y-68779742D01*
X49535714Y-68779742D02*
X49521428Y-68808314D01*
X49521428Y-68808314D02*
X49521428Y-68879742D01*
X49521428Y-68879742D02*
X49535714Y-68908314D01*
X49535714Y-68908314D02*
X49550000Y-68922600D01*
X49550000Y-68922600D02*
X49578571Y-68936885D01*
X49578571Y-68936885D02*
X49664285Y-68936885D01*
X49664285Y-68936885D02*
X49692857Y-68922600D01*
X49692857Y-68922600D02*
X49707142Y-68908314D01*
X49407143Y-68851171D02*
X49264286Y-68851171D01*
X49435714Y-68936885D02*
X49335714Y-68636885D01*
X49335714Y-68636885D02*
X49235714Y-68936885D01*
D13*
X55138638Y-72785714D02*
X55143400Y-72780952D01*
X55143400Y-72780952D02*
X55148161Y-72766666D01*
X55148161Y-72766666D02*
X55148161Y-72757142D01*
X55148161Y-72757142D02*
X55143400Y-72742857D01*
X55143400Y-72742857D02*
X55133876Y-72733333D01*
X55133876Y-72733333D02*
X55124352Y-72728571D01*
X55124352Y-72728571D02*
X55105304Y-72723809D01*
X55105304Y-72723809D02*
X55091019Y-72723809D01*
X55091019Y-72723809D02*
X55071971Y-72728571D01*
X55071971Y-72728571D02*
X55062447Y-72733333D01*
X55062447Y-72733333D02*
X55052923Y-72742857D01*
X55052923Y-72742857D02*
X55048161Y-72757142D01*
X55048161Y-72757142D02*
X55048161Y-72766666D01*
X55048161Y-72766666D02*
X55052923Y-72780952D01*
X55052923Y-72780952D02*
X55057685Y-72785714D01*
X55148161Y-72880952D02*
X55148161Y-72823809D01*
X55148161Y-72852381D02*
X55048161Y-72852381D01*
X55048161Y-72852381D02*
X55062447Y-72842857D01*
X55062447Y-72842857D02*
X55071971Y-72833333D01*
X55071971Y-72833333D02*
X55076733Y-72823809D01*
X55057685Y-72919047D02*
X55052923Y-72923809D01*
X55052923Y-72923809D02*
X55048161Y-72933333D01*
X55048161Y-72933333D02*
X55048161Y-72957142D01*
X55048161Y-72957142D02*
X55052923Y-72966666D01*
X55052923Y-72966666D02*
X55057685Y-72971428D01*
X55057685Y-72971428D02*
X55067209Y-72976190D01*
X55067209Y-72976190D02*
X55076733Y-72976190D01*
X55076733Y-72976190D02*
X55091019Y-72971428D01*
X55091019Y-72971428D02*
X55148161Y-72914285D01*
X55148161Y-72914285D02*
X55148161Y-72976190D01*
X50317807Y-72706371D02*
X50324950Y-72699228D01*
X50324950Y-72699228D02*
X50332092Y-72677800D01*
X50332092Y-72677800D02*
X50332092Y-72663514D01*
X50332092Y-72663514D02*
X50324950Y-72642085D01*
X50324950Y-72642085D02*
X50310664Y-72627800D01*
X50310664Y-72627800D02*
X50296378Y-72620657D01*
X50296378Y-72620657D02*
X50267807Y-72613514D01*
X50267807Y-72613514D02*
X50246378Y-72613514D01*
X50246378Y-72613514D02*
X50217807Y-72620657D01*
X50217807Y-72620657D02*
X50203521Y-72627800D01*
X50203521Y-72627800D02*
X50189235Y-72642085D01*
X50189235Y-72642085D02*
X50182092Y-72663514D01*
X50182092Y-72663514D02*
X50182092Y-72677800D01*
X50182092Y-72677800D02*
X50189235Y-72699228D01*
X50189235Y-72699228D02*
X50196378Y-72706371D01*
X50332092Y-72849228D02*
X50332092Y-72763514D01*
X50332092Y-72806371D02*
X50182092Y-72806371D01*
X50182092Y-72806371D02*
X50203521Y-72792085D01*
X50203521Y-72792085D02*
X50217807Y-72777800D01*
X50217807Y-72777800D02*
X50224950Y-72763514D01*
X50182092Y-72899228D02*
X50182092Y-72992085D01*
X50182092Y-72992085D02*
X50239235Y-72942085D01*
X50239235Y-72942085D02*
X50239235Y-72963514D01*
X50239235Y-72963514D02*
X50246378Y-72977800D01*
X50246378Y-72977800D02*
X50253521Y-72984942D01*
X50253521Y-72984942D02*
X50267807Y-72992085D01*
X50267807Y-72992085D02*
X50303521Y-72992085D01*
X50303521Y-72992085D02*
X50317807Y-72984942D01*
X50317807Y-72984942D02*
X50324950Y-72977800D01*
X50324950Y-72977800D02*
X50332092Y-72963514D01*
X50332092Y-72963514D02*
X50332092Y-72920657D01*
X50332092Y-72920657D02*
X50324950Y-72906371D01*
X50324950Y-72906371D02*
X50317807Y-72899228D01*
X51966666Y-81715438D02*
X51971428Y-81720200D01*
X51971428Y-81720200D02*
X51985714Y-81724961D01*
X51985714Y-81724961D02*
X51995238Y-81724961D01*
X51995238Y-81724961D02*
X52009523Y-81720200D01*
X52009523Y-81720200D02*
X52019047Y-81710676D01*
X52019047Y-81710676D02*
X52023809Y-81701152D01*
X52023809Y-81701152D02*
X52028571Y-81682104D01*
X52028571Y-81682104D02*
X52028571Y-81667819D01*
X52028571Y-81667819D02*
X52023809Y-81648771D01*
X52023809Y-81648771D02*
X52019047Y-81639247D01*
X52019047Y-81639247D02*
X52009523Y-81629723D01*
X52009523Y-81629723D02*
X51995238Y-81624961D01*
X51995238Y-81624961D02*
X51985714Y-81624961D01*
X51985714Y-81624961D02*
X51971428Y-81629723D01*
X51971428Y-81629723D02*
X51966666Y-81634485D01*
X51933333Y-81624961D02*
X51866666Y-81624961D01*
X51866666Y-81624961D02*
X51909523Y-81724961D01*
D10*
X51618571Y-75470876D02*
X51628095Y-75480400D01*
X51628095Y-75480400D02*
X51656666Y-75489923D01*
X51656666Y-75489923D02*
X51675714Y-75489923D01*
X51675714Y-75489923D02*
X51704285Y-75480400D01*
X51704285Y-75480400D02*
X51723333Y-75461352D01*
X51723333Y-75461352D02*
X51732856Y-75442304D01*
X51732856Y-75442304D02*
X51742380Y-75404209D01*
X51742380Y-75404209D02*
X51742380Y-75375638D01*
X51742380Y-75375638D02*
X51732856Y-75337542D01*
X51732856Y-75337542D02*
X51723333Y-75318495D01*
X51723333Y-75318495D02*
X51704285Y-75299447D01*
X51704285Y-75299447D02*
X51675714Y-75289923D01*
X51675714Y-75289923D02*
X51656666Y-75289923D01*
X51656666Y-75289923D02*
X51628095Y-75299447D01*
X51628095Y-75299447D02*
X51618571Y-75308971D01*
X51428095Y-75489923D02*
X51542380Y-75489923D01*
X51485237Y-75489923D02*
X51485237Y-75289923D01*
X51485237Y-75289923D02*
X51504285Y-75318495D01*
X51504285Y-75318495D02*
X51523333Y-75337542D01*
X51523333Y-75337542D02*
X51542380Y-75347066D01*
X51256666Y-75289923D02*
X51294761Y-75289923D01*
X51294761Y-75289923D02*
X51313809Y-75299447D01*
X51313809Y-75299447D02*
X51323333Y-75308971D01*
X51323333Y-75308971D02*
X51342380Y-75337542D01*
X51342380Y-75337542D02*
X51351904Y-75375638D01*
X51351904Y-75375638D02*
X51351904Y-75451828D01*
X51351904Y-75451828D02*
X51342380Y-75470876D01*
X51342380Y-75470876D02*
X51332857Y-75480400D01*
X51332857Y-75480400D02*
X51313809Y-75489923D01*
X51313809Y-75489923D02*
X51275714Y-75489923D01*
X51275714Y-75489923D02*
X51256666Y-75480400D01*
X51256666Y-75480400D02*
X51247142Y-75470876D01*
X51247142Y-75470876D02*
X51237619Y-75451828D01*
X51237619Y-75451828D02*
X51237619Y-75404209D01*
X51237619Y-75404209D02*
X51247142Y-75385161D01*
X51247142Y-75385161D02*
X51256666Y-75375638D01*
X51256666Y-75375638D02*
X51275714Y-75366114D01*
X51275714Y-75366114D02*
X51313809Y-75366114D01*
X51313809Y-75366114D02*
X51332857Y-75375638D01*
X51332857Y-75375638D02*
X51342380Y-75385161D01*
X51342380Y-75385161D02*
X51351904Y-75404209D01*
X52589923Y-70291666D02*
X52494685Y-70225000D01*
X52589923Y-70177381D02*
X52389923Y-70177381D01*
X52389923Y-70177381D02*
X52389923Y-70253571D01*
X52389923Y-70253571D02*
X52399447Y-70272619D01*
X52399447Y-70272619D02*
X52408971Y-70282142D01*
X52408971Y-70282142D02*
X52428019Y-70291666D01*
X52428019Y-70291666D02*
X52456590Y-70291666D01*
X52456590Y-70291666D02*
X52475638Y-70282142D01*
X52475638Y-70282142D02*
X52485161Y-70272619D01*
X52485161Y-70272619D02*
X52494685Y-70253571D01*
X52494685Y-70253571D02*
X52494685Y-70177381D01*
X52389923Y-70463095D02*
X52389923Y-70425000D01*
X52389923Y-70425000D02*
X52399447Y-70405952D01*
X52399447Y-70405952D02*
X52408971Y-70396428D01*
X52408971Y-70396428D02*
X52437542Y-70377381D01*
X52437542Y-70377381D02*
X52475638Y-70367857D01*
X52475638Y-70367857D02*
X52551828Y-70367857D01*
X52551828Y-70367857D02*
X52570876Y-70377381D01*
X52570876Y-70377381D02*
X52580400Y-70386904D01*
X52580400Y-70386904D02*
X52589923Y-70405952D01*
X52589923Y-70405952D02*
X52589923Y-70444047D01*
X52589923Y-70444047D02*
X52580400Y-70463095D01*
X52580400Y-70463095D02*
X52570876Y-70472619D01*
X52570876Y-70472619D02*
X52551828Y-70482142D01*
X52551828Y-70482142D02*
X52504209Y-70482142D01*
X52504209Y-70482142D02*
X52485161Y-70472619D01*
X52485161Y-70472619D02*
X52475638Y-70463095D01*
X52475638Y-70463095D02*
X52466114Y-70444047D01*
X52466114Y-70444047D02*
X52466114Y-70405952D01*
X52466114Y-70405952D02*
X52475638Y-70386904D01*
X52475638Y-70386904D02*
X52485161Y-70377381D01*
X52485161Y-70377381D02*
X52504209Y-70367857D01*
X65520876Y-109066666D02*
X65530400Y-109057142D01*
X65530400Y-109057142D02*
X65539923Y-109028571D01*
X65539923Y-109028571D02*
X65539923Y-109009523D01*
X65539923Y-109009523D02*
X65530400Y-108980952D01*
X65530400Y-108980952D02*
X65511352Y-108961904D01*
X65511352Y-108961904D02*
X65492304Y-108952381D01*
X65492304Y-108952381D02*
X65454209Y-108942857D01*
X65454209Y-108942857D02*
X65425638Y-108942857D01*
X65425638Y-108942857D02*
X65387542Y-108952381D01*
X65387542Y-108952381D02*
X65368495Y-108961904D01*
X65368495Y-108961904D02*
X65349447Y-108980952D01*
X65349447Y-108980952D02*
X65339923Y-109009523D01*
X65339923Y-109009523D02*
X65339923Y-109028571D01*
X65339923Y-109028571D02*
X65349447Y-109057142D01*
X65349447Y-109057142D02*
X65358971Y-109066666D01*
X65339923Y-109238095D02*
X65339923Y-109200000D01*
X65339923Y-109200000D02*
X65349447Y-109180952D01*
X65349447Y-109180952D02*
X65358971Y-109171428D01*
X65358971Y-109171428D02*
X65387542Y-109152381D01*
X65387542Y-109152381D02*
X65425638Y-109142857D01*
X65425638Y-109142857D02*
X65501828Y-109142857D01*
X65501828Y-109142857D02*
X65520876Y-109152381D01*
X65520876Y-109152381D02*
X65530400Y-109161904D01*
X65530400Y-109161904D02*
X65539923Y-109180952D01*
X65539923Y-109180952D02*
X65539923Y-109219047D01*
X65539923Y-109219047D02*
X65530400Y-109238095D01*
X65530400Y-109238095D02*
X65520876Y-109247619D01*
X65520876Y-109247619D02*
X65501828Y-109257142D01*
X65501828Y-109257142D02*
X65454209Y-109257142D01*
X65454209Y-109257142D02*
X65435161Y-109247619D01*
X65435161Y-109247619D02*
X65425638Y-109238095D01*
X65425638Y-109238095D02*
X65416114Y-109219047D01*
X65416114Y-109219047D02*
X65416114Y-109180952D01*
X65416114Y-109180952D02*
X65425638Y-109161904D01*
X65425638Y-109161904D02*
X65435161Y-109152381D01*
X65435161Y-109152381D02*
X65454209Y-109142857D01*
%TO.C,C15*%
D14*
X53340000Y-72762164D02*
X53340000Y-72977836D01*
X54060000Y-72762164D02*
X54060000Y-72977836D01*
%TO.C,C14*%
X50112164Y-75990000D02*
X50327836Y-75990000D01*
X50112164Y-76710000D02*
X50327836Y-76710000D01*
%TO.C,3V3 Eth*%
X45200000Y-78250000D02*
G75*
G02*
X43800000Y-78250000I-700000J0D01*
G01*
X43800000Y-78250000D02*
G75*
G02*
X45200000Y-78250000I700000J0D01*
G01*
%TO.C,C11*%
X50092164Y-77990000D02*
X50307836Y-77990000D01*
X50092164Y-78710000D02*
X50307836Y-78710000D01*
%TO.C,3V3A*%
X50450000Y-70250000D02*
G75*
G02*
X49050000Y-70250000I-700000J0D01*
G01*
X49050000Y-70250000D02*
G75*
G02*
X50450000Y-70250000I700000J0D01*
G01*
%TO.C,C12*%
X55340000Y-72742164D02*
X55340000Y-72957836D01*
X56060000Y-72742164D02*
X56060000Y-72957836D01*
%TO.C,C13*%
X50604000Y-72694964D02*
X50604000Y-72910636D01*
X51324000Y-72694964D02*
X51324000Y-72910636D01*
%TO.C,C16*%
X50112164Y-74990000D02*
X50327836Y-74990000D01*
X50112164Y-75710000D02*
X50327836Y-75710000D01*
%TO.C,R6*%
X51370000Y-70153641D02*
X51370000Y-69846359D01*
X52130000Y-70153641D02*
X52130000Y-69846359D01*
%TD*%
M02*
